  0
SECTION
  2
HEADER
  9
$ACADVER
  1
AC1018
  9
$ACADMAINTVER
 70
     0
  9
$DWGCODEPAGE
  3
ANSI_1252
  9
$INSBASE
 10
0.0
 20
0.0
 30
0.0
  9
$EXTMIN
 10
1.000000000000000E+20
 20
1.000000000000000E+20
 30
1.000000000000000E+20
  9
$EXTMAX
 10
-1.000000000000000E+20
 20
-1.000000000000000E+20
 30
-1.000000000000000E+20
  9
$LIMMIN
 10
0.0
 20
0.0
  9
$LIMMAX
 10
12.0
 20
9.0
  9
$ORTHOMODE
 70
     0
  9
$REGENMODE
 70
     1
  9
$FILLMODE
 70
     1
  9
$QTEXTMODE
 70
     0
  9
$MIRRTEXT
 70
     1
  9
$LTSCALE
 40
1.0
  9
$ATTMODE
 70
     1
  9
$TEXTSIZE
 40
0.2
  9
$TRACEWID
 40
0.05
  9
$TEXTSTYLE
  7
Standard
  9
$CLAYER
  8
0
  9
$CELTYPE
  6
ByLayer
  9
$CECOLOR
 62
   256
  9
$CELTSCALE
 40
1.0
  9
$DISPSILH
 70
     0
  9
$DIMSCALE
 40
1.0
  9
$DIMASZ
 40
0.18
  9
$DIMEXO
 40
0.0625
  9
$DIMDLI
 40
0.38
  9
$DIMRND
 40
0.0
  9
$DIMDLE
 40
0.0
  9
$DIMEXE
 40
0.18
  9
$DIMTP
 40
0.0
  9
$DIMTM
 40
0.0
  9
$DIMTXT
 40
0.18
  9
$DIMCEN
 40
0.09
  9
$DIMTSZ
 40
0.0
  9
$DIMTOL
 70
     0
  9
$DIMLIM
 70
     0
  9
$DIMTIH
 70
     1
  9
$DIMTOH
 70
     1
  9
$DIMSE1
 70
     0
  9
$DIMSE2
 70
     0
  9
$DIMTAD
 70
     0
  9
$DIMZIN
 70
     0
  9
$DIMBLK
  1

  9
$DIMASO
 70
     1
  9
$DIMSHO
 70
     1
  9
$DIMPOST
  1

  9
$DIMAPOST
  1

  9
$DIMALT
 70
     0
  9
$DIMALTD
 70
     2
  9
$DIMALTF
 40
25.4
  9
$DIMLFAC
 40
1.0
  9
$DIMTOFL
 70
     0
  9
$DIMTVP
 40
0.0
  9
$DIMTIX
 70
     0
  9
$DIMSOXD
 70
     0
  9
$DIMSAH
 70
     0
  9
$DIMBLK1
  1

  9
$DIMBLK2
  1

  9
$DIMSTYLE
  2
Standard
  9
$DIMCLRD
 70
     0
  9
$DIMCLRE
 70
     0
  9
$DIMCLRT
 70
     0
  9
$DIMTFAC
 40
1.0
  9
$DIMGAP
 40
0.09
  9
$DIMJUST
 70
     0
  9
$DIMSD1
 70
     0
  9
$DIMSD2
 70
     0
  9
$DIMTOLJ
 70
     1
  9
$DIMTZIN
 70
     0
  9
$DIMALTZ
 70
     0
  9
$DIMALTTZ
 70
     0
  9
$DIMUPT
 70
     0
  9
$DIMDEC
 70
     4
  9
$DIMTDEC
 70
     4
  9
$DIMALTU
 70
     2
  9
$DIMALTTD
 70
     2
  9
$DIMTXSTY
  7
Standard
  9
$DIMAUNIT
 70
     0
  9
$DIMADEC
 70
     0
  9
$DIMALTRND
 40
0.0
  9
$DIMAZIN
 70
     0
  9
$DIMDSEP
 70
    46
  9
$DIMATFIT
 70
     3
  9
$DIMFRAC
 70
     0
  9
$DIMLDRBLK
  1

  9
$DIMLUNIT
 70
     2
  9
$DIMLWD
 70
    -2
  9
$DIMLWE
 70
    -2
  9
$DIMTMOVE
 70
     0
  9
$LUNITS
 70
     2
  9
$LUPREC
 70
     4
  9
$SKETCHINC
 40
0.1
  9
$FILLETRAD
 40
0.5
  9
$AUNITS
 70
     0
  9
$AUPREC
 70
     0
  9
$MENU
  1
.
  9
$ELEVATION
 40
0.0
  9
$PELEVATION
 40
0.0
  9
$THICKNESS
 40
0.0
  9
$LIMCHECK
 70
     0
  9
$CHAMFERA
 40
0.5
  9
$CHAMFERB
 40
0.5
  9
$CHAMFERC
 40
1.0
  9
$CHAMFERD
 40
0.0
  9
$SKPOLY
 70
     0
  9
$TDCREATE
 40
2461164.80296294
  9
$TDUCREATE
 40
2461164.761296273
  9
$TDUPDATE
 40
2461164.802962951
  9
$TDUUPDATE
 40
2461164.761296285
  9
$TDINDWG
 40
0.0000000116
  9
$TDUSRTIMER
 40
0.0000000116
  9
$USRTIMER
 70
     1
  9
$ANGBASE
 50
0.0
  9
$ANGDIR
 70
     0
  9
$PDMODE
 70
     0
  9
$PDSIZE
 40
0.0
  9
$PLINEWID
 40
0.0
  9
$SPLFRAME
 70
     0
  9
$SPLINETYPE
 70
     6
  9
$SPLINESEGS
 70
     8
  9
$HANDSEED
  5
55
  9
$SURFTAB1
 70
     6
  9
$SURFTAB2
 70
     6
  9
$SURFTYPE
 70
     6
  9
$SURFU
 70
     6
  9
$SURFV
 70
     6
  9
$UCSBASE
  2

  9
$UCSNAME
  2

  9
$UCSORG
 10
0.0
 20
0.0
 30
0.0
  9
$UCSXDIR
 10
1.0
 20
0.0
 30
0.0
  9
$UCSYDIR
 10
0.0
 20
1.0
 30
0.0
  9
$UCSORTHOREF
  2

  9
$UCSORTHOVIEW
 70
     0
  9
$UCSORGTOP
 10
0.0
 20
0.0
 30
0.0
  9
$UCSORGBOTTOM
 10
0.0
 20
0.0
 30
0.0
  9
$UCSORGLEFT
 10
0.0
 20
0.0
 30
0.0
  9
$UCSORGRIGHT
 10
0.0
 20
0.0
 30
0.0
  9
$UCSORGFRONT
 10
0.0
 20
0.0
 30
0.0
  9
$UCSORGBACK
 10
0.0
 20
0.0
 30
0.0
  9
$PUCSBASE
  2

  9
$PUCSNAME
  2

  9
$PUCSORG
 10
0.0
 20
0.0
 30
0.0
  9
$PUCSXDIR
 10
1.0
 20
0.0
 30
0.0
  9
$PUCSYDIR
 10
0.0
 20
1.0
 30
0.0
  9
$PUCSORTHOREF
  2

  9
$PUCSORTHOVIEW
 70
     0
  9
$PUCSORGTOP
 10
0.0
 20
0.0
 30
0.0
  9
$PUCSORGBOTTOM
 10
0.0
 20
0.0
 30
0.0
  9
$PUCSORGLEFT
 10
0.0
 20
0.0
 30
0.0
  9
$PUCSORGRIGHT
 10
0.0
 20
0.0
 30
0.0
  9
$PUCSORGFRONT
 10
0.0
 20
0.0
 30
0.0
  9
$PUCSORGBACK
 10
0.0
 20
0.0
 30
0.0
  9
$USERI1
 70
     0
  9
$USERI2
 70
     0
  9
$USERI3
 70
     0
  9
$USERI4
 70
     0
  9
$USERI5
 70
     0
  9
$USERR1
 40
0.0
  9
$USERR2
 40
0.0
  9
$USERR3
 40
0.0
  9
$USERR4
 40
0.0
  9
$USERR5
 40
0.0
  9
$WORLDVIEW
 70
     1
  9
$SHADEDGE
 70
     3
  9
$SHADEDIF
 70
    70
  9
$TILEMODE
 70
     1
  9
$MAXACTVP
 70
    64
  9
$PINSBASE
 10
0.0
 20
0.0
 30
0.0
  9
$PLIMCHECK
 70
     0
  9
$PEXTMIN
 10
1.000000000000000E+20
 20
1.000000000000000E+20
 30
1.000000000000000E+20
  9
$PEXTMAX
 10
-1.000000000000000E+20
 20
-1.000000000000000E+20
 30
-1.000000000000000E+20
  9
$PLIMMIN
 10
0.0
 20
0.0
  9
$PLIMMAX
 10
12.0
 20
9.0
  9
$UNITMODE
 70
     0
  9
$VISRETAIN
 70
     1
  9
$PLINEGEN
 70
     0
  9
$PSLTSCALE
 70
     1
  9
$TREEDEPTH
 70
  3020
  9
$CMLSTYLE
  2
Standard
  9
$CMLJUST
 70
     0
  9
$CMLSCALE
 40
1.0
  9
$PROXYGRAPHICS
 70
     1
  9
$MEASUREMENT
 70
     0
  9
$CELWEIGHT
370
    -1
  9
$ENDCAPS
280
     0
  9
$JOINSTYLE
280
     0
  9
$LWDISPLAY
290
     1
  9
$INSUNITS
 70
     1
  9
$HYPERLINKBASE
  1

  9
$STYLESHEET
  1

  9
$XEDIT
290
     1
  9
$CEPSNTYPE
380
     0
  9
$PSTYLEMODE
290
     1
  9
$FINGERPRINTGUID
  2
{BEB0422B-084E-4309-B7E6-DDB5FFA96462}
  9
$VERSIONGUID
  2
{FAEB1C32-E019-11D5-929B-00C0DF256EC4}
  9
$EXTNAMES
290
     1
  9
$PSVPSCALE
 40
0.0
  9
$OLESTARTUP
290
     0
  9
$SORTENTS
280
   127
  9
$INDEXCTL
280
     0
  9
$HIDETEXT
280
     1
  9
$XCLIPFRAME
290
     0
  9
$HALOGAP
280
     0
  9
$OBSCOLOR
 70
   257
  9
$OBSLTYPE
280
     0
  9
$INTERSECTIONDISPLAY
280
     0
  9
$INTERSECTIONCOLOR
 70
   257
  9
$DIMASSOC
280
     2
  9
$PROJECTNAME
  1

  0
ENDSEC
  0
SECTION
  2
CLASSES
  0
CLASS
  1
ACDBDICTIONARYWDFLT
  2
AcDbDictionaryWithDefault
  3
ObjectDBX Classes
 90
        0
 91
        3
280
     0
281
     0
  0
CLASS
  1
VISUALSTYLE
  2
AcDbVisualStyle
  3
ObjectDBX Classes
 90
     4095
 91
        3
280
     0
281
     0
  0
ENDSEC
  0
SECTION
  2
TABLES
  0
TABLE
  2
VPORT
  5
8
330
0
100
AcDbSymbolTable
 70
     1
  0
VPORT
  5
29
330
8
100
AcDbSymbolTableRecord
100
AcDbViewportTableRecord
  2
*Active
 70
     0
 10
0.0
 20
0.0
 11
1.0
 21
1.0
 12
0.0
 22
0.0
 13
0.0
 23
0.0
 14
0.5
 24
0.5
 15
0.5
 25
0.5
 16
0.0
 26
0.0
 36
1.0
 17
49.99918754175368
 27
-24.99967989826397
 37
0.0
 40
49.99935979652794
 41
1.999993109720806
 42
50.0
 43
0.0
 44
0.0
 50
0.0
 51
0.0
 71
     0
 72
   100
 73
     1
 74
     3
 75
     0
 76
     0
 77
     0
 78
     0
281
     0
 65
     1
110
0.0
120
0.0
130
0.0
111
1.0
121
0.0
131
0.0
112
0.0
122
1.0
132
0.0
 79
     0
146
0.0
  0
ENDTAB
  0
TABLE
  2
LTYPE
  5
5
330
0
100
AcDbSymbolTable
 70
     1
  0
LTYPE
  5
14
330
5
100
AcDbSymbolTableRecord
100
AcDbLinetypeTableRecord
  2
ByBlock
 70
     0
  3

 72
    65
 73
     0
 40
0.0
  0
LTYPE
  5
15
330
5
100
AcDbSymbolTableRecord
100
AcDbLinetypeTableRecord
  2
ByLayer
 70
     0
  3

 72
    65
 73
     0
 40
0.0
  0
LTYPE
  5
16
330
5
100
AcDbSymbolTableRecord
100
AcDbLinetypeTableRecord
  2
Continuous
 70
     0
  3
Solid line
 72
    65
 73
     0
 40
0.0
  0
ENDTAB
  0
TABLE
  2
LAYER
  5
2
330
0
100
AcDbSymbolTable
 70
     2
  0
LAYER
  5
10
330
2
100
AcDbSymbolTableRecord
100
AcDbLayerTableRecord
  2
0
 70
     0
 62
     7
  6
Continuous
370
    -3
390
F
  0
LAYER
  5
3B
330
2
100
AcDbSymbolTableRecord
100
AcDbLayerTableRecord
  2
Layer 1
 70
     0
 62
     7
  6
Continuous
370
    -3
390
F
  0
ENDTAB
  0
TABLE
  2
STYLE
  5
3
330
0
100
AcDbSymbolTable
 70
     1
  0
STYLE
  5
11
330
3
100
AcDbSymbolTableRecord
100
AcDbTextStyleTableRecord
  2
Standard
 70
     0
 40
0.0
 41
1.0
 50
0.0
 71
     0
 42
0.2
  3
txt
  4

  0
ENDTAB
  0
TABLE
  2
VIEW
  5
6
330
0
100
AcDbSymbolTable
 70
     0
  0
ENDTAB
  0
TABLE
  2
UCS
  5
7
330
0
100
AcDbSymbolTable
 70
     0
  0
ENDTAB
  0
TABLE
  2
APPID
  5
9
330
0
100
AcDbSymbolTable
 70
     1
  0
APPID
  5
12
330
9
100
AcDbSymbolTableRecord
100
AcDbRegAppTableRecord
  2
ACAD
 70
     0
  0
ENDTAB
  0
TABLE
  2
DIMSTYLE
  5
A
330
0
100
AcDbSymbolTable
 70
     1
100
AcDbDimStyleTable
  0
DIMSTYLE
105
27
330
A
100
AcDbSymbolTableRecord
100
AcDbDimStyleTableRecord
  2
Standard
 70
     0
340
11
  0
ENDTAB
  0
TABLE
  2
BLOCK_RECORD
  5
1
330
0
100
AcDbSymbolTable
 70
     2
  0
BLOCK_RECORD
  5
1F
330
1
100
AcDbSymbolTableRecord
100
AcDbBlockTableRecord
  2
*Model_Space
340
22
  0
BLOCK_RECORD
  5
1B
330
1
100
AcDbSymbolTableRecord
100
AcDbBlockTableRecord
  2
*Paper_Space
340
1E
  0
BLOCK_RECORD
  5
23
330
1
100
AcDbSymbolTableRecord
100
AcDbBlockTableRecord
  2
*Paper_Space0
340
26
  0
BLOCK_RECORD
  5
3D
330
1
100
AcDbSymbolTableRecord
100
AcDbBlockTableRecord
  2
block 2
340
0
102
{BLKREFS
331
3E
102
}
  0
ENDTAB
  0
ENDSEC
  0
SECTION
  2
BLOCKS
  0
BLOCK
  5
20
330
1F
100
AcDbEntity
  8
0
100
AcDbBlockBegin
  2
*Model_Space
 70
     0
 71
     0
 10
0.0
 20
0.0
 30
0.0
  3
*Model_Space
  1

  0
ENDBLK
  5
21
330
1F
100
AcDbEntity
  8
0
100
AcDbBlockEnd
  0
BLOCK
  5
1C
330
1B
100
AcDbEntity
 67
     1
  8
0
100
AcDbBlockBegin
  2
*Paper_Space
 70
     0
 71
     0
 10
0.0
 20
0.0
 30
0.0
  3
*Paper_Space
  1

  0
ENDBLK
  5
1D
330
1B
100
AcDbEntity
 67
     1
  8
0
100
AcDbBlockEnd
  0
BLOCK
  5
24
330
23
100
AcDbEntity
  8
0
100
AcDbBlockBegin
  2
*Paper_Space0
 70
     0
 71
     0
 10
0.0
 20
0.0
 30
0.0
  3
*Paper_Space0
  1

  0
ENDBLK
  5
25
330
23
100
AcDbEntity
  8
0
100
AcDbBlockEnd
  0
BLOCK
  5
3F
330
3D
100
AcDbEntity
  8
0
100
AcDbBlockBegin
  2
block 2
 70
     0
 71
     0
 10
0.0
 20
0.0
 30
0.0
  3
block 2
  1

  0
SPLINE
  5
41
330
3D
100
AcDbEntity
  8
Layer 1
370
     0
100
AcDbSpline
210
0.0
220
0.0
230
1.0
 70
    11
 71
     3
 72
    71
 73
    67
 74
     0
 42
0.0000000001
 43
0.0000000001
 40
0.0
 40
0.0
 40
0.0
 40
0.0
 40
1.0
 40
1.0
 40
1.0
 40
2.0
 40
2.0
 40
2.0
 40
3.0
 40
3.0
 40
3.0
 40
4.0
 40
4.0
 40
4.0
 40
5.0
 40
5.0
 40
5.0
 40
6.0
 40
6.0
 40
6.0
 40
7.0
 40
7.0
 40
7.0
 40
8.0
 40
8.0
 40
8.0
 40
9.0
 40
9.0
 40
9.0
 40
10.0
 40
10.0
 40
10.0
 40
11.0
 40
11.0
 40
11.0
 40
12.0
 40
12.0
 40
12.0
 40
13.0
 40
13.0
 40
13.0
 40
14.0
 40
14.0
 40
14.0
 40
15.0
 40
15.0
 40
15.0
 40
16.0
 40
16.0
 40
16.0
 40
17.0
 40
17.0
 40
17.0
 40
18.0
 40
18.0
 40
18.0
 40
19.0
 40
19.0
 40
19.0
 40
20.0
 40
20.0
 40
20.0
 40
21.0
 40
21.0
 40
21.0
 40
22.0
 40
22.0
 40
22.0
 40
22.0
 10
27.74059786632874
 20
-21.39869384230658
 30
0.0
 10
27.74059786632874
 20
-21.88135171979008
 30
0.0
 10
26.69914550113771
 20
-23.02443440179598
 30
0.0
 10
24.42142062106479
 20
-23.1515584252017
 30
0.0
 10
23.81181097494983
 20
-23.18532036095714
 30
0.0
 10
22.96500650467542
 20
-22.98223198210167
 30
0.0
 10
22.96500650467542
 20
-22.21156412205127
 30
0.0
 10
22.96500650467542
 20
-21.94060736213638
 30
0.0
 10
22.92263183020684
 20
-21.89840494244207
 30
0.0
 10
23.90482855305157
 20
-20.60287678521387
 30
0.0
 10
23.66780598366638
 20
-20.58582356256188
 30
0.0
 10
23.12589246383658
 20
-20.56050211074529
 30
0.0
 10
23.12589246383658
 20
-20.27266438295267
 30
0.0
 10
23.12589246383658
 20
-19.90851779016176
 30
0.0
 10
24.31134982031105
 20
-19.89163682228403
 30
0.0
 10
24.56542561234823
 20
-19.81532795728575
 30
0.0
 10
25.11577961611689
 20
-19.28185492139481
 30
0.0
 10
25.67457410382441
 20
-18.57061495846499
 30
0.0
 10
26.52137857409882
 20
-18.57061495846499
 30
0.0
 10
26.46212293175252
 20
-18.71461994974843
 30
0.0
 10
26.40286728940623
 20
-18.82469075050216
 30
0.0
 10
25.70006781041526
 20
-19.64600151418572
 30
0.0
 10
27.61364609769728
 20
-19.38348523820968
 30
0.0
 10
28.06236978465108
 20
-18.80780978262444
 30
0.0
 10
28.04548881677335
 20
-18.57905544240385
 30
0.0
 10
28.03704833283449
 20
-18.39284803142609
 30
0.0
 10
27.79985350867504
 20
-18.09639756492034
 30
0.0
 10
26.81765678583031
 20
-18.16426594597977
 30
0.0
 10
26.62300889091369
 20
-18.18114691385749
 30
0.0
 10
25.72538926223185
 20
-18.29121771461122
 30
0.0
 10
24.43830158894251
 20
-18.756994624217
 30
0.0
 10
24.48911674734994
 20
-18.78231607603359
 30
0.0
 10
24.55698512840937
 20
-18.8162502665633
 30
0.0
 10
24.55698512840937
 20
-18.88394639284846
 30
0.0
 10
24.55698512840937
 20
-19.01089816147991
 30
0.0
 10
24.36216497871849
 20
-19.06171331988735
 30
0.0
 10
24.25209417796475
 20
-19.07876654253934
 30
0.0
 10
23.72706162601268
 20
-19.16334363670222
 30
0.0
 10
23.56617566685151
 20
-19.2396525017005
 30
0.0
 10
23.07507730542915
 20
-19.40053846086167
 30
0.0
 10
22.99894069520513
 20
-19.42585991267826
 30
0.0
 10
22.90575086232912
 20
-19.45979410320797
 30
0.0
 10
22.81256102945311
 20
-19.45979410320797
 30
0.0
 10
22.66872829294393
 20
-19.45979410320797
 30
0.0
 10
22.60085991188451
 20
-19.37504475427082
 30
0.0
 10
22.60085991188451
 20
-19.23103976298738
 30
0.0
 10
22.60085991188451
 20
-19.17178412064108
 30
0.0
 10
22.72798393529023
 20
-18.86706542497074
 30
0.0
 10
22.99050021126627
 20
-18.51979980005755
 30
0.0
 10
23.16826713830516
 20
-18.28277723067236
 30
0.0
 10
23.41373019162921
 20
-17.96100531235003
 30
0.0
 10
23.70174017419609
 20
-17.8509345115963
 30
0.0
 10
24.52305093787966
 20
-17.53760307721282
 30
0.0
 10
26.10641682290048
 20
-17.20739067495163
 30
0.0
 10
26.98698322893034
 20
-17.20739067495163
 30
0.0
 10
28.44339734531971
 20
-17.20739067495163
 30
0.0
 10
28.79066297023289
 20
-17.78323838531114
 30
0.0
 10
28.79066297023289
 20
-18.24040255620379
 30
0.0
 10
28.79066297023289
 20
-19.61206732365601
 30
0.0
 10
26.22492810759308
 20
-19.95933294856919
 30
0.0
 10
25.23429090080948
 20
-20.15398084348581
 30
0.0
 10
25.23429090080948
 20
-20.15398084348581
 30
0.0
 10
25.06496445770945
 20
-20.30642631870812
 30
0.0
 10
25.06496445770945
 20
-20.30642631870812
 30
0.0
 10
25.66613361988555
 20
-20.41649711946185
 30
0.0
 10
27.74059786632874
 20
-20.58582356256188
 30
0.0
 10
27.74059786632874
 20
-21.39869384230658
 30
0.0
  0
SPLINE
  5
42
330
3D
100
AcDbEntity
  8
Layer 1
370
     0
100
AcDbSpline
210
0.0
220
0.0
230
1.0
 70
    11
 71
     3
 72
    20
 73
    16
 74
     0
 42
0.0000000001
 43
0.0000000001
 40
0.0
 40
0.0
 40
0.0
 40
0.0
 40
1.0
 40
1.0
 40
1.0
 40
2.0
 40
2.0
 40
2.0
 40
3.0
 40
3.0
 40
3.0
 40
4.0
 40
4.0
 40
4.0
 40
5.0
 40
5.0
 40
5.0
 40
5.0
 10
24.21815998743504
 20
-21.24642062185853
 30
0.0
 10
24.10808918668131
 20
-21.36493190655113
 30
0.0
 10
23.92188177570356
 20
-21.55113931752888
 30
0.0
 10
23.92188177570356
 20
-21.72890624456777
 30
0.0
 10
23.92188177570356
 20
-22.09305283735868
 30
0.0
 10
24.59074706416482
 20
-22.19468315417355
 30
0.0
 10
24.86170382407972
 20
-22.19468315417355
 30
0.0
 10
25.61531846147811
 20
-22.18624267023469
 30
0.0
 10
26.78389485007486
 20
-21.63588866646603
 30
0.0
 10
26.78389485007486
 20
-21.29706352549171
 30
0.0
 10
26.78389485007486
 20
-20.85678032247678
 30
0.0
 10
25.03947075111861
 20
-20.72982855384532
 30
0.0
 10
24.69237738097969
 20
-20.72982855384532
 30
0.0
 10
24.69237738097969
 20
-20.72982855384532
 30
0.0
 10
24.21815998743504
 20
-21.24642062185853
 30
0.0
 10
24.21815998743504
 20
-21.24642062185853
 30
0.0
  0
HATCH
  5
43
330
3D
100
AcDbEntity
  8
Layer 1
 62
   250
420
  2301728
100
AcDbHatch
 10
0.0
 20
0.0
 30
0.0
210
0.0
220
0.0
230
1.0
  2
SOLID
 70
     1
 71
     0
 91
        2
 92
        1
 93
        1
 72
     4
 94
        3
 73
     0
 74
     1
 95
       71
 96
       67
 40
0.0
 40
0.0
 40
0.0
 40
0.0
 40
1.0
 40
1.0
 40
1.0
 40
2.0
 40
2.0
 40
2.0
 40
3.0
 40
3.0
 40
3.0
 40
4.0
 40
4.0
 40
4.0
 40
5.0
 40
5.0
 40
5.0
 40
6.0
 40
6.0
 40
6.0
 40
7.0
 40
7.0
 40
7.0
 40
8.0
 40
8.0
 40
8.0
 40
9.0
 40
9.0
 40
9.0
 40
10.0
 40
10.0
 40
10.0
 40
11.0
 40
11.0
 40
11.0
 40
12.0
 40
12.0
 40
12.0
 40
13.0
 40
13.0
 40
13.0
 40
14.0
 40
14.0
 40
14.0
 40
15.0
 40
15.0
 40
15.0
 40
16.0
 40
16.0
 40
16.0
 40
17.0
 40
17.0
 40
17.0
 40
18.0
 40
18.0
 40
18.0
 40
19.0
 40
19.0
 40
19.0
 40
20.0
 40
20.0
 40
20.0
 40
21.0
 40
21.0
 40
21.0
 40
22.0
 40
22.0
 40
22.0
 40
22.0
 10
27.74059786632874
 20
-21.39869384230658
 10
27.74059786632874
 20
-21.88135171979008
 10
26.69914550113771
 20
-23.02443440179598
 10
24.42142062106479
 20
-23.1515584252017
 10
23.81181097494983
 20
-23.18532036095714
 10
22.96500650467542
 20
-22.98223198210167
 10
22.96500650467542
 20
-22.21156412205127
 10
22.96500650467542
 20
-21.94060736213638
 10
22.92263183020684
 20
-21.89840494244207
 10
23.90482855305157
 20
-20.60287678521387
 10
23.66780598366638
 20
-20.58582356256188
 10
23.12589246383658
 20
-20.56050211074529
 10
23.12589246383658
 20
-20.27266438295267
 10
23.12589246383658
 20
-19.90851779016176
 10
24.31134982031105
 20
-19.89163682228403
 10
24.56542561234823
 20
-19.81532795728575
 10
25.11577961611689
 20
-19.28185492139481
 10
25.67457410382441
 20
-18.57061495846499
 10
26.52137857409882
 20
-18.57061495846499
 10
26.46212293175252
 20
-18.71461994974843
 10
26.40286728940623
 20
-18.82469075050216
 10
25.70006781041526
 20
-19.64600151418572
 10
27.61364609769728
 20
-19.38348523820968
 10
28.06236978465108
 20
-18.80780978262444
 10
28.04548881677335
 20
-18.57905544240385
 10
28.03704833283449
 20
-18.39284803142609
 10
27.79985350867504
 20
-18.09639756492034
 10
26.81765678583031
 20
-18.16426594597977
 10
26.62300889091369
 20
-18.18114691385749
 10
25.72538926223185
 20
-18.29121771461122
 10
24.43830158894251
 20
-18.756994624217
 10
24.48911674734994
 20
-18.78231607603359
 10
24.55698512840937
 20
-18.8162502665633
 10
24.55698512840937
 20
-18.88394639284846
 10
24.55698512840937
 20
-19.01089816147991
 10
24.36216497871849
 20
-19.06171331988735
 10
24.25209417796475
 20
-19.07876654253934
 10
23.72706162601268
 20
-19.16334363670222
 10
23.56617566685151
 20
-19.2396525017005
 10
23.07507730542915
 20
-19.40053846086167
 10
22.99894069520513
 20
-19.42585991267826
 10
22.90575086232912
 20
-19.45979410320797
 10
22.81256102945311
 20
-19.45979410320797
 10
22.66872829294393
 20
-19.45979410320797
 10
22.60085991188451
 20
-19.37504475427082
 10
22.60085991188451
 20
-19.23103976298738
 10
22.60085991188451
 20
-19.17178412064108
 10
22.72798393529023
 20
-18.86706542497074
 10
22.99050021126627
 20
-18.51979980005755
 10
23.16826713830516
 20
-18.28277723067236
 10
23.41373019162921
 20
-17.96100531235003
 10
23.70174017419609
 20
-17.8509345115963
 10
24.52305093787966
 20
-17.53760307721282
 10
26.10641682290048
 20
-17.20739067495163
 10
26.98698322893034
 20
-17.20739067495163
 10
28.44339734531971
 20
-17.20739067495163
 10
28.79066297023289
 20
-17.78323838531114
 10
28.79066297023289
 20
-18.24040255620379
 10
28.79066297023289
 20
-19.61206732365601
 10
26.22492810759308
 20
-19.95933294856919
 10
25.23429090080948
 20
-20.15398084348581
 10
25.23429090080948
 20
-20.15398084348581
 10
25.06496445770945
 20
-20.30642631870812
 10
25.06496445770945
 20
-20.30642631870812
 10
25.66613361988555
 20
-20.41649711946185
 10
27.74059786632874
 20
-20.58582356256188
 10
27.74059786632874
 20
-21.39869384230658
 97
        0
 92
        1
 93
        1
 72
     4
 94
        3
 73
     0
 74
     1
 95
       20
 96
       16
 40
0.0
 40
0.0
 40
0.0
 40
0.0
 40
1.0
 40
1.0
 40
1.0
 40
2.0
 40
2.0
 40
2.0
 40
3.0
 40
3.0
 40
3.0
 40
4.0
 40
4.0
 40
4.0
 40
5.0
 40
5.0
 40
5.0
 40
5.0
 10
24.21815998743504
 20
-21.24642062185853
 10
24.10808918668131
 20
-21.36493190655113
 10
23.92188177570356
 20
-21.55113931752888
 10
23.92188177570356
 20
-21.72890624456777
 10
23.92188177570356
 20
-22.09305283735868
 10
24.59074706416482
 20
-22.19468315417355
 10
24.86170382407972
 20
-22.19468315417355
 10
25.61531846147811
 20
-22.18624267023469
 10
26.78389485007486
 20
-21.63588866646603
 10
26.78389485007486
 20
-21.29706352549171
 10
26.78389485007486
 20
-20.85678032247678
 10
25.03947075111861
 20
-20.72982855384532
 10
24.69237738097969
 20
-20.72982855384532
 10
24.69237738097969
 20
-20.72982855384532
 10
24.21815998743504
 20
-21.24642062185853
 10
24.21815998743504
 20
-21.24642062185853
 97
        0
 75
     2
 76
     1
 98
        0
  0
SPLINE
  5
44
330
3D
100
AcDbEntity
  8
Layer 1
370
     0
100
AcDbSpline
210
0.0
220
0.0
230
1.0
 70
    11
 71
     3
 72
    32
 73
    28
 74
     0
 42
0.0000000001
 43
0.0000000001
 40
0.0
 40
0.0
 40
0.0
 40
0.0
 40
1.0
 40
1.0
 40
1.0
 40
2.0
 40
2.0
 40
2.0
 40
3.0
 40
3.0
 40
3.0
 40
4.0
 40
4.0
 40
4.0
 40
5.0
 40
5.0
 40
5.0
 40
6.0
 40
6.0
 40
6.0
 40
7.0
 40
7.0
 40
7.0
 40
8.0
 40
8.0
 40
8.0
 40
9.0
 40
9.0
 40
9.0
 40
9.0
 10
31.2962809166551
 20
-21.7967746256272
 30
0.0
 10
30.77986110341615
 20
-22.39794378780329
 30
0.0
 10
29.84847953897885
 20
-23.19393309967027
 30
0.0
 10
29.01028780741757
 20
-23.19393309967027
 30
0.0
 10
28.39206542258949
 20
-23.19393309967027
 30
0.0
 10
28.10422769479686
 20
-22.64340684112734
 30
0.0
 10
28.08734672691914
 20
-22.08461235341982
 30
0.0
 10
28.05341253638943
 20
-20.97546386194363
 30
0.0
 10
29.28124456733247
 20
-19.8408216638766
 30
0.0
 10
30.38195257486979
 20
-19.84926214781546
 30
0.0
 10
30.65308158955895
 20
-19.84926214781546
 30
0.0
 10
30.99173447575901
 20
-19.91695827410062
 30
0.0
 10
30.99173447575901
 20
-20.25561116030068
 30
0.0
 10
30.99173447575901
 20
-20.67057291149903
 30
0.0
 10
30.57660046978641
 20
-21.29706352549171
 30
0.0
 10
28.95103216507127
 20
-21.83053656138264
 30
0.0
 10
28.95103216507127
 20
-21.83053656138264
 30
0.0
 10
28.93397894241928
 20
-22.01691622713466
 30
0.0
 10
28.93397894241928
 20
-22.01691622713466
 30
0.0
 10
28.9086574906027
 20
-22.338688145457
 30
0.0
 10
29.18805473445646
 20
-22.44875894621073
 30
0.0
 10
29.45901149437136
 20
-22.44875894621073
 30
0.0
 10
30.06018065654746
 20
-22.44875894621073
 30
0.0
 10
30.77159287425155
 20
-21.83053656138264
 30
0.0
 10
31.22014430643108
 20
-21.47500270730486
 30
0.0
 10
31.22014430643108
 20
-21.47500270730486
 30
0.0
 10
31.2962809166551
 20
-21.7967746256272
 30
0.0
 10
31.2962809166551
 20
-21.7967746256272
 30
0.0
  0
SPLINE
  5
45
330
3D
100
AcDbEntity
  8
Layer 1
370
     0
100
AcDbSpline
210
0.0
220
0.0
230
1.0
 70
    11
 71
     3
 72
    14
 73
    10
 74
     0
 42
0.0000000001
 43
0.0000000001
 40
0.0
 40
0.0
 40
0.0
 40
0.0
 40
1.0
 40
1.0
 40
1.0
 40
2.0
 40
2.0
 40
2.0
 40
3.0
 40
3.0
 40
3.0
 40
3.0
 10
30.24656032229947
 20
-20.43355034211384
 30
0.0
 10
30.24656032229947
 20
-20.37412244499328
 30
0.0
 10
30.2041856478309
 20
-20.3234795413601
 30
0.0
 10
30.1449300054846
 20
-20.34036050923783
 30
0.0
 10
29.7215277703474
 20
-20.45043130999156
 30
0.0
 10
29.23042940892503
 20
-20.85678032247678
 30
0.0
 10
29.00184732347871
 20
-21.41574706495856
 30
0.0
 10
29.74684922216398
 20
-21.16167127292139
 30
0.0
 10
30.25482855146407
 20
-20.57738307862301
 30
0.0
 10
30.24656032229947
 20
-20.43355034211384
 30
0.0
  0
HATCH
  5
46
330
3D
100
AcDbEntity
  8
Layer 1
 62
   250
420
  2301728
100
AcDbHatch
 10
0.0
 20
0.0
 30
0.0
210
0.0
220
0.0
230
1.0
  2
SOLID
 70
     1
 71
     0
 91
        2
 92
        1
 93
        1
 72
     4
 94
        3
 73
     0
 74
     1
 95
       32
 96
       28
 40
0.0
 40
0.0
 40
0.0
 40
0.0
 40
1.0
 40
1.0
 40
1.0
 40
2.0
 40
2.0
 40
2.0
 40
3.0
 40
3.0
 40
3.0
 40
4.0
 40
4.0
 40
4.0
 40
5.0
 40
5.0
 40
5.0
 40
6.0
 40
6.0
 40
6.0
 40
7.0
 40
7.0
 40
7.0
 40
8.0
 40
8.0
 40
8.0
 40
9.0
 40
9.0
 40
9.0
 40
9.0
 10
31.2962809166551
 20
-21.7967746256272
 10
30.77986110341615
 20
-22.39794378780329
 10
29.84847953897885
 20
-23.19393309967027
 10
29.01028780741757
 20
-23.19393309967027
 10
28.39206542258949
 20
-23.19393309967027
 10
28.10422769479686
 20
-22.64340684112734
 10
28.08734672691914
 20
-22.08461235341982
 10
28.05341253638943
 20
-20.97546386194363
 10
29.28124456733247
 20
-19.8408216638766
 10
30.38195257486979
 20
-19.84926214781546
 10
30.65308158955895
 20
-19.84926214781546
 10
30.99173447575901
 20
-19.91695827410062
 10
30.99173447575901
 20
-20.25561116030068
 10
30.99173447575901
 20
-20.67057291149903
 10
30.57660046978641
 20
-21.29706352549171
 10
28.95103216507127
 20
-21.83053656138264
 10
28.95103216507127
 20
-21.83053656138264
 10
28.93397894241928
 20
-22.01691622713466
 10
28.93397894241928
 20
-22.01691622713466
 10
28.9086574906027
 20
-22.338688145457
 10
29.18805473445646
 20
-22.44875894621073
 10
29.45901149437136
 20
-22.44875894621073
 10
30.06018065654746
 20
-22.44875894621073
 10
30.77159287425155
 20
-21.83053656138264
 10
31.22014430643108
 20
-21.47500270730486
 10
31.22014430643108
 20
-21.47500270730486
 10
31.2962809166551
 20
-21.7967746256272
 10
31.2962809166551
 20
-21.7967746256272
 97
        0
 92
        1
 93
        1
 72
     4
 94
        3
 73
     0
 74
     1
 95
       14
 96
       10
 40
0.0
 40
0.0
 40
0.0
 40
0.0
 40
1.0
 40
1.0
 40
1.0
 40
2.0
 40
2.0
 40
2.0
 40
3.0
 40
3.0
 40
3.0
 40
3.0
 10
30.24656032229947
 20
-20.43355034211384
 10
30.24656032229947
 20
-20.37412244499328
 10
30.2041856478309
 20
-20.3234795413601
 10
30.1449300054846
 20
-20.34036050923783
 10
29.7215277703474
 20
-20.45043130999156
 10
29.23042940892503
 20
-20.85678032247678
 10
29.00184732347871
 20
-21.41574706495856
 10
29.74684922216398
 20
-21.16167127292139
 10
30.25482855146407
 20
-20.57738307862301
 10
30.24656032229947
 20
-20.43355034211384
 97
        0
 75
     2
 76
     1
 98
        0
  0
SPLINE
  5
47
330
3D
100
AcDbEntity
  8
Layer 1
370
     0
100
AcDbSpline
210
0.0
220
0.0
230
1.0
 70
    11
 71
     3
 72
    68
 73
    64
 74
     0
 42
0.0000000001
 43
0.0000000001
 40
0.0
 40
0.0
 40
0.0
 40
0.0
 40
1.0
 40
1.0
 40
1.0
 40
2.0
 40
2.0
 40
2.0
 40
3.0
 40
3.0
 40
3.0
 40
4.0
 40
4.0
 40
4.0
 40
5.0
 40
5.0
 40
5.0
 40
6.0
 40
6.0
 40
6.0
 40
7.0
 40
7.0
 40
7.0
 40
8.0
 40
8.0
 40
8.0
 40
9.0
 40
9.0
 40
9.0
 40
10.0
 40
10.0
 40
10.0
 40
11.0
 40
11.0
 40
11.0
 40
12.0
 40
12.0
 40
12.0
 40
13.0
 40
13.0
 40
13.0
 40
14.0
 40
14.0
 40
14.0
 40
15.0
 40
15.0
 40
15.0
 40
16.0
 40
16.0
 40
16.0
 40
17.0
 40
17.0
 40
17.0
 40
18.0
 40
18.0
 40
18.0
 40
19.0
 40
19.0
 40
19.0
 40
20.0
 40
20.0
 40
20.0
 40
21.0
 40
21.0
 40
21.0
 40
21.0
 10
35.14031845909687
 20
-21.38181287442885
 30
0.0
 10
35.14031845909687
 20
-21.38181287442885
 30
0.0
 10
35.20784233060776
 20
-21.75439995115862
 30
0.0
 10
35.20784233060776
 20
-21.75439995115862
 30
0.0
 10
34.75929089842823
 20
-22.15230847970498
 30
0.0
 10
33.88699272156298
 20
-23.19393309967027
 30
0.0
 10
33.26894259150915
 20
-23.19393309967027
 30
0.0
 10
32.94717067318682
 20
-23.19393309967027
 30
0.0
 10
32.79455294319025
 20
-22.92280408498111
 30
0.0
 10
32.79455294319025
 20
-22.63496635718848
 30
0.0
 10
32.79455294319025
 20
-22.12698702788839
 30
0.0
 10
33.25206162363143
 20
-21.56819254018087
 30
0.0
 10
33.52284612877207
 20
-21.17855224079911
 30
0.0
 10
33.52284612877207
 20
-21.17855224079911
 30
0.0
 10
33.50596516089434
 20
-21.16167127292139
 30
0.0
 10
33.50596516089434
 20
-21.16167127292139
 30
0.0
 10
33.01469454469772
 20
-21.5258178657123
 30
0.0
 10
32.58302408039591
 20
-21.96610106872723
 30
0.0
 10
32.20199651972728
 20
-22.45719943014959
 30
0.0
 10
32.07487249632156
 20
-22.61808538931076
 30
0.0
 10
31.76171331671235
 20
-23.0330471405091
 30
0.0
 10
31.53295897649176
 20
-23.0330471405091
 30
0.0
 10
31.16054415453625
 20
-23.0330471405091
 30
0.0
 10
31.06718206688598
 20
-22.49957410461816
 30
0.0
 10
31.05891383772138
 20
-22.21156412205127
 30
0.0
 10
31.03342013113053
 20
-21.62744818252717
 30
0.0
 10
31.56706542179574
 20
-20.7722032283139
 30
0.0
 10
32.05799152844384
 20
-20.35724147711555
 30
0.0
 10
32.16823458397183
 20
-20.26405164423954
 30
0.0
 10
32.24437119419585
 20
-20.25561116030068
 30
0.0
 10
32.3883761854793
 20
-20.25561116030068
 30
0.0
 10
32.89618326000512
 20
-20.27266438295267
 30
0.0
 10
32.85380858553655
 20
-20.39117566764526
 30
0.0
 10
32.85380858553655
 20
-20.4419908260527
 30
0.0
 10
32.85380858553655
 20
-20.7722032283139
 30
0.0
 10
31.7872070233032
 20
-21.62744818252717
 30
0.0
 10
31.7872070233032
 20
-21.83053656138264
 30
0.0
 10
31.7872070233032
 20
-21.88135171979008
 30
0.0
 10
31.82958169777177
 20
-21.92372639425865
 30
0.0
 10
31.88022460140494
 20
-21.92372639425865
 30
0.0
 10
31.93948024375124
 20
-21.92372639425865
 30
0.0
 10
32.01561685397527
 20
-21.84758978403463
 30
0.0
 10
32.04972329927924
 20
-21.80521510956606
 30
0.0
 10
32.72702907167935
 20
-20.94152967141392
 30
0.0
 10
34.28490125010933
 20
-19.9000773062229
 30
0.0
 10
34.53053655820764
 20
-19.9000773062229
 30
0.0
 10
34.56429849396309
 20
-19.9000773062229
 30
0.0
 10
34.61528590714479
 20
-19.94245198069147
 30
0.0
 10
34.66592881077796
 20
-20.06096326538406
 30
0.0
 10
34.71691622395966
 20
-20.18791503401552
 30
0.0
 10
34.76755912759283
 20
-20.34036050923783
 30
0.0
 10
34.79305283418368
 20
-20.51812743627672
 30
0.0
 10
34.79305283418368
 20
-20.84833983853792
 30
0.0
 10
33.75160046899266
 20
-21.49188367518259
 30
0.0
 10
33.75160046899266
 20
-22.07617186948096
 30
0.0
 10
33.75160046899266
 20
-22.15230847970498
 30
0.0
 10
33.81912434050356
 20
-22.22861734470326
 30
0.0
 10
33.9038736894407
 20
-22.22861734470326
 30
0.0
 10
34.10713432307044
 20
-22.22861734470326
 30
0.0
 10
34.47954914502595
 20
-21.93216687819751
 30
0.0
 10
34.63216687502251
 20
-21.80521510956606
 30
0.0
 10
34.63216687502251
 20
-21.80521510956606
 30
0.0
 10
35.14031845909687
 20
-21.38181287442885
 30
0.0
 10
35.14031845909687
 20
-21.38181287442885
 30
0.0
  0
HATCH
  5
48
330
3D
100
AcDbEntity
  8
Layer 1
 62
   250
420
  2301728
100
AcDbHatch
 10
0.0
 20
0.0
 30
0.0
210
0.0
220
0.0
230
1.0
  2
SOLID
 70
     1
 71
     0
 91
        1
 92
        1
 93
        1
 72
     4
 94
        3
 73
     0
 74
     1
 95
       68
 96
       64
 40
0.0
 40
0.0
 40
0.0
 40
0.0
 40
1.0
 40
1.0
 40
1.0
 40
2.0
 40
2.0
 40
2.0
 40
3.0
 40
3.0
 40
3.0
 40
4.0
 40
4.0
 40
4.0
 40
5.0
 40
5.0
 40
5.0
 40
6.0
 40
6.0
 40
6.0
 40
7.0
 40
7.0
 40
7.0
 40
8.0
 40
8.0
 40
8.0
 40
9.0
 40
9.0
 40
9.0
 40
10.0
 40
10.0
 40
10.0
 40
11.0
 40
11.0
 40
11.0
 40
12.0
 40
12.0
 40
12.0
 40
13.0
 40
13.0
 40
13.0
 40
14.0
 40
14.0
 40
14.0
 40
15.0
 40
15.0
 40
15.0
 40
16.0
 40
16.0
 40
16.0
 40
17.0
 40
17.0
 40
17.0
 40
18.0
 40
18.0
 40
18.0
 40
19.0
 40
19.0
 40
19.0
 40
20.0
 40
20.0
 40
20.0
 40
21.0
 40
21.0
 40
21.0
 40
21.0
 10
35.14031845909687
 20
-21.38181287442885
 10
35.14031845909687
 20
-21.38181287442885
 10
35.20784233060776
 20
-21.75439995115862
 10
35.20784233060776
 20
-21.75439995115862
 10
34.75929089842823
 20
-22.15230847970498
 10
33.88699272156298
 20
-23.19393309967027
 10
33.26894259150915
 20
-23.19393309967027
 10
32.94717067318682
 20
-23.19393309967027
 10
32.79455294319025
 20
-22.92280408498111
 10
32.79455294319025
 20
-22.63496635718848
 10
32.79455294319025
 20
-22.12698702788839
 10
33.25206162363143
 20
-21.56819254018087
 10
33.52284612877207
 20
-21.17855224079911
 10
33.52284612877207
 20
-21.17855224079911
 10
33.50596516089434
 20
-21.16167127292139
 10
33.50596516089434
 20
-21.16167127292139
 10
33.01469454469772
 20
-21.5258178657123
 10
32.58302408039591
 20
-21.96610106872723
 10
32.20199651972728
 20
-22.45719943014959
 10
32.07487249632156
 20
-22.61808538931076
 10
31.76171331671235
 20
-23.0330471405091
 10
31.53295897649176
 20
-23.0330471405091
 10
31.16054415453625
 20
-23.0330471405091
 10
31.06718206688598
 20
-22.49957410461816
 10
31.05891383772138
 20
-22.21156412205127
 10
31.03342013113053
 20
-21.62744818252717
 10
31.56706542179574
 20
-20.7722032283139
 10
32.05799152844384
 20
-20.35724147711555
 10
32.16823458397183
 20
-20.26405164423954
 10
32.24437119419585
 20
-20.25561116030068
 10
32.3883761854793
 20
-20.25561116030068
 10
32.89618326000512
 20
-20.27266438295267
 10
32.85380858553655
 20
-20.39117566764526
 10
32.85380858553655
 20
-20.4419908260527
 10
32.85380858553655
 20
-20.7722032283139
 10
31.7872070233032
 20
-21.62744818252717
 10
31.7872070233032
 20
-21.83053656138264
 10
31.7872070233032
 20
-21.88135171979008
 10
31.82958169777177
 20
-21.92372639425865
 10
31.88022460140494
 20
-21.92372639425865
 10
31.93948024375124
 20
-21.92372639425865
 10
32.01561685397527
 20
-21.84758978403463
 10
32.04972329927924
 20
-21.80521510956606
 10
32.72702907167935
 20
-20.94152967141392
 10
34.28490125010933
 20
-19.9000773062229
 10
34.53053655820764
 20
-19.9000773062229
 10
34.56429849396309
 20
-19.9000773062229
 10
34.61528590714479
 20
-19.94245198069147
 10
34.66592881077796
 20
-20.06096326538406
 10
34.71691622395966
 20
-20.18791503401552
 10
34.76755912759283
 20
-20.34036050923783
 10
34.79305283418368
 20
-20.51812743627672
 10
34.79305283418368
 20
-20.84833983853792
 10
33.75160046899266
 20
-21.49188367518259
 10
33.75160046899266
 20
-22.07617186948096
 10
33.75160046899266
 20
-22.15230847970498
 10
33.81912434050356
 20
-22.22861734470326
 10
33.9038736894407
 20
-22.22861734470326
 10
34.10713432307044
 20
-22.22861734470326
 10
34.47954914502595
 20
-21.93216687819751
 10
34.63216687502251
 20
-21.80521510956606
 10
34.63216687502251
 20
-21.80521510956606
 10
35.14031845909687
 20
-21.38181287442885
 10
35.14031845909687
 20
-21.38181287442885
 97
        0
 75
     2
 76
     1
 98
        0
  0
SPLINE
  5
49
330
3D
100
AcDbEntity
  8
Layer 1
370
     0
100
AcDbSpline
210
0.0
220
0.0
230
1.0
 70
    11
 71
     3
 72
    41
 73
    37
 74
     0
 42
0.0000000001
 43
0.0000000001
 40
0.0
 40
0.0
 40
0.0
 40
0.0
 40
1.0
 40
1.0
 40
1.0
 40
2.0
 40
2.0
 40
2.0
 40
3.0
 40
3.0
 40
3.0
 40
4.0
 40
4.0
 40
4.0
 40
5.0
 40
5.0
 40
5.0
 40
6.0
 40
6.0
 40
6.0
 40
7.0
 40
7.0
 40
7.0
 40
8.0
 40
8.0
 40
8.0
 40
9.0
 40
9.0
 40
9.0
 40
10.0
 40
10.0
 40
10.0
 40
11.0
 40
11.0
 40
11.0
 40
12.0
 40
12.0
 40
12.0
 40
12.0
 10
36.00365938770047
 20
-21.466562223366
 30
0.0
 10
35.81727972194846
 20
-21.60195447593632
 30
0.0
 10
35.66466199195189
 20
-21.72890624456777
 30
0.0
 10
35.66466199195189
 20
-21.96610106872723
 30
0.0
 10
35.66466199195189
 20
-22.16074896364384
 30
0.0
 10
35.86792262558163
 20
-22.42326523961988
 30
0.0
 10
36.30820582859656
 20
-22.42326523961988
 30
0.0
 10
36.95174966524123
 20
-22.42326523961988
 30
0.0
 10
37.68865558953617
 20
-21.83053656138264
 30
0.0
 10
38.17958169618427
 20
-21.44950900071401
 30
0.0
 10
38.17958169618427
 20
-21.44950900071401
 30
0.0
 10
38.28121201299914
 20
-21.77972140297521
 30
0.0
 10
38.28121201299914
 20
-21.77972140297521
 30
0.0
 10
37.76479219976019
 20
-22.33024766151813
 30
0.0
 10
36.81635741267091
 20
-23.16843939307942
 30
0.0
 10
36.01192761686507
 20
-23.16843939307942
 30
0.0
 10
35.36011555105581
 20
-23.16843939307942
 30
0.0
 10
35.04661186189807
 20
-22.55882974696446
 30
0.0
 10
35.04661186189807
 20
-21.93216687819751
 30
0.0
 10
35.04661186189807
 20
-21.22092691526769
 30
0.0
 10
35.30085990870951
 20
-20.95841063929165
 30
0.0
 10
35.85104165770391
 20
-20.54362114286757
 30
0.0
 10
36.23206921837254
 20
-20.25561116030068
 30
0.0
 10
37.0451117528915
 20
-19.79844698940803
 30
0.0
 10
37.51915689166188
 20
-19.79844698940803
 30
0.0
 10
37.78167316763792
 20
-19.79844698940803
 30
0.0
 10
37.90018445233051
 20
-19.93383924197835
 30
0.0
 10
37.90018445233051
 20
-20.18791503401552
 30
0.0
 10
37.90018445233051
 20
-20.6536919436213
 30
0.0
 10
37.231146909095
 20
-21.30567626420483
 30
0.0
 10
37.00273707842293
 20
-21.30567626420483
 30
0.0
 10
36.80808918350631
 20
-21.30567626420483
 30
0.0
 10
36.72333983456917
 20
-21.09397514663623
 30
0.0
 10
36.71472709585604
 20
-20.93308918747506
 30
0.0
 10
36.71472709585604
 20
-20.93308918747506
 30
0.0
 10
36.00365938770047
 20
-21.466562223366
 30
0.0
 10
36.00365938770047
 20
-21.466562223366
 30
0.0
  0
HATCH
  5
4A
330
3D
100
AcDbEntity
  8
Layer 1
 62
   250
420
  2301728
100
AcDbHatch
 10
0.0
 20
0.0
 30
0.0
210
0.0
220
0.0
230
1.0
  2
SOLID
 70
     1
 71
     0
 91
        1
 92
        1
 93
        1
 72
     4
 94
        3
 73
     0
 74
     1
 95
       41
 96
       37
 40
0.0
 40
0.0
 40
0.0
 40
0.0
 40
1.0
 40
1.0
 40
1.0
 40
2.0
 40
2.0
 40
2.0
 40
3.0
 40
3.0
 40
3.0
 40
4.0
 40
4.0
 40
4.0
 40
5.0
 40
5.0
 40
5.0
 40
6.0
 40
6.0
 40
6.0
 40
7.0
 40
7.0
 40
7.0
 40
8.0
 40
8.0
 40
8.0
 40
9.0
 40
9.0
 40
9.0
 40
10.0
 40
10.0
 40
10.0
 40
11.0
 40
11.0
 40
11.0
 40
12.0
 40
12.0
 40
12.0
 40
12.0
 10
36.00365938770047
 20
-21.466562223366
 10
35.81727972194846
 20
-21.60195447593632
 10
35.66466199195189
 20
-21.72890624456777
 10
35.66466199195189
 20
-21.96610106872723
 10
35.66466199195189
 20
-22.16074896364384
 10
35.86792262558163
 20
-22.42326523961988
 10
36.30820582859656
 20
-22.42326523961988
 10
36.95174966524123
 20
-22.42326523961988
 10
37.68865558953617
 20
-21.83053656138264
 10
38.17958169618427
 20
-21.44950900071401
 10
38.17958169618427
 20
-21.44950900071401
 10
38.28121201299914
 20
-21.77972140297521
 10
38.28121201299914
 20
-21.77972140297521
 10
37.76479219976019
 20
-22.33024766151813
 10
36.81635741267091
 20
-23.16843939307942
 10
36.01192761686507
 20
-23.16843939307942
 10
35.36011555105581
 20
-23.16843939307942
 10
35.04661186189807
 20
-22.55882974696446
 10
35.04661186189807
 20
-21.93216687819751
 10
35.04661186189807
 20
-21.22092691526769
 10
35.30085990870951
 20
-20.95841063929165
 10
35.85104165770391
 20
-20.54362114286757
 10
36.23206921837254
 20
-20.25561116030068
 10
37.0451117528915
 20
-19.79844698940803
 10
37.51915689166188
 20
-19.79844698940803
 10
37.78167316763792
 20
-19.79844698940803
 10
37.90018445233051
 20
-19.93383924197835
 10
37.90018445233051
 20
-20.18791503401552
 10
37.90018445233051
 20
-20.6536919436213
 10
37.231146909095
 20
-21.30567626420483
 10
37.00273707842293
 20
-21.30567626420483
 10
36.80808918350631
 20
-21.30567626420483
 10
36.72333983456917
 20
-21.09397514663623
 10
36.71472709585604
 20
-20.93308918747506
 10
36.71472709585604
 20
-20.93308918747506
 10
36.00365938770047
 20
-21.466562223366
 10
36.00365938770047
 20
-21.466562223366
 97
        0
 75
     2
 76
     1
 98
        0
  0
SPLINE
  5
4B
330
3D
100
AcDbEntity
  8
Layer 1
370
     0
100
AcDbSpline
210
0.0
220
0.0
230
1.0
 70
    11
 71
     3
 72
    59
 73
    55
 74
     0
 42
0.0000000001
 43
0.0000000001
 40
0.0
 40
0.0
 40
0.0
 40
0.0
 40
1.0
 40
1.0
 40
1.0
 40
2.0
 40
2.0
 40
2.0
 40
3.0
 40
3.0
 40
3.0
 40
4.0
 40
4.0
 40
4.0
 40
5.0
 40
5.0
 40
5.0
 40
6.0
 40
6.0
 40
6.0
 40
7.0
 40
7.0
 40
7.0
 40
8.0
 40
8.0
 40
8.0
 40
9.0
 40
9.0
 40
9.0
 40
10.0
 40
10.0
 40
10.0
 40
11.0
 40
11.0
 40
11.0
 40
12.0
 40
12.0
 40
12.0
 40
13.0
 40
13.0
 40
13.0
 40
14.0
 40
14.0
 40
14.0
 40
15.0
 40
15.0
 40
15.0
 40
16.0
 40
16.0
 40
16.0
 40
17.0
 40
17.0
 40
17.0
 40
18.0
 40
18.0
 40
18.0
 40
18.0
 10
38.64501409624152
 20
-21.99142252054381
 30
0.0
 10
39.06014810221413
 20
-21.66121011828261
 30
0.0
 10
40.60113931276639
 20
-20.30642631870812
 30
0.0
 10
41.06691622237216
 20
-20.30642631870812
 30
0.0
 10
41.2701768560019
 20
-20.30642631870812
 30
0.0
 10
41.47343748963164
 20
-20.51812743627672
 30
0.0
 10
41.47343748963164
 20
-20.7129475859676
 30
0.0
 10
41.47343748963164
 20
-20.87383354512876
 30
0.0
 10
41.13444009388306
 20
-21.24642062185853
 30
0.0
 10
41.03280977706819
 20
-21.36493190655113
 30
0.0
 10
40.50812173466464
 20
-21.99986300448267
 30
0.0
 10
40.53327093170696
 20
-22.02535671107352
 30
0.0
 10
40.53327093170696
 20
-22.11010606001067
 30
0.0
 10
40.53327093170696
 20
-22.2201768607644
 30
0.0
 10
40.61802028064411
 20
-22.28787298704956
 30
0.0
 10
40.71965059745898
 20
-22.28787298704956
 30
0.0
 10
40.99904784131274
 20
-22.28787298704956
 30
0.0
 10
41.61709797136656
 20
-21.83053656138264
 30
0.0
 10
41.86273327946488
 20
-21.66965060222148
 30
0.0
 10
41.86273327946488
 20
-21.66965060222148
 30
0.0
 10
41.90510795393345
 20
-22.01691622713466
 30
0.0
 10
41.90510795393345
 20
-22.01691622713466
 30
0.0
 10
41.51546765455169
 20
-22.31319443886615
 30
0.0
 10
40.49089625723839
 20
-23.14311794126283
 30
0.0
 10
40.02546385718114
 20
-23.14311794126283
 30
0.0
 10
39.7712158103697
 20
-23.14311794126283
 30
0.0
 10
39.63582355779938
 20
-22.92280408498111
 30
0.0
 10
39.63582355779938
 20
-22.69422199953478
 30
0.0
 10
39.63582355779938
 20
-22.16074896364384
 30
0.0
 10
40.22011175209775
 20
-21.51737738177344
 30
0.0
 10
40.52500270254236
 20
-21.11929659845282
 30
0.0
 10
40.52500270254236
 20
-21.11929659845282
 30
0.0
 10
40.50812173466464
 20
-21.10241563057509
 30
0.0
 10
40.50812173466464
 20
-21.10241563057509
 30
0.0
 10
39.06014810221413
 20
-22.09305283735868
 30
0.0
 10
38.63674586707693
 20
-22.99067246604053
 30
0.0
 10
38.36561685238777
 20
-22.99067246604053
 30
0.0
 10
38.06933864065628
 20
-22.99067246604053
 30
0.0
 10
38.02696396618771
 20
-22.33024766151813
 30
0.0
 10
38.02696396618771
 20
-22.13542751182726
 30
0.0
 10
38.02696396618771
 20
-21.55113931752888
 30
0.0
 10
38.24710556769517
 20
-21.14479030504366
 30
0.0
 10
38.54338377942666
 20
-20.66213242756016
 30
0.0
 10
39.54280597969763
 20
-19.01089816147991
 30
0.0
 10
41.22780218153333
 20
-17.52916259327396
 30
0.0
 10
41.51546765455169
 20
-17.52916259327396
 30
0.0
 10
41.65120441667053
 20
-17.52916259327396
 30
0.0
 10
41.8796142473426
 20
-17.58841823562026
 30
0.0
 10
41.8796142473426
 20
-17.75774467872029
 30
0.0
 10
41.8796142473426
 20
-18.3335923890798
 30
0.0
 10
39.18692761607132
 20
-21.12773708239168
 30
0.0
 10
38.64501409624152
 20
-21.66121011828261
 30
0.0
 10
38.64501409624152
 20
-21.66121011828261
 30
0.0
 10
38.64501409624152
 20
-21.99142252054381
 30
0.0
 10
38.64501409624152
 20
-21.99142252054381
 30
0.0
  0
HATCH
  5
4C
330
3D
100
AcDbEntity
  8
Layer 1
 62
   250
420
  2301728
100
AcDbHatch
 10
0.0
 20
0.0
 30
0.0
210
0.0
220
0.0
230
1.0
  2
SOLID
 70
     1
 71
     0
 91
        1
 92
        1
 93
        1
 72
     4
 94
        3
 73
     0
 74
     1
 95
       59
 96
       55
 40
0.0
 40
0.0
 40
0.0
 40
0.0
 40
1.0
 40
1.0
 40
1.0
 40
2.0
 40
2.0
 40
2.0
 40
3.0
 40
3.0
 40
3.0
 40
4.0
 40
4.0
 40
4.0
 40
5.0
 40
5.0
 40
5.0
 40
6.0
 40
6.0
 40
6.0
 40
7.0
 40
7.0
 40
7.0
 40
8.0
 40
8.0
 40
8.0
 40
9.0
 40
9.0
 40
9.0
 40
10.0
 40
10.0
 40
10.0
 40
11.0
 40
11.0
 40
11.0
 40
12.0
 40
12.0
 40
12.0
 40
13.0
 40
13.0
 40
13.0
 40
14.0
 40
14.0
 40
14.0
 40
15.0
 40
15.0
 40
15.0
 40
16.0
 40
16.0
 40
16.0
 40
17.0
 40
17.0
 40
17.0
 40
18.0
 40
18.0
 40
18.0
 40
18.0
 10
38.64501409624152
 20
-21.99142252054381
 10
39.06014810221413
 20
-21.66121011828261
 10
40.60113931276639
 20
-20.30642631870812
 10
41.06691622237216
 20
-20.30642631870812
 10
41.2701768560019
 20
-20.30642631870812
 10
41.47343748963164
 20
-20.51812743627672
 10
41.47343748963164
 20
-20.7129475859676
 10
41.47343748963164
 20
-20.87383354512876
 10
41.13444009388306
 20
-21.24642062185853
 10
41.03280977706819
 20
-21.36493190655113
 10
40.50812173466464
 20
-21.99986300448267
 10
40.53327093170696
 20
-22.02535671107352
 10
40.53327093170696
 20
-22.11010606001067
 10
40.53327093170696
 20
-22.2201768607644
 10
40.61802028064411
 20
-22.28787298704956
 10
40.71965059745898
 20
-22.28787298704956
 10
40.99904784131274
 20
-22.28787298704956
 10
41.61709797136656
 20
-21.83053656138264
 10
41.86273327946488
 20
-21.66965060222148
 10
41.86273327946488
 20
-21.66965060222148
 10
41.90510795393345
 20
-22.01691622713466
 10
41.90510795393345
 20
-22.01691622713466
 10
41.51546765455169
 20
-22.31319443886615
 10
40.49089625723839
 20
-23.14311794126283
 10
40.02546385718114
 20
-23.14311794126283
 10
39.7712158103697
 20
-23.14311794126283
 10
39.63582355779938
 20
-22.92280408498111
 10
39.63582355779938
 20
-22.69422199953478
 10
39.63582355779938
 20
-22.16074896364384
 10
40.22011175209775
 20
-21.51737738177344
 10
40.52500270254236
 20
-21.11929659845282
 10
40.52500270254236
 20
-21.11929659845282
 10
40.50812173466464
 20
-21.10241563057509
 10
40.50812173466464
 20
-21.10241563057509
 10
39.06014810221413
 20
-22.09305283735868
 10
38.63674586707693
 20
-22.99067246604053
 10
38.36561685238777
 20
-22.99067246604053
 10
38.06933864065628
 20
-22.99067246604053
 10
38.02696396618771
 20
-22.33024766151813
 10
38.02696396618771
 20
-22.13542751182726
 10
38.02696396618771
 20
-21.55113931752888
 10
38.24710556769517
 20
-21.14479030504366
 10
38.54338377942666
 20
-20.66213242756016
 10
39.54280597969763
 20
-19.01089816147991
 10
41.22780218153333
 20
-17.52916259327396
 10
41.51546765455169
 20
-17.52916259327396
 10
41.65120441667053
 20
-17.52916259327396
 10
41.8796142473426
 20
-17.58841823562026
 10
41.8796142473426
 20
-17.75774467872029
 10
41.8796142473426
 20
-18.3335923890798
 10
39.18692761607132
 20
-21.12773708239168
 10
38.64501409624152
 20
-21.66121011828261
 10
38.64501409624152
 20
-21.66121011828261
 10
38.64501409624152
 20
-21.99142252054381
 10
38.64501409624152
 20
-21.99142252054381
 97
        0
 75
     2
 76
     1
 98
        0
  0
SPLINE
  5
4D
330
3D
100
AcDbEntity
  8
Layer 1
370
     0
100
AcDbSpline
210
0.0
220
0.0
230
1.0
 70
    11
 71
     3
 72
    68
 73
    64
 74
     0
 42
0.0000000001
 43
0.0000000001
 40
0.0
 40
0.0
 40
0.0
 40
0.0
 40
1.0
 40
1.0
 40
1.0
 40
2.0
 40
2.0
 40
2.0
 40
3.0
 40
3.0
 40
3.0
 40
4.0
 40
4.0
 40
4.0
 40
5.0
 40
5.0
 40
5.0
 40
6.0
 40
6.0
 40
6.0
 40
7.0
 40
7.0
 40
7.0
 40
8.0
 40
8.0
 40
8.0
 40
9.0
 40
9.0
 40
9.0
 40
10.0
 40
10.0
 40
10.0
 40
11.0
 40
11.0
 40
11.0
 40
12.0
 40
12.0
 40
12.0
 40
13.0
 40
13.0
 40
13.0
 40
14.0
 40
14.0
 40
14.0
 40
15.0
 40
15.0
 40
15.0
 40
16.0
 40
16.0
 40
16.0
 40
17.0
 40
17.0
 40
17.0
 40
18.0
 40
18.0
 40
18.0
 40
19.0
 40
19.0
 40
19.0
 40
20.0
 40
20.0
 40
20.0
 40
21.0
 40
21.0
 40
21.0
 40
21.0
 10
47.68701170682825
 20
-22.95501572776819
 30
0.0
 10
47.68701170682825
 20
-23.00462510275579
 30
0.0
 10
47.65256075197575
 20
-23.03907605760829
 30
0.0
 10
47.58365884227075
 20
-23.05836859232569
 30
0.0
 10
47.50097655062476
 20
-23.08041720343128
 30
0.0
 10
47.24466144652217
 20
-23.09144150898409
 30
0.0
 10
46.81471352996299
 20
-23.09144150898409
 30
0.0
 10
46.42059460645041
 20
-23.09144150898409
 30
0.0
 10
46.16703557873602
 20
-23.08041720343128
 30
0.0
 10
46.05403644681983
 20
-23.05836859232569
 30
0.0
 10
45.96032984962103
 20
-23.03907605760829
 30
0.0
 10
45.90107420727473
 20
-22.97706433887379
 30
0.0
 10
45.87626951978093
 20
-22.87233343612219
 30
0.0
 10
45.78256292258214
 20
-22.47545843622141
 30
0.0
 10
45.70952689829484
 20
-22.26324055433003
 30
0.0
 10
45.65716144691905
 20
-22.23567979044802
 30
0.0
 10
45.61306422470785
 20
-22.21638725573063
 30
0.0
 10
45.24374998868907
 20
-22.20674098837193
 30
0.0
 10
44.5492187388627
 20
-22.20674098837193
 30
0.0
 10
44.08068575286872
 20
-22.20674098837193
 30
0.0
 10
43.83126083973663
 20
-22.21914333211883
 30
0.0
 10
43.80094399946643
 20
-22.24394801961262
 30
0.0
 10
43.75409070086703
 20
-22.28804524182382
 30
0.0
 10
43.70172524949124
 20
-22.43549532859252
 30
0.0
 10
43.64384764533904
 20
-22.68629827991871
 30
0.0
 10
43.59148219396324
 20
-22.91505262013929
 30
0.0
 10
43.52809243703464
 20
-23.03907605760829
 30
0.0
 10
43.45367837455325
 20
-23.05836859232569
 30
0.0
 10
43.35997177735445
 20
-23.08041720343128
 30
0.0
 10
43.04577906909967
 20
-23.09144150898409
 30
0.0
 10
42.5111002497889
 20
-23.09144150898409
 30
0.0
 10
42.08942056239432
 20
-23.09144150898409
 30
0.0
 10
41.87858071869702
 20
-23.05147840135519
 30
0.0
 10
41.87858071869702
 20
-22.97155218609739
 30
0.0
 10
41.87858071869702
 20
-22.89989420000419
 30
0.0
 10
42.19001735056361
 20
-22.01932779397434
 30
0.0
 10
42.81289061429678
 20
-20.32985296800782
 30
0.0
 10
43.48812932940574
 20
-18.5025743226313
 30
0.0
 10
43.85468748903633
 20
-17.49798447913245
 30
0.0
 10
43.91256509318853
 20
-17.31608343751126
 30
0.0
 10
43.94563800984692
 20
-17.21135253475966
 30
0.0
 10
43.98422307928173
 20
-17.15898708338387
 30
0.0
 10
44.02832030149292
 20
-17.15898708338387
 30
0.0
 10
44.10273436397432
 20
-17.15898708338387
 30
0.0
 10
44.21780055318166
 20
-17.16587727435437
 30
0.0
 10
44.37351886911495
 20
-17.17965765629537
 30
0.0
 10
44.52923718504825
 20
-17.19343803823636
 30
0.0
 10
44.64568141244969
 20
-17.20032822920686
 30
0.0
 10
44.72285155131929
 20
-17.20032822920686
 30
0.0
 10
44.79726561380068
 20
-17.20032822920686
 30
0.0
 10
44.90681965023163
 20
-17.19550509552751
 30
0.0
 10
45.05151366061212
 20
-17.18585882816881
 30
0.0
 10
45.19620767099261
 20
-17.17621256081011
 30
0.0
 10
45.30438366922946
 20
-17.17138942713077
 30
0.0
 10
45.37604165532266
 20
-17.17138942713077
 30
0.0
 10
45.42840710669846
 20
-17.17138942713077
 30
0.0
 10
45.47663844349195
 20
-17.21686468753606
 30
0.0
 10
45.52073566570315
 20
-17.30781520834666
 30
0.0
 10
45.65578340872494
 20
-17.59720322910765
 30
0.0
 10
46.04990233223753
 20
-18.5893907288596
 30
0.0
 10
46.70309243624089
 20
-20.28437770760252
 30
0.0
 10
47.35903861663247
 20
-21.99038899189824
 30
0.0
 10
47.68701170682825
 20
-22.8806016652868
 30
0.0
 10
47.68701170682825
 20
-22.95501572776819
 30
0.0
  0
SPLINE
  5
4E
330
3D
100
AcDbEntity
  8
Layer 1
370
     0
100
AcDbSpline
210
0.0
220
0.0
230
1.0
 70
    11
 71
     3
 72
    29
 73
    25
 74
     0
 42
0.0000000001
 43
0.0000000001
 40
0.0
 40
0.0
 40
0.0
 40
0.0
 40
1.0
 40
1.0
 40
1.0
 40
2.0
 40
2.0
 40
2.0
 40
3.0
 40
3.0
 40
3.0
 40
4.0
 40
4.0
 40
4.0
 40
5.0
 40
5.0
 40
5.0
 40
6.0
 40
6.0
 40
6.0
 40
7.0
 40
7.0
 40
7.0
 40
8.0
 40
8.0
 40
8.0
 40
8.0
 10
44.75592446797769
 20
-19.18883734329307
 30
0.0
 10
44.69804686382549
 20
-19.31010470437386
 30
0.0
 10
44.60020615204439
 20
-19.57330999944695
 30
0.0
 10
44.4624023326344
 20
-19.97845322851233
 30
0.0
 10
44.31357420767161
 20
-20.40840114507151
 30
0.0
 10
44.23916014519021
 20
-20.6605821345918
 30
0.0
 10
44.23916014519021
 20
-20.7349961970732
 30
0.0
 10
44.23916014519021
 20
-20.78460557206079
 30
0.0
 10
44.32184243683621
 20
-20.81216633594279
 30
0.0
 10
44.4872070201282
 20
-20.81767848871919
 30
0.0
 10
44.5726453881624
 20
-20.82319064149559
 30
0.0
 10
44.71320528396059
 20
-20.82594671788379
 30
0.0
 10
44.90888670752278
 20
-20.82594671788379
 30
0.0
 10
45.09078774914397
 20
-20.82594671788379
 30
0.0
 10
45.19138453731327
 20
-20.80389810677819
 30
0.0
 10
45.21067707203066
 20
-20.759800884567
 30
0.0
 10
45.21618922480707
 20
-20.746020502626
 30
0.0
 10
45.21894530119526
 20
-20.7267279679086
 30
0.0
 10
45.21894530119526
 20
-20.7019232804148
 30
0.0
 10
45.21894530119526
 20
-20.6109727596042
 30
0.0
 10
45.15555554426667
 20
-20.36016980827801
 30
0.0
 10
45.02877603040947
 20
-19.94951442643623
 30
0.0
 10
44.90475259294048
 20
-19.55263942653545
 30
0.0
 10
44.81380207212988
 20
-19.29908039882107
 30
0.0
 10
44.75592446797769
 20
-19.18883734329307
 30
0.0
  0
HATCH
  5
4F
330
3D
100
AcDbEntity
  8
Layer 1
 62
   250
420
  2301728
100
AcDbHatch
 10
0.0
 20
0.0
 30
0.0
210
0.0
220
0.0
230
1.0
  2
SOLID
 70
     1
 71
     0
 91
        2
 92
        1
 93
        1
 72
     4
 94
        3
 73
     0
 74
     1
 95
       68
 96
       64
 40
0.0
 40
0.0
 40
0.0
 40
0.0
 40
1.0
 40
1.0
 40
1.0
 40
2.0
 40
2.0
 40
2.0
 40
3.0
 40
3.0
 40
3.0
 40
4.0
 40
4.0
 40
4.0
 40
5.0
 40
5.0
 40
5.0
 40
6.0
 40
6.0
 40
6.0
 40
7.0
 40
7.0
 40
7.0
 40
8.0
 40
8.0
 40
8.0
 40
9.0
 40
9.0
 40
9.0
 40
10.0
 40
10.0
 40
10.0
 40
11.0
 40
11.0
 40
11.0
 40
12.0
 40
12.0
 40
12.0
 40
13.0
 40
13.0
 40
13.0
 40
14.0
 40
14.0
 40
14.0
 40
15.0
 40
15.0
 40
15.0
 40
16.0
 40
16.0
 40
16.0
 40
17.0
 40
17.0
 40
17.0
 40
18.0
 40
18.0
 40
18.0
 40
19.0
 40
19.0
 40
19.0
 40
20.0
 40
20.0
 40
20.0
 40
21.0
 40
21.0
 40
21.0
 40
21.0
 10
47.68701170682825
 20
-22.95501572776819
 10
47.68701170682825
 20
-23.00462510275579
 10
47.65256075197575
 20
-23.03907605760829
 10
47.58365884227075
 20
-23.05836859232569
 10
47.50097655062476
 20
-23.08041720343128
 10
47.24466144652217
 20
-23.09144150898409
 10
46.81471352996299
 20
-23.09144150898409
 10
46.42059460645041
 20
-23.09144150898409
 10
46.16703557873602
 20
-23.08041720343128
 10
46.05403644681983
 20
-23.05836859232569
 10
45.96032984962103
 20
-23.03907605760829
 10
45.90107420727473
 20
-22.97706433887379
 10
45.87626951978093
 20
-22.87233343612219
 10
45.78256292258214
 20
-22.47545843622141
 10
45.70952689829484
 20
-22.26324055433003
 10
45.65716144691905
 20
-22.23567979044802
 10
45.61306422470785
 20
-22.21638725573063
 10
45.24374998868907
 20
-22.20674098837193
 10
44.5492187388627
 20
-22.20674098837193
 10
44.08068575286872
 20
-22.20674098837193
 10
43.83126083973663
 20
-22.21914333211883
 10
43.80094399946643
 20
-22.24394801961262
 10
43.75409070086703
 20
-22.28804524182382
 10
43.70172524949124
 20
-22.43549532859252
 10
43.64384764533904
 20
-22.68629827991871
 10
43.59148219396324
 20
-22.91505262013929
 10
43.52809243703464
 20
-23.03907605760829
 10
43.45367837455325
 20
-23.05836859232569
 10
43.35997177735445
 20
-23.08041720343128
 10
43.04577906909967
 20
-23.09144150898409
 10
42.5111002497889
 20
-23.09144150898409
 10
42.08942056239432
 20
-23.09144150898409
 10
41.87858071869702
 20
-23.05147840135519
 10
41.87858071869702
 20
-22.97155218609739
 10
41.87858071869702
 20
-22.89989420000419
 10
42.19001735056361
 20
-22.01932779397434
 10
42.81289061429678
 20
-20.32985296800782
 10
43.48812932940574
 20
-18.5025743226313
 10
43.85468748903633
 20
-17.49798447913245
 10
43.91256509318853
 20
-17.31608343751126
 10
43.94563800984692
 20
-17.21135253475966
 10
43.98422307928173
 20
-17.15898708338387
 10
44.02832030149292
 20
-17.15898708338387
 10
44.10273436397432
 20
-17.15898708338387
 10
44.21780055318166
 20
-17.16587727435437
 10
44.37351886911495
 20
-17.17965765629537
 10
44.52923718504825
 20
-17.19343803823636
 10
44.64568141244969
 20
-17.20032822920686
 10
44.72285155131929
 20
-17.20032822920686
 10
44.79726561380068
 20
-17.20032822920686
 10
44.90681965023163
 20
-17.19550509552751
 10
45.05151366061212
 20
-17.18585882816881
 10
45.19620767099261
 20
-17.17621256081011
 10
45.30438366922946
 20
-17.17138942713077
 10
45.37604165532266
 20
-17.17138942713077
 10
45.42840710669846
 20
-17.17138942713077
 10
45.47663844349195
 20
-17.21686468753606
 10
45.52073566570315
 20
-17.30781520834666
 10
45.65578340872494
 20
-17.59720322910765
 10
46.04990233223753
 20
-18.5893907288596
 10
46.70309243624089
 20
-20.28437770760252
 10
47.35903861663247
 20
-21.99038899189824
 10
47.68701170682825
 20
-22.8806016652868
 10
47.68701170682825
 20
-22.95501572776819
 97
        0
 92
        1
 93
        1
 72
     4
 94
        3
 73
     0
 74
     1
 95
       29
 96
       25
 40
0.0
 40
0.0
 40
0.0
 40
0.0
 40
1.0
 40
1.0
 40
1.0
 40
2.0
 40
2.0
 40
2.0
 40
3.0
 40
3.0
 40
3.0
 40
4.0
 40
4.0
 40
4.0
 40
5.0
 40
5.0
 40
5.0
 40
6.0
 40
6.0
 40
6.0
 40
7.0
 40
7.0
 40
7.0
 40
8.0
 40
8.0
 40
8.0
 40
8.0
 10
44.75592446797769
 20
-19.18883734329307
 10
44.69804686382549
 20
-19.31010470437386
 10
44.60020615204439
 20
-19.57330999944695
 10
44.4624023326344
 20
-19.97845322851233
 10
44.31357420767161
 20
-20.40840114507151
 10
44.23916014519021
 20
-20.6605821345918
 10
44.23916014519021
 20
-20.7349961970732
 10
44.23916014519021
 20
-20.78460557206079
 10
44.32184243683621
 20
-20.81216633594279
 10
44.4872070201282
 20
-20.81767848871919
 10
44.5726453881624
 20
-20.82319064149559
 10
44.71320528396059
 20
-20.82594671788379
 10
44.90888670752278
 20
-20.82594671788379
 10
45.09078774914397
 20
-20.82594671788379
 10
45.19138453731327
 20
-20.80389810677819
 10
45.21067707203066
 20
-20.759800884567
 10
45.21618922480707
 20
-20.746020502626
 10
45.21894530119526
 20
-20.7267279679086
 10
45.21894530119526
 20
-20.7019232804148
 10
45.21894530119526
 20
-20.6109727596042
 10
45.15555554426667
 20
-20.36016980827801
 10
45.02877603040947
 20
-19.94951442643623
 10
44.90475259294048
 20
-19.55263942653545
 10
44.81380207212988
 20
-19.29908039882107
 10
44.75592446797769
 20
-19.18883734329307
 97
        0
 75
     2
 76
     1
 98
        0
  0
SPLINE
  5
50
330
3D
100
AcDbEntity
  8
Layer 1
370
     0
100
AcDbSpline
210
0.0
220
0.0
230
1.0
 70
    11
 71
     3
 72
    92
 73
    88
 74
     0
 42
0.0000000001
 43
0.0000000001
 40
0.0
 40
0.0
 40
0.0
 40
0.0
 40
1.0
 40
1.0
 40
1.0
 40
2.0
 40
2.0
 40
2.0
 40
3.0
 40
3.0
 40
3.0
 40
4.0
 40
4.0
 40
4.0
 40
5.0
 40
5.0
 40
5.0
 40
6.0
 40
6.0
 40
6.0
 40
7.0
 40
7.0
 40
7.0
 40
8.0
 40
8.0
 40
8.0
 40
9.0
 40
9.0
 40
9.0
 40
10.0
 40
10.0
 40
10.0
 40
11.0
 40
11.0
 40
11.0
 40
12.0
 40
12.0
 40
12.0
 40
13.0
 40
13.0
 40
13.0
 40
14.0
 40
14.0
 40
14.0
 40
15.0
 40
15.0
 40
15.0
 40
16.0
 40
16.0
 40
16.0
 40
17.0
 40
17.0
 40
17.0
 40
18.0
 40
18.0
 40
18.0
 40
19.0
 40
19.0
 40
19.0
 40
20.0
 40
20.0
 40
20.0
 40
21.0
 40
21.0
 40
21.0
 40
22.0
 40
22.0
 40
22.0
 40
23.0
 40
23.0
 40
23.0
 40
24.0
 40
24.0
 40
24.0
 40
25.0
 40
25.0
 40
25.0
 40
26.0
 40
26.0
 40
26.0
 40
27.0
 40
27.0
 40
27.0
 40
28.0
 40
28.0
 40
28.0
 40
29.0
 40
29.0
 40
29.0
 40
29.0
 10
52.13531899738284
 20
-18.5232448955428
 30
0.0
 10
52.13531899738284
 20
-18.5783664233068
 30
0.0
 10
52.10500215711264
 20
-18.6059271871888
 30
0.0
 10
52.04436847657225
 20
-18.6059271871888
 30
0.0
 10
51.93963757382065
 20
-18.6059271871888
 30
0.0
 10
51.52484807739657
 20
-18.5852566142773
 30
0.0
 10
50.7999999873
 20
-18.5439154684543
 30
0.0
 10
50.78346352897081
 20
-19.24120279466887
 30
0.0
 10
50.77519529980621
 20
-19.72765027718614
 30
0.0
 10
50.77519529980621
 20
-20.00325791600613
 30
0.0
 10
50.77519529980621
 20
-20.32847492981372
 30
0.0
 10
50.78828666265015
 20
-20.81767848871919
 30
0.0
 10
50.81446938833805
 20
-21.47086859272256
 30
0.0
 10
50.84065211402595
 20
-22.12405869672593
 30
0.0
 10
50.8537434768699
 20
-22.61326225563141
 30
0.0
 10
50.8537434768699
 20
-22.93847926943899
 30
0.0
 10
50.8537434768699
 20
-22.99084472081479
 30
0.0
 10
50.841341133123
 20
-23.02391763747319
 30
0.0
 10
50.8165364456292
 20
-23.03769801941419
 30
0.0
 10
50.8082682164646
 20
-23.04321017219059
 30
0.0
 10
50.7696831470298
 20
-23.05010036316109
 30
0.0
 10
50.7007812373248
 20
-23.05836859232569
 30
0.0
 10
50.53541665403282
 20
-23.08041720343128
 30
0.0
 10
50.29288193187123
 20
-23.09144150898409
 30
0.0
 10
49.97317707084004
 20
-23.09144150898409
 30
0.0
 10
49.61764321676226
 20
-23.09144150898409
 30
0.0
 10
49.36821830363017
 20
-23.08041720343128
 30
0.0
 10
49.22490233144378
 20
-23.05836859232569
 30
0.0
 10
49.14773219257418
 20
-23.04458821038469
 30
0.0
 10
49.10914712313938
 20
-23.00186902636759
 30
0.0
 10
49.10914712313938
 20
-22.93021104027439
 30
0.0
 10
49.10914712313938
 20
-22.60499402646681
 30
0.0
 10
49.12292750508038
 20
-22.11716850575543
 30
0.0
 10
49.15048826896238
 20
-21.46673447814026
 30
0.0
 10
49.17804903284438
 20
-20.81630045052509
 30
0.0
 10
49.19182941478538
 20
-20.32847492981372
 30
0.0
 10
49.19182941478538
 20
-20.00325791600613
 30
0.0
 10
49.19182941478538
 20
-19.78828395772654
 30
0.0
 10
49.18080510923258
 20
-19.30872666617976
 30
0.0
 10
49.15875649812698
 20
-18.5645860413658
 30
0.0
 10
48.60754122048701
 20
-18.6197075691298
 30
0.0
 10
48.16794703656912
 20
-18.64726833301179
 30
0.0
 10
47.83997394637334
 20
-18.64726833301179
 30
0.0
 10
47.79587672416214
 20
-18.64726833301179
 30
0.0
 10
47.77382811305655
 20
-18.63348795107079
 30
0.0
 10
47.77382811305655
 20
-18.6059271871888
 30
0.0
 10
47.77382811305655
 20
-18.5700981941422
 30
0.0
 10
47.79312064777395
 20
-18.46398925319651
 30
0.0
 10
47.83170571720874
 20
-18.28760036435171
 30
0.0
 10
47.87580293941994
 20
-18.09467501717772
 30
0.0
 10
47.90060762691374
 20
-17.97754177067923
 30
0.0
 10
47.90611977969014
 20
-17.93620062485623
 30
0.0
 10
47.91438800885474
 20
-17.80666503461083
 30
0.0
 10
47.92403427621344
 20
-17.67712944436544
 30
0.0
 10
47.93505858176623
 20
-17.54759385412005
 30
0.0
 10
47.95435111648364
 20
-17.34088812500505
 30
0.0
 10
47.98742403314203
 20
-17.23753526044756
 30
0.0
 10
48.03427733174144
 20
-17.23753526044756
 30
0.0
 10
48.03978948451783
 20
-17.23753526044756
 30
0.0
 10
48.05908201923523
 20
-17.23891329864166
 30
0.0
 10
48.09215493589363
 20
-17.24166937502986
 30
0.0
 10
48.53863931078201
 20
-17.29954697918206
 30
0.0
 10
49.19871960575588
 20
-17.32848578125816
 30
0.0
 10
50.07239582081524
 20
-17.32848578125816
 30
0.0
 10
50.32044269575322
 20
-17.32848578125816
 30
0.0
 10
50.7779513761944
 20
-17.30230305557026
 30
0.0
 10
51.44492186213877
 20
-17.24993760419446
 30
0.0
 10
51.80321179260476
 20
-17.22237684031246
 30
0.0
 10
51.98373479603185
 20
-17.20859645837146
 30
0.0
 10
51.98649087242005
 20
-17.20859645837146
 30
0.0
 10
52.04161240018404
 20
-17.20859645837146
 30
0.0
 10
52.07330727864834
 20
-17.21204155385671
 30
0.0
 10
52.08157550781294
 20
-17.21893174482721
 30
0.0
 10
52.08984373697754
 20
-17.22582193579771
 30
0.0
 10
52.09535588975394
 20
-17.25269368058266
 30
0.0
 10
52.09811196614214
 20
-17.29954697918206
 30
0.0
 10
52.09811196614214
 20
-17.37396104166346
 30
0.0
 10
52.09535588975394
 20
-17.47731390622095
 30
0.0
 10
52.08984373697754
 20
-17.60960557285454
 30
0.0
 10
52.08433158420114
 20
-17.75567762142914
 30
0.0
 10
52.08157550781294
 20
-17.85903048598663
 30
0.0
 10
52.08157550781294
 20
-17.91966416652703
 30
0.0
 10
52.08157550781294
 20
-17.98856607623203
 30
0.0
 10
52.09053275607459
 20
-18.08985188349837
 30
0.0
 10
52.10844725259789
 20
-18.22352158832607
 30
0.0
 10
52.12636174912119
 20
-18.35719129315376
 30
0.0
 10
52.13531899738284
 20
-18.457099062226
 30
0.0
 10
52.13531899738284
 20
-18.5232448955428
 30
0.0
  0
HATCH
  5
51
330
3D
100
AcDbEntity
  8
Layer 1
 62
   250
420
  2301728
100
AcDbHatch
 10
0.0
 20
0.0
 30
0.0
210
0.0
220
0.0
230
1.0
  2
SOLID
 70
     1
 71
     0
 91
        1
 92
        1
 93
        1
 72
     4
 94
        3
 73
     0
 74
     1
 95
       92
 96
       88
 40
0.0
 40
0.0
 40
0.0
 40
0.0
 40
1.0
 40
1.0
 40
1.0
 40
2.0
 40
2.0
 40
2.0
 40
3.0
 40
3.0
 40
3.0
 40
4.0
 40
4.0
 40
4.0
 40
5.0
 40
5.0
 40
5.0
 40
6.0
 40
6.0
 40
6.0
 40
7.0
 40
7.0
 40
7.0
 40
8.0
 40
8.0
 40
8.0
 40
9.0
 40
9.0
 40
9.0
 40
10.0
 40
10.0
 40
10.0
 40
11.0
 40
11.0
 40
11.0
 40
12.0
 40
12.0
 40
12.0
 40
13.0
 40
13.0
 40
13.0
 40
14.0
 40
14.0
 40
14.0
 40
15.0
 40
15.0
 40
15.0
 40
16.0
 40
16.0
 40
16.0
 40
17.0
 40
17.0
 40
17.0
 40
18.0
 40
18.0
 40
18.0
 40
19.0
 40
19.0
 40
19.0
 40
20.0
 40
20.0
 40
20.0
 40
21.0
 40
21.0
 40
21.0
 40
22.0
 40
22.0
 40
22.0
 40
23.0
 40
23.0
 40
23.0
 40
24.0
 40
24.0
 40
24.0
 40
25.0
 40
25.0
 40
25.0
 40
26.0
 40
26.0
 40
26.0
 40
27.0
 40
27.0
 40
27.0
 40
28.0
 40
28.0
 40
28.0
 40
29.0
 40
29.0
 40
29.0
 40
29.0
 10
52.13531899738284
 20
-18.5232448955428
 10
52.13531899738284
 20
-18.5783664233068
 10
52.10500215711264
 20
-18.6059271871888
 10
52.04436847657225
 20
-18.6059271871888
 10
51.93963757382065
 20
-18.6059271871888
 10
51.52484807739657
 20
-18.5852566142773
 10
50.7999999873
 20
-18.5439154684543
 10
50.78346352897081
 20
-19.24120279466887
 10
50.77519529980621
 20
-19.72765027718614
 10
50.77519529980621
 20
-20.00325791600613
 10
50.77519529980621
 20
-20.32847492981372
 10
50.78828666265015
 20
-20.81767848871919
 10
50.81446938833805
 20
-21.47086859272256
 10
50.84065211402595
 20
-22.12405869672593
 10
50.8537434768699
 20
-22.61326225563141
 10
50.8537434768699
 20
-22.93847926943899
 10
50.8537434768699
 20
-22.99084472081479
 10
50.841341133123
 20
-23.02391763747319
 10
50.8165364456292
 20
-23.03769801941419
 10
50.8082682164646
 20
-23.04321017219059
 10
50.7696831470298
 20
-23.05010036316109
 10
50.7007812373248
 20
-23.05836859232569
 10
50.53541665403282
 20
-23.08041720343128
 10
50.29288193187123
 20
-23.09144150898409
 10
49.97317707084004
 20
-23.09144150898409
 10
49.61764321676226
 20
-23.09144150898409
 10
49.36821830363017
 20
-23.08041720343128
 10
49.22490233144378
 20
-23.05836859232569
 10
49.14773219257418
 20
-23.04458821038469
 10
49.10914712313938
 20
-23.00186902636759
 10
49.10914712313938
 20
-22.93021104027439
 10
49.10914712313938
 20
-22.60499402646681
 10
49.12292750508038
 20
-22.11716850575543
 10
49.15048826896238
 20
-21.46673447814026
 10
49.17804903284438
 20
-20.81630045052509
 10
49.19182941478538
 20
-20.32847492981372
 10
49.19182941478538
 20
-20.00325791600613
 10
49.19182941478538
 20
-19.78828395772654
 10
49.18080510923258
 20
-19.30872666617976
 10
49.15875649812698
 20
-18.5645860413658
 10
48.60754122048701
 20
-18.6197075691298
 10
48.16794703656912
 20
-18.64726833301179
 10
47.83997394637334
 20
-18.64726833301179
 10
47.79587672416214
 20
-18.64726833301179
 10
47.77382811305655
 20
-18.63348795107079
 10
47.77382811305655
 20
-18.6059271871888
 10
47.77382811305655
 20
-18.5700981941422
 10
47.79312064777395
 20
-18.46398925319651
 10
47.83170571720874
 20
-18.28760036435171
 10
47.87580293941994
 20
-18.09467501717772
 10
47.90060762691374
 20
-17.97754177067923
 10
47.90611977969014
 20
-17.93620062485623
 10
47.91438800885474
 20
-17.80666503461083
 10
47.92403427621344
 20
-17.67712944436544
 10
47.93505858176623
 20
-17.54759385412005
 10
47.95435111648364
 20
-17.34088812500505
 10
47.98742403314203
 20
-17.23753526044756
 10
48.03427733174144
 20
-17.23753526044756
 10
48.03978948451783
 20
-17.23753526044756
 10
48.05908201923523
 20
-17.23891329864166
 10
48.09215493589363
 20
-17.24166937502986
 10
48.53863931078201
 20
-17.29954697918206
 10
49.19871960575588
 20
-17.32848578125816
 10
50.07239582081524
 20
-17.32848578125816
 10
50.32044269575322
 20
-17.32848578125816
 10
50.7779513761944
 20
-17.30230305557026
 10
51.44492186213877
 20
-17.24993760419446
 10
51.80321179260476
 20
-17.22237684031246
 10
51.98373479603185
 20
-17.20859645837146
 10
51.98649087242005
 20
-17.20859645837146
 10
52.04161240018404
 20
-17.20859645837146
 10
52.07330727864834
 20
-17.21204155385671
 10
52.08157550781294
 20
-17.21893174482721
 10
52.08984373697754
 20
-17.22582193579771
 10
52.09535588975394
 20
-17.25269368058266
 10
52.09811196614214
 20
-17.29954697918206
 10
52.09811196614214
 20
-17.37396104166346
 10
52.09535588975394
 20
-17.47731390622095
 10
52.08984373697754
 20
-17.60960557285454
 10
52.08433158420114
 20
-17.75567762142914
 10
52.08157550781294
 20
-17.85903048598663
 10
52.08157550781294
 20
-17.91966416652703
 10
52.08157550781294
 20
-17.98856607623203
 10
52.09053275607459
 20
-18.08985188349837
 10
52.10844725259789
 20
-18.22352158832607
 10
52.12636174912119
 20
-18.35719129315376
 10
52.13531899738284
 20
-18.457099062226
 10
52.13531899738284
 20
-18.5232448955428
 97
        0
 75
     2
 76
     1
 98
        0
  0
SPLINE
  5
52
330
3D
100
AcDbEntity
  8
Layer 1
370
     0
100
AcDbSpline
210
0.0
220
0.0
230
1.0
 70
    11
 71
     3
 72
   128
 73
   124
 74
     0
 42
0.0000000001
 43
0.0000000001
 40
0.0
 40
0.0
 40
0.0
 40
0.0
 40
1.0
 40
1.0
 40
1.0
 40
2.0
 40
2.0
 40
2.0
 40
3.0
 40
3.0
 40
3.0
 40
4.0
 40
4.0
 40
4.0
 40
5.0
 40
5.0
 40
5.0
 40
6.0
 40
6.0
 40
6.0
 40
7.0
 40
7.0
 40
7.0
 40
8.0
 40
8.0
 40
8.0
 40
9.0
 40
9.0
 40
9.0
 40
10.0
 40
10.0
 40
10.0
 40
11.0
 40
11.0
 40
11.0
 40
12.0
 40
12.0
 40
12.0
 40
13.0
 40
13.0
 40
13.0
 40
14.0
 40
14.0
 40
14.0
 40
15.0
 40
15.0
 40
15.0
 40
16.0
 40
16.0
 40
16.0
 40
17.0
 40
17.0
 40
17.0
 40
18.0
 40
18.0
 40
18.0
 40
19.0
 40
19.0
 40
19.0
 40
20.0
 40
20.0
 40
20.0
 40
21.0
 40
21.0
 40
21.0
 40
22.0
 40
22.0
 40
22.0
 40
23.0
 40
23.0
 40
23.0
 40
24.0
 40
24.0
 40
24.0
 40
25.0
 40
25.0
 40
25.0
 40
26.0
 40
26.0
 40
26.0
 40
27.0
 40
27.0
 40
27.0
 40
28.0
 40
28.0
 40
28.0
 40
29.0
 40
29.0
 40
29.0
 40
30.0
 40
30.0
 40
30.0
 40
31.0
 40
31.0
 40
31.0
 40
32.0
 40
32.0
 40
32.0
 40
33.0
 40
33.0
 40
33.0
 40
34.0
 40
34.0
 40
34.0
 40
35.0
 40
35.0
 40
35.0
 40
36.0
 40
36.0
 40
36.0
 40
37.0
 40
37.0
 40
37.0
 40
38.0
 40
38.0
 40
38.0
 40
39.0
 40
39.0
 40
39.0
 40
40.0
 40
40.0
 40
40.0
 40
41.0
 40
41.0
 40
41.0
 40
41.0
 10
57.14173175654791
 20
-22.50853135287981
 30
0.0
 10
57.14173175654791
 20
-22.7786268389234
 30
0.0
 10
57.12932941280101
 20
-22.93847926943899
 30
0.0
 10
57.10452472530721
 20
-22.98808864442659
 30
0.0
 10
57.074207885037
 20
-23.04872232496699
 30
0.0
 10
56.98050128783821
 20
-23.07903916523719
 30
0.0
 10
56.82340493371082
 20
-23.07903916523719
 30
0.0
 10
56.79860024621702
 20
-23.07903916523719
 30
0.0
 10
56.74347871845302
 20
-23.07903916523719
 30
0.0
 10
56.65804035041882
 20
-23.07903916523719
 30
0.0
 10
56.57535805877283
 20
-23.07628308884899
 30
0.0
 10
56.50576712997078
 20
-23.07490505065489
 30
0.0
 10
56.44926756401269
 20
-23.07490505065489
 30
0.0
 10
56.39276799805459
 20
-23.07490505065489
 30
0.0
 10
56.3087076682145
 20
-23.07214897426669
 30
0.0
 10
56.1970865744924
 20
-23.06663682149028
 30
0.0
 10
56.0854654807703
 20
-23.06112466871389
 30
0.0
 10
56.00209417002726
 20
-23.05836859232569
 30
0.0
 10
55.94697264226326
 20
-23.05836859232569
 30
0.0
 10
55.90287542005206
 20
-23.05836859232569
 30
0.0
 10
55.70443792010167
 20
-22.7937852590585
 30
0.0
 10
55.35166014241209
 20
-22.26461859252412
 30
0.0
 10
54.9988823647225
 20
-21.73545192598975
 30
0.0
 10
54.81560328490721
 20
-21.46949055452846
 30
0.0
 10
54.80182290296622
 20
-21.46673447814026
 30
0.0
 10
54.74394529881402
 20
-21.51358777673966
 30
0.0
 10
54.54550779886362
 20
-21.79195149194785
 30
0.0
 10
54.20651040311504
 20
-22.30182562376482
 30
0.0
 10
53.88129338930746
 20
-22.7896511444762
 30
0.0
 10
53.69112411852166
 20
-23.04183213399649
 30
0.0
 10
53.63600259075767
 20
-23.05836859232569
 30
0.0
 10
53.59741752132287
 20
-23.06939289787849
 30
0.0
 10
53.49406465676537
 20
-23.07490505065489
 30
0.0
 10
53.32594399708518
 20
-23.07490505065489
 30
0.0
 10
52.76094833750421
 20
-23.07490505065489
 30
0.0
 10
52.47845050771372
 20
-23.04596624857879
 30
0.0
 10
52.47845050771372
 20
-22.98808864442659
 30
0.0
 10
52.47845050771372
 20
-22.93021104027439
 30
0.0
 10
52.47500541222848
 20
-22.8475287486284
 30
0.0
 10
52.46811522125797
 20
-22.7400417694886
 30
0.0
 10
52.46122503028747
 20
-22.63255479034881
 30
0.0
 10
52.45777993480223
 20
-22.55262857509101
 30
0.0
 10
52.45777993480223
 20
-22.50026312371521
 30
0.0
 10
52.45777993480223
 20
-22.15850965157843
 30
0.0
 10
52.47845050771372
 20
-21.95731607523984
 30
0.0
 10
52.51979165353672
 20
-21.89668239469944
 30
0.0
 10
52.52254772992492
 20
-21.89392631831124
 30
0.0
 10
52.74992403195141
 20
-21.59213595380336
 30
0.0
 10
53.20192055961619
 20
-20.99131130117578
 30
0.0
 10
53.56847871924677
 20
-20.50624185685261
 30
0.0
 10
53.75175779906206
 20
-20.22925617983852
 30
0.0
 10
53.75175779906206
 20
-20.16035427013352
 30
0.0
 10
53.75175779906206
 20
-20.09145236042853
 30
0.0
 10
53.56847871924677
 20
-19.81860079799674
 30
0.0
 10
53.20192055961619
 20
-19.34179958283816
 30
0.0
 10
52.9704101430074
 20
-19.04689940930077
 30
0.0
 10
52.74027776459271
 20
-18.75062119756929
 30
0.0
 10
52.51152342437212
 20
-18.4529649476437
 30
0.0
 10
52.48671873687832
 20
-18.41713595459711
 30
0.0
 10
52.47156031674322
 20
-18.35788031225081
 30
0.0
 10
52.46604816396682
 20
-18.27519802060481
 30
0.0
 10
52.46329208757862
 20
-18.21732041645262
 30
0.0
 10
52.46329208757862
 20
-18.13877223938892
 30
0.0
 10
52.46604816396682
 20
-18.03955348941372
 30
0.0
 10
52.47431639313142
 20
-17.92104220472113
 30
0.0
 10
52.47845050771372
 20
-17.85489637140433
 30
0.0
 10
52.47845050771372
 20
-17.84111598946333
 30
0.0
 10
52.47845050771372
 20
-17.78599446169934
 30
0.0
 10
52.47362737403437
 20
-17.70055609366514
 30
0.0
 10
52.46398110667567
 20
-17.58480088536075
 30
0.0
 10
52.45433483931697
 20
-17.46904567705635
 30
0.0
 10
52.44951170563763
 20
-17.38360730902215
 30
0.0
 10
52.44951170563763
 20
-17.32848578125816
 30
0.0
 10
52.44951170563763
 20
-17.27612032988236
 30
0.0
 10
52.49774304243113
 20
-17.24993760419446
 30
0.0
 10
52.59420571601812
 20
-17.24993760419446
 30
0.0
 10
52.65759547294672
 20
-17.24993760419446
 30
0.0
 10
52.75130207014551
 20
-17.25407171877676
 30
0.0
 10
52.87532550761451
 20
-17.26233994794136
 30
0.0
 10
52.9993489450835
 20
-17.27060817710596
 30
0.0
 10
53.0916775040882
 20
-17.27474229168826
 30
0.0
 10
53.15231118462859
 20
-17.27474229168826
 30
0.0
 10
53.20743271239259
 20
-17.27474229168826
 30
0.0
 10
53.28873696584449
 20
-17.27198621530006
 30
0.0
 10
53.39622394498428
 20
-17.26647406252366
 30
0.0
 10
53.50371092412407
 20
-17.26096190974726
 30
0.0
 10
53.58363713938187
 20
-17.25820583335906
 30
0.0
 10
53.63600259075767
 20
-17.25820583335906
 30
0.0
 10
53.68009981296887
 20
-17.25820583335906
 30
0.0
 10
53.88060437021041
 20
-17.5262342621115
 30
0.0
 10
54.23751626248229
 20
-18.06229111961637
 30
0.0
 10
54.59442815475418
 20
-18.59834797712125
 30
0.0
 10
54.78115233005472
 20
-18.86637640587368
 30
0.0
 10
54.79768878838392
 20
-18.86637640587368
 30
0.0
 10
54.85281031614791
 20
-18.83330348921529
 30
0.0
 10
55.0553819306806
 20
-18.5521836976189
 30
0.0
 10
55.40540363198198
 20
-18.02301703108452
 30
0.0
 10
55.73888887495417
 20
-17.51314289926755
 30
0.0
 10
55.93043618393406
 20
-17.25820583335906
 30
0.0
 10
55.98004555892166
 20
-17.25820583335906
 30
0.0
 10
55.98004555892166
 20
-17.25820583335906
 30
0.0
 10
56.96396482950901
 20
-17.25820583335906
 30
0.0
 10
56.96396482950901
 20
-17.25820583335906
 30
0.0
 10
57.06042750309601
 20
-17.25820583335906
 30
0.0
 10
57.10865883988951
 20
-17.28163248265876
 30
0.0
 10
57.10865883988951
 20
-17.32848578125816
 30
0.0
 10
57.10865883988951
 20
-17.32848578125816
 30
0.0
 10
57.10865883988951
 20
-18.33307562475701
 30
0.0
 10
57.10865883988951
 20
-18.33307562475701
 30
0.0
 10
57.10865883988951
 20
-18.40473361085021
 30
0.0
 10
56.89575193890106
 20
-18.71754828091089
 30
0.0
 10
56.46993813692418
 20
-19.27151963493906
 30
0.0
 10
56.04412433494731
 20
-19.82549098896724
 30
0.0
 10
55.83121743395886
 20
-20.11901312431053
 30
0.0
 10
55.83121743395886
 20
-20.15208604096892
 30
0.0
 10
55.83121743395886
 20
-20.19893933956832
 30
0.0
 10
56.01863062835645
 20
-20.47041286380601
 30
0.0
 10
56.39345701715164
 20
-20.96650661368199
 30
0.0
 10
56.83442923926362
 20
-21.54803873159216
 30
0.0
 10
57.06456161767831
 20
-21.85258517248824
 30
0.0
 10
57.08385415239571
 20
-21.88014593637024
 30
0.0
 10
57.1224392218305
 20
-21.94077961691064
 30
0.0
 10
57.14173175654791
 20
-22.15024142241383
 30
0.0
 10
57.14173175654791
 20
-22.50853135287981
 30
0.0
  0
HATCH
  5
53
330
3D
100
AcDbEntity
  8
Layer 1
 62
   250
420
  2301728
100
AcDbHatch
 10
0.0
 20
0.0
 30
0.0
210
0.0
220
0.0
230
1.0
  2
SOLID
 70
     1
 71
     0
 91
        1
 92
        1
 93
        1
 72
     4
 94
        3
 73
     0
 74
     1
 95
      128
 96
      124
 40
0.0
 40
0.0
 40
0.0
 40
0.0
 40
1.0
 40
1.0
 40
1.0
 40
2.0
 40
2.0
 40
2.0
 40
3.0
 40
3.0
 40
3.0
 40
4.0
 40
4.0
 40
4.0
 40
5.0
 40
5.0
 40
5.0
 40
6.0
 40
6.0
 40
6.0
 40
7.0
 40
7.0
 40
7.0
 40
8.0
 40
8.0
 40
8.0
 40
9.0
 40
9.0
 40
9.0
 40
10.0
 40
10.0
 40
10.0
 40
11.0
 40
11.0
 40
11.0
 40
12.0
 40
12.0
 40
12.0
 40
13.0
 40
13.0
 40
13.0
 40
14.0
 40
14.0
 40
14.0
 40
15.0
 40
15.0
 40
15.0
 40
16.0
 40
16.0
 40
16.0
 40
17.0
 40
17.0
 40
17.0
 40
18.0
 40
18.0
 40
18.0
 40
19.0
 40
19.0
 40
19.0
 40
20.0
 40
20.0
 40
20.0
 40
21.0
 40
21.0
 40
21.0
 40
22.0
 40
22.0
 40
22.0
 40
23.0
 40
23.0
 40
23.0
 40
24.0
 40
24.0
 40
24.0
 40
25.0
 40
25.0
 40
25.0
 40
26.0
 40
26.0
 40
26.0
 40
27.0
 40
27.0
 40
27.0
 40
28.0
 40
28.0
 40
28.0
 40
29.0
 40
29.0
 40
29.0
 40
30.0
 40
30.0
 40
30.0
 40
31.0
 40
31.0
 40
31.0
 40
32.0
 40
32.0
 40
32.0
 40
33.0
 40
33.0
 40
33.0
 40
34.0
 40
34.0
 40
34.0
 40
35.0
 40
35.0
 40
35.0
 40
36.0
 40
36.0
 40
36.0
 40
37.0
 40
37.0
 40
37.0
 40
38.0
 40
38.0
 40
38.0
 40
39.0
 40
39.0
 40
39.0
 40
40.0
 40
40.0
 40
40.0
 40
41.0
 40
41.0
 40
41.0
 40
41.0
 10
57.14173175654791
 20
-22.50853135287981
 10
57.14173175654791
 20
-22.7786268389234
 10
57.12932941280101
 20
-22.93847926943899
 10
57.10452472530721
 20
-22.98808864442659
 10
57.074207885037
 20
-23.04872232496699
 10
56.98050128783821
 20
-23.07903916523719
 10
56.82340493371082
 20
-23.07903916523719
 10
56.79860024621702
 20
-23.07903916523719
 10
56.74347871845302
 20
-23.07903916523719
 10
56.65804035041882
 20
-23.07903916523719
 10
56.57535805877283
 20
-23.07628308884899
 10
56.50576712997078
 20
-23.07490505065489
 10
56.44926756401269
 20
-23.07490505065489
 10
56.39276799805459
 20
-23.07490505065489
 10
56.3087076682145
 20
-23.07214897426669
 10
56.1970865744924
 20
-23.06663682149028
 10
56.0854654807703
 20
-23.06112466871389
 10
56.00209417002726
 20
-23.05836859232569
 10
55.94697264226326
 20
-23.05836859232569
 10
55.90287542005206
 20
-23.05836859232569
 10
55.70443792010167
 20
-22.7937852590585
 10
55.35166014241209
 20
-22.26461859252412
 10
54.9988823647225
 20
-21.73545192598975
 10
54.81560328490721
 20
-21.46949055452846
 10
54.80182290296622
 20
-21.46673447814026
 10
54.74394529881402
 20
-21.51358777673966
 10
54.54550779886362
 20
-21.79195149194785
 10
54.20651040311504
 20
-22.30182562376482
 10
53.88129338930746
 20
-22.7896511444762
 10
53.69112411852166
 20
-23.04183213399649
 10
53.63600259075767
 20
-23.05836859232569
 10
53.59741752132287
 20
-23.06939289787849
 10
53.49406465676537
 20
-23.07490505065489
 10
53.32594399708518
 20
-23.07490505065489
 10
52.76094833750421
 20
-23.07490505065489
 10
52.47845050771372
 20
-23.04596624857879
 10
52.47845050771372
 20
-22.98808864442659
 10
52.47845050771372
 20
-22.93021104027439
 10
52.47500541222848
 20
-22.8475287486284
 10
52.46811522125797
 20
-22.7400417694886
 10
52.46122503028747
 20
-22.63255479034881
 10
52.45777993480223
 20
-22.55262857509101
 10
52.45777993480223
 20
-22.50026312371521
 10
52.45777993480223
 20
-22.15850965157843
 10
52.47845050771372
 20
-21.95731607523984
 10
52.51979165353672
 20
-21.89668239469944
 10
52.52254772992492
 20
-21.89392631831124
 10
52.74992403195141
 20
-21.59213595380336
 10
53.20192055961619
 20
-20.99131130117578
 10
53.56847871924677
 20
-20.50624185685261
 10
53.75175779906206
 20
-20.22925617983852
 10
53.75175779906206
 20
-20.16035427013352
 10
53.75175779906206
 20
-20.09145236042853
 10
53.56847871924677
 20
-19.81860079799674
 10
53.20192055961619
 20
-19.34179958283816
 10
52.9704101430074
 20
-19.04689940930077
 10
52.74027776459271
 20
-18.75062119756929
 10
52.51152342437212
 20
-18.4529649476437
 10
52.48671873687832
 20
-18.41713595459711
 10
52.47156031674322
 20
-18.35788031225081
 10
52.46604816396682
 20
-18.27519802060481
 10
52.46329208757862
 20
-18.21732041645262
 10
52.46329208757862
 20
-18.13877223938892
 10
52.46604816396682
 20
-18.03955348941372
 10
52.47431639313142
 20
-17.92104220472113
 10
52.47845050771372
 20
-17.85489637140433
 10
52.47845050771372
 20
-17.84111598946333
 10
52.47845050771372
 20
-17.78599446169934
 10
52.47362737403437
 20
-17.70055609366514
 10
52.46398110667567
 20
-17.58480088536075
 10
52.45433483931697
 20
-17.46904567705635
 10
52.44951170563763
 20
-17.38360730902215
 10
52.44951170563763
 20
-17.32848578125816
 10
52.44951170563763
 20
-17.27612032988236
 10
52.49774304243113
 20
-17.24993760419446
 10
52.59420571601812
 20
-17.24993760419446
 10
52.65759547294672
 20
-17.24993760419446
 10
52.75130207014551
 20
-17.25407171877676
 10
52.87532550761451
 20
-17.26233994794136
 10
52.9993489450835
 20
-17.27060817710596
 10
53.0916775040882
 20
-17.27474229168826
 10
53.15231118462859
 20
-17.27474229168826
 10
53.20743271239259
 20
-17.27474229168826
 10
53.28873696584449
 20
-17.27198621530006
 10
53.39622394498428
 20
-17.26647406252366
 10
53.50371092412407
 20
-17.26096190974726
 10
53.58363713938187
 20
-17.25820583335906
 10
53.63600259075767
 20
-17.25820583335906
 10
53.68009981296887
 20
-17.25820583335906
 10
53.88060437021041
 20
-17.5262342621115
 10
54.23751626248229
 20
-18.06229111961637
 10
54.59442815475418
 20
-18.59834797712125
 10
54.78115233005472
 20
-18.86637640587368
 10
54.79768878838392
 20
-18.86637640587368
 10
54.85281031614791
 20
-18.83330348921529
 10
55.0553819306806
 20
-18.5521836976189
 10
55.40540363198198
 20
-18.02301703108452
 10
55.73888887495417
 20
-17.51314289926755
 10
55.93043618393406
 20
-17.25820583335906
 10
55.98004555892166
 20
-17.25820583335906
 10
55.98004555892166
 20
-17.25820583335906
 10
56.96396482950901
 20
-17.25820583335906
 10
56.96396482950901
 20
-17.25820583335906
 10
57.06042750309601
 20
-17.25820583335906
 10
57.10865883988951
 20
-17.28163248265876
 10
57.10865883988951
 20
-17.32848578125816
 10
57.10865883988951
 20
-17.32848578125816
 10
57.10865883988951
 20
-18.33307562475701
 10
57.10865883988951
 20
-18.33307562475701
 10
57.10865883988951
 20
-18.40473361085021
 10
56.89575193890106
 20
-18.71754828091089
 10
56.46993813692418
 20
-19.27151963493906
 10
56.04412433494731
 20
-19.82549098896724
 10
55.83121743395886
 20
-20.11901312431053
 10
55.83121743395886
 20
-20.15208604096892
 10
55.83121743395886
 20
-20.19893933956832
 10
56.01863062835645
 20
-20.47041286380601
 10
56.39345701715164
 20
-20.96650661368199
 10
56.83442923926362
 20
-21.54803873159216
 10
57.06456161767831
 20
-21.85258517248824
 10
57.08385415239571
 20
-21.88014593637024
 10
57.1224392218305
 20
-21.94077961691064
 10
57.14173175654791
 20
-22.15024142241383
 10
57.14173175654791
 20
-22.50853135287981
 97
        0
 75
     2
 76
     1
 98
        0
  0
ENDBLK
  5
40
330
3D
100
AcDbEntity
  8
0
100
AcDbBlockEnd
  0
ENDSEC
  0
SECTION
  2
ENTITIES
  0
MTEXT
  5
3C
330
1F
100
AcDbEntity
  8
Layer 1
 62
   250
420
  2301728
100
AcDbMText
 10
22.14369574099186
 20
-23.05854084709995
 30
0.0
 40
5.757333331894001
 41
0.0
 71
     7
 72
     1
  1
\fBrush Script Std Medium|b0|i0|c0|p34;\W1;Bench\fBerlin Sans FB Demi|b1|i0|c0|p34;ATX
 73
     1
 44
1.0
  0
INSERT
  5
3E
330
1F
100
AcDbEntity
  8
Layer 1
100
AcDbBlockReference
  2
block 2
 10
0.0
 20
0.0
 30
0.0
  0
ENDSEC
  0
SECTION
  2
OBJECTS
  0
DICTIONARY
  5
C
330
0
100
AcDbDictionary
281
     1
  3
ACAD_GROUP
350
D
  3
ACAD_LAYOUT
350
1A
  3
ACAD_MLINESTYLE
350
17
  3
ACAD_PLOTSETTINGS
350
19
  3
ACAD_PLOTSTYLENAME
350
E
  3
ACAD_TABLESTYLE
350
54
  3
ACAD_VISUALSTYLE
350
2A
  0
DICTIONARY
  5
D
102
{ACAD_REACTORS
330
C
102
}
330
C
100
AcDbDictionary
281
     1
  0
DICTIONARY
  5
1A
102
{ACAD_REACTORS
330
C
102
}
330
C
100
AcDbDictionary
281
     1
  3
Layout1
350
1E
  3
Layout2
350
26
  3
Model
350
22
  0
DICTIONARY
  5
17
102
{ACAD_REACTORS
330
C
102
}
330
C
100
AcDbDictionary
281
     1
  3
Standard
350
18
  0
DICTIONARY
  5
19
102
{ACAD_REACTORS
330
C
102
}
330
C
100
AcDbDictionary
281
     1
  0
ACDBDICTIONARYWDFLT
  5
E
102
{ACAD_REACTORS
330
C
102
}
330
C
100
AcDbDictionary
281
     1
  3
Normal
350
F
100
AcDbDictionaryWithDefault
340
F
  0
DICTIONARY
  5
54
102
{ACAD_REACTORS
330
C
102
}
330
C
100
AcDbDictionary
281
     1
  0
DICTIONARY
  5
2A
102
{ACAD_REACTORS
330
C
102
}
330
C
100
AcDbDictionary
281
     1
  3
2dWireframe
350
2F
  3
3D Hidden
350
31
  3
3dWireframe
350
30
  3
Basic
350
32
  3
Brighten
350
36
  3
ColorChange
350
3A
  3
Conceptual
350
34
  3
Dim
350
35
  3
Facepattern
350
39
  3
Flat
350
2B
  3
FlatWithEdges
350
2C
  3
Gouraud
350
2D
  3
GouraudWithEdges
350
2E
  3
Linepattern
350
38
  3
Realistic
350
33
  3
Thicken
350
37
  0
LAYOUT
  5
1E
102
{ACAD_REACTORS
330
1A
102
}
330
1A
100
AcDbPlotSettings
  1

  2
none_device
  4

  6

 40
0.0
 41
0.0
 42
0.0
 43
0.0
 44
0.0
 45
0.0
 46
0.0
 47
0.0
 48
0.0
 49
0.0
140
0.0
141
0.0
142
1.0
143
1.0
 70
   688
 72
     0
 73
     0
 74
     5
  7

 75
    16
 76
     0
 77
     2
 78
   300
147
1.0
148
0.0
149
0.0
100
AcDbLayout
  1
Layout1
 70
     1
 71
     1
 10
0.0
 20
0.0
 11
12.0
 21
9.0
 12
0.0
 22
0.0
 32
0.0
 14
1.000000000000000E+20
 24
1.000000000000000E+20
 34
1.000000000000000E+20
 15
-1.000000000000000E+20
 25
-1.000000000000000E+20
 35
-1.000000000000000E+20
146
0.0
 13
0.0
 23
0.0
 33
0.0
 16
1.0
 26
0.0
 36
0.0
 17
0.0
 27
1.0
 37
0.0
 76
     0
330
1B
  0
LAYOUT
  5
26
102
{ACAD_REACTORS
330
1A
102
}
330
1A
100
AcDbPlotSettings
  1

  2
none_device
  4

  6

 40
0.0
 41
0.0
 42
0.0
 43
0.0
 44
0.0
 45
0.0
 46
0.0
 47
0.0
 48
0.0
 49
0.0
140
0.0
141
0.0
142
1.0
143
1.0
 70
   688
 72
     0
 73
     0
 74
     5
  7

 75
    16
 76
     0
 77
     2
 78
   300
147
1.0
148
0.0
149
0.0
100
AcDbLayout
  1
Layout2
 70
     1
 71
     2
 10
0.0
 20
0.0
 11
0.0
 21
0.0
 12
0.0
 22
0.0
 32
0.0
 14
0.0
 24
0.0
 34
0.0
 15
0.0
 25
0.0
 35
0.0
146
0.0
 13
0.0
 23
0.0
 33
0.0
 16
1.0
 26
0.0
 36
0.0
 17
0.0
 27
1.0
 37
0.0
 76
     0
330
23
  0
LAYOUT
  5
22
102
{ACAD_REACTORS
330
1A
102
}
330
1A
100
AcDbPlotSettings
  1

  2
none_device
  4

  6

 40
0.0
 41
0.0
 42
0.0
 43
0.0
 44
0.0
 45
0.0
 46
0.0
 47
0.0
 48
0.0
 49
0.0
140
0.0
141
0.0
142
1.0
143
1.0
 70
  1712
 72
     0
 73
     0
 74
     0
  7

 75
     0
 76
     0
 77
     2
 78
   300
147
1.0
148
0.0
149
0.0
100
AcDbLayout
  1
Model
 70
     1
 71
     0
 10
0.0
 20
0.0
 11
12.0
 21
9.0
 12
0.0
 22
0.0
 32
0.0
 14
1.000000000000000E+20
 24
1.000000000000000E+20
 34
1.000000000000000E+20
 15
-1.000000000000000E+20
 25
-1.000000000000000E+20
 35
-1.000000000000000E+20
146
0.0
 13
0.0
 23
0.0
 33
0.0
 16
1.0
 26
0.0
 36
0.0
 17
0.0
 27
1.0
 37
0.0
 76
     0
330
1F
331
29
  0
MLINESTYLE
  5
18
102
{ACAD_REACTORS
330
17
102
}
330
17
100
AcDbMlineStyle
  2
Standard
 70
     0
  3

 62
   256
 51
90.0
 52
90.0
 71
     2
 49
0.5
 62
   256
  6
BYLAYER
 49
-0.5
 62
   256
  6
BYLAYER
  0
ACDBPLACEHOLDER
  5
F
102
{ACAD_REACTORS
330
E
102
}
330
E
  0
VISUALSTYLE
  5
2F
102
{ACAD_REACTORS
330
2A
102
}
330
2A
100
AcDbVisualStyle
  2
2dWireframe
 70
     4
 71
     0
 72
     2
 73
     0
 90
        0
 40
-0.6
 41
-30.0
 62
     5
 63
     7
421
 16777215
 74
     1
 91
        4
 64
     7
 65
   257
 75
     1
175
     1
 42
1.0
 92
        0
 66
   257
 43
1.0
 76
     1
 77
     6
 78
     2
 67
     7
 79
     5
170
     0
171
     0
290
     0
174
     0
 93
        1
 44
0.0
173
     0
291
     0
 45
0.0
1001
ACAD
1000
AcDbSavedByObjectVersion
1070
     0
  0
VISUALSTYLE
  5
31
102
{ACAD_REACTORS
330
2A
102
}
330
2A
100
AcDbVisualStyle
  2
3D Hidden
 70
     6
 71
     1
 72
     2
 73
     2
 90
        0
 40
-0.6
 41
-30.0
 62
     5
 63
     7
421
 16777215
 74
     2
 91
        2
 64
     7
 65
   257
 75
     2
175
     1
 42
40.0
 92
        0
 66
   257
 43
1.0
 76
     1
 77
     6
 78
     2
 67
     7
 79
     3
170
     0
171
     0
290
     0
174
     0
 93
        1
 44
0.0
173
     0
291
     0
 45
0.0
1001
ACAD
1000
AcDbSavedByObjectVersion
1070
     0
  0
VISUALSTYLE
  5
30
102
{ACAD_REACTORS
330
2A
102
}
330
2A
100
AcDbVisualStyle
  2
3dWireframe
 70
     5
 71
     0
 72
     2
 73
     0
 90
        0
 40
-0.6
 41
-30.0
 62
     5
 63
     7
421
 16777215
 74
     1
 91
        4
 64
     7
 65
   257
 75
     1
175
     1
 42
1.0
 92
        0
 66
   257
 43
1.0
 76
     1
 77
     6
 78
     2
 67
     7
 79
     5
170
     0
171
     0
290
     0
174
     0
 93
        1
 44
0.0
173
     0
291
     0
 45
0.0
1001
ACAD
1000
AcDbSavedByObjectVersion
1070
     0
  0
VISUALSTYLE
  5
32
102
{ACAD_REACTORS
330
2A
102
}
330
2A
100
AcDbVisualStyle
  2
Basic
 70
     7
 71
     1
 72
     0
 73
     1
 90
        0
 40
-0.6
 41
-30.0
 62
     5
 63
     7
421
 16777215
 74
     0
 91
        4
 64
     7
 65
   257
 75
     1
175
     1
 42
1.0
 92
        8
 66
     7
 43
1.0
 76
     1
 77
     6
 78
     2
 67
     7
 79
     5
170
     0
171
     0
290
     0
174
     0
 93
        1
 44
0.0
173
     0
291
     1
 45
0.0
1001
ACAD
1000
AcDbSavedByObjectVersion
1070
     0
  0
VISUALSTYLE
  5
36
102
{ACAD_REACTORS
330
2A
102
}
330
2A
100
AcDbVisualStyle
  2
Brighten
 70
    12
 71
     2
 72
     2
 73
     0
 90
        0
 40
-0.6
 41
-30.0
 62
     5
 63
     7
421
 16777215
 74
     1
 91
        4
 64
     7
 65
   257
 75
     1
175
     1
 42
1.0
 92
        8
 66
     7
 43
1.0
 76
     1
 77
     6
 78
     2
 67
     7
 79
     5
170
     0
171
     0
290
     0
174
     0
 93
        1
 44
50.0
173
     0
291
     1
 45
0.0
1001
ACAD
1000
AcDbSavedByObjectVersion
1070
     0
  0
VISUALSTYLE
  5
3A
102
{ACAD_REACTORS
330
2A
102
}
330
2A
100
AcDbVisualStyle
  2
ColorChange
 70
    16
 71
     2
 72
     2
 73
     3
 90
        0
 40
-0.6
 41
-30.0
 62
     5
 63
     8
421
  8421504
 74
     1
 91
        4
 64
     7
 65
   257
 75
     1
175
     1
 42
1.0
 92
        8
 66
     8
424
  8421504
 43
1.0
 76
     1
 77
     6
 78
     2
 67
     7
 79
     5
170
     0
171
     0
290
     0
174
     0
 93
        1
 44
0.0
173
     0
291
     1
 45
0.0
1001
ACAD
1000
AcDbSavedByObjectVersion
1070
     0
  0
VISUALSTYLE
  5
34
102
{ACAD_REACTORS
330
2A
102
}
330
2A
100
AcDbVisualStyle
  2
Conceptual
 70
     9
 71
     3
 72
     2
 73
     0
 90
        0
 40
-0.6
 41
-30.0
 62
     5
 63
     7
421
 16777215
 74
     2
 91
        2
 64
     7
 65
   257
 75
     1
175
     1
 42
40.0
 92
        8
 66
     7
 43
1.0
 76
     1
 77
     6
 78
     2
 67
     7
 79
     3
170
     0
171
     0
290
     0
174
     0
 93
        1
 44
0.0
173
     0
291
     0
 45
0.0
1001
ACAD
1000
AcDbSavedByObjectVersion
1070
     0
  0
VISUALSTYLE
  5
35
102
{ACAD_REACTORS
330
2A
102
}
330
2A
100
AcDbVisualStyle
  2
Dim
 70
    11
 71
     2
 72
     2
 73
     0
 90
        0
 40
-0.6
 41
-30.0
 62
     5
 63
     7
421
 16777215
 74
     1
 91
        4
 64
     7
 65
   257
 75
     1
175
     1
 42
1.0
 92
        8
 66
     7
 43
1.0
 76
     1
 77
     6
 78
     2
 67
     7
 79
     5
170
     0
171
     0
290
     0
174
     0
 93
        1
 44
-50.0
173
     0
291
     1
 45
0.0
1001
ACAD
1000
AcDbSavedByObjectVersion
1070
     0
  0
VISUALSTYLE
  5
39
102
{ACAD_REACTORS
330
2A
102
}
330
2A
100
AcDbVisualStyle
  2
Facepattern
 70
    15
 71
     2
 72
     2
 73
     0
 90
        0
 40
-0.6
 41
-30.0
 62
     5
 63
     7
421
 16777215
 74
     1
 91
        4
 64
     7
 65
   257
 75
     1
175
     1
 42
1.0
 92
        8
 66
     7
 43
1.0
 76
     1
 77
     6
 78
     2
 67
     7
 79
     5
170
     0
171
     0
290
     0
174
     0
 93
        1
 44
0.0
173
     0
291
     1
 45
0.0
1001
ACAD
1000
AcDbSavedByObjectVersion
1070
     0
  0
VISUALSTYLE
  5
2B
102
{ACAD_REACTORS
330
2A
102
}
330
2A
100
AcDbVisualStyle
  2
Flat
 70
     0
 71
     2
 72
     1
 73
     1
 90
        2
 40
-0.6
 41
30.0
 62
     5
 63
     7
421
 16777215
 74
     0
 91
        4
 64
     7
 65
   257
 75
     1
175
     1
 42
1.0
 92
        8
 66
     7
 43
1.0
 76
     1
 77
     6
 78
     2
 67
     7
 79
     5
170
     0
171
     0
290
     0
174
     0
 93
       13
 44
0.0
173
     0
291
     1
 45
0.0
1001
ACAD
1000
AcDbSavedByObjectVersion
1070
     0
  0
VISUALSTYLE
  5
2C
102
{ACAD_REACTORS
330
2A
102
}
330
2A
100
AcDbVisualStyle
  2
FlatWithEdges
 70
     1
 71
     2
 72
     1
 73
     1
 90
        2
 40
-0.6
 41
30.0
 62
     5
 63
     7
421
 16777215
 74
     1
 91
        4
 64
     7
 65
   257
 75
     1
175
     1
 42
1.0
 92
        0
 66
   257
 43
1.0
 76
     1
 77
     6
 78
     2
 67
     7
 79
     5
170
     0
171
     0
290
     0
174
     0
 93
       13
 44
0.0
173
     0
291
     1
 45
0.0
1001
ACAD
1000
AcDbSavedByObjectVersion
1070
     0
  0
VISUALSTYLE
  5
2D
102
{ACAD_REACTORS
330
2A
102
}
330
2A
100
AcDbVisualStyle
  2
Gouraud
 70
     2
 71
     2
 72
     2
 73
     1
 90
        2
 40
-0.6
 41
30.0
 62
     5
 63
     7
421
 16777215
 74
     0
 91
        4
 64
     7
 65
   257
 75
     1
175
     1
 42
1.0
 92
        0
 66
     7
 43
1.0
 76
     1
 77
     6
 78
     2
 67
     7
 79
     5
170
     0
171
     0
290
     0
174
     0
 93
       13
 44
0.0
173
     0
291
     1
 45
0.0
1001
ACAD
1000
AcDbSavedByObjectVersion
1070
     0
  0
VISUALSTYLE
  5
2E
102
{ACAD_REACTORS
330
2A
102
}
330
2A
100
AcDbVisualStyle
  2
GouraudWithEdges
 70
     3
 71
     2
 72
     2
 73
     1
 90
        2
 40
-0.6
 41
30.0
 62
     5
 63
     7
421
 16777215
 74
     1
 91
        4
 64
     7
 65
   257
 75
     1
175
     1
 42
1.0
 92
        0
 66
   257
 43
1.0
 76
     1
 77
     6
 78
     2
 67
     7
 79
     5
170
     0
171
     0
290
     0
174
     0
 93
       13
 44
0.0
173
     0
291
     1
 45
0.0
1001
ACAD
1000
AcDbSavedByObjectVersion
1070
     0
  0
VISUALSTYLE
  5
38
102
{ACAD_REACTORS
330
2A
102
}
330
2A
100
AcDbVisualStyle
  2
Linepattern
 70
    14
 71
     2
 72
     2
 73
     0
 90
        0
 40
-0.6
 41
-30.0
 62
     5
 63
     7
421
 16777215
 74
     1
 91
        4
 64
     7
 65
   257
 75
     7
175
     7
 42
1.0
 92
        8
 66
     7
 43
1.0
 76
     1
 77
     6
 78
     2
 67
     7
 79
     5
170
     0
171
     0
290
     0
174
     0
 93
        1
 44
0.0
173
     0
291
     1
 45
0.0
1001
ACAD
1000
AcDbSavedByObjectVersion
1070
     0
  0
VISUALSTYLE
  5
33
102
{ACAD_REACTORS
330
2A
102
}
330
2A
100
AcDbVisualStyle
  2
Realistic
 70
     8
 71
     2
 72
     2
 73
     0
 90
        0
 40
-0.6
 41
-30.0
 62
     5
 63
     7
421
 16777215
 74
     1
 91
        0
 64
     7
 65
   257
 75
     1
175
     1
 42
1.0
 92
        8
 66
     8
424
  7895160
 43
1.0
 76
     1
 77
     6
 78
     2
 67
     7
 79
     5
170
     0
171
     0
290
     0
174
     0
 93
       13
 44
0.0
173
     0
291
     0
 45
0.0
1001
ACAD
1000
AcDbSavedByObjectVersion
1070
     0
  0
VISUALSTYLE
  5
37
102
{ACAD_REACTORS
330
2A
102
}
330
2A
100
AcDbVisualStyle
  2
Thicken
 70
    13
 71
     2
 72
     2
 73
     0
 90
        0
 40
-0.6
 41
-30.0
 62
     5
 63
     7
421
 16777215
 74
     1
 91
        4
 64
     7
 65
   257
 75
     1
175
     1
 42
1.0
 92
       12
 66
     7
 43
1.0
 76
     1
 77
     6
 78
     2
 67
     7
 79
     5
170
     0
171
     0
290
     0
174
     0
 93
        1
 44
0.0
173
     0
291
     1
 45
0.0
1001
ACAD
1000
AcDbSavedByObjectVersion
1070
     0
  0
ENDSEC
  0
EOF
