<?xml version="1.0" encoding="utf-8"?>
<!-- Generator: Adobe Illustrator 16.0.0, SVG Export Plug-In . SVG Version: 6.00 Build 0)  -->
<!DOCTYPE svg PUBLIC "-//W3C//DTD SVG 1.0//EN" "http://www.w3.org/TR/2001/REC-SVG-20010904/DTD/svg10.dtd" [
	<!ENTITY ns_extend "http://ns.adobe.com/Extensibility/1.0/">
	<!ENTITY ns_ai "http://ns.adobe.com/AdobeIllustrator/10.0/">
	<!ENTITY ns_graphs "http://ns.adobe.com/Graphs/1.0/">
	<!ENTITY ns_vars "http://ns.adobe.com/Variables/1.0/">
	<!ENTITY ns_imrep "http://ns.adobe.com/ImageReplacement/1.0/">
	<!ENTITY ns_sfw "http://ns.adobe.com/SaveForWeb/1.0/">
	<!ENTITY ns_custom "http://ns.adobe.com/GenericCustomNamespace/1.0/">
	<!ENTITY ns_adobe_xpath "http://ns.adobe.com/XPath/1.0/">
]>
<svg version="1.0" id="Layer_1" xmlns:x="&ns_extend;" xmlns:i="&ns_ai;" xmlns:graph="&ns_graphs;"
	 xmlns="http://www.w3.org/2000/svg" xmlns:xlink="http://www.w3.org/1999/xlink" x="0px" y="0px" width="283.45996px"
	 height="141.73047px" viewBox="0 0 283.45996 141.73047" enable-background="new 0 0 283.45996 141.73047" xml:space="preserve">
<metadata>
	<sfw  xmlns="&ns_sfw;">
		<slices></slices>
		<sliceSourceBounds  height="26.93945" width="99.98047" x="62.76953" y="-72.08301" bottomLeftOrigin="true"></sliceSourceBounds>
	</sfw>
</metadata>
<g>
	<path d="M78.63477,60.6582c0,1.36816-2.95215,4.6084-9.40869,4.96875c-1.72803,0.0957-4.12842-0.47998-4.12842-2.66455
		c0-0.76807-0.12012-0.8877,2.66406-4.56006c-0.67188-0.04834-2.20801-0.12012-2.20801-0.93604
		c0-1.03223,3.36035-1.08008,4.08057-1.29639c1.56006-1.51221,3.14404-3.52832,5.54443-3.52832
		c-0.16797,0.4082-0.33594,0.72021-2.32813,3.04834c5.42432-0.74414,6.69629-2.37598,6.64844-3.02441
		c-0.02393-0.52783-0.69629-1.36816-3.48047-1.17578c-0.55176,0.04785-3.09619,0.35986-6.74463,1.68018
		c0.14404,0.07178,0.33643,0.16797,0.33643,0.35986c0,0.35986-0.55225,0.50391-0.86426,0.55225
		c-1.48828,0.23975-1.94434,0.45605-3.33643,0.91211c-0.21582,0.07178-0.47998,0.16797-0.74414,0.16797
		c-0.40771,0-0.6001-0.24023-0.6001-0.64844c0-0.16797,0.36035-1.03174,1.10449-2.01611
		c0.50391-0.67188,1.19971-1.58398,2.01611-1.896c2.32813-0.88818,6.81641-1.82422,9.3125-1.82422
		c4.12842,0,5.11279,1.63232,5.11279,2.92822c0,3.88818-7.27295,4.87256-10.08105,5.42432l-0.47998,0.43213
		C72.75439,57.87402,78.63477,58.354,78.63477,60.6582z M68.6499,60.22656c-0.31201,0.33594-0.83984,0.86377-0.83984,1.36768
		c0,1.03223,1.896,1.32031,2.66406,1.32031c2.13623-0.02393,5.44873-1.58398,5.44873-2.54443
		c0-1.24805-4.94482-1.60791-5.92871-1.60791L68.6499,60.22656z"/>
	<path d="M88.71387,61.78662c-1.46387,1.7041-4.104,3.96045-6.47998,3.96045c-1.75244,0-2.56836-1.56055-2.61621-3.14453
		c-0.09619-3.14404,3.38428-6.36035,6.50439-6.33643c0.76855,0,1.72852,0.19189,1.72852,1.15186
		c0,1.17627-1.17676,2.95215-5.78467,4.46436l-0.04834,0.52832c-0.07178,0.91211,0.72021,1.22412,1.48828,1.22412
		c1.7041,0,3.7207-1.75244,4.99219-2.76025L88.71387,61.78662z M85.73828,57.92236c0-0.16846-0.12012-0.31201-0.28809-0.26416
		c-1.2002,0.31201-2.59229,1.46387-3.24023,3.04834C84.32178,59.98633,85.76172,58.33008,85.73828,57.92236z"/>
	<path d="M99.61035,60.61035l0.19141,1.05615c-1.27148,1.12793-3.74414,4.08057-5.49609,4.08057
		c-0.91211,0-1.34473-0.76855-1.34473-1.58447c0-1.43994,1.29688-3.02393,2.06445-4.12842l-0.04785-0.04785
		c-1.39258,1.03223-2.61621,2.28027-3.69629,3.67236c-0.36035,0.45605-1.24805,1.63232-1.89648,1.63232
		c-1.05566,0-1.32031-1.51221-1.34375-2.32861c-0.07227-1.65576,1.44043-4.08008,2.83203-5.25635
		c0.3125-0.26416,0.52832-0.28809,0.93652-0.28809c1.43945,0.04834,1.31934,0.38428,1.31934,0.52832
		c0,0.93604-3.02344,3.36035-3.02344,3.93604c0,0.14404,0.12012,0.26416,0.26367,0.26416c0.16797,0,0.38379-0.21582,0.48047-0.33594
		c1.91992-2.44824,6.33594-5.40039,7.03223-5.40039c0.0957,0,0.24023,0.12012,0.38379,0.45605
		c0.14453,0.35986,0.28809,0.79199,0.36035,1.2959c0,0.93604-2.95215,2.76025-2.95215,4.4165
		c0,0.21582,0.19141,0.43213,0.43164,0.43213c0.57617,0,1.63184-0.84033,2.06445-1.2002L99.61035,60.61035z"/>
	<path d="M102.05762,60.85059c-0.52832,0.38379-0.96094,0.74365-0.96094,1.41602c0,0.55176,0.57617,1.2959,1.82422,1.2959
		c1.82422,0,3.91309-1.68018,5.30469-2.76025l0.28809,0.93604c-1.46387,1.56055-4.15234,3.93652-6.43262,3.93652
		c-1.84766,0-2.73633-1.72803-2.73633-3.50439c0-2.01611,0.7207-2.76025,2.28027-3.93604
		c1.08008-0.81641,3.38477-2.1123,4.72852-2.1123c0.74414,0,1.08008,0.38379,1.08008,1.104
		c0,1.32031-1.89648,3.16846-2.54395,3.16846c-0.55176,0-0.79199-0.6001-0.81641-1.05615L102.05762,60.85059z"/>
	<path d="M109.54492,62.33838c1.17676-0.93604,5.54492-4.77637,6.86523-4.77637c0.57617,0,1.15234,0.6001,1.15234,1.15234
		c0,0.45605-0.96094,1.51221-1.24902,1.84814c-1.4873,1.7998-1.41602,1.87207-1.41602,2.1123
		c0,0.31201,0.24023,0.50391,0.52832,0.50391c0.79199,0,2.54395-1.29639,3.24023-1.75244l0.12012,0.98438
		c-1.10449,0.83984-4.00879,3.19238-5.32813,3.19238c-0.7207,0-1.10449-0.62451-1.10449-1.27246
		c0-1.51221,1.65625-3.33594,2.52051-4.46436l-0.04785-0.04785c-4.10449,2.80811-5.30469,5.35254-6.07324,5.35254
		c-0.83984,0-0.95996-1.87207-0.95996-2.42432c0-1.65625,0.62402-2.80811,1.46387-4.17627
		c2.83301-4.68066,7.60938-8.88086,8.4248-8.88086c0.38477,0,1.03223,0.16797,1.03223,0.64795
		c0,1.63232-7.63281,9.55273-9.16895,11.06494V62.33838z"/>
	<path d="M135.17578,65.06982c0,0.14063-0.09766,0.23828-0.29297,0.29297c-0.23438,0.0625-0.96094,0.09375-2.17969,0.09375
		c-1.11719,0-1.83594-0.03125-2.15625-0.09375c-0.26563-0.05469-0.43359-0.23047-0.50391-0.52734
		c-0.26563-1.125-0.47266-1.72656-0.62109-1.80469c-0.125-0.05469-1.17188-0.08203-3.14063-0.08203
		c-1.32813,0-2.03516,0.03516-2.12109,0.10547c-0.13281,0.125-0.28125,0.54297-0.44531,1.25391
		c-0.14844,0.64844-0.32813,1-0.53906,1.05469c-0.26563,0.0625-1.15625,0.09375-2.67188,0.09375
		c-1.19531,0-1.79297-0.11328-1.79297-0.33984c0-0.20313,0.88281-2.69922,2.64844-7.48828
		c1.91406-5.17969,2.95313-8.02734,3.11719-8.54297c0.09375-0.29688,0.20313-0.44531,0.32813-0.44531
		c0.21094,0,0.53711,0.01953,0.97852,0.05859s0.77148,0.05859,0.99023,0.05859c0.21094,0,0.52148-0.01367,0.93164-0.04102
		s0.7168-0.04102,0.91992-0.04102c0.14844,0,0.28516,0.12891,0.41016,0.38672c0.38281,0.82031,1.5,3.63281,3.35156,8.4375
		C134.24609,62.33545,135.17578,64.85889,135.17578,65.06982z M126.86719,54.39404
		c-0.16406,0.34375-0.44141,1.08984-0.83203,2.23828c-0.42188,1.21875-0.63281,1.93359-0.63281,2.14453
		c0,0.14063,0.23438,0.21875,0.70313,0.23438c0.24219,0.01563,0.64063,0.02344,1.19531,0.02344
		c0.51563,0,0.80078-0.0625,0.85547-0.1875c0.01563-0.03906,0.02344-0.09375,0.02344-0.16406
		c0-0.25781-0.17969-0.96875-0.53906-2.13281C127.28906,55.42529,127.03125,54.70654,126.86719,54.39404z"/>
	<path d="M147.78516,52.50732c0,0.15625-0.08594,0.23438-0.25781,0.23438c-0.29688,0-1.47266-0.05859-3.52734-0.17578
		c-0.04688,1.97656-0.07031,3.35547-0.07031,4.13672c0,0.92188,0.03711,2.30859,0.11133,4.16016s0.11133,3.23828,0.11133,4.16016
		c0,0.14844-0.03516,0.24219-0.10547,0.28125c-0.02344,0.01563-0.13281,0.03516-0.32813,0.05859
		c-0.46875,0.0625-1.15625,0.09375-2.0625,0.09375c-1.00781,0-1.71484-0.03125-2.12109-0.09375
		c-0.21875-0.03906-0.32813-0.16016-0.32813-0.36328c0-0.92188,0.03906-2.30469,0.11719-4.14844s0.11719-3.22656,0.11719-4.14844
		c0-0.60938-0.03125-1.96875-0.09375-4.07813c-1.5625,0.15625-2.80859,0.23438-3.73828,0.23438
		c-0.125,0-0.1875-0.03906-0.1875-0.11719c0-0.10156,0.05469-0.40234,0.16406-0.90234
		c0.125-0.54688,0.19531-0.87891,0.21094-0.99609c0.02344-0.36719,0.05078-0.73438,0.08203-1.10156
		c0.05469-0.58594,0.14844-0.87891,0.28125-0.87891c0.01563,0,0.07031,0.00391,0.16406,0.01172
		c1.26563,0.16406,3.13672,0.24609,5.61328,0.24609c0.70313,0,2-0.07422,3.89063-0.22266
		c1.01563-0.07813,1.52734-0.11719,1.53516-0.11719c0.15625,0,0.24609,0.00977,0.26953,0.0293s0.03906,0.0957,0.04688,0.22852
		c0,0.21094-0.00781,0.50391-0.02344,0.87891c-0.01563,0.41406-0.02344,0.70703-0.02344,0.87891
		c0,0.19531,0.02539,0.48242,0.07617,0.86133S147.78516,52.31982,147.78516,52.50732z"/>
	<path d="M161.97656,63.8042c0,0.76563-0.03516,1.21875-0.10547,1.35938c-0.08594,0.17188-0.35156,0.25781-0.79688,0.25781
		c-0.07031,0-0.22656,0-0.46875,0c-0.23438-0.00781-0.43164-0.01172-0.5918-0.01172s-0.39844-0.00781-0.71484-0.02344
		s-0.55273-0.02344-0.70898-0.02344c-0.125,0-0.6875-0.75-1.6875-2.25s-1.51953-2.25391-1.55859-2.26172
		c-0.16406,0.13281-0.72656,0.92188-1.6875,2.36719c-0.92188,1.38281-1.46094,2.09766-1.61719,2.14453
		c-0.10938,0.03125-0.40234,0.04688-0.87891,0.04688c-1.60156,0-2.40234-0.08203-2.40234-0.24609s-0.00977-0.39844-0.0293-0.70313
		s-0.0293-0.53125-0.0293-0.67969c0-0.96875,0.05859-1.53906,0.17578-1.71094c0.00781-0.00781,0.65234-0.86328,1.93359-2.56641
		c1.03906-1.375,1.55859-2.16016,1.55859-2.35547s-0.51953-0.96875-1.55859-2.32031
		c-0.65625-0.83594-1.30859-1.67578-1.95703-2.51953c-0.07031-0.10156-0.11328-0.26953-0.12891-0.50391
		c-0.00781-0.16406-0.00781-0.38672,0-0.66797c0.02344-0.33594,0.03516-0.52344,0.03516-0.5625
		c0-0.15625-0.01367-0.39844-0.04102-0.72656s-0.04102-0.57031-0.04102-0.72656c0-0.14844,0.13672-0.22266,0.41016-0.22266
		c0.17969,0,0.44531,0.01172,0.79688,0.03516s0.61328,0.03516,0.78516,0.03516c0.15625,0,0.38672-0.00781,0.69141-0.02344
		s0.53125-0.02344,0.67969-0.02344c0.125,0,0.69336,0.75977,1.70508,2.2793s1.54102,2.2793,1.58789,2.2793
		c0.15625-0.09375,0.73047-0.89063,1.72266-2.39063c0.94531-1.44531,1.48828-2.16797,1.62891-2.16797h2.78906
		c0.27344,0,0.41016,0.06641,0.41016,0.19922v2.84766c0,0.20313-0.60352,1.08984-1.81055,2.66016s-1.81055,2.40234-1.81055,2.49609
		c0,0.13281,0.53125,0.90234,1.59375,2.30859c1.25,1.64844,1.90234,2.51172,1.95703,2.58984
		C161.92188,62.19482,161.97656,62.78857,161.97656,63.8042z"/>
</g>
<g display="none">
	<path display="inline" d="M78.63477,60.65771c0,1.36816-2.95215,4.6084-9.40869,4.96875
		c-1.72803,0.0957-4.12842-0.47998-4.12842-2.66455c0-0.76807-0.12012-0.8877,2.66406-4.56006
		c-0.67188-0.04834-2.20801-0.12012-2.20801-0.93604c0-1.03223,3.36035-1.08008,4.08057-1.29639
		c1.56006-1.51221,3.14404-3.52832,5.54443-3.52832c-0.16797,0.4082-0.33594,0.72021-2.32813,3.04834
		c5.42432-0.74414,6.69629-2.37598,6.64844-3.02441c-0.02393-0.52783-0.69629-1.36816-3.48047-1.17578
		c-0.55176,0.04785-3.09619,0.35986-6.74463,1.68018c0.14404,0.07178,0.33643,0.16797,0.33643,0.35986
		c0,0.35986-0.55225,0.50391-0.86426,0.55225c-1.48828,0.23975-1.94434,0.45605-3.33643,0.91211
		c-0.21582,0.07178-0.47998,0.16797-0.74414,0.16797c-0.40771,0-0.6001-0.24023-0.6001-0.64844
		c0-0.16797,0.36035-1.03174,1.10449-2.01611c0.50391-0.67188,1.19971-1.58398,2.01611-1.896
		c2.32813-0.88818,6.81641-1.82422,9.3125-1.82422c4.12842,0,5.11279,1.63232,5.11279,2.92822
		c0,3.88818-7.27295,4.87256-10.08105,5.42432l-0.47998,0.43213C72.75439,57.87354,78.63477,58.35352,78.63477,60.65771z
		 M68.6499,60.22607c-0.31201,0.33594-0.83984,0.86377-0.83984,1.36768c0,1.03223,1.896,1.32031,2.66406,1.32031
		c2.13623-0.02393,5.44873-1.58398,5.44873-2.54443c0-1.24805-4.94482-1.60791-5.92871-1.60791L68.6499,60.22607z"/>
	<path display="inline" d="M88.71387,61.78613c-1.46387,1.7041-4.104,3.96045-6.47998,3.96045
		c-1.75244,0-2.56836-1.56055-2.61621-3.14453c-0.09619-3.14404,3.38428-6.36035,6.50439-6.33643
		c0.76855,0,1.72852,0.19189,1.72852,1.15186c0,1.17627-1.17676,2.95215-5.78467,4.46436l-0.04834,0.52832
		c-0.07178,0.91211,0.72021,1.22412,1.48828,1.22412c1.7041,0,3.7207-1.75244,4.99219-2.76025L88.71387,61.78613z
		 M85.73828,57.92188c0-0.16846-0.12012-0.31201-0.28809-0.26416c-1.2002,0.31201-2.59229,1.46387-3.24023,3.04834
		C84.32178,59.98584,85.76172,58.32959,85.73828,57.92188z"/>
	<path display="inline" d="M99.61035,60.60986l0.19141,1.05615c-1.27148,1.12793-3.74414,4.08057-5.49609,4.08057
		c-0.91211,0-1.34473-0.76855-1.34473-1.58447c0-1.43994,1.29688-3.02393,2.06445-4.12842l-0.04785-0.04785
		c-1.39258,1.03223-2.61621,2.28027-3.69629,3.67236c-0.36035,0.45605-1.24805,1.63232-1.89648,1.63232
		c-1.05566,0-1.32031-1.51221-1.34375-2.32861c-0.07227-1.65576,1.44043-4.08008,2.83203-5.25635
		c0.3125-0.26416,0.52832-0.28809,0.93652-0.28809c1.43945,0.04834,1.31934,0.38428,1.31934,0.52832
		c0,0.93604-3.02344,3.36035-3.02344,3.93604c0,0.14404,0.12012,0.26416,0.26367,0.26416c0.16797,0,0.38379-0.21582,0.48047-0.33594
		c1.91992-2.44824,6.33594-5.40039,7.03223-5.40039c0.0957,0,0.24023,0.12012,0.38379,0.45605
		c0.14453,0.35986,0.28809,0.79199,0.36035,1.2959c0,0.93604-2.95215,2.76025-2.95215,4.4165
		c0,0.21582,0.19141,0.43213,0.43164,0.43213c0.57617,0,1.63184-0.84033,2.06445-1.2002L99.61035,60.60986z"/>
	<path display="inline" d="M102.05762,60.8501c-0.52832,0.38379-0.96094,0.74365-0.96094,1.41602
		c0,0.55176,0.57617,1.2959,1.82422,1.2959c1.82422,0,3.91309-1.68018,5.30469-2.76025l0.28809,0.93604
		c-1.46387,1.56055-4.15234,3.93652-6.43262,3.93652c-1.84766,0-2.73633-1.72803-2.73633-3.50439
		c0-2.01611,0.7207-2.76025,2.28027-3.93604c1.08008-0.81641,3.38477-2.1123,4.72852-2.1123
		c0.74414,0,1.08008,0.38379,1.08008,1.104c0,1.32031-1.89648,3.16846-2.54395,3.16846c-0.55176,0-0.79199-0.6001-0.81641-1.05615
		L102.05762,60.8501z"/>
	<path display="inline" d="M109.54492,62.33789c1.17676-0.93604,5.54492-4.77637,6.86523-4.77637
		c0.57617,0,1.15234,0.6001,1.15234,1.15234c0,0.45605-0.96094,1.51221-1.24902,1.84814
		c-1.4873,1.7998-1.41602,1.87207-1.41602,2.1123c0,0.31201,0.24023,0.50391,0.52832,0.50391
		c0.79199,0,2.54395-1.29639,3.24023-1.75244l0.12012,0.98438c-1.10449,0.83984-4.00879,3.19238-5.32813,3.19238
		c-0.7207,0-1.10449-0.62451-1.10449-1.27246c0-1.51221,1.65625-3.33594,2.52051-4.46436l-0.04785-0.04785
		c-4.10449,2.80811-5.30469,5.35254-6.07324,5.35254c-0.83984,0-0.95996-1.87207-0.95996-2.42432
		c0-1.65625,0.62402-2.80811,1.46387-4.17627c2.83301-4.68066,7.60938-8.88086,8.4248-8.88086
		c0.38477,0,1.03223,0.16797,1.03223,0.64795c0,1.63232-7.63281,9.55273-9.16895,11.06494V62.33789z"/>
	<path display="inline" d="M135.17578,65.06934c0,0.14063-0.09766,0.23828-0.29297,0.29297
		c-0.23438,0.0625-0.96094,0.09375-2.17969,0.09375c-1.11719,0-1.83594-0.03125-2.15625-0.09375
		c-0.26563-0.05469-0.43359-0.23047-0.50391-0.52734c-0.26563-1.125-0.47266-1.72656-0.62109-1.80469
		c-0.125-0.05469-1.17188-0.08203-3.14063-0.08203c-1.32813,0-2.03516,0.03516-2.12109,0.10547
		c-0.13281,0.125-0.28125,0.54297-0.44531,1.25391c-0.14844,0.64844-0.32813,1-0.53906,1.05469
		c-0.26563,0.0625-1.15625,0.09375-2.67188,0.09375c-1.19531,0-1.79297-0.11328-1.79297-0.33984
		c0-0.20313,0.88281-2.69922,2.64844-7.48828c1.91406-5.17969,2.95313-8.02734,3.11719-8.54297
		c0.09375-0.29688,0.20313-0.44531,0.32813-0.44531c0.21094,0,0.53711,0.01953,0.97852,0.05859s0.77148,0.05859,0.99023,0.05859
		c0.21094,0,0.52148-0.01367,0.93164-0.04102s0.7168-0.04102,0.91992-0.04102c0.14844,0,0.28516,0.12891,0.41016,0.38672
		c0.38281,0.82031,1.5,3.63281,3.35156,8.4375C134.24609,62.33496,135.17578,64.8584,135.17578,65.06934z M126.86719,54.39355
		c-0.16406,0.34375-0.44141,1.08984-0.83203,2.23828c-0.42188,1.21875-0.63281,1.93359-0.63281,2.14453
		c0,0.14063,0.23438,0.21875,0.70313,0.23438c0.24219,0.01563,0.64063,0.02344,1.19531,0.02344
		c0.51563,0,0.80078-0.0625,0.85547-0.1875c0.01563-0.03906,0.02344-0.09375,0.02344-0.16406
		c0-0.25781-0.17969-0.96875-0.53906-2.13281C127.28906,55.4248,127.03125,54.70605,126.86719,54.39355z"/>
	<path display="inline" d="M147.78516,52.50684c0,0.15625-0.08594,0.23438-0.25781,0.23438
		c-0.29688,0-1.47266-0.05859-3.52734-0.17578c-0.04688,1.97656-0.07031,3.35547-0.07031,4.13672
		c0,0.92188,0.03711,2.30859,0.11133,4.16016s0.11133,3.23828,0.11133,4.16016c0,0.14844-0.03516,0.24219-0.10547,0.28125
		c-0.02344,0.01563-0.13281,0.03516-0.32813,0.05859c-0.46875,0.0625-1.15625,0.09375-2.0625,0.09375
		c-1.00781,0-1.71484-0.03125-2.12109-0.09375c-0.21875-0.03906-0.32813-0.16016-0.32813-0.36328
		c0-0.92188,0.03906-2.30469,0.11719-4.14844s0.11719-3.22656,0.11719-4.14844c0-0.60938-0.03125-1.96875-0.09375-4.07813
		c-1.5625,0.15625-2.80859,0.23438-3.73828,0.23438c-0.125,0-0.1875-0.03906-0.1875-0.11719
		c0-0.10156,0.05469-0.40234,0.16406-0.90234c0.125-0.54688,0.19531-0.87891,0.21094-0.99609
		c0.02344-0.36719,0.05078-0.73438,0.08203-1.10156c0.05469-0.58594,0.14844-0.87891,0.28125-0.87891
		c0.01563,0,0.07031,0.00391,0.16406,0.01172c1.26563,0.16406,3.13672,0.24609,5.61328,0.24609c0.70313,0,2-0.07422,3.89063-0.22266
		c1.01563-0.07813,1.52734-0.11719,1.53516-0.11719c0.15625,0,0.24609,0.00977,0.26953,0.0293s0.03906,0.0957,0.04688,0.22852
		c0,0.21094-0.00781,0.50391-0.02344,0.87891c-0.01563,0.41406-0.02344,0.70703-0.02344,0.87891
		c0,0.19531,0.02539,0.48242,0.07617,0.86133S147.78516,52.31934,147.78516,52.50684z"/>
	<path display="inline" d="M161.97656,63.80371c0,0.76563-0.03516,1.21875-0.10547,1.35938
		c-0.08594,0.17188-0.35156,0.25781-0.79688,0.25781c-0.07031,0-0.22656,0-0.46875,0
		c-0.23438-0.00781-0.43164-0.01172-0.5918-0.01172s-0.39844-0.00781-0.71484-0.02344s-0.55273-0.02344-0.70898-0.02344
		c-0.125,0-0.6875-0.75-1.6875-2.25s-1.51953-2.25391-1.55859-2.26172c-0.16406,0.13281-0.72656,0.92188-1.6875,2.36719
		c-0.92188,1.38281-1.46094,2.09766-1.61719,2.14453c-0.10938,0.03125-0.40234,0.04688-0.87891,0.04688
		c-1.60156,0-2.40234-0.08203-2.40234-0.24609s-0.00977-0.39844-0.0293-0.70313s-0.0293-0.53125-0.0293-0.67969
		c0-0.96875,0.05859-1.53906,0.17578-1.71094c0.00781-0.00781,0.65234-0.86328,1.93359-2.56641
		c1.03906-1.375,1.55859-2.16016,1.55859-2.35547s-0.51953-0.96875-1.55859-2.32031
		c-0.65625-0.83594-1.30859-1.67578-1.95703-2.51953c-0.07031-0.10156-0.11328-0.26953-0.12891-0.50391
		c-0.00781-0.16406-0.00781-0.38672,0-0.66797c0.02344-0.33594,0.03516-0.52344,0.03516-0.5625
		c0-0.15625-0.01367-0.39844-0.04102-0.72656s-0.04102-0.57031-0.04102-0.72656c0-0.14844,0.13672-0.22266,0.41016-0.22266
		c0.17969,0,0.44531,0.01172,0.79688,0.03516s0.61328,0.03516,0.78516,0.03516c0.15625,0,0.38672-0.00781,0.69141-0.02344
		s0.53125-0.02344,0.67969-0.02344c0.125,0,0.69336,0.75977,1.70508,2.2793s1.54102,2.2793,1.58789,2.2793
		c0.15625-0.09375,0.73047-0.89063,1.72266-2.39063c0.94531-1.44531,1.48828-2.16797,1.62891-2.16797h2.78906
		c0.27344,0,0.41016,0.06641,0.41016,0.19922v2.84766c0,0.20313-0.60352,1.08984-1.81055,2.66016s-1.81055,2.40234-1.81055,2.49609
		c0,0.13281,0.53125,0.90234,1.59375,2.30859c1.25,1.64844,1.90234,2.51172,1.95703,2.58984
		C161.92188,62.19434,161.97656,62.78809,161.97656,63.80371z"/>
</g>
<g>
</g>
<g>
</g>
<g>
</g>
<g>
</g>
<g>
</g>
<g>
</g>
</svg>
