<?xml version="1.0" encoding="utf-8"?>
<!-- Generator: Adobe Illustrator 16.0.0, SVG Export Plug-In . SVG Version: 6.00 Build 0)  -->
<!DOCTYPE svg PUBLIC "-//W3C//DTD SVG 1.0//EN" "http://www.w3.org/TR/2001/REC-SVG-20010904/DTD/svg10.dtd" [
	<!ENTITY ns_extend "http://ns.adobe.com/Extensibility/1.0/">
	<!ENTITY ns_ai "http://ns.adobe.com/AdobeIllustrator/10.0/">
	<!ENTITY ns_graphs "http://ns.adobe.com/Graphs/1.0/">
	<!ENTITY ns_vars "http://ns.adobe.com/Variables/1.0/">
	<!ENTITY ns_imrep "http://ns.adobe.com/ImageReplacement/1.0/">
	<!ENTITY ns_sfw "http://ns.adobe.com/SaveForWeb/1.0/">
	<!ENTITY ns_custom "http://ns.adobe.com/GenericCustomNamespace/1.0/">
	<!ENTITY ns_adobe_xpath "http://ns.adobe.com/XPath/1.0/">
]>
<svg version="1.0" id="Layer_1_copy" xmlns:x="&ns_extend;" xmlns:i="&ns_ai;" xmlns:graph="&ns_graphs;"
	 xmlns="http://www.w3.org/2000/svg" xmlns:xlink="http://www.w3.org/1999/xlink" x="0px" y="0px" width="283.45996px"
	 height="283.45996px" viewBox="0 0 283.45996 283.45996" enable-background="new 0 0 283.45996 283.45996" xml:space="preserve">
<metadata>
	<sfw  xmlns="&ns_sfw;">
		<slices></slices>
		<sliceSourceBounds  height="95.67435" width="112.88208" x="86.5506" y="-187.60242" bottomLeftOrigin="true">
			</sliceSourceBounds>
	</sfw>
</metadata>
<path fill-rule="evenodd" clip-rule="evenodd" d="M101.37109,146.4248c-2.06787-1.04297-4.06592-2.01172-5.96631-3.16016
	c-2.60059-1.57227-5.09668-3.27197-7.02051-5.6875c-2.46045-3.08936-2.45361-6.61963,0.07275-9.65283
	c2.43213-2.92041,5.64941-4.7583,8.97754-6.43066c3.48145-1.74951,7.11035-3.14648,10.7998-4.38184
	c0.63184-0.21143,0.73535-0.50928,0.65723-1.07129c-0.29004-2.09082-1.00391-4.06982-1.57959-6.08447
	c-0.75635-2.64697-1.43457-5.30469-1.41943-8.08691c0.02832-5.02441,3.01855-8.78613,7.92139-9.76465
	c2.54541-0.50781,4.9834,0.13232,7.26563,1.26758c3.78125,1.88086,6.56104,4.78711,8.45361,8.54834
	c0.5332,1.05957,0.39746,1.40527-0.73828,1.76904c-0.73096,0.23438-1.48975,0.47266-2.24658,0.51221
	c-0.64648,0.03418-0.83643,0.29541-0.91797,0.84521c-0.49756,3.35938-1.00342,6.71777-1.5166,10.07471
	c-0.0625,0.40869,0.07471,0.59375,0.46631,0.74512c7.75488,3,13.60059,8.2793,17.99219,15.23633
	c1.44629,2.2915,2.41895,4.80176,2.49023,7.56641c0.09277,3.56494-1.52246,6.23877-4.45801,8.12744
	c-0.79395,0.51172-1.17529,1.04688-1.09082,1.99707c0.07422,0.82813-0.03662,1.67188,0.00732,2.50391
	c0.03711,0.70508-0.25928,1.06738-0.89893,1.30859c-1.12646,0.42285-2.22461,0.9209-3.34131,1.37012
	c-0.58008,0.23242-0.91748,0.41211-0.90186,1.26074c0.03613,1.96973-0.20361,3.94629-0.35742,5.91895
	c-0.28418,3.63477-0.58057,7.26953-0.88965,10.90332c-0.03613,0.42578,0.15332,0.68359,0.41992,0.96484
	c1.93555,2.04297,3.8584,4.09668,5.78564,6.14746c0.31592,0.33594,0.729,0.65332,0.50146,1.19043
	c-0.21777,0.5127-0.71631,0.39746-1.13672,0.39844c-11.47656,0.01953-22.95361,0.03613-34.43018,0.05078
	c-1.20898,0.00195-1.40381-0.19336-1.30371-1.21484c0.40332-4.11914,0.82959-8.2373,1.19482-12.36035
	c0.43066-4.86328,0.81006-9.73145,1.2041-14.59863c0.06104-0.75391-0.18262-0.90723-0.8667-0.55078
	c-0.21094,0.10938-0.38281,0.30371-0.55566,0.47559c-1.26807,1.26855-2.55322,2.52148-3.7876,3.82227
	c-0.56885,0.59863-0.99707,0.57324-1.52246-0.0293c-0.50732-0.58105-1.06934-1.11523-1.62305-1.65527
	c-0.39307-0.38184-0.38037-0.71387,0.00879-1.09863c0.85645-0.84863,1.6626-1.75098,2.54639-2.56934
	c0.45215-0.41895,0.47852-0.73438,0.0542-1.14063c-0.0874-0.08398-0.15137-0.19531-0.21533-0.30078
	c-0.93164-1.54297-0.77637-1.99805,0.88818-2.59961C100.64014,146.86621,101.01074,146.79395,101.37109,146.4248z
	 M133.0083,155.05566c-1.05176,0.16602-1.86377,0.71289-2.75977,1.02832c-0.43066,0.15137-0.83105,0.19141-1.26465,0.10352
	c-2.96387-0.59863-5.92529-1.20996-8.89453-1.78027c-0.6582-0.12695-0.95801-0.42285-1.00439-1.09277
	c-0.41553-5.9834-0.84912-11.96484-1.27344-17.94678c-0.07031-0.99316,0.34033-1.3291,1.26221-1.03418
	c3.11426,0.99512,6.23145,1.98145,9.33447,3.01025c0.57813,0.19189,1.04688,0.15381,1.58545-0.104
	c2.75684-1.31982,5.52539-2.61621,8.29785-3.90332c1.1665-0.5415,1.48438-0.31104,1.46143,0.99951
	c-0.0127,0.71143-0.03125,1.42285-0.03809,2.13428c-0.00293,0.26465-0.08154,0.58447,0.40137,0.49902
	c0.39111-0.06934,0.64941,0.14844,0.7627,0.51953c0.13525,0.44482-0.12891,0.69287-0.46729,0.89941
	c-0.76514,0.4668-1.53027,0.93311-2.29346,1.40283c-0.41943,0.2583-0.85938,0.31104-1.14453-0.12891
	c-0.29785-0.45898-0.04102-0.89307,0.39307-1.06494c0.92725-0.3667,1.06592-1.06104,0.98584-1.91992
	c-0.03418-0.36719-0.01416-0.74268,0.01172-1.11279c0.03857-0.55566-0.13818-0.63086-0.63379-0.39404
	c-2.39502,1.14551-4.80029,2.27051-7.21143,3.38232c-0.36719,0.16992-0.48633,0.38965-0.48291,0.78174
	c0.04248,4.82666,0.07764,9.65283,0.09473,14.479c0.00195,0.6709,0.23242,0.69629,0.77393,0.46191
	c1.72803-0.74609,3.48047-1.43652,5.20947-2.18164c2.16309-0.93164,2.15283-0.94629,2.0376-3.2959
	c-0.01465-0.2959-0.05713-0.46973-0.37402-0.63672c-0.76855-0.40625-0.72168-0.99219,0.0625-1.41602
	c0.43457-0.23535,0.88379-0.44434,1.31152-0.69043c3.18652-1.83594,4.87061-4.49023,4.43018-8.2627
	c-0.20605-1.76953-0.83936-3.41113-1.66699-4.9751c-2.25391-4.25879-5.49854-7.67871-9.21973-10.6582
	c-2.83301-2.26904-5.84668-4.25684-9.44092-5.15576c-0.49414-0.12354-0.73682-0.44043-0.66406-0.95166
	c0.11279-0.79443,0.18701-1.60059,0.38281-2.375c0.23584-0.93066-0.02832-1.41797-0.9917-1.60449
	c-0.42188-0.08154-0.69043-0.07178-0.94141,0.29834c-0.24219,0.35645-0.55225,0.66602-0.81396,1.01025
	c-0.37012,0.48633-0.81885,0.70654-1.34619,0.30078c-1.13721-0.875-2.2998-0.86572-3.521-0.2124
	c-0.15869,0.08447-0.35791,0.09131-0.53564,0.14404c-0.42236,0.12598-0.76611-0.00049-0.89795-0.41113
	c-0.14111-0.43896,0.0376-0.79102,0.49805-0.9502c0.55371-0.19092,1.12256-0.34473,1.6626-0.56836
	c0.89307-0.36963,1.72852-0.38232,2.51221,0.25098c0.51172,0.41357,0.81641,0.18604,1.20215-0.26465
	c1.23877-1.4458,0.78223-1.64844,2.77637-0.87939c0.64404,0.24805,0.77881,0.03613,0.86328-0.55127
	c0.31641-2.19971,0.68848-4.39111,1.00537-6.59082c0.09521-0.65918,0.42188-0.90869,1.05713-0.87354
	c0.68018,0.0376,1.35205-0.01221,2.02197-0.1792c0.51904-0.12891,0.66211-0.28564,0.35547-0.80029
	c-2.47705-4.15967-5.84082-7.14844-10.6875-8.23145c-4.79688-1.07227-9.47852,2.43213-9.82715,7.33008
	c-0.22217,3.11914,0.55518,6.06592,1.40625,9.00879c0.6084,2.10254,1.37598,4.17139,1.56787,6.36865
	c0.13525,1.55127,0.04199,1.60938-1.43506,2.10986c-3.68701,1.24902-7.31787,2.64258-10.80615,4.37842
	c-2.96973,1.47754-5.85547,3.10205-8.13135,5.5835c-2.65869,2.89844-2.68359,5.80176-0.10889,8.77002
	c2.33447,2.69043,5.35352,4.45166,8.42822,6.12646c1.27441,0.69434,2.60547,1.28906,3.85156,2.0293
	c1.01953,0.60645,1.01611,1.6084,0.10303,2.36035c-0.38916,0.31934-0.83643,0.52344-1.31543,0.66016
	c-0.40088,0.11523-0.44775,0.30176-0.23779,0.66895c0.65479,1.14551,2.61865,1.98633,3.86914,1.62109
	c1.89307-0.55273,2.61914-3.07129,1.39697-4.91602c-0.28809-0.43457-0.67041-0.80566-0.99658-1.21582
	c-0.2373-0.29883-0.2666-0.63086-0.02344-0.93652c0.25049-0.31543,0.63672-0.3916,0.89893-0.12305
	c0.64697,0.66602,1.05615,0.27148,1.49951-0.22656c0.30811-0.3457,0.63184-0.68164,0.97705-0.98975
	c0.37549-0.33496,0.3125-0.58496-0.04004-0.896c-0.81201-0.71533-1.59766-1.46094-2.39648-2.19141
	c-0.23584-0.21582-0.46436-0.44189-0.33057-0.79346c0.11182-0.29395,0.39063-0.39648,0.67285-0.41357
	c0.83203-0.05078,1.66504-0.10596,2.49316,0.07129c3.35156,0.71631,5.78174,2.80762,7.9375,5.30957
	c0.33887,0.39355,0.34473,0.76172-0.03955,1.13867c-0.61719,0.60742-1.23486,1.21484-1.82324,1.84961
	c-0.37842,0.4082-0.71289,0.41504-1.1001,0.03613c-0.37549-0.36816-0.79346-0.69629-1.14453-1.08496
	c-0.4917-0.5459-0.87939-0.5791-1.4043,0.00488c-0.90918,1.01074-1.89307,1.9541-2.85107,2.91992
	c-0.15381,0.15527-0.26758,0.31152-0.35449,0.52246c-0.63232,1.53516-1.11572,3.05566-1.20117,4.77637
	c-0.20117,4.04102-0.65137,8.06934-1.01172,12.10156c-0.38818,4.3418-0.76123,8.68457-1.20996,13.01855
	c-0.07715,0.74609,0.06396,0.88965,0.77051,0.88477c4.67188-0.0332,9.34424-0.05371,14.01514-0.0127
	c0.91553,0.00781,1.125-0.27148,1.12109-1.14355c-0.0293-6.65234-0.0083-13.30371-0.00684-19.95605
	c0.00049-0.52832,0.04834-1.07617,0.71191-1.0791c0.65088-0.00293,0.75342,0.51855,0.72705,1.0625
	c-0.01025,0.21582-0.00146,0.43262-0.00146,0.64941c-0.00439,6.49707,0.00098,12.99414-0.02539,19.49219
	c-0.00293,0.68945,0.12695,0.97168,0.9043,0.96289c4.64063-0.05078,9.28125-0.0459,13.92188-0.0625
	c0.23389-0.00098,0.49854,0.10547,0.71143-0.20605c-1.60498-1.70117-3.18359-3.4375-4.83984-5.09668
	c-0.67822-0.67871-0.89258-1.36426-0.80518-2.30664c0.39502-4.24707,0.7334-8.49902,1.07422-12.75195
	C132.88721,157.69141,132.93311,156.39941,133.0083,155.05566z M129.06934,146.74805c-0.03906,0-0.07813,0-0.11768,0
	c0-2.34863-0.00488-4.69775,0.00488-7.04688c0.00146-0.39355-0.0127-0.70459-0.48389-0.85254
	c-2.88184-0.90332-5.75879-1.82129-8.63184-2.75293c-0.54834-0.17773-0.54834,0.06543-0.51172,0.48926
	c0.12402,1.4458,0.22266,2.89404,0.32373,4.34131c0.2627,3.75928,0.5293,7.51709,0.77441,11.27783
	c0.03711,0.56836,0.19775,0.85547,0.82861,0.96973c2.30469,0.41895,4.59863,0.89844,6.88818,1.3916
	c0.70752,0.15234,0.96338,0.02832,0.94482-0.77148C129.03467,151.44629,129.06934,149.09668,129.06934,146.74805z
	 M107.28809,138.94971c2.34082,2.14551,4.47754,4.09717,6.60156,6.06299c0.23975,0.22168,0.4043,0.21777,0.6123-0.00293
	c0.23291-0.24707,0.45557-0.50977,0.7168-0.72363c0.45361-0.37207,0.36865-0.67285-0.00293-1.06348
	c-0.94043-0.98926-1.93311-1.91699-3.08057-2.65723C110.75342,139.67285,109.30518,138.93652,107.28809,138.94971z
	 M102.88916,152.25c-1.64307-1.52148-2.69678-0.66797-3.66602,0.62402c-0.2373,0.31641-0.5332,0.59766-0.83545,0.85645
	c-0.32031,0.27441-0.40674,0.50391-0.0376,0.80566c0.23633,0.19336,0.45117,0.41992,0.64844,0.6543
	c0.27734,0.33008,0.49902,0.34082,0.82031,0.02051C100.83984,154.19434,101.89063,153.20801,102.88916,152.25z M108.18213,146.74414
	c0.80273-0.81836,1.50537-1.59082,2.26953-2.29688c0.51465-0.47461,0.54541-0.84668-0.06543-1.19629
	c-0.34961-0.19922-0.58936-0.90723-0.97803-0.62305c-0.7334,0.53711-1.31982,1.27734-1.95654,1.94238
	c-0.11523,0.12012-0.06299,0.27539,0.00391,0.42773C107.68652,145.52637,107.8999,146.06152,108.18213,146.74414z"/>
<path fill-rule="evenodd" clip-rule="evenodd" d="M177.30176,163.625c-2.37988-0.95605-4.57617-1.84277-6.77637-2.72168
	c-6.07617-2.42773-12.15234-4.85645-18.23438-7.27051c-0.63281-0.25098-0.88574-0.63086-0.88184-1.32715
	c0.02637-3.92969,0.02637-7.85938-0.00195-11.78906c-0.00488-0.69629,0.31543-1.01563,0.85938-1.36963
	c1.66406-1.0835,3.19824-1.0332,5.08691-0.28955c11.48535,4.52148,23.03125,8.88965,34.55762,13.30859
	c2.19043,0.83984,4.37207,1.69922,6.5752,2.50488c0.69336,0.25293,0.95117,0.65039,0.94629,1.37695
	c-0.02441,4.23926-0.02637,8.47852-0.00781,12.7168c0.00391,0.67188-0.24414,1.05469-0.81543,1.40527
	c-9.27344,5.6875-18.53711,11.3916-27.78711,17.11719c-0.60156,0.37207-1.10059,0.41016-1.72656,0.13965
	c-2.87305-1.24414-2.87695-1.23438-2.87695-4.35449c0-4.11523,0.01758-8.23047-0.01563-12.34473
	c-0.00684-0.75977,0.2627-1.1582,0.92578-1.51074c3.13867-1.66406,6.24805-3.38379,9.36523-5.08691
	C176.70801,164.0127,176.9082,163.87207,177.30176,163.625z M191.66016,155.82715c-0.68359-0.27539-1.1377-0.46484-1.59766-0.6416
	c-7.6582-2.94141-15.31738-5.87988-22.97461-8.82227c-4.43359-1.7041-8.86816-3.40381-13.29102-5.13379
	c-0.79004-0.30908-0.9707-0.14209-0.95801,0.6958c0.0459,3.09131,0.05859,6.18408-0.00781,9.2749
	c-0.01953,0.87207,0.28906,1.22461,1.05273,1.52734c8.20117,3.25,16.39063,6.53027,24.5752,9.82422
	c0.43457,0.1748,0.7334,0.09863,1.10645-0.10645c2.86816-1.57617,5.74805-3.13086,8.62109-4.69727
	C189.28711,157.14746,190.38184,156.53418,191.66016,155.82715z M197.85547,156.66309
	c-0.18262,0.08105-0.37891,0.15234-0.56055,0.25195c-8.71484,4.78613-17.42578,9.58105-26.15137,14.34863
	c-0.51758,0.2832-0.67383,0.58789-0.67188,1.14746c0.01758,4.17578,0.00293,8.35254,0.00684,12.52832
	c0,0.22559-0.09961,0.49121,0.17383,0.70996c0.18066-0.09375,0.375-0.17773,0.55371-0.28711
	c8.7334-5.37793,17.46387-10.7627,26.20605-16.12793c0.4707-0.28809,0.58594-0.625,0.58398-1.13379
	c-0.0166-3.52637-0.00488-7.05273-0.01074-10.57813C197.98535,157.25586,198.05957,156.97168,197.85547,156.66309z
	 M153.86328,140.05664c0.14746,0.10107,0.21484,0.16846,0.29688,0.19971c6.28027,2.41211,12.5625,4.8208,18.84277,7.23193
	c6.51074,2.5,13.02051,5.00195,19.5293,7.50684c0.48242,0.18555,1.06738,0.31836,1.08789,0.98145
	c0.01855,0.58301-0.52734,0.7168-0.91797,0.92969c-5.82715,3.18848-11.65918,6.36719-17.49023,9.54785
	c-2.19043,1.19434-4.37988,2.38965-6.67773,3.64453c0.69727,0.39355,1.18945,0.75098,1.94629,0.33301
	c8.52051-4.7002,17.05664-9.37305,25.58691-14.05664c0.32715-0.17969,0.63965-0.3877,1.08691-0.66016
	c-0.44043-0.17773-0.72168-0.29492-1.00586-0.4043c-4.66797-1.79102-9.33594-3.58008-14.00488-5.37012
	c-8.78906-3.36719-17.58008-6.72852-26.3623-10.11523C155.08398,139.55664,154.48828,139.48584,153.86328,140.05664z
	 M169.39844,185.84082c0-4.56055,0-9.10547,0-13.65039c0-0.03125,0.00293-0.0625-0.00098-0.09277
	c-0.12695-0.88672-0.97852-0.80957-1.49805-0.91602c-0.55176-0.11328-0.25098,0.55469-0.25293,0.84277
	c-0.0293,3.86523-0.02441,7.73145-0.02734,11.59766c-0.00098,1.67676,0.00098,1.67676,1.57129,2.25488
	C169.21582,185.88672,169.25,185.86816,169.39844,185.84082z"/>
<path fill-rule="evenodd" clip-rule="evenodd" d="M170.64258,98.25732c8.49316,0.03418,15.30078,6.99023,15.27344,15.60791
	c-0.02734,8.55908-6.97461,15.48535-15.4707,15.42432c-8.3418-0.06006-15.18066-7.08984-15.15234-15.57471
	C155.32129,105.17969,162.22852,98.22363,170.64258,98.25732z M184.48633,113.80176
	c0.03613-7.73926-6.18848-14.17578-13.8418-14.13184c-7.92871,0.04541-13.86426,6.44385-13.89648,13.97119
	c-0.03418,7.83252,6.08496,14.16016,13.74023,14.19385C178.25195,127.86963,184.45117,121.6543,184.48633,113.80176z"/>
<path fill-rule="evenodd" clip-rule="evenodd" d="M152.21973,168.86328c0.29785-1.74902,0.29102-1.73438-1.21094-2.36426
	c-5.03711-2.11035-10.06836-4.23242-15.10205-6.35059c-0.37744-0.1582-0.84961-0.32422-0.63184-0.83496
	c0.24561-0.5752,0.71338-0.28418,1.10791-0.11816c5.23389,2.19727,10.47168,4.38477,15.69531,6.60449
	c0.56934,0.24121,1.0127,0.22363,1.54785-0.06445c2.69336-1.44531,5.4043-2.8584,8.10742-4.28613
	c0.13086-0.06934,0.24219-0.17383,0.42578-0.30664c-3.81738-1.52734-7.56348-3.02637-11.31055-4.52539
	c-3.18066-1.27148-6.36035-2.54102-9.54053-3.8125c-0.08594-0.03418-0.1709-0.07129-0.25684-0.10449
	c-0.44775-0.17578-0.79395-0.46582-0.59033-0.97656c0.21094-0.5293,0.62109-0.55762,1.14697-0.34375
	c2.82959,1.14844,5.67432,2.25879,8.51025,3.39258c4.44043,1.77539,8.87109,3.57422,13.32324,5.32129
	c0.72266,0.28418,1,0.64746,0.96582,1.43066c-0.16113,3.66797,0.5127,2.54102-2.70801,4.37695
	c-2.68164,1.53027-5.39844,2.99805-8.08789,4.5166c-0.44434,0.25098-0.82813,0.31348-1.30371,0.10547
	c-5.57031-2.42969-11.14648-4.84668-16.72119-7.26758c-0.05615-0.02441-0.10742-0.0625-0.16455-0.08398
	c-0.50635-0.19043-0.80762-0.52246-0.54248-1.06348c0.24268-0.49512,0.67773-0.43652,1.11719-0.24316
	c1.63916,0.71875,3.28027,1.43359,4.92236,2.14648c3.45313,1.49902,6.90625,2.99609,10.36133,4.49121
	C151.58496,168.63477,151.90137,168.74219,152.21973,168.86328z M153.51074,168.82227
	c1.47559-0.81934,2.84277-1.57813,4.20996-2.33789c1.58789-0.88086,3.17871-1.75781,4.7627-2.64648
	c0.36133-0.20313,0.66895-1.31348,0.40234-1.53027c-0.37988-0.30664-0.6709,0.1123-0.95996,0.2627
	c-2.43066,1.26367-4.84668,2.55566-7.27051,3.83203C153.32813,167.10156,153.3252,167.0957,153.51074,168.82227z"/>
<path fill-rule="evenodd" clip-rule="evenodd" d="M151.42578,100.46191c-0.01172,1.48047-1.18359,2.65967-2.63184,2.64893
	c-1.43945-0.01025-2.62207-1.23389-2.60254-2.69287c0.01855-1.46631,1.21973-2.67041,2.64844-2.65576
	C150.2832,97.77637,151.43848,98.98291,151.42578,100.46191z M148.68555,99.2373c-0.59473,0.04883-1.00195,0.42969-1.03613,1.16455
	c-0.03418,0.73047,0.47754,1.27686,1.17773,1.24609c0.72949-0.03271,1.1377-0.45361,1.19629-1.16357
	C150.0791,99.80029,149.51074,99.24072,148.68555,99.2373z"/>
<path fill-rule="evenodd" clip-rule="evenodd" d="M136.68994,97.02979c0.94385,0.01514,1.81592,0.92383,1.80322,1.88037
	c-0.0127,1.02979-0.89209,1.87256-1.91602,1.83691c-0.98877-0.03369-1.75293-0.875-1.72803-1.90234
	C134.87305,97.83984,135.71094,97.01367,136.68994,97.02979z M137.06787,98.87207c-0.07275-0.22021-0.19482-0.38184-0.44824-0.35596
	c-0.26709,0.02734-0.34814,0.23291-0.3291,0.45313c0.01758,0.19824,0.1709,0.31592,0.37988,0.30078
	C136.90918,99.25195,137.05176,99.12061,137.06787,98.87207z"/>
<path fill-rule="evenodd" clip-rule="evenodd" fill="none" d="M133.0083,155.05566c-0.0752,1.34375-0.12109,2.63574-0.22412,3.92188
	c-0.34082,4.25293-0.6792,8.50488-1.07422,12.75195c-0.0874,0.94238,0.12695,1.62793,0.80518,2.30664
	c1.65625,1.65918,3.23486,3.39551,4.83984,5.09668c-0.21289,0.31152-0.47754,0.20508-0.71143,0.20605
	c-4.64063,0.0166-9.28125,0.01172-13.92188,0.0625c-0.77734,0.00879-0.90723-0.27344-0.9043-0.96289
	c0.02637-6.49805,0.021-12.99512,0.02539-19.49219c0-0.2168-0.00879-0.43359,0.00146-0.64941
	c0.02637-0.54395-0.07617-1.06543-0.72705-1.0625c-0.66357,0.00293-0.71143,0.55078-0.71191,1.0791
	c-0.00146,6.65234-0.02246,13.30371,0.00684,19.95605c0.00391,0.87207-0.20557,1.15137-1.12109,1.14355
	c-4.6709-0.04102-9.34326-0.02051-14.01514,0.0127c-0.70654,0.00488-0.84766-0.13867-0.77051-0.88477
	c0.44873-4.33398,0.82178-8.67676,1.20996-13.01855c0.36035-4.03223,0.81055-8.06055,1.01172-12.10156
	c0.08545-1.7207,0.56885-3.24121,1.20117-4.77637c0.08691-0.21094,0.20068-0.36719,0.35449-0.52246
	c0.95801-0.96582,1.94189-1.90918,2.85107-2.91992c0.5249-0.58398,0.9126-0.55078,1.4043-0.00488
	c0.35107,0.38867,0.76904,0.7168,1.14453,1.08496c0.38721,0.37891,0.72168,0.37207,1.1001-0.03613
	c0.58838-0.63477,1.20605-1.24219,1.82324-1.84961c0.38428-0.37695,0.37842-0.74512,0.03955-1.13867
	c-2.15576-2.50195-4.58594-4.59326-7.9375-5.30957c-0.82813-0.17725-1.66113-0.12207-2.49316-0.07129
	c-0.28223,0.01709-0.56104,0.11963-0.67285,0.41357c-0.13379,0.35156,0.09473,0.57764,0.33057,0.79346
	c0.79883,0.73047,1.58447,1.47607,2.39648,2.19141c0.35254,0.31104,0.41553,0.56104,0.04004,0.896
	c-0.34521,0.30811-0.66895,0.64404-0.97705,0.98975c-0.44336,0.49805-0.85254,0.89258-1.49951,0.22656
	c-0.26221-0.26855-0.64844-0.19238-0.89893,0.12305c-0.24316,0.30566-0.21387,0.6377,0.02344,0.93652
	c0.32617,0.41016,0.7085,0.78125,0.99658,1.21582c1.22217,1.84473,0.49609,4.36328-1.39697,4.91602
	c-1.25049,0.36523-3.21436-0.47559-3.86914-1.62109c-0.20996-0.36719-0.16309-0.55371,0.23779-0.66895
	c0.479-0.13672,0.92627-0.34082,1.31543-0.66016c0.91309-0.75195,0.9165-1.75391-0.10303-2.36035
	c-1.24609-0.74023-2.57715-1.33496-3.85156-2.0293c-3.07471-1.6748-6.09375-3.43604-8.42822-6.12646
	c-2.57471-2.96826-2.5498-5.87158,0.10889-8.77002c2.27588-2.48145,5.16162-4.10596,8.13135-5.5835
	c3.48828-1.73584,7.11914-3.12939,10.80615-4.37842c1.47705-0.50049,1.57031-0.55859,1.43506-2.10986
	c-0.19189-2.19727-0.95947-4.26611-1.56787-6.36865c-0.85107-2.94287-1.62842-5.88965-1.40625-9.00879
	c0.34863-4.89795,5.03027-8.40234,9.82715-7.33008c4.84668,1.08301,8.21045,4.07178,10.6875,8.23145
	c0.30664,0.51465,0.16357,0.67139-0.35547,0.80029c-0.66992,0.16699-1.3418,0.2168-2.02197,0.1792
	c-0.63525-0.03516-0.96191,0.21436-1.05713,0.87354c-0.31689,2.19971-0.68896,4.39111-1.00537,6.59082
	c-0.08447,0.5874-0.21924,0.79932-0.86328,0.55127c-1.99414-0.76904-1.5376-0.56641-2.77637,0.87939
	c-0.38574,0.45068-0.69043,0.67822-1.20215,0.26465c-0.78369-0.6333-1.61914-0.62061-2.51221-0.25098
	c-0.54004,0.22363-1.10889,0.37744-1.6626,0.56836c-0.46045,0.15918-0.63916,0.51123-0.49805,0.9502
	c0.13184,0.41064,0.47559,0.53711,0.89795,0.41113c0.17773-0.05273,0.37695-0.05957,0.53564-0.14404
	c1.22119-0.65332,2.38379-0.6626,3.521,0.2124c0.52734,0.40576,0.97607,0.18555,1.34619-0.30078
	c0.26172-0.34424,0.57178-0.65381,0.81396-1.01025c0.25098-0.37012,0.51953-0.37988,0.94141-0.29834
	c0.96338,0.18652,1.22754,0.67383,0.9917,1.60449c-0.1958,0.77441-0.27002,1.58057-0.38281,2.375
	c-0.07275,0.51123,0.16992,0.82813,0.66406,0.95166c3.59424,0.89893,6.60791,2.88672,9.44092,5.15576
	c3.72119,2.97949,6.96582,6.39941,9.21973,10.6582c0.82764,1.56396,1.46094,3.20557,1.66699,4.9751
	c0.44043,3.77246-1.24365,6.42676-4.43018,8.2627c-0.42773,0.24609-0.87695,0.45508-1.31152,0.69043
	c-0.78418,0.42383-0.83105,1.00977-0.0625,1.41602c0.31689,0.16699,0.35938,0.34082,0.37402,0.63672
	c0.11523,2.34961,0.12549,2.36426-2.0376,3.2959c-1.729,0.74512-3.48145,1.43555-5.20947,2.18164
	c-0.5415,0.23438-0.77197,0.20898-0.77393-0.46191c-0.01709-4.82617-0.05225-9.65234-0.09473-14.479
	c-0.00342-0.39209,0.11572-0.61182,0.48291-0.78174c2.41113-1.11182,4.81641-2.23682,7.21143-3.38232
	c0.49561-0.23682,0.67236-0.16162,0.63379,0.39404c-0.02588,0.37012-0.0459,0.74561-0.01172,1.11279
	c0.08008,0.85889-0.05859,1.55322-0.98584,1.91992c-0.43408,0.17188-0.69092,0.60596-0.39307,1.06494
	c0.28516,0.43994,0.7251,0.38721,1.14453,0.12891c0.76318-0.46973,1.52832-0.93604,2.29346-1.40283
	c0.33838-0.20654,0.60254-0.45459,0.46729-0.89941c-0.11328-0.37109-0.37158-0.58887-0.7627-0.51953
	c-0.48291,0.08545-0.4043-0.23438-0.40137-0.49902c0.00684-0.71143,0.02539-1.42285,0.03809-2.13428
	c0.02295-1.31055-0.29492-1.54102-1.46143-0.99951c-2.77246,1.28711-5.54102,2.5835-8.29785,3.90332
	c-0.53857,0.25781-1.00732,0.2959-1.58545,0.104c-3.10303-1.02881-6.22021-2.01514-9.33447-3.01025
	c-0.92188-0.29492-1.33252,0.04102-1.26221,1.03418c0.42432,5.98193,0.85791,11.96338,1.27344,17.94678
	c0.04639,0.66992,0.34619,0.96582,1.00439,1.09277c2.96924,0.57031,5.93066,1.18164,8.89453,1.78027
	c0.43359,0.08789,0.83398,0.04785,1.26465-0.10352C131.14453,155.76855,131.95654,155.22168,133.0083,155.05566z
	 M137.61523,144.16016c0.38477,0.0127,2.83545-1.45801,2.95459-1.79297c0.09814-0.27441,0.07471-0.53613-0.15332-0.76514
	c-0.22461-0.2251-0.50635-0.31445-0.75684-0.16992c-0.85205,0.49121-1.68799,1.01221-2.5127,1.54834
	c-0.25293,0.16504-0.31885,0.46094-0.18262,0.74316C137.08984,143.98438,137.29688,144.16699,137.61523,144.16016z
	 M123.27051,102.47705c-0.04395-0.70117-0.42822-1.08691-1.0625-1.09229c-0.62891-0.00537-1.07275,0.35742-1.06689,1.03076
	c0.00537,0.67969,0.3667,1.11523,1.08984,1.10254C122.91016,103.50586,123.20068,103.06885,123.27051,102.47705z
	 M117.6123,105.01807c0.67139-0.04199,1.06934-0.36963,1.12354-1.02002c0.06006-0.72168-0.36084-1.14111-1.0293-1.15381
	c-0.61572-0.01172-1.04492,0.35303-1.04639,1.04395C116.65869,104.5415,116.98438,104.91895,117.6123,105.01807z"/>
<path fill-rule="evenodd" clip-rule="evenodd" fill="none" d="M129.06934,146.74805c0,2.34863-0.03467,4.69824,0.01953,7.0459
	c0.01855,0.7998-0.2373,0.92383-0.94482,0.77148c-2.28955-0.49316-4.5835-0.97266-6.88818-1.3916
	c-0.63086-0.11426-0.7915-0.40137-0.82861-0.96973c-0.24512-3.76074-0.51172-7.51855-0.77441-11.27783
	c-0.10107-1.44727-0.19971-2.89551-0.32373-4.34131c-0.03662-0.42383-0.03662-0.66699,0.51172-0.48926
	c2.87305,0.93164,5.75,1.84961,8.63184,2.75293c0.47119,0.14795,0.48535,0.45898,0.48389,0.85254
	c-0.00977,2.34912-0.00488,4.69824-0.00488,7.04688C128.99121,146.74805,129.03027,146.74805,129.06934,146.74805z"/>
<path fill-rule="evenodd" clip-rule="evenodd" fill="none" d="M107.28809,138.94971
	c2.01709-0.01318,3.46533,0.72314,4.84717,1.61572c1.14746,0.74023,2.14014,1.66797,3.08057,2.65723
	c0.37158,0.39063,0.45654,0.69141,0.00293,1.06348c-0.26123,0.21387-0.48389,0.47656-0.7168,0.72363
	c-0.20801,0.2207-0.37256,0.22461-0.6123,0.00293C111.76563,143.04688,109.62891,141.09521,107.28809,138.94971z"/>
<path fill-rule="evenodd" clip-rule="evenodd" fill="none" d="M102.88916,152.25c-0.99854,0.95801-2.04932,1.94434-3.07031,2.96094
	c-0.32129,0.32031-0.54297,0.30957-0.82031-0.02051c-0.19727-0.23438-0.41211-0.46094-0.64844-0.6543
	c-0.36914-0.30176-0.28271-0.53125,0.0376-0.80566c0.30225-0.25879,0.59814-0.54004,0.83545-0.85645
	C100.19238,151.58203,101.24609,150.72852,102.88916,152.25z"/>
<path fill-rule="evenodd" clip-rule="evenodd" fill="none" d="M108.18213,146.74414
	c-0.28223-0.68262-0.49561-1.21777-0.72656-1.74609c-0.06689-0.15234-0.11914-0.30762-0.00391-0.42773
	c0.63672-0.66504,1.22314-1.40527,1.95654-1.94238c0.38867-0.28418,0.62842,0.42383,0.97803,0.62305
	c0.61084,0.34961,0.58008,0.72168,0.06543,1.19629C109.6875,145.15332,108.98486,145.92578,108.18213,146.74414z"/>
<path fill-rule="evenodd" clip-rule="evenodd" fill="none" d="M191.66016,155.82715
	c-1.27832,0.70703-2.37305,1.32031-3.47363,1.9209c-2.87305,1.56641-5.75293,3.12109-8.62109,4.69727
	c-0.37305,0.20508-0.67188,0.28125-1.10645,0.10645c-8.18457-3.29395-16.37402-6.57422-24.5752-9.82422
	c-0.76367-0.30273-1.07227-0.65527-1.05273-1.52734c0.06641-3.09082,0.05371-6.18359,0.00781-9.2749
	c-0.0127-0.83789,0.16797-1.00488,0.95801-0.6958c4.42285,1.72998,8.85742,3.42969,13.29102,5.13379
	c7.65723,2.94238,15.31641,5.88086,22.97461,8.82227C190.52246,155.3623,190.97656,155.55176,191.66016,155.82715z"/>
<path fill-rule="evenodd" clip-rule="evenodd" fill="none" d="M197.85547,156.66309c0.2041,0.30859,0.12988,0.59277,0.12988,0.85938
	c0.00586,3.52539-0.00586,7.05176,0.01074,10.57813c0.00195,0.50879-0.11328,0.8457-0.58398,1.13379
	c-8.74219,5.36523-17.47266,10.75-26.20605,16.12793c-0.17871,0.10938-0.37305,0.19336-0.55371,0.28711
	c-0.27344-0.21875-0.17383-0.48438-0.17383-0.70996c-0.00391-4.17578,0.01074-8.35254-0.00684-12.52832
	c-0.00195-0.55957,0.1543-0.86426,0.67188-1.14746c8.72559-4.76758,17.43652-9.5625,26.15137-14.34863
	C197.47656,156.81543,197.67285,156.74414,197.85547,156.66309z"/>
<path fill-rule="evenodd" clip-rule="evenodd" fill="none" d="M153.86328,140.05664c0.625-0.5708,1.2207-0.5,1.91797-0.23145
	c8.78223,3.38672,17.57324,6.74805,26.3623,10.11523c4.66895,1.79004,9.33691,3.5791,14.00488,5.37012
	c0.28418,0.10938,0.56543,0.22656,1.00586,0.4043c-0.44727,0.27246-0.75977,0.48047-1.08691,0.66016
	c-8.53027,4.68359-17.06641,9.35645-25.58691,14.05664c-0.75684,0.41797-1.24902,0.06055-1.94629-0.33301
	c2.29785-1.25488,4.4873-2.4502,6.67773-3.64453c5.83105-3.18066,11.66309-6.35938,17.49023-9.54785
	c0.39063-0.21289,0.93652-0.34668,0.91797-0.92969c-0.02051-0.66309-0.60547-0.7959-1.08789-0.98145
	c-6.50879-2.50488-13.01855-5.00684-19.5293-7.50684c-6.28027-2.41113-12.5625-4.81982-18.84277-7.23193
	C154.07813,140.2251,154.01074,140.15771,153.86328,140.05664z"/>
<path fill-rule="evenodd" clip-rule="evenodd" fill="none" d="M169.39844,185.84082
	c-0.14844,0.02734-0.18262,0.0459-0.20801,0.03613c-1.57031-0.57813-1.57227-0.57813-1.57129-2.25488
	c0.00293-3.86621-0.00195-7.73242,0.02734-11.59766c0.00195-0.28809-0.29883-0.95605,0.25293-0.84277
	c0.51953,0.10645,1.37109,0.0293,1.49805,0.91602c0.00391,0.03027,0.00098,0.06152,0.00098,0.09277
	C169.39844,176.73535,169.39844,181.28027,169.39844,185.84082z"/>
<path fill-rule="evenodd" clip-rule="evenodd" fill="none" d="M184.48633,113.80176
	c-0.03516,7.85254-6.23438,14.06787-13.99805,14.0332c-7.65527-0.03369-13.77441-6.36133-13.74023-14.19385
	c0.03223-7.52734,5.96777-13.92578,13.89648-13.97119C178.29785,99.62598,184.52246,106.0625,184.48633,113.80176z
	 M169.74219,115.76416c0.00098,0,0.00195,0,0.00293,0c0,0.46338-0.01465,0.92725,0.00391,1.38965
	c0.02148,0.5293,0.375,0.7876,0.84961,0.7915c0.48828,0.00342,0.80469-0.28662,0.83203-0.80615
	c0.01855-0.33936,0.05176-0.68457,0.00879-1.01807c-0.08301-0.63672,0.19238-0.88281,0.78711-1.10059
	c1.71973-0.62988,2.69043-1.95801,2.90039-3.7417c0.21875-1.86621-0.48535-3.41748-2.08301-4.44336
	c-1.56641-1.00537-3.22363-1.00635-4.80762-0.03369c-1.41699,0.86914-2.12109,2.20068-2.16895,3.86328
	c-0.01563,0.54688,0.28125,0.90039,0.82031,0.93164c0.48438,0.02783,0.81934-0.22998,0.8877-0.75195
	c0.02441-0.18359,0.05469-0.3667,0.08984-0.54834c0.2998-1.56006,1.46484-2.46094,3.03711-2.35059
	c1.37207,0.09668,2.45313,1.29492,2.48145,2.75c0.02832,1.46875-0.99609,2.68359-2.49316,2.83154
	c-0.8623,0.08496-1.21973,0.46777-1.15332,1.31055C169.76172,115.14453,169.74219,115.45508,169.74219,115.76416z
	 M171.43848,120.4082c-0.04199-0.5708-0.27051-0.979-0.89551-0.95752c-0.62695,0.02197-0.83008,0.44678-0.81836,1.01025
	c0.01172,0.5415,0.25586,0.88916,0.83203,0.89746C171.19434,121.36719,171.39551,120.95361,171.43848,120.4082z"/>
<path fill-rule="evenodd" clip-rule="evenodd" fill="none" d="M153.51074,168.82227
	c-0.18555-1.72656-0.18262-1.7207,1.14453-2.41992c2.42383-1.27637,4.83984-2.56836,7.27051-3.83203
	c0.28906-0.15039,0.58008-0.56934,0.95996-0.2627c0.2666,0.2168-0.04102,1.32715-0.40234,1.53027
	c-1.58398,0.88867-3.1748,1.76563-4.7627,2.64648C156.35352,167.24414,154.98633,168.00293,153.51074,168.82227z"/>
<path fill-rule="evenodd" clip-rule="evenodd" fill="none" d="M148.68555,99.2373c0.8252,0.00342,1.39355,0.56299,1.33789,1.24707
	c-0.05859,0.70996-0.4668,1.13086-1.19629,1.16357c-0.7002,0.03076-1.21191-0.51563-1.17773-1.24609
	C147.68359,99.66699,148.09082,99.28613,148.68555,99.2373z"/>
<path fill-rule="evenodd" clip-rule="evenodd" fill="none" d="M137.06787,98.87207
	c-0.01611,0.24854-0.15869,0.37988-0.39746,0.39795c-0.20898,0.01514-0.3623-0.10254-0.37988-0.30078
	c-0.01904-0.22021,0.06201-0.42578,0.3291-0.45313C136.87305,98.49023,136.99512,98.65186,137.06787,98.87207z"/>
<path fill-rule="evenodd" clip-rule="evenodd" d="M137.61523,144.16016c-0.31836,0.00684-0.52539-0.17578-0.65088-0.43652
	c-0.13623-0.28223-0.07031-0.57813,0.18262-0.74316c0.82471-0.53613,1.66064-1.05713,2.5127-1.54834
	c0.25049-0.14453,0.53223-0.05518,0.75684,0.16992c0.22803,0.229,0.25146,0.49072,0.15332,0.76514
	C140.45068,142.70215,138,144.17285,137.61523,144.16016z"/>
<path fill-rule="evenodd" clip-rule="evenodd" d="M123.27051,102.47705c-0.06982,0.5918-0.36035,1.02881-1.03955,1.04102
	c-0.72314,0.0127-1.08447-0.42285-1.08984-1.10254c-0.00586-0.67334,0.43799-1.03613,1.06689-1.03076
	C122.84229,101.39014,123.22656,101.77588,123.27051,102.47705z"/>
<path fill-rule="evenodd" clip-rule="evenodd" d="M117.6123,105.01807c-0.62793-0.09912-0.95361-0.47656-0.95215-1.12988
	c0.00146-0.69092,0.43066-1.05566,1.04639-1.04395c0.66846,0.0127,1.08936,0.43213,1.0293,1.15381
	C118.68164,104.64844,118.28369,104.97607,117.6123,105.01807z"/>
<path fill-rule="evenodd" clip-rule="evenodd" d="M169.74219,115.76416c0-0.30908,0.01953-0.61963-0.00488-0.92627
	c-0.06641-0.84277,0.29102-1.22559,1.15332-1.31055c1.49707-0.14795,2.52148-1.36279,2.49316-2.83154
	c-0.02832-1.45508-1.10938-2.65332-2.48145-2.75c-1.57227-0.11035-2.7373,0.79053-3.03711,2.35059
	c-0.03516,0.18164-0.06543,0.36475-0.08984,0.54834c-0.06836,0.52197-0.40332,0.77979-0.8877,0.75195
	c-0.53906-0.03125-0.83594-0.38477-0.82031-0.93164c0.04785-1.6626,0.75195-2.99414,2.16895-3.86328
	c1.58398-0.97266,3.24121-0.97168,4.80762,0.03369c1.59766,1.02588,2.30176,2.57715,2.08301,4.44336
	c-0.20996,1.78369-1.18066,3.11182-2.90039,3.7417c-0.59473,0.21777-0.87012,0.46387-0.78711,1.10059
	c0.04297,0.3335,0.00977,0.67871-0.00879,1.01807c-0.02734,0.51953-0.34375,0.80957-0.83203,0.80615
	c-0.47461-0.00391-0.82813-0.26221-0.84961-0.7915c-0.01855-0.4624-0.00391-0.92627-0.00391-1.38965
	C169.74414,115.76416,169.74316,115.76416,169.74219,115.76416z"/>
<path fill-rule="evenodd" clip-rule="evenodd" d="M171.43848,120.4082c-0.04297,0.54541-0.24414,0.95898-0.88184,0.9502
	c-0.57617-0.0083-0.82031-0.35596-0.83203-0.89746c-0.01172-0.56348,0.19141-0.98828,0.81836-1.01025
	C171.16797,119.4292,171.39648,119.8374,171.43848,120.4082z"/>
<g>
</g>
<g>
</g>
<g>
</g>
<g>
</g>
<g>
</g>
<g>
</g>
</svg>
