<svg xmlns="http://www.w3.org/2000/svg" xmlns:xlink="http://www.w3.org/1999/xlink" version="1.1" x="0px" y="0px" viewBox="0 0 100 125" style="enable-background:new 0 0 100 100;" xml:space="preserve"><g><path d="M79.988,82.494c0,1.382-1.117,2.5-2.5,2.5h-54.99c-1.381,0-2.5-1.118-2.5-2.5s1.119-2.5,2.5-2.5h54.99   C78.871,79.994,79.988,81.112,79.988,82.494z M48.226,61.766c5.512,5.512,0.571,10.877,0,11.463c-0.977,0.977-0.977,2.558,0,3.534   s2.558,0.977,3.534,0c3.209-3.205,7.328-11.202,0-18.532c-5.511-5.512-0.57-10.877,0.012-11.473   c0.965-0.976,0.961-2.551-0.012-3.524c-0.975-0.977-2.557-0.977-3.534,0C45.019,46.438,40.898,54.436,48.226,61.766z    M36.563,73.229c-0.977,0.977-0.977,2.558,0,3.534c0.94,0.941,2.523,1.012,3.535,0c3.206-3.205,7.328-11.202,0-18.532   c-5.512-5.512-0.57-10.877,0.009-11.473c0.968-0.976,0.962-2.551-0.009-3.524c-0.977-0.977-2.56-0.977-3.535,0   c-3.207,3.205-7.328,11.202,0,18.532C42.075,67.277,37.134,72.643,36.563,73.229z M59.889,43.233   c-3.207,3.205-7.328,11.202,0,18.532c5.512,5.512,0.572,10.877,0,11.463c-0.977,0.977-0.977,2.558,0,3.534   c0.877,0.877,2.463,1.071,3.535,0c3.207-3.205,7.328-11.202,0-18.532c-5.512-5.512-0.57-10.877,0.01-11.473   c0.967-0.976,0.961-2.551-0.01-3.524C62.447,42.257,60.865,42.257,59.889,43.233z M94.986,94.992H5   c-3.896,0-6.195-4.189-4.354-7.449L45.639,7.556c1.9-3.387,6.796-3.407,8.708,0l44.994,79.987   C101.271,90.961,98.707,94.992,94.986,94.992z M5.063,89.993c-0.013-0.015-0.025-0.028-0.038-0.043L5,89.993H5.063z M93.141,89.257   c0.041-0.604,0.432-0.936,0.865-1.005l-4.393-7.809c-0.598,0.188-1.363-0.156-1.381-1.006c0.023-0.355,0.17-0.615,0.375-0.784   l-0.783-1.392c-0.273,1.142-2.02,1.01-2.047-0.279c0.055-0.824,0.766-1.14,1.344-0.972l-3.023-5.373   c-0.41-0.106-0.764-0.446-0.775-1.019c0.006-0.1,0.025-0.189,0.049-0.273l-0.77-1.37c-0.59,0.509-1.713,0.22-1.734-0.812   c0.037-0.539,0.355-0.859,0.73-0.972l-4.391-7.808c-0.574,0.102-1.232-0.253-1.248-1.04c0.02-0.294,0.125-0.521,0.275-0.687   l-0.738-1.314c-0.4,0.95-1.967,0.766-1.992-0.454c0.049-0.743,0.633-1.072,1.17-1.008l-4.455-7.919   c-0.607,0.392-1.604,0.079-1.625-0.892c0.033-0.477,0.285-0.781,0.604-0.923l-1.031-1.834c0.029,0.091,0.053,0.188,0.059,0.296   c-0.027,1.442-2.055,1.395-2.084,0.006c0.072-1.08,1.268-1.29,1.816-0.676l-3.17-5.635c-0.533,0.023-1.086-0.333-1.102-1.054   c0.016-0.231,0.086-0.42,0.188-0.572l-0.727-1.29c-0.488,0.786-1.891,0.563-1.916-0.592c0.045-0.67,0.523-1.004,1.012-1.017   l-3.125-5.556c-0.152-0.135-0.266-0.321-0.314-0.558l-0.975-1.734c-0.611,0.285-1.486-0.045-1.506-0.956   c0.027-0.416,0.223-0.701,0.482-0.862l-0.861-1.531c-0.092,1.369-2.049,1.303-2.076-0.062c0.061-0.922,0.941-1.209,1.539-0.894   l-3.049-5.422c-0.48-0.047-0.932-0.399-0.945-1.049c0.012-0.167,0.051-0.313,0.109-0.438l-1.527-2.715l-1.52,2.701   c0.062,0.127,0.102,0.276,0.113,0.445c-0.014,0.683-0.475,1.027-0.959,1.059l-3.051,5.423c0.599-0.328,1.496-0.026,1.555,0.883   c-0.027,1.427-2.008,1.394-2.08,0.05l-0.868,1.544c0.267,0.161,0.468,0.448,0.494,0.861c-0.019,0.949-0.901,1.249-1.513,0.95   l-4.42,7.857c0.492,0.01,0.98,0.35,1.023,1.012c-0.023,1.203-1.435,1.366-1.92,0.582l-0.729,1.296   c0.105,0.153,0.178,0.344,0.193,0.577C36.3,36,35.739,36.343,35.202,36.304l-3.189,5.668c0.534-0.664,1.779-0.438,1.848,0.638   c-0.027,1.442-2.055,1.395-2.084,0.006c0.01-0.141,0.041-0.263,0.086-0.375l-1.07,1.903c0.324,0.142,0.584,0.447,0.614,0.92   c-0.021,1.012-1.022,1.288-1.63,0.884l-4.463,7.934c0.543-0.068,1.136,0.268,1.184,1c-0.025,1.271-1.602,1.385-1.995,0.443   l-0.745,1.324c0.156,0.166,0.267,0.394,0.285,0.688c-0.016,0.823-0.682,1.159-1.257,1.04l-4.396,7.813   c0.383,0.11,0.709,0.432,0.743,0.966c-0.021,1.075-1.151,1.321-1.738,0.804l-0.77,1.368c0.026,0.087,0.047,0.181,0.054,0.283   c-0.012,0.604-0.376,0.944-0.796,1.036l-3.018,5.364c0.581-0.176,1.306,0.149,1.358,0.964c-0.025,1.346-1.789,1.393-2.051,0.268   l-0.79,1.404c0.211,0.168,0.363,0.428,0.386,0.783c-0.018,0.887-0.791,1.208-1.391,1.002L5.98,88.252   c0.44,0.067,0.841,0.401,0.88,0.998c-0.007,0.323-0.117,0.568-0.279,0.743h3.392c-0.167-0.176-0.281-0.419-0.288-0.736   c0.092-1.37,1.998-1.345,2.084-0.007c-0.006,0.323-0.115,0.568-0.278,0.743h3.392c-0.168-0.176-0.281-0.419-0.288-0.736   c0.091-1.37,1.998-1.345,2.085-0.007c-0.006,0.323-0.117,0.568-0.279,0.743h3.392c-0.167-0.176-0.281-0.419-0.288-0.736   c0.092-1.37,1.998-1.345,2.085-0.007c-0.007,0.323-0.116,0.568-0.278,0.743H24.7c-0.168-0.176-0.281-0.419-0.288-0.736   c0.091-1.37,1.998-1.345,2.085-0.007c-0.006,0.323-0.116,0.568-0.279,0.743h3.393c-0.168-0.176-0.282-0.419-0.289-0.736   c0.092-1.37,1.998-1.345,2.085-0.007c-0.007,0.323-0.116,0.568-0.278,0.743h3.391c-0.167-0.176-0.281-0.419-0.287-0.736   c0.091-1.37,1.997-1.345,2.084-0.007c-0.006,0.323-0.116,0.568-0.278,0.743h3.392c-0.168-0.176-0.282-0.419-0.289-0.736   c0.092-1.37,1.998-1.345,2.085-0.007c-0.007,0.323-0.116,0.568-0.278,0.743h3.391c-0.167-0.176-0.281-0.419-0.288-0.736   c0.092-1.37,1.998-1.345,2.085-0.007c-0.006,0.323-0.116,0.568-0.278,0.743h3.392c-0.168-0.176-0.282-0.419-0.289-0.736   c0.092-1.37,1.998-1.345,2.085-0.007c-0.008,0.323-0.117,0.568-0.279,0.743h3.39c-0.166-0.176-0.281-0.419-0.287-0.736   c0.092-1.37,1.998-1.345,2.084-0.007c-0.006,0.323-0.115,0.568-0.277,0.743h3.391c-0.168-0.176-0.281-0.419-0.289-0.736   c0.092-1.37,1.998-1.345,2.086-0.007c-0.006,0.323-0.117,0.568-0.279,0.743h3.391c-0.166-0.176-0.281-0.419-0.287-0.736   c0.092-1.37,1.998-1.345,2.084-0.007c-0.006,0.323-0.115,0.568-0.277,0.743h3.391c-0.168-0.176-0.281-0.419-0.289-0.736   c0.092-1.37,1.998-1.345,2.086-0.007c-0.006,0.323-0.117,0.568-0.279,0.743h3.393c-0.168-0.176-0.283-0.419-0.289-0.736   c0.092-1.37,1.998-1.345,2.084-0.007c-0.006,0.323-0.115,0.568-0.277,0.743h3.391c-0.168-0.176-0.281-0.419-0.287-0.736   c0.09-1.37,1.996-1.345,2.084-0.007c-0.006,0.323-0.117,0.568-0.279,0.743h3.393c-0.168-0.176-0.283-0.419-0.289-0.736   c0.092-1.37,1.998-1.345,2.084-0.007c-0.006,0.323-0.115,0.568-0.277,0.743h3.391c-0.168-0.176-0.281-0.419-0.287-0.736   c0.09-1.37,1.996-1.345,2.084-0.007c-0.006,0.323-0.117,0.568-0.279,0.743h3.393C93.262,89.817,93.148,89.574,93.141,89.257z    M94.986,89.993l-0.016-0.026c-0.008,0.009-0.016,0.018-0.023,0.026H94.986z M51.043,15.607c-0.087-1.339-1.994-1.364-2.085,0.006   C48.987,17.002,51.014,17.05,51.043,15.607z M48.588,18.062c-0.087-1.339-1.994-1.364-2.085,0.006   C46.533,19.457,48.56,19.504,48.588,18.062z M53.496,18.062c-0.086-1.339-1.992-1.364-2.084,0.006   C51.441,19.457,53.469,19.504,53.496,18.062z M51.043,20.517c-0.087-1.339-1.994-1.364-2.085,0.007   C48.987,21.912,51.014,21.959,51.043,20.517z M48.588,22.972c-0.087-1.339-1.994-1.364-2.085,0.006   C46.533,24.366,48.56,24.414,48.588,22.972z M53.496,22.972c-0.086-1.339-1.992-1.364-2.084,0.006   C51.441,24.366,53.469,24.414,53.496,22.972z M46.133,25.426c-0.087-1.339-1.993-1.364-2.085,0.006   C44.078,26.821,46.105,26.869,46.133,25.426z M51.043,25.426c-0.087-1.339-1.994-1.364-2.085,0.006   C48.987,26.821,51.014,26.869,51.043,25.426z M55.951,25.426c-0.086-1.339-1.992-1.364-2.084,0.006   C53.896,26.821,55.924,26.869,55.951,25.426z M43.679,27.881c-0.087-1.339-1.993-1.365-2.085,0.006   C41.624,29.276,43.651,29.323,43.679,27.881z M48.588,27.881c-0.087-1.339-1.994-1.365-2.085,0.006   C46.533,29.276,48.56,29.323,48.588,27.881z M53.496,27.881c-0.086-1.339-1.992-1.365-2.084,0.006   C51.441,29.276,53.469,29.323,53.496,27.881z M58.406,27.881c-0.086-1.339-1.992-1.365-2.084,0.006   C56.352,29.276,58.379,29.323,58.406,27.881z M41.224,30.336c-0.087-1.339-1.993-1.364-2.085,0.006   C39.168,31.731,41.196,31.778,41.224,30.336z M46.133,30.336c-0.087-1.339-1.993-1.364-2.085,0.006   C44.078,31.731,46.105,31.778,46.133,30.336z M51.043,30.336c-0.087-1.339-1.994-1.364-2.085,0.006   C48.987,31.731,51.014,31.778,51.043,30.336z M55.951,30.336c-0.086-1.339-1.992-1.364-2.084,0.006   C53.896,31.731,55.924,31.778,55.951,30.336z M60.861,30.336c-0.088-1.339-1.994-1.364-2.086,0.006   C58.805,31.731,60.832,31.778,60.861,30.336z M43.679,32.791c-0.087-1.339-1.993-1.365-2.085,0.006   C41.624,34.186,43.651,34.233,43.679,32.791z M48.588,32.791c-0.087-1.339-1.994-1.365-2.085,0.006   C46.533,34.186,48.56,34.233,48.588,32.791z M53.496,32.791c-0.086-1.339-1.992-1.365-2.084,0.006   C51.441,34.186,53.469,34.233,53.496,32.791z M58.406,32.791c-0.086-1.339-1.992-1.365-2.084,0.006   C56.352,34.186,58.379,34.233,58.406,32.791z M41.224,35.246c-0.087-1.339-1.993-1.364-2.085,0.006   C39.168,36.64,41.196,36.688,41.224,35.246z M46.133,35.246c-0.087-1.339-1.993-1.364-2.085,0.006   C44.078,36.64,46.105,36.688,46.133,35.246z M51.043,35.246c-0.087-1.339-1.994-1.364-2.085,0.006   C48.987,36.64,51.014,36.688,51.043,35.246z M55.951,35.246c-0.086-1.339-1.992-1.364-2.084,0.006   C53.896,36.64,55.924,36.688,55.951,35.246z M60.861,35.246c-0.088-1.339-1.994-1.364-2.086,0.006   C58.805,36.64,60.832,36.688,60.861,35.246z M38.77,37.7c-0.088-1.339-1.994-1.364-2.085,0.006   C36.713,39.095,38.741,39.143,38.77,37.7z M43.679,37.7c-0.087-1.339-1.993-1.364-2.085,0.006   C41.624,39.095,43.651,39.143,43.679,37.7z M48.588,37.7c-0.087-1.339-1.994-1.364-2.085,0.006   C46.533,39.095,48.56,39.143,48.588,37.7z M53.496,37.7c-0.086-1.339-1.992-1.364-2.084,0.006   C51.441,39.095,53.469,39.143,53.496,37.7z M58.406,37.7c-0.086-1.339-1.992-1.364-2.084,0.006   C56.352,39.095,58.379,39.143,58.406,37.7z M63.314,37.7c-0.086-1.339-1.992-1.364-2.084,0.006   C61.26,39.095,63.287,39.143,63.314,37.7z M36.315,40.155c-0.087-1.339-1.993-1.365-2.084,0.006   C34.259,41.55,36.287,41.598,36.315,40.155z M41.224,40.155c-0.087-1.339-1.993-1.365-2.085,0.006   C39.168,41.55,41.196,41.598,41.224,40.155z M46.133,40.155c-0.087-1.339-1.993-1.365-2.085,0.006   C44.078,41.55,46.105,41.598,46.133,40.155z M51.043,40.155c-0.087-1.339-1.994-1.365-2.085,0.006   C48.987,41.55,51.014,41.598,51.043,40.155z M55.951,40.155c-0.086-1.339-1.992-1.365-2.084,0.006   C53.896,41.55,55.924,41.598,55.951,40.155z M60.861,40.155c-0.088-1.339-1.994-1.365-2.086,0.006   C58.805,41.55,60.832,41.598,60.861,40.155z M65.77,40.155c-0.086-1.339-1.992-1.365-2.084,0.006   C63.715,41.55,65.742,41.598,65.77,40.155z M43.679,42.61c-0.087-1.339-1.993-1.364-2.085,0.006   C41.624,44.004,43.651,44.052,43.679,42.61z M58.406,42.61c-0.086-1.339-1.992-1.364-2.084,0.006   C56.352,44.004,58.379,44.052,58.406,42.61z M68.225,47.52c-0.086-1.339-1.992-1.364-2.084,0.006   C66.17,48.914,68.197,48.962,68.225,47.52z M31.406,49.974c-0.087-1.339-1.993-1.364-2.085,0.006   C29.35,51.369,31.377,51.416,31.406,49.974z M63.686,49.98c0.029,1.389,2.057,1.436,2.084-0.006   C65.684,48.635,63.777,48.61,63.686,49.98z M70.68,49.974c-0.088-1.339-1.994-1.364-2.086,0.006   C68.623,51.369,70.65,51.416,70.68,49.974z M28.952,52.429c-0.088-1.339-1.994-1.364-2.085,0.007   C26.895,53.823,28.922,53.871,28.952,52.429z M68.225,52.429c-0.086-1.339-1.992-1.364-2.084,0.007   C66.17,53.823,68.197,53.871,68.225,52.429z M73.135,52.429c-0.088-1.339-1.994-1.364-2.086,0.007   C71.078,53.823,73.105,53.871,73.135,52.429z M31.406,54.883c-0.087-1.338-1.993-1.363-2.085,0.007   C29.35,56.278,31.377,56.326,31.406,54.883z M63.686,54.89c0.029,1.389,2.057,1.437,2.084-0.007   C65.684,53.545,63.777,53.52,63.686,54.89z M70.68,54.883c-0.088-1.338-1.994-1.363-2.086,0.007   C68.623,56.278,70.65,56.326,70.68,54.883z M28.952,57.338c-0.088-1.338-1.994-1.363-2.085,0.007   C26.895,58.732,28.922,58.781,28.952,57.338z M68.225,57.338c-0.086-1.338-1.992-1.363-2.084,0.007   C66.17,58.732,68.197,58.781,68.225,57.338z M73.135,57.338c-0.088-1.338-1.994-1.363-2.086,0.007   C71.078,58.732,73.105,58.781,73.135,57.338z M26.497,59.793c-0.087-1.339-1.994-1.364-2.085,0.006   C24.441,61.188,26.468,61.235,26.497,59.793z M31.406,59.793c-0.087-1.339-1.993-1.364-2.085,0.006   C29.35,61.188,31.377,61.235,31.406,59.793z M70.68,59.793c-0.088-1.339-1.994-1.364-2.086,0.006   C68.623,61.188,70.65,61.235,70.68,59.793z M75.588,59.793c-0.086-1.339-1.992-1.364-2.084,0.006   C73.533,61.188,75.561,61.235,75.588,59.793z M24.042,62.248c-0.086-1.339-1.992-1.364-2.084,0.006   C21.987,63.643,24.014,63.69,24.042,62.248z M28.952,62.248c-0.088-1.339-1.994-1.364-2.085,0.006   C26.895,63.643,28.922,63.69,28.952,62.248z M33.86,62.248c-0.086-1.339-1.993-1.364-2.084,0.006   C31.805,63.643,33.833,63.69,33.86,62.248z M73.135,62.248c-0.088-1.339-1.994-1.364-2.086,0.006   C71.078,63.643,73.105,63.69,73.135,62.248z M78.043,62.248c-0.086-1.339-1.992-1.364-2.084,0.006   C75.988,63.643,78.016,63.69,78.043,62.248z M21.587,64.702c-0.087-1.339-1.993-1.364-2.085,0.007   C19.532,66.098,21.559,66.145,21.587,64.702z M26.497,64.702c-0.087-1.339-1.994-1.364-2.085,0.007   C24.441,66.098,26.468,66.145,26.497,64.702z M31.406,64.702c-0.087-1.339-1.993-1.364-2.085,0.007   C29.35,66.098,31.377,66.145,31.406,64.702z M36.315,64.702c-0.087-1.339-1.993-1.364-2.084,0.007   C34.259,66.098,36.287,66.145,36.315,64.702z M70.68,64.702c-0.088-1.339-1.994-1.364-2.086,0.007   C68.623,66.098,70.65,66.145,70.68,64.702z M75.588,64.702c-0.086-1.339-1.992-1.364-2.084,0.007   C73.533,66.098,75.561,66.145,75.588,64.702z M78.414,64.709c0.027,1.389,2.055,1.436,2.084-0.007   C80.41,63.363,78.504,63.338,78.414,64.709z M24.042,67.157c-0.086-1.339-1.992-1.364-2.084,0.007   C21.987,68.553,24.014,68.6,24.042,67.157z M28.952,67.157c-0.088-1.339-1.994-1.364-2.085,0.007   C26.895,68.553,28.922,68.6,28.952,67.157z M33.86,67.157c-0.086-1.339-1.993-1.364-2.084,0.007   C31.805,68.553,33.833,68.6,33.86,67.157z M73.135,67.157c-0.088-1.339-1.994-1.364-2.086,0.007   C71.078,68.553,73.105,68.6,73.135,67.157z M78.043,67.157c-0.086-1.339-1.992-1.364-2.084,0.007   C75.988,68.553,78.016,68.6,78.043,67.157z M21.587,69.612c-0.087-1.339-1.993-1.364-2.085,0.007   C19.532,71.007,21.559,71.055,21.587,69.612z M26.497,69.612c-0.087-1.339-1.994-1.364-2.085,0.007   C24.441,71.007,26.468,71.055,26.497,69.612z M31.406,69.612c-0.087-1.339-1.993-1.364-2.085,0.007   C29.35,71.007,31.377,71.055,31.406,69.612z M36.315,69.612c-0.087-1.339-1.993-1.364-2.084,0.007   C34.259,71.007,36.287,71.055,36.315,69.612z M70.68,69.612c-0.088-1.339-1.994-1.364-2.086,0.007   C68.623,71.007,70.65,71.055,70.68,69.612z M75.588,69.612c-0.086-1.339-1.992-1.364-2.084,0.007   C73.533,71.007,75.561,71.055,75.588,69.612z M78.414,69.619c0.027,1.388,2.055,1.436,2.084-0.007   C80.41,68.273,78.504,68.248,78.414,69.619z M17.048,72.073c0.028,1.389,2.056,1.437,2.084-0.007   C19.045,70.729,17.139,70.703,17.048,72.073z M24.042,72.066c-0.086-1.338-1.992-1.363-2.084,0.007   C21.987,73.462,24.014,73.51,24.042,72.066z M28.952,72.066c-0.088-1.338-1.994-1.363-2.085,0.007   C26.895,73.462,28.922,73.51,28.952,72.066z M33.86,72.066c-0.086-1.338-1.993-1.363-2.084,0.007   C31.805,73.462,33.833,73.51,33.86,72.066z M73.135,72.066c-0.088-1.338-1.994-1.363-2.086,0.007   C71.078,73.462,73.105,73.51,73.135,72.066z M78.043,72.066c-0.086-1.338-1.992-1.363-2.084,0.007   C75.988,73.462,78.016,73.51,78.043,72.066z M80.867,72.073c0.029,1.389,2.057,1.437,2.086-0.007   C82.865,70.729,80.959,70.703,80.867,72.073z M14.593,74.528c0.029,1.388,2.057,1.437,2.085-0.007   C16.591,73.184,14.684,73.157,14.593,74.528z M21.587,74.521c-0.087-1.338-1.993-1.364-2.085,0.007   C19.532,75.916,21.559,75.965,21.587,74.521z M26.497,74.521c-0.087-1.338-1.994-1.364-2.085,0.007   C24.441,75.916,26.468,75.965,26.497,74.521z M31.406,74.521c-0.087-1.338-1.993-1.364-2.085,0.007   C29.35,75.916,31.377,75.965,31.406,74.521z M70.68,74.521c-0.088-1.338-1.994-1.364-2.086,0.007   C68.623,75.916,70.65,75.965,70.68,74.521z M75.588,74.521c-0.086-1.338-1.992-1.364-2.084,0.007   C73.533,75.916,75.561,75.965,75.588,74.521z M78.414,74.528c0.027,1.388,2.055,1.437,2.084-0.007   C80.41,73.184,78.504,73.157,78.414,74.528z M83.322,74.528c0.029,1.388,2.057,1.437,2.084-0.007   C85.32,73.184,83.414,73.157,83.322,74.528z M17.048,76.982c0.028,1.389,2.056,1.437,2.084-0.006   C19.045,75.638,17.139,75.612,17.048,76.982z M24.042,76.977c-0.086-1.339-1.992-1.364-2.084,0.006   C21.987,78.371,24.014,78.419,24.042,76.977z M28.952,76.977c-0.088-1.339-1.994-1.364-2.085,0.006   C26.895,78.371,28.922,78.419,28.952,76.977z M33.86,76.977c-0.086-1.339-1.993-1.364-2.084,0.006   C31.805,78.371,33.833,78.419,33.86,76.977z M66.141,76.982c0.029,1.389,2.057,1.437,2.084-0.006   C68.139,75.638,66.232,75.612,66.141,76.982z M73.135,76.977c-0.088-1.339-1.994-1.364-2.086,0.006   C71.078,78.371,73.105,78.419,73.135,76.977z M78.043,76.977c-0.086-1.339-1.992-1.364-2.084,0.006   C75.988,78.371,78.016,78.419,78.043,76.977z M80.867,76.982c0.029,1.389,2.057,1.437,2.086-0.006   C82.865,75.638,80.959,75.612,80.867,76.982z M14.593,79.438c0.029,1.389,2.057,1.436,2.085-0.006   C16.591,78.093,14.684,78.066,14.593,79.438z M83.322,79.438c0.029,1.389,2.057,1.436,2.084-0.006   C85.32,78.093,83.414,78.066,83.322,79.438z M12.139,81.893c0.029,1.389,2.057,1.436,2.084-0.007   C14.137,80.547,12.231,80.521,12.139,81.893z M17.048,81.893c0.028,1.389,2.056,1.436,2.084-0.007   C19.045,80.547,17.139,80.521,17.048,81.893z M80.867,81.893c0.029,1.389,2.057,1.436,2.086-0.007   C82.865,80.547,80.959,80.521,80.867,81.893z M85.777,81.893c0.029,1.389,2.057,1.436,2.084-0.007   C87.775,80.547,85.869,80.521,85.777,81.893z M9.684,84.348c0.029,1.388,2.057,1.436,2.084-0.007   C11.682,83.002,9.776,82.977,9.684,84.348z M14.593,84.348c0.029,1.388,2.057,1.436,2.085-0.007   C16.591,83.002,14.684,82.977,14.593,84.348z M83.322,84.348c0.029,1.388,2.057,1.436,2.084-0.007   C85.32,83.002,83.414,82.977,83.322,84.348z M88.232,84.348c0.027,1.388,2.055,1.436,2.084-0.007   C90.229,83.002,88.322,82.977,88.232,84.348z M7.229,86.802c0.029,1.389,2.057,1.437,2.085-0.007   C9.227,85.457,7.321,85.432,7.229,86.802z M12.139,86.802c0.029,1.389,2.057,1.437,2.084-0.007   C14.137,85.457,12.231,85.432,12.139,86.802z M17.048,86.802c0.028,1.389,2.056,1.437,2.084-0.007   C19.045,85.457,17.139,85.432,17.048,86.802z M21.958,86.802c0.029,1.389,2.057,1.437,2.084-0.007   C23.956,85.457,22.049,85.432,21.958,86.802z M26.867,86.802c0.028,1.389,2.056,1.437,2.085-0.007   C28.864,85.457,26.958,85.432,26.867,86.802z M31.776,86.802c0.029,1.389,2.057,1.437,2.084-0.007   C33.774,85.457,31.867,85.432,31.776,86.802z M36.685,86.802c0.028,1.389,2.056,1.437,2.085-0.007   C38.682,85.457,36.776,85.432,36.685,86.802z M41.594,86.802c0.029,1.389,2.057,1.437,2.085-0.007   C43.592,85.457,41.686,85.432,41.594,86.802z M46.503,86.802c0.029,1.389,2.057,1.437,2.085-0.007   C48.501,85.457,46.594,85.432,46.503,86.802z M51.412,86.802c0.029,1.389,2.057,1.437,2.084-0.007   C53.41,85.457,51.504,85.432,51.412,86.802z M56.322,86.802c0.029,1.389,2.057,1.437,2.084-0.007   C58.32,85.457,56.414,85.432,56.322,86.802z M61.23,86.802c0.029,1.389,2.057,1.437,2.084-0.007   C63.229,85.457,61.322,85.432,61.23,86.802z M66.141,86.802c0.029,1.389,2.057,1.437,2.084-0.007   C68.139,85.457,66.232,85.432,66.141,86.802z M71.049,86.802c0.029,1.389,2.057,1.437,2.086-0.007   C73.047,85.457,71.141,85.432,71.049,86.802z M75.959,86.802c0.029,1.389,2.057,1.437,2.084-0.007   C77.957,85.457,76.051,85.432,75.959,86.802z M80.867,86.802c0.029,1.389,2.057,1.437,2.086-0.007   C82.865,85.457,80.959,85.432,80.867,86.802z M85.777,86.802c0.029,1.389,2.057,1.437,2.084-0.007   C87.775,85.457,85.869,85.432,85.777,86.802z M90.688,86.802c0.027,1.389,2.055,1.437,2.084-0.007   C92.684,85.457,90.777,85.432,90.688,86.802z"/></g><text x="0" y="115" fill="#000000" font-size="5px" font-weight="bold" font-family="'Helvetica Neue', Helvetica, Arial-Unicode, Arial, Sans-serif">Created by b farias</text><text x="0" y="120" fill="#000000" font-size="5px" font-weight="bold" font-family="'Helvetica Neue', Helvetica, Arial-Unicode, Arial, Sans-serif">from the Noun Project</text></svg>