%TF.GenerationSoftware,KiCad,Pcbnew,(7.0.0)*%
%TF.CreationDate,2026-04-18T16:18:00+01:00*%
%TF.ProjectId,ATX PSU Bench Supply,41545820-5053-4552-9042-656e63682053,rev?*%
%TF.SameCoordinates,Original*%
%TF.FileFunction,Soldermask,Top*%
%TF.FilePolarity,Negative*%
%FSLAX46Y46*%
G04 Gerber Fmt 4.6, Leading zero omitted, Abs format (unit mm)*
G04 Created by KiCad (PCBNEW (7.0.0)) date 2026-04-18 16:18:00*
%MOMM*%
%LPD*%
G01*
G04 APERTURE LIST*
G04 Aperture macros list*
%AMRoundRect*
0 Rectangle with rounded corners*
0 $1 Rounding radius*
0 $2 $3 $4 $5 $6 $7 $8 $9 X,Y pos of 4 corners*
0 Add a 4 corners polygon primitive as box body*
4,1,4,$2,$3,$4,$5,$6,$7,$8,$9,$2,$3,0*
0 Add four circle primitives for the rounded corners*
1,1,$1+$1,$2,$3*
1,1,$1+$1,$4,$5*
1,1,$1+$1,$6,$7*
1,1,$1+$1,$8,$9*
0 Add four rect primitives between the rounded corners*
20,1,$1+$1,$2,$3,$4,$5,0*
20,1,$1+$1,$4,$5,$6,$7,0*
20,1,$1+$1,$6,$7,$8,$9,0*
20,1,$1+$1,$8,$9,$2,$3,0*%
G04 Aperture macros list end*
%ADD10R,1.700000X1.700000*%
%ADD11O,1.700000X1.700000*%
%ADD12O,4.600000X3.200000*%
%ADD13C,3.200000*%
%ADD14RoundRect,0.250000X0.350000X0.450000X-0.350000X0.450000X-0.350000X-0.450000X0.350000X-0.450000X0*%
%ADD15C,3.500000*%
%ADD16RoundRect,0.250000X-0.350000X-0.450000X0.350000X-0.450000X0.350000X0.450000X-0.350000X0.450000X0*%
%ADD17RoundRect,0.150000X-0.150000X0.825000X-0.150000X-0.825000X0.150000X-0.825000X0.150000X0.825000X0*%
%ADD18RoundRect,0.250000X-0.475000X0.337500X-0.475000X-0.337500X0.475000X-0.337500X0.475000X0.337500X0*%
%ADD19RoundRect,0.250000X0.337500X0.475000X-0.337500X0.475000X-0.337500X-0.475000X0.337500X-0.475000X0*%
%ADD20C,0.800000*%
%ADD21C,6.400000*%
%ADD22RoundRect,0.250000X0.475000X-0.337500X0.475000X0.337500X-0.475000X0.337500X-0.475000X-0.337500X0*%
%ADD23R,1.900000X0.800000*%
%ADD24RoundRect,0.249999X-1.425001X0.450001X-1.425001X-0.450001X1.425001X-0.450001X1.425001X0.450001X0*%
%ADD25C,3.000000*%
%ADD26RoundRect,0.250001X-1.099999X-1.599999X1.099999X-1.599999X1.099999X1.599999X-1.099999X1.599999X0*%
%ADD27O,2.700000X3.700000*%
%ADD28RoundRect,0.250000X-0.450000X0.350000X-0.450000X-0.350000X0.450000X-0.350000X0.450000X0.350000X0*%
%ADD29RoundRect,0.150000X0.512500X0.150000X-0.512500X0.150000X-0.512500X-0.150000X0.512500X-0.150000X0*%
%ADD30C,2.000000*%
%ADD31O,1.500000X2.500000*%
%ADD32O,2.500000X1.500000*%
G04 APERTURE END LIST*
D10*
%TO.C,J21*%
X104926999Y-123443999D03*
D11*
X104926999Y-125983999D03*
%TD*%
D12*
%TO.C,J11*%
X139049999Y-82799999D03*
D13*
X161650000Y-82800000D03*
D10*
X146189999Y-82299999D03*
D11*
X148729999Y-82299999D03*
X151269999Y-82299999D03*
X153809999Y-82299999D03*
%TD*%
D14*
%TO.C,R6*%
X172450000Y-119380000D03*
X170450000Y-119380000D03*
%TD*%
%TO.C,R19*%
X107172000Y-92456000D03*
X105172000Y-92456000D03*
%TD*%
D15*
%TO.C,J5*%
X144920000Y-132286000D03*
X144920000Y-147786000D03*
%TD*%
D16*
%TO.C,R1*%
X184420000Y-113030000D03*
X186420000Y-113030000D03*
%TD*%
D17*
%TO.C,U5*%
X137160000Y-104840000D03*
X135890000Y-104840000D03*
X134620000Y-104840000D03*
X133350000Y-104840000D03*
X133350000Y-109790000D03*
X134620000Y-109790000D03*
X135890000Y-109790000D03*
X137160000Y-109790000D03*
%TD*%
D18*
%TO.C,C7*%
X139065000Y-115167500D03*
X139065000Y-117242500D03*
%TD*%
D19*
%TO.C,C14*%
X106701500Y-104902000D03*
X104626500Y-104902000D03*
%TD*%
D20*
%TO.C,H3*%
X193600000Y-55000000D03*
X194302944Y-53302944D03*
X194302944Y-56697056D03*
X196000000Y-52600000D03*
D21*
X196000000Y-55000000D03*
D20*
X196000000Y-57400000D03*
X197697056Y-53302944D03*
X197697056Y-56697056D03*
X198400000Y-55000000D03*
%TD*%
D22*
%TO.C,C6*%
X153670000Y-110257500D03*
X153670000Y-108182500D03*
%TD*%
D15*
%TO.C,J3*%
X165240000Y-132286000D03*
X165240000Y-147786000D03*
%TD*%
%TO.C,J6*%
X134760000Y-132286000D03*
X134760000Y-147786000D03*
%TD*%
D10*
%TO.C,J15*%
X135914999Y-114954999D03*
D11*
X135914999Y-117494999D03*
%TD*%
D14*
%TO.C,R16*%
X119110000Y-94615000D03*
X117110000Y-94615000D03*
%TD*%
%TO.C,R17*%
X119110000Y-92075000D03*
X117110000Y-92075000D03*
%TD*%
D16*
%TO.C,R3*%
X184420000Y-119380000D03*
X186420000Y-119380000D03*
%TD*%
D20*
%TO.C,H4*%
X193600000Y-147000000D03*
X194302944Y-145302944D03*
X194302944Y-148697056D03*
X196000000Y-144600000D03*
D21*
X196000000Y-147000000D03*
D20*
X196000000Y-149400000D03*
X197697056Y-145302944D03*
X197697056Y-148697056D03*
X198400000Y-147000000D03*
%TD*%
%TO.C,H1*%
X101600000Y-147000000D03*
X102302944Y-145302944D03*
X102302944Y-148697056D03*
X104000000Y-144600000D03*
D21*
X104000000Y-147000000D03*
D20*
X104000000Y-149400000D03*
X105697056Y-145302944D03*
X105697056Y-148697056D03*
X106400000Y-147000000D03*
%TD*%
D17*
%TO.C,U4*%
X160020000Y-104840000D03*
X158750000Y-104840000D03*
X157480000Y-104840000D03*
X156210000Y-104840000D03*
X156210000Y-109790000D03*
X157480000Y-109790000D03*
X158750000Y-109790000D03*
X160020000Y-109790000D03*
%TD*%
D15*
%TO.C,J1*%
X185560000Y-132286000D03*
X185560000Y-147786000D03*
%TD*%
D23*
%TO.C,Q1*%
X115164999Y-87309999D03*
X115164999Y-85409999D03*
X112164999Y-86359999D03*
%TD*%
D10*
%TO.C,J20*%
X102869999Y-62859999D03*
D11*
X102869999Y-65399999D03*
X102869999Y-67939999D03*
X102869999Y-70479999D03*
X102869999Y-73019999D03*
X102869999Y-75559999D03*
X102869999Y-78099999D03*
%TD*%
D14*
%TO.C,R10*%
X141335000Y-113030000D03*
X139335000Y-113030000D03*
%TD*%
D18*
%TO.C,C5*%
X155575000Y-115167500D03*
X155575000Y-117242500D03*
%TD*%
D20*
%TO.C,H2*%
X101600000Y-55000000D03*
X102302944Y-53302944D03*
X102302944Y-56697056D03*
X104000000Y-52600000D03*
D21*
X104000000Y-55000000D03*
D20*
X104000000Y-57400000D03*
X105697056Y-53302944D03*
X105697056Y-56697056D03*
X106400000Y-55000000D03*
%TD*%
D24*
%TO.C,R14*%
X125095000Y-113155000D03*
X125095000Y-119255000D03*
%TD*%
D15*
%TO.C,J2*%
X175400000Y-132286000D03*
X175400000Y-147786000D03*
%TD*%
D25*
%TO.C,J9*%
X112900000Y-57975000D03*
X159100000Y-57975000D03*
D26*
X112900000Y-65275000D03*
D27*
X117099999Y-65274999D03*
X121299999Y-65274999D03*
X125499999Y-65274999D03*
X129699999Y-65274999D03*
X133899999Y-65274999D03*
X138099999Y-65274999D03*
X142299999Y-65274999D03*
X146499999Y-65274999D03*
X150699999Y-65274999D03*
X154899999Y-65274999D03*
X159099999Y-65274999D03*
X112899999Y-70774999D03*
X117099999Y-70774999D03*
X121299999Y-70774999D03*
X125499999Y-70774999D03*
X129699999Y-70774999D03*
X133899999Y-70774999D03*
X138099999Y-70774999D03*
X142299999Y-70774999D03*
X146499999Y-70774999D03*
X150699999Y-70774999D03*
X154899999Y-70774999D03*
X159099999Y-70774999D03*
%TD*%
D19*
%TO.C,C13*%
X141499500Y-90170000D03*
X139424500Y-90170000D03*
%TD*%
D17*
%TO.C,U2*%
X195199000Y-104840000D03*
X193929000Y-104840000D03*
X192659000Y-104840000D03*
X191389000Y-104840000D03*
X191389000Y-109790000D03*
X192659000Y-109790000D03*
X193929000Y-109790000D03*
X195199000Y-109790000D03*
%TD*%
D14*
%TO.C,R15*%
X121650000Y-119380000D03*
X119650000Y-119380000D03*
%TD*%
D19*
%TO.C,C10*%
X111273500Y-110490000D03*
X109198500Y-110490000D03*
%TD*%
D18*
%TO.C,C8*%
X131826000Y-112627500D03*
X131826000Y-114702500D03*
%TD*%
D15*
%TO.C,J4*%
X155080000Y-132286000D03*
X155080000Y-147786000D03*
%TD*%
%TO.C,J7*%
X124600000Y-132286000D03*
X124600000Y-147786000D03*
%TD*%
D10*
%TO.C,J19*%
X126364999Y-85089999D03*
D11*
X126364999Y-87629999D03*
X126364999Y-90169999D03*
X126364999Y-92709999D03*
X126364999Y-95249999D03*
%TD*%
D17*
%TO.C,U6*%
X117475000Y-105475000D03*
X116205000Y-105475000D03*
X114935000Y-105475000D03*
X113665000Y-105475000D03*
X113665000Y-110425000D03*
X114935000Y-110425000D03*
X116205000Y-110425000D03*
X117475000Y-110425000D03*
%TD*%
D19*
%TO.C,C11*%
X142007500Y-78486000D03*
X139932500Y-78486000D03*
%TD*%
D24*
%TO.C,R2*%
X180975000Y-113155000D03*
X180975000Y-119255000D03*
%TD*%
D10*
%TO.C,J16*%
X114934999Y-114934999D03*
D11*
X114934999Y-117474999D03*
%TD*%
D16*
%TO.C,R7*%
X153305000Y-113030000D03*
X155305000Y-113030000D03*
%TD*%
D15*
%TO.C,J8*%
X114440000Y-132286000D03*
X114440000Y-147786000D03*
%TD*%
D22*
%TO.C,C2*%
X189230000Y-110257500D03*
X189230000Y-108182500D03*
%TD*%
D16*
%TO.C,R20*%
X105172000Y-94742000D03*
X107172000Y-94742000D03*
%TD*%
D18*
%TO.C,C3*%
X170180000Y-115167500D03*
X170180000Y-117242500D03*
%TD*%
%TO.C,C9*%
X119380000Y-115167500D03*
X119380000Y-117242500D03*
%TD*%
D24*
%TO.C,R8*%
X149860000Y-113155000D03*
X149860000Y-119255000D03*
%TD*%
D28*
%TO.C,R21*%
X107950000Y-85360000D03*
X107950000Y-87360000D03*
%TD*%
D16*
%TO.C,R9*%
X153305000Y-119380000D03*
X155305000Y-119380000D03*
%TD*%
D18*
%TO.C,C4*%
X170815000Y-107928500D03*
X170815000Y-110003500D03*
%TD*%
D10*
%TO.C,J14*%
X158774999Y-114954999D03*
D11*
X158774999Y-117494999D03*
%TD*%
D28*
%TO.C,R18*%
X118110000Y-85360000D03*
X118110000Y-87360000D03*
%TD*%
D25*
%TO.C,J10*%
X174700000Y-57975000D03*
X187300000Y-57975000D03*
D26*
X174700000Y-65275000D03*
D27*
X178899999Y-65274999D03*
X183099999Y-65274999D03*
X187299999Y-65274999D03*
X174699999Y-70774999D03*
X178899999Y-70774999D03*
X183099999Y-70774999D03*
X187299999Y-70774999D03*
%TD*%
D14*
%TO.C,R13*%
X121650000Y-113030000D03*
X119650000Y-113030000D03*
%TD*%
D10*
%TO.C,J12*%
X189889999Y-114934999D03*
D11*
X189889999Y-117474999D03*
%TD*%
D18*
%TO.C,C1*%
X186690000Y-115167500D03*
X186690000Y-117242500D03*
%TD*%
D19*
%TO.C,C12*%
X141499500Y-87884000D03*
X139424500Y-87884000D03*
%TD*%
D29*
%TO.C,U7*%
X146171500Y-88072000D03*
X146171500Y-87122000D03*
X146171500Y-86172000D03*
X143896500Y-86172000D03*
X143896500Y-88072000D03*
%TD*%
D10*
%TO.C,J18*%
X104139999Y-101599999D03*
D11*
X106679999Y-101599999D03*
X109219999Y-101599999D03*
X111759999Y-101599999D03*
X114299999Y-101599999D03*
X116839999Y-101599999D03*
X119379999Y-101599999D03*
X121919999Y-101599999D03*
%TD*%
D30*
%TO.C,SW1*%
X172750000Y-90750000D03*
X172750000Y-84250000D03*
X177250000Y-90750000D03*
X177250000Y-84250000D03*
%TD*%
D24*
%TO.C,R5*%
X175895000Y-113155000D03*
X175895000Y-119255000D03*
%TD*%
D31*
%TO.C,U1*%
X101839999Y-81879999D03*
X104379999Y-81879999D03*
X106919999Y-81879999D03*
X109459999Y-81879999D03*
X111999999Y-81879999D03*
X114539999Y-81879999D03*
X117079999Y-81879999D03*
X119619999Y-81879999D03*
X122159999Y-81879999D03*
D32*
X122659999Y-84919999D03*
X122659999Y-87459999D03*
X122659999Y-89999999D03*
X122659999Y-92539999D03*
X122659999Y-95079999D03*
D31*
X122159999Y-98119999D03*
X119619999Y-98119999D03*
X117079999Y-98119999D03*
X114539999Y-98119999D03*
X111999999Y-98119999D03*
X109459999Y-98119999D03*
X106919999Y-98119999D03*
X104379999Y-98119999D03*
X101839999Y-98119999D03*
%TD*%
D14*
%TO.C,R4*%
X172450000Y-113030000D03*
X170450000Y-113030000D03*
%TD*%
D30*
%TO.C,SW2*%
X172750000Y-100750000D03*
X172750000Y-94250000D03*
X177250000Y-100750000D03*
X177250000Y-94250000D03*
%TD*%
D17*
%TO.C,U3*%
X168275000Y-104840000D03*
X167005000Y-104840000D03*
X165735000Y-104840000D03*
X164465000Y-104840000D03*
X164465000Y-109790000D03*
X165735000Y-109790000D03*
X167005000Y-109790000D03*
X168275000Y-109790000D03*
%TD*%
D14*
%TO.C,R12*%
X141335000Y-119380000D03*
X139335000Y-119380000D03*
%TD*%
D10*
%TO.C,J13*%
X167029999Y-114954999D03*
D11*
X167029999Y-117494999D03*
%TD*%
D24*
%TO.C,R11*%
X144780000Y-113155000D03*
X144780000Y-119255000D03*
%TD*%
D10*
%TO.C,J17*%
X137901999Y-75462999D03*
D11*
X135361999Y-75462999D03*
%TD*%
M02*
