%TF.GenerationSoftware,KiCad,Pcbnew,(7.0.0)*%
%TF.CreationDate,2026-04-18T16:18:00+01:00*%
%TF.ProjectId,ATX PSU Bench Supply,41545820-5053-4552-9042-656e63682053,rev?*%
%TF.SameCoordinates,Original*%
%TF.FileFunction,Paste,Top*%
%TF.FilePolarity,Positive*%
%FSLAX46Y46*%
G04 Gerber Fmt 4.6, Leading zero omitted, Abs format (unit mm)*
G04 Created by KiCad (PCBNEW (7.0.0)) date 2026-04-18 16:18:00*
%MOMM*%
%LPD*%
G01*
G04 APERTURE LIST*
G04 Aperture macros list*
%AMRoundRect*
0 Rectangle with rounded corners*
0 $1 Rounding radius*
0 $2 $3 $4 $5 $6 $7 $8 $9 X,Y pos of 4 corners*
0 Add a 4 corners polygon primitive as box body*
4,1,4,$2,$3,$4,$5,$6,$7,$8,$9,$2,$3,0*
0 Add four circle primitives for the rounded corners*
1,1,$1+$1,$2,$3*
1,1,$1+$1,$4,$5*
1,1,$1+$1,$6,$7*
1,1,$1+$1,$8,$9*
0 Add four rect primitives between the rounded corners*
20,1,$1+$1,$2,$3,$4,$5,0*
20,1,$1+$1,$4,$5,$6,$7,0*
20,1,$1+$1,$6,$7,$8,$9,0*
20,1,$1+$1,$8,$9,$2,$3,0*%
G04 Aperture macros list end*
%ADD10RoundRect,0.250000X0.350000X0.450000X-0.350000X0.450000X-0.350000X-0.450000X0.350000X-0.450000X0*%
%ADD11RoundRect,0.250000X-0.350000X-0.450000X0.350000X-0.450000X0.350000X0.450000X-0.350000X0.450000X0*%
%ADD12RoundRect,0.150000X-0.150000X0.825000X-0.150000X-0.825000X0.150000X-0.825000X0.150000X0.825000X0*%
%ADD13RoundRect,0.250000X-0.475000X0.337500X-0.475000X-0.337500X0.475000X-0.337500X0.475000X0.337500X0*%
%ADD14RoundRect,0.250000X0.337500X0.475000X-0.337500X0.475000X-0.337500X-0.475000X0.337500X-0.475000X0*%
%ADD15RoundRect,0.250000X0.475000X-0.337500X0.475000X0.337500X-0.475000X0.337500X-0.475000X-0.337500X0*%
%ADD16R,1.900000X0.800000*%
%ADD17RoundRect,0.249999X-1.425001X0.450001X-1.425001X-0.450001X1.425001X-0.450001X1.425001X0.450001X0*%
%ADD18RoundRect,0.250000X-0.450000X0.350000X-0.450000X-0.350000X0.450000X-0.350000X0.450000X0.350000X0*%
%ADD19RoundRect,0.150000X0.512500X0.150000X-0.512500X0.150000X-0.512500X-0.150000X0.512500X-0.150000X0*%
G04 APERTURE END LIST*
D10*
%TO.C,R6*%
X172450000Y-119380000D03*
X170450000Y-119380000D03*
%TD*%
%TO.C,R19*%
X107172000Y-92456000D03*
X105172000Y-92456000D03*
%TD*%
D11*
%TO.C,R1*%
X184420000Y-113030000D03*
X186420000Y-113030000D03*
%TD*%
D12*
%TO.C,U5*%
X137160000Y-104840000D03*
X135890000Y-104840000D03*
X134620000Y-104840000D03*
X133350000Y-104840000D03*
X133350000Y-109790000D03*
X134620000Y-109790000D03*
X135890000Y-109790000D03*
X137160000Y-109790000D03*
%TD*%
D13*
%TO.C,C7*%
X139065000Y-115167500D03*
X139065000Y-117242500D03*
%TD*%
D14*
%TO.C,C14*%
X106701500Y-104902000D03*
X104626500Y-104902000D03*
%TD*%
D15*
%TO.C,C6*%
X153670000Y-110257500D03*
X153670000Y-108182500D03*
%TD*%
D10*
%TO.C,R16*%
X119110000Y-94615000D03*
X117110000Y-94615000D03*
%TD*%
%TO.C,R17*%
X119110000Y-92075000D03*
X117110000Y-92075000D03*
%TD*%
D11*
%TO.C,R3*%
X184420000Y-119380000D03*
X186420000Y-119380000D03*
%TD*%
D12*
%TO.C,U4*%
X160020000Y-104840000D03*
X158750000Y-104840000D03*
X157480000Y-104840000D03*
X156210000Y-104840000D03*
X156210000Y-109790000D03*
X157480000Y-109790000D03*
X158750000Y-109790000D03*
X160020000Y-109790000D03*
%TD*%
D16*
%TO.C,Q1*%
X115164999Y-87309999D03*
X115164999Y-85409999D03*
X112164999Y-86359999D03*
%TD*%
D10*
%TO.C,R10*%
X141335000Y-113030000D03*
X139335000Y-113030000D03*
%TD*%
D13*
%TO.C,C5*%
X155575000Y-115167500D03*
X155575000Y-117242500D03*
%TD*%
D17*
%TO.C,R14*%
X125095000Y-113155000D03*
X125095000Y-119255000D03*
%TD*%
D14*
%TO.C,C13*%
X141499500Y-90170000D03*
X139424500Y-90170000D03*
%TD*%
D12*
%TO.C,U2*%
X195199000Y-104840000D03*
X193929000Y-104840000D03*
X192659000Y-104840000D03*
X191389000Y-104840000D03*
X191389000Y-109790000D03*
X192659000Y-109790000D03*
X193929000Y-109790000D03*
X195199000Y-109790000D03*
%TD*%
D10*
%TO.C,R15*%
X121650000Y-119380000D03*
X119650000Y-119380000D03*
%TD*%
D14*
%TO.C,C10*%
X111273500Y-110490000D03*
X109198500Y-110490000D03*
%TD*%
D13*
%TO.C,C8*%
X131826000Y-112627500D03*
X131826000Y-114702500D03*
%TD*%
D12*
%TO.C,U6*%
X117475000Y-105475000D03*
X116205000Y-105475000D03*
X114935000Y-105475000D03*
X113665000Y-105475000D03*
X113665000Y-110425000D03*
X114935000Y-110425000D03*
X116205000Y-110425000D03*
X117475000Y-110425000D03*
%TD*%
D14*
%TO.C,C11*%
X142007500Y-78486000D03*
X139932500Y-78486000D03*
%TD*%
D17*
%TO.C,R2*%
X180975000Y-113155000D03*
X180975000Y-119255000D03*
%TD*%
D11*
%TO.C,R7*%
X153305000Y-113030000D03*
X155305000Y-113030000D03*
%TD*%
D15*
%TO.C,C2*%
X189230000Y-110257500D03*
X189230000Y-108182500D03*
%TD*%
D11*
%TO.C,R20*%
X105172000Y-94742000D03*
X107172000Y-94742000D03*
%TD*%
D13*
%TO.C,C3*%
X170180000Y-115167500D03*
X170180000Y-117242500D03*
%TD*%
%TO.C,C9*%
X119380000Y-115167500D03*
X119380000Y-117242500D03*
%TD*%
D17*
%TO.C,R8*%
X149860000Y-113155000D03*
X149860000Y-119255000D03*
%TD*%
D18*
%TO.C,R21*%
X107950000Y-85360000D03*
X107950000Y-87360000D03*
%TD*%
D11*
%TO.C,R9*%
X153305000Y-119380000D03*
X155305000Y-119380000D03*
%TD*%
D13*
%TO.C,C4*%
X170815000Y-107928500D03*
X170815000Y-110003500D03*
%TD*%
D18*
%TO.C,R18*%
X118110000Y-85360000D03*
X118110000Y-87360000D03*
%TD*%
D10*
%TO.C,R13*%
X121650000Y-113030000D03*
X119650000Y-113030000D03*
%TD*%
D13*
%TO.C,C1*%
X186690000Y-115167500D03*
X186690000Y-117242500D03*
%TD*%
D14*
%TO.C,C12*%
X141499500Y-87884000D03*
X139424500Y-87884000D03*
%TD*%
D19*
%TO.C,U7*%
X146171500Y-88072000D03*
X146171500Y-87122000D03*
X146171500Y-86172000D03*
X143896500Y-86172000D03*
X143896500Y-88072000D03*
%TD*%
D17*
%TO.C,R5*%
X175895000Y-113155000D03*
X175895000Y-119255000D03*
%TD*%
D10*
%TO.C,R4*%
X172450000Y-113030000D03*
X170450000Y-113030000D03*
%TD*%
D12*
%TO.C,U3*%
X168275000Y-104840000D03*
X167005000Y-104840000D03*
X165735000Y-104840000D03*
X164465000Y-104840000D03*
X164465000Y-109790000D03*
X165735000Y-109790000D03*
X167005000Y-109790000D03*
X168275000Y-109790000D03*
%TD*%
D10*
%TO.C,R12*%
X141335000Y-119380000D03*
X139335000Y-119380000D03*
%TD*%
D17*
%TO.C,R11*%
X144780000Y-113155000D03*
X144780000Y-119255000D03*
%TD*%
M02*
