M48
METRIC
T1C0.400
T2C0.500
T3C1.000
T4C1.100
T5C1.800
T6C1.970
T7C3.200
%
G90
G05
T1
X100.838Y-94.488
X100.838Y-95.758
X101.092Y-77.47
X101.092Y-78.74
X101.092Y-84.836
X101.092Y-86.106
X101.092Y-107.188
X101.092Y-108.458
X101.092Y-119.634
X101.092Y-120.904
X101.092Y-130.048
X101.092Y-131.318
X101.092Y-139.954
X101.092Y-141.224
X101.346Y-58.928
X101.346Y-60.198
X105.499Y-69.088
X106.172Y-61.468
X106.426Y-88.646
X106.68Y-77.978
X107.188Y-61.468
X107.95Y-100.076
X108.204Y-77.978
X108.204Y-123.698
X108.204Y-124.968
X108.204Y-135.382
X108.204Y-136.652
X109.22Y-92.71
X109.982Y-88.138
X109.982Y-103.886
X110.744Y-70.104
X110.744Y-71.12
X110.744Y-84.065
X110.744Y-95.758
X110.744Y-100.076
X110.998Y-64.77
X110.998Y-65.786
X111.252Y-52.07
X111.633Y-131.826
X111.633Y-132.842
X111.633Y-147.32
X111.633Y-148.336
X111.76Y-106.172
X111.76Y-112.268
X112.014Y-91.186
X112.268Y-52.07
X112.268Y-68.072
X112.522Y-73.66
X112.522Y-74.676
X113.03Y-100.076
X113.284Y-68.072
X113.284Y-96.012
X113.538Y-61.214
X113.538Y-62.23
X113.538Y-73.66
X113.538Y-74.676
X113.538Y-85.344
X113.919Y-129.54
X113.919Y-145.034
X114.046Y-135.128
X114.554Y-61.214
X114.554Y-62.23
X114.808Y-107.95
X114.935Y-109.093
X114.935Y-129.54
X114.935Y-145.034
X115.062Y-64.77
X115.062Y-65.786
X115.062Y-135.128
X115.57Y-61.214
X115.57Y-62.23
X115.824Y-80.01
X115.824Y-108.204
X116.078Y-106.68
X116.586Y-61.214
X116.586Y-62.23
X116.586Y-85.344
X116.586Y-104.14
X116.84Y-107.95
X117.221Y-131.826
X117.221Y-132.842
X117.221Y-147.193
X117.221Y-148.209
X118.364Y-83.566
X118.745Y-149.86
X118.872Y-68.834
X119.253Y-72.263
X119.634Y-86.106
X119.761Y-67.564
X119.761Y-68.58
X119.761Y-73.025
X120.142Y-61.468
X120.142Y-62.484
X120.396Y-52.07
X120.396Y-90.17
X120.65Y-95.885
X120.904Y-100.076
X121.158Y-121.92
X121.412Y-52.07
X121.666Y-116.078
X122.174Y-121.92
X122.301Y-61.468
X122.301Y-62.484
X122.682Y-68.072
X122.809Y-73.025
X122.936Y-130.81
X122.936Y-133.858
X122.936Y-146.304
X122.936Y-149.352
X123.444Y-68.961
X123.444Y-72.263
X123.444Y-120.65
X123.444Y-121.666
X123.698Y-110.49
X123.698Y-111.506
X123.698Y-114.554
X123.698Y-117.856
X123.952Y-83.058
X124.46Y-97.028
X124.46Y-120.65
X124.46Y-121.666
X124.714Y-88.9
X124.714Y-91.44
X124.714Y-93.98
X124.714Y-110.49
X124.714Y-111.506
X124.714Y-114.554
X124.714Y-117.856
X124.968Y-61.468
X124.968Y-62.484
X125.476Y-120.65
X125.476Y-121.666
X125.73Y-110.49
X125.73Y-111.506
X125.73Y-114.554
X125.73Y-117.856
X125.984Y-54.864
X125.984Y-55.88
X125.984Y-61.468
X125.984Y-62.484
X126.238Y-80.772
X126.238Y-130.81
X126.238Y-133.858
X126.238Y-146.304
X126.238Y-149.352
X126.492Y-99.314
X126.492Y-120.65
X126.492Y-121.666
X126.746Y-110.49
X126.746Y-111.506
X126.746Y-114.554
X126.746Y-117.856
X127.0Y-54.864
X127.0Y-55.88
X127.254Y-80.772
X127.508Y-72.644
X127.635Y-68.834
X127.762Y-110.49
X127.762Y-111.506
X127.762Y-112.522
X127.762Y-113.538
X127.762Y-118.618
X127.762Y-119.634
X127.762Y-120.65
X127.762Y-121.666
X128.397Y-67.945
X128.397Y-73.279
X128.524Y-62.484
X128.778Y-110.49
X128.778Y-111.506
X128.778Y-112.522
X128.778Y-118.618
X128.778Y-119.634
X128.778Y-120.65
X128.778Y-121.666
X129.54Y-115.824
X130.302Y-149.987
X130.556Y-62.484
X130.683Y-73.406
X130.81Y-68.199
X131.318Y-118.618
X131.318Y-119.634
X131.699Y-68.834
X131.826Y-72.644
X131.826Y-73.66
X131.953Y-131.953
X131.953Y-132.969
X131.953Y-147.447
X131.953Y-148.463
X132.588Y-76.708
X133.35Y-61.468
X133.35Y-62.484
X133.35Y-107.95
X134.112Y-107.188
X134.239Y-129.54
X134.239Y-145.034
X134.366Y-61.468
X134.366Y-62.484
X134.366Y-135.128
X134.62Y-111.252
X135.255Y-129.54
X135.255Y-145.034
X135.382Y-135.128
X135.636Y-80.518
X136.398Y-106.68
X136.652Y-99.314
X136.652Y-100.33
X136.906Y-86.106
X137.033Y-62.611
X137.414Y-73.406
X137.541Y-131.826
X137.541Y-132.842
X137.541Y-147.32
X137.541Y-148.336
X138.176Y-67.056
X138.176Y-69.088
X138.176Y-80.364
X138.43Y-73.406
X138.938Y-91.694
X138.938Y-97.282
X138.938Y-98.298
X138.938Y-99.314
X138.938Y-100.33
X139.065Y-149.987
X139.192Y-62.484
X139.192Y-85.852
X140.245Y-95.524
X140.716Y-104.394
X140.716Y-105.664
X140.716Y-121.666
X140.97Y-94.742
X141.224Y-116.078
X141.732Y-121.666
X141.986Y-81.788
X142.494Y-53.594
X142.494Y-54.61
X142.494Y-97.028
X142.494Y-98.044
X142.494Y-109.093
X142.494Y-110.109
X143.256Y-73.66
X143.256Y-90.17
X143.256Y-110.744
X143.256Y-111.76
X143.256Y-114.554
X143.256Y-117.856
X143.256Y-120.65
X143.256Y-121.666
X143.256Y-130.81
X143.256Y-133.858
X143.256Y-146.304
X143.256Y-149.352
X143.51Y-53.594
X143.51Y-54.61
X143.51Y-97.028
X143.51Y-98.044
X144.272Y-77.724
X144.272Y-110.744
X144.272Y-111.76
X144.272Y-114.554
X144.272Y-117.856
X144.272Y-120.65
X144.272Y-121.666
X145.034Y-87.122
X145.288Y-110.744
X145.288Y-111.76
X145.288Y-114.554
X145.288Y-117.856
X145.288Y-120.65
X145.288Y-121.666
X145.796Y-92.456
X145.796Y-93.472
X146.05Y-73.66
X146.05Y-74.676
X146.304Y-84.074
X146.304Y-110.744
X146.304Y-111.76
X146.304Y-114.554
X146.304Y-117.856
X146.304Y-120.65
X146.304Y-121.666
X146.558Y-130.81
X146.558Y-133.858
X146.558Y-146.304
X146.558Y-149.352
X146.812Y-92.456
X146.812Y-93.472
X147.066Y-73.66
X147.066Y-74.676
X147.32Y-87.122
X147.32Y-110.744
X147.32Y-111.76
X147.32Y-112.776
X147.32Y-113.538
X147.32Y-114.554
X147.32Y-116.078
X148.082Y-73.66
X148.082Y-74.676
X148.336Y-110.744
X148.336Y-111.76
X148.336Y-114.554
X148.336Y-117.856
X148.336Y-120.65
X148.336Y-121.666
X148.59Y-70.358
X148.59Y-71.374
X148.59Y-72.39
X149.098Y-73.66
X149.098Y-74.676
X149.352Y-110.744
X149.352Y-111.76
X149.352Y-114.554
X149.352Y-117.856
X149.352Y-120.65
X149.352Y-121.666
X149.352Y-149.86
X150.114Y-73.66
X150.114Y-74.676
X150.368Y-110.744
X150.368Y-111.76
X150.368Y-114.554
X150.368Y-117.856
X150.368Y-120.65
X150.368Y-121.666
X151.13Y-73.66
X151.13Y-74.676
X151.384Y-110.744
X151.384Y-111.76
X151.384Y-114.554
X151.384Y-117.856
X151.384Y-120.65
X151.384Y-121.666
X151.765Y-85.852
X152.273Y-73.66
X152.273Y-74.676
X152.781Y-64.135
X152.781Y-65.151
X152.781Y-66.167
X152.908Y-70.358
X152.908Y-71.374
X152.908Y-72.39
X153.162Y-114.808
X153.289Y-73.66
X153.289Y-74.676
X153.416Y-99.822
X153.416Y-100.838
X153.416Y-117.602
X153.416Y-121.666
X153.416Y-130.81
X153.416Y-133.858
X153.416Y-146.304
X153.416Y-149.352
X153.924Y-80.364
X154.432Y-73.66
X154.432Y-74.676
X154.432Y-84.074
X154.432Y-99.822
X154.432Y-100.838
X154.432Y-103.886
X154.432Y-105.156
X154.432Y-121.666
X155.194Y-111.252
X155.448Y-73.66
X155.448Y-74.676
X155.448Y-121.666
X156.21Y-102.108
X156.21Y-107.95
X156.464Y-121.666
X156.699Y-133.856
X156.699Y-149.35
X156.718Y-130.81
X156.718Y-146.304
X156.972Y-107.442
X156.972Y-113.284
X157.042Y-102.662
X157.48Y-111.506
X157.988Y-68.199
X157.988Y-73.279
X157.988Y-98.806
X157.988Y-99.822
X158.242Y-107.95
X158.75Y-111.76
X159.004Y-98.806
X159.004Y-99.822
X159.639Y-150.114
X160.274Y-62.484
X160.274Y-68.199
X160.528Y-73.025
X161.036Y-77.978
X161.036Y-85.598
X161.163Y-68.961
X161.29Y-72.263
X162.052Y-77.978
X162.052Y-85.598
X162.052Y-104.648
X162.306Y-102.108
X162.433Y-131.826
X162.433Y-132.842
X162.433Y-147.32
X162.433Y-148.336
X162.814Y-118.872
X162.814Y-119.888
X163.322Y-112.014
X163.322Y-113.284
X164.338Y-107.95
X164.592Y-103.133
X164.719Y-129.54
X164.719Y-144.907
X164.846Y-135.128
X165.354Y-102.408
X165.354Y-107.95
X165.735Y-129.54
X165.735Y-144.907
X165.862Y-135.128
X168.021Y-131.699
X168.021Y-132.715
X168.021Y-147.32
X168.021Y-148.336
X168.402Y-97.536
X168.402Y-98.552
X169.418Y-87.376
X169.418Y-88.392
X169.418Y-97.536
X169.418Y-98.552
X169.672Y-78.994
X169.672Y-109.982
X170.18Y-101.346
X170.688Y-111.252
X170.815Y-150.114
X171.45Y-69.088
X171.45Y-70.104
X171.45Y-71.12
X171.45Y-72.136
X171.45Y-104.394
X171.958Y-88.392
X171.958Y-97.536
X171.958Y-111.252
X171.958Y-116.078
X172.466Y-52.578
X172.466Y-69.088
X172.466Y-70.104
X172.466Y-71.12
X172.466Y-72.136
X172.974Y-73.406
X172.974Y-74.422
X172.974Y-81.534
X173.482Y-104.14
X173.482Y-108.966
X173.482Y-109.982
X173.482Y-121.92
X173.482Y-122.936
X173.736Y-52.578
X173.736Y-130.81
X173.736Y-133.858
X173.736Y-146.304
X173.736Y-149.352
X173.99Y-61.722
X173.99Y-73.406
X173.99Y-74.422
X173.99Y-81.534
X174.244Y-86.614
X174.498Y-104.14
X174.498Y-110.744
X174.498Y-111.76
X174.498Y-114.554
X174.498Y-117.856
X174.498Y-120.65
X174.498Y-121.666
X175.006Y-73.406
X175.006Y-74.422
X175.26Y-61.722
X175.514Y-110.744
X175.514Y-111.76
X175.514Y-114.554
X175.514Y-117.856
X175.514Y-120.65
X175.514Y-121.666
X176.022Y-73.406
X176.022Y-74.422
X176.53Y-110.744
X176.53Y-111.76
X176.53Y-114.554
X176.53Y-117.856
X176.53Y-120.65
X176.53Y-121.666
X176.784Y-70.358
X176.784Y-71.374
X177.038Y-130.81
X177.038Y-133.858
X177.038Y-146.304
X177.038Y-149.352
X177.292Y-73.406
X177.292Y-74.422
X177.546Y-110.744
X177.546Y-111.76
X177.546Y-114.554
X177.546Y-117.856
X177.546Y-120.65
X177.546Y-121.666
X178.308Y-61.722
X178.308Y-73.406
X178.308Y-74.422
X178.308Y-112.776
X178.308Y-113.792
X178.308Y-116.078
X178.435Y-111.252
X179.324Y-73.406
X179.324Y-74.422
X179.324Y-110.744
X179.324Y-111.76
X179.324Y-114.554
X179.324Y-117.856
X179.324Y-120.65
X179.324Y-121.666
X179.578Y-61.722
X180.34Y-73.406
X180.34Y-74.422
X180.34Y-110.744
X180.34Y-111.76
X180.34Y-114.554
X180.34Y-117.856
X180.34Y-120.65
X180.34Y-121.666
X180.594Y-149.86
X181.102Y-70.358
X181.102Y-71.374
X181.356Y-110.744
X181.356Y-111.76
X181.356Y-114.554
X181.356Y-117.856
X181.356Y-120.65
X181.356Y-121.666
X181.61Y-73.406
X181.61Y-74.422
X181.61Y-75.692
X181.61Y-76.708
X182.372Y-110.744
X182.372Y-111.76
X182.372Y-114.554
X182.372Y-117.856
X182.372Y-120.65
X182.372Y-121.666
X182.626Y-61.722
X182.626Y-73.406
X182.626Y-74.422
X182.626Y-75.692
X182.626Y-76.708
X183.642Y-73.406
X183.642Y-74.422
X183.642Y-75.692
X183.642Y-76.708
X183.896Y-61.722
X183.896Y-130.81
X183.896Y-133.858
X183.896Y-146.304
X183.896Y-149.352
X184.15Y-117.602
X184.404Y-114.808
X184.658Y-73.406
X184.658Y-74.422
X184.658Y-75.692
X184.658Y-76.708
X185.166Y-70.358
X185.166Y-71.374
X185.928Y-73.406
X185.928Y-74.422
X185.928Y-75.692
X185.928Y-76.708
X185.928Y-121.666
X186.69Y-108.966
X186.69Y-109.982
X186.944Y-61.722
X186.944Y-73.406
X186.944Y-74.422
X186.944Y-75.692
X186.944Y-76.708
X186.944Y-121.666
X187.198Y-130.81
X187.198Y-133.858
X187.198Y-146.304
X187.198Y-149.352
X187.96Y-73.406
X187.96Y-74.422
X187.96Y-75.692
X187.96Y-76.708
X188.214Y-61.722
X188.722Y-120.904
X188.976Y-73.406
X188.976Y-74.422
X188.976Y-75.692
X188.976Y-76.708
X189.23Y-108.966
X189.484Y-70.358
X189.484Y-71.374
X189.484Y-104.394
X189.738Y-64.389
X189.738Y-66.294
X190.5Y-106.426
X190.5Y-112.014
X190.754Y-52.324
X191.008Y-69.85
X191.008Y-71.628
X191.008Y-72.644
X191.008Y-74.168
X191.008Y-75.184
X191.262Y-107.95
X191.389Y-103.124
X192.024Y-52.324
X192.024Y-69.85
X192.024Y-71.628
X192.024Y-72.644
X192.024Y-74.168
X192.024Y-75.184
X192.278Y-149.86
X192.341Y-102.806
X192.532Y-128.524
X192.532Y-129.54
X192.532Y-135.128
X192.532Y-136.144
X192.532Y-141.478
X192.532Y-142.494
X193.04Y-107.188
X195.326Y-97.028
X195.326Y-98.044
X198.374Y-59.69
X198.374Y-60.96
X198.628Y-77.978
X198.628Y-79.248
X198.628Y-96.266
X198.628Y-97.536
X198.628Y-111.506
X198.628Y-112.776
X198.628Y-121.412
X198.628Y-122.682
X198.628Y-130.81
X198.628Y-132.08
X198.628Y-138.684
X198.628Y-139.954
T2
X101.6Y-55.0
X101.6Y-147.0
X102.303Y-53.303
X102.303Y-56.697
X102.303Y-145.303
X102.303Y-148.697
X104.0Y-52.6
X104.0Y-57.4
X104.0Y-144.6
X104.0Y-149.4
X105.697Y-53.303
X105.697Y-56.697
X105.697Y-145.303
X105.697Y-148.697
X106.4Y-55.0
X106.4Y-147.0
X193.6Y-55.0
X193.6Y-147.0
X194.303Y-53.303
X194.303Y-56.697
X194.303Y-145.303
X194.303Y-148.697
X196.0Y-52.6
X196.0Y-57.4
X196.0Y-144.6
X196.0Y-149.4
X197.697Y-53.303
X197.697Y-56.697
X197.697Y-145.303
X197.697Y-148.697
X198.4Y-55.0
X198.4Y-147.0
T3
X101.84Y-82.38
X101.84Y-97.62
X102.87Y-62.86
X102.87Y-65.4
X102.87Y-67.94
X102.87Y-70.48
X102.87Y-73.02
X102.87Y-75.56
X102.87Y-78.1
X104.14Y-101.6
X104.38Y-82.38
X104.38Y-97.62
X104.927Y-123.444
X104.927Y-125.984
X106.68Y-101.6
X106.92Y-82.38
X106.92Y-97.62
X109.22Y-101.6
X109.46Y-82.38
X109.46Y-97.62
X111.76Y-101.6
X112.0Y-82.38
X112.0Y-97.62
X114.3Y-101.6
X114.54Y-82.38
X114.54Y-97.62
X114.935Y-114.935
X114.935Y-117.475
X116.84Y-101.6
X117.08Y-82.38
X117.08Y-97.62
X119.38Y-101.6
X119.62Y-82.38
X119.62Y-97.62
X121.92Y-101.6
X122.16Y-82.38
X122.16Y-84.92
X122.16Y-87.46
X122.16Y-90.0
X122.16Y-92.54
X122.16Y-95.08
X122.16Y-97.62
X126.365Y-85.09
X126.365Y-87.63
X126.365Y-90.17
X126.365Y-92.71
X126.365Y-95.25
X135.362Y-75.463
X135.915Y-114.955
X135.915Y-117.495
X137.902Y-75.463
X146.19Y-82.3
X148.73Y-82.3
X151.27Y-82.3
X153.81Y-82.3
X158.775Y-114.955
X158.775Y-117.495
X167.03Y-114.955
X167.03Y-117.495
X189.89Y-114.935
X189.89Y-117.475
T4
X172.75Y-84.25
X172.75Y-90.75
X172.75Y-94.25
X172.75Y-100.75
X177.25Y-84.25
X177.25Y-90.75
X177.25Y-94.25
X177.25Y-100.75
T5
X112.9Y-65.275
X112.9Y-70.775
X117.1Y-65.275
X117.1Y-70.775
X121.3Y-65.275
X121.3Y-70.775
X125.5Y-65.275
X125.5Y-70.775
X129.7Y-65.275
X129.7Y-70.775
X133.9Y-65.275
X133.9Y-70.775
X138.1Y-65.275
X138.1Y-70.775
X142.3Y-65.275
X142.3Y-70.775
X146.5Y-65.275
X146.5Y-70.775
X150.7Y-65.275
X150.7Y-70.775
X154.9Y-65.275
X154.9Y-70.775
X159.1Y-65.275
X159.1Y-70.775
X174.7Y-65.275
X174.7Y-70.775
X178.9Y-65.275
X178.9Y-70.775
X183.1Y-65.275
X183.1Y-70.775
X187.3Y-65.275
X187.3Y-70.775
T6
X114.44Y-132.286
X114.44Y-147.786
X124.6Y-132.286
X124.6Y-147.786
X134.76Y-132.286
X134.76Y-147.786
X144.92Y-132.286
X144.92Y-147.786
X155.08Y-132.286
X155.08Y-147.786
X165.24Y-132.286
X165.24Y-147.786
X175.4Y-132.286
X175.4Y-147.786
X185.56Y-132.286
X185.56Y-147.786
T7
X104.0Y-55.0
X104.0Y-147.0
X196.0Y-55.0
X196.0Y-147.0
T0
M30
