%TF.GenerationSoftware,KiCad,Pcbnew,(7.0.0)*%
%TF.CreationDate,2026-04-18T16:18:02+01:00*%
%TF.ProjectId,ATX PSU Bench Supply,41545820-5053-4552-9042-656e63682053,rev?*%
%TF.SameCoordinates,Original*%
%TF.FileFunction,Drillmap*%
%TF.FilePolarity,Positive*%
%FSLAX45Y45*%
G04 Gerber Fmt 4.5, Leading zero omitted, Abs format (unit mm)*
G04 Created by KiCad (PCBNEW (7.0.0)) date 2026-04-18 16:18:02*
%MOMM*%
%LPD*%
G01*
G04 APERTURE LIST*
%ADD10C,0.100000*%
%ADD11C,0.200000*%
%ADD12C,0.040000*%
%ADD13C,0.050000*%
%ADD14C,0.110000*%
%ADD15C,0.180000*%
%ADD16C,0.197000*%
%ADD17C,0.320000*%
G04 APERTURE END LIST*
D10*
X10000000Y-5100000D02*
X20000000Y-5100000D01*
X20000000Y-5100000D02*
X20000000Y-15100000D01*
X20000000Y-15100000D02*
X10000000Y-15100000D01*
X10000000Y-15100000D02*
X10000000Y-5100000D01*
D11*
D12*
X10063800Y-9428800D02*
X10103800Y-9468800D01*
X10103800Y-9428800D02*
X10063800Y-9468800D01*
X10063800Y-9555800D02*
X10103800Y-9595800D01*
X10103800Y-9555800D02*
X10063800Y-9595800D01*
X10089200Y-7727000D02*
X10129200Y-7767000D01*
X10129200Y-7727000D02*
X10089200Y-7767000D01*
X10089200Y-7854000D02*
X10129200Y-7894000D01*
X10129200Y-7854000D02*
X10089200Y-7894000D01*
X10089200Y-8463600D02*
X10129200Y-8503600D01*
X10129200Y-8463600D02*
X10089200Y-8503600D01*
X10089200Y-8590600D02*
X10129200Y-8630600D01*
X10129200Y-8590600D02*
X10089200Y-8630600D01*
X10089200Y-10698800D02*
X10129200Y-10738800D01*
X10129200Y-10698800D02*
X10089200Y-10738800D01*
X10089200Y-10825800D02*
X10129200Y-10865800D01*
X10129200Y-10825800D02*
X10089200Y-10865800D01*
X10089200Y-11943400D02*
X10129200Y-11983400D01*
X10129200Y-11943400D02*
X10089200Y-11983400D01*
X10089200Y-12070400D02*
X10129200Y-12110400D01*
X10129200Y-12070400D02*
X10089200Y-12110400D01*
X10089200Y-12984800D02*
X10129200Y-13024800D01*
X10129200Y-12984800D02*
X10089200Y-13024800D01*
X10089200Y-13111800D02*
X10129200Y-13151800D01*
X10129200Y-13111800D02*
X10089200Y-13151800D01*
X10089200Y-13975400D02*
X10129200Y-14015400D01*
X10129200Y-13975400D02*
X10089200Y-14015400D01*
X10089200Y-14102400D02*
X10129200Y-14142400D01*
X10129200Y-14102400D02*
X10089200Y-14142400D01*
X10114600Y-5872800D02*
X10154600Y-5912800D01*
X10154600Y-5872800D02*
X10114600Y-5912800D01*
X10114600Y-5999800D02*
X10154600Y-6039800D01*
X10154600Y-5999800D02*
X10114600Y-6039800D01*
X10529950Y-6888800D02*
X10569950Y-6928800D01*
X10569950Y-6888800D02*
X10529950Y-6928800D01*
X10597200Y-6126800D02*
X10637200Y-6166800D01*
X10637200Y-6126800D02*
X10597200Y-6166800D01*
X10622600Y-8844600D02*
X10662600Y-8884600D01*
X10662600Y-8844600D02*
X10622600Y-8884600D01*
X10648000Y-7777800D02*
X10688000Y-7817800D01*
X10688000Y-7777800D02*
X10648000Y-7817800D01*
X10698800Y-6126800D02*
X10738800Y-6166800D01*
X10738800Y-6126800D02*
X10698800Y-6166800D01*
X10775000Y-9987600D02*
X10815000Y-10027600D01*
X10815000Y-9987600D02*
X10775000Y-10027600D01*
X10800400Y-7777800D02*
X10840400Y-7817800D01*
X10840400Y-7777800D02*
X10800400Y-7817800D01*
X10800400Y-12349800D02*
X10840400Y-12389800D01*
X10840400Y-12349800D02*
X10800400Y-12389800D01*
X10800400Y-12476800D02*
X10840400Y-12516800D01*
X10840400Y-12476800D02*
X10800400Y-12516800D01*
X10800400Y-13518200D02*
X10840400Y-13558200D01*
X10840400Y-13518200D02*
X10800400Y-13558200D01*
X10800400Y-13645200D02*
X10840400Y-13685200D01*
X10840400Y-13645200D02*
X10800400Y-13685200D01*
X10902000Y-9251000D02*
X10942000Y-9291000D01*
X10942000Y-9251000D02*
X10902000Y-9291000D01*
X10978200Y-8793800D02*
X11018200Y-8833800D01*
X11018200Y-8793800D02*
X10978200Y-8833800D01*
X10978200Y-10368600D02*
X11018200Y-10408600D01*
X11018200Y-10368600D02*
X10978200Y-10408600D01*
X11054400Y-6990400D02*
X11094400Y-7030400D01*
X11094400Y-6990400D02*
X11054400Y-7030400D01*
X11054400Y-7092000D02*
X11094400Y-7132000D01*
X11094400Y-7092000D02*
X11054400Y-7132000D01*
X11054400Y-8386500D02*
X11094400Y-8426500D01*
X11094400Y-8386500D02*
X11054400Y-8426500D01*
X11054400Y-9555800D02*
X11094400Y-9595800D01*
X11094400Y-9555800D02*
X11054400Y-9595800D01*
X11054400Y-9987600D02*
X11094400Y-10027600D01*
X11094400Y-9987600D02*
X11054400Y-10027600D01*
X11079800Y-6457000D02*
X11119800Y-6497000D01*
X11119800Y-6457000D02*
X11079800Y-6497000D01*
X11079800Y-6558600D02*
X11119800Y-6598600D01*
X11119800Y-6558600D02*
X11079800Y-6598600D01*
X11105200Y-5187000D02*
X11145200Y-5227000D01*
X11145200Y-5187000D02*
X11105200Y-5227000D01*
X11143300Y-13162600D02*
X11183300Y-13202600D01*
X11183300Y-13162600D02*
X11143300Y-13202600D01*
X11143300Y-13264200D02*
X11183300Y-13304200D01*
X11183300Y-13264200D02*
X11143300Y-13304200D01*
X11143300Y-14712000D02*
X11183300Y-14752000D01*
X11183300Y-14712000D02*
X11143300Y-14752000D01*
X11143300Y-14813600D02*
X11183300Y-14853600D01*
X11183300Y-14813600D02*
X11143300Y-14853600D01*
X11156000Y-10597200D02*
X11196000Y-10637200D01*
X11196000Y-10597200D02*
X11156000Y-10637200D01*
X11156000Y-11206800D02*
X11196000Y-11246800D01*
X11196000Y-11206800D02*
X11156000Y-11246800D01*
X11181400Y-9098600D02*
X11221400Y-9138600D01*
X11221400Y-9098600D02*
X11181400Y-9138600D01*
X11206800Y-5187000D02*
X11246800Y-5227000D01*
X11246800Y-5187000D02*
X11206800Y-5227000D01*
X11206800Y-6787200D02*
X11246800Y-6827200D01*
X11246800Y-6787200D02*
X11206800Y-6827200D01*
X11232200Y-7346000D02*
X11272200Y-7386000D01*
X11272200Y-7346000D02*
X11232200Y-7386000D01*
X11232200Y-7447600D02*
X11272200Y-7487600D01*
X11272200Y-7447600D02*
X11232200Y-7487600D01*
X11283000Y-9987600D02*
X11323000Y-10027600D01*
X11323000Y-9987600D02*
X11283000Y-10027600D01*
X11308400Y-6787200D02*
X11348400Y-6827200D01*
X11348400Y-6787200D02*
X11308400Y-6827200D01*
X11308400Y-9581200D02*
X11348400Y-9621200D01*
X11348400Y-9581200D02*
X11308400Y-9621200D01*
X11333800Y-6101400D02*
X11373800Y-6141400D01*
X11373800Y-6101400D02*
X11333800Y-6141400D01*
X11333800Y-6203000D02*
X11373800Y-6243000D01*
X11373800Y-6203000D02*
X11333800Y-6243000D01*
X11333800Y-7346000D02*
X11373800Y-7386000D01*
X11373800Y-7346000D02*
X11333800Y-7386000D01*
X11333800Y-7447600D02*
X11373800Y-7487600D01*
X11373800Y-7447600D02*
X11333800Y-7487600D01*
X11333800Y-8514400D02*
X11373800Y-8554400D01*
X11373800Y-8514400D02*
X11333800Y-8554400D01*
X11371900Y-12934000D02*
X11411900Y-12974000D01*
X11411900Y-12934000D02*
X11371900Y-12974000D01*
X11371900Y-14483400D02*
X11411900Y-14523400D01*
X11411900Y-14483400D02*
X11371900Y-14523400D01*
X11384600Y-13492800D02*
X11424600Y-13532800D01*
X11424600Y-13492800D02*
X11384600Y-13532800D01*
X11435400Y-6101400D02*
X11475400Y-6141400D01*
X11475400Y-6101400D02*
X11435400Y-6141400D01*
X11435400Y-6203000D02*
X11475400Y-6243000D01*
X11475400Y-6203000D02*
X11435400Y-6243000D01*
X11460800Y-10775000D02*
X11500800Y-10815000D01*
X11500800Y-10775000D02*
X11460800Y-10815000D01*
X11473500Y-10889300D02*
X11513500Y-10929300D01*
X11513500Y-10889300D02*
X11473500Y-10929300D01*
X11473500Y-12934000D02*
X11513500Y-12974000D01*
X11513500Y-12934000D02*
X11473500Y-12974000D01*
X11473500Y-14483400D02*
X11513500Y-14523400D01*
X11513500Y-14483400D02*
X11473500Y-14523400D01*
X11486200Y-6457000D02*
X11526200Y-6497000D01*
X11526200Y-6457000D02*
X11486200Y-6497000D01*
X11486200Y-6558600D02*
X11526200Y-6598600D01*
X11526200Y-6558600D02*
X11486200Y-6598600D01*
X11486200Y-13492800D02*
X11526200Y-13532800D01*
X11526200Y-13492800D02*
X11486200Y-13532800D01*
X11537000Y-6101400D02*
X11577000Y-6141400D01*
X11577000Y-6101400D02*
X11537000Y-6141400D01*
X11537000Y-6203000D02*
X11577000Y-6243000D01*
X11577000Y-6203000D02*
X11537000Y-6243000D01*
X11562400Y-7981000D02*
X11602400Y-8021000D01*
X11602400Y-7981000D02*
X11562400Y-8021000D01*
X11562400Y-10800400D02*
X11602400Y-10840400D01*
X11602400Y-10800400D02*
X11562400Y-10840400D01*
X11587800Y-10648000D02*
X11627800Y-10688000D01*
X11627800Y-10648000D02*
X11587800Y-10688000D01*
X11638600Y-6101400D02*
X11678600Y-6141400D01*
X11678600Y-6101400D02*
X11638600Y-6141400D01*
X11638600Y-6203000D02*
X11678600Y-6243000D01*
X11678600Y-6203000D02*
X11638600Y-6243000D01*
X11638600Y-8514400D02*
X11678600Y-8554400D01*
X11678600Y-8514400D02*
X11638600Y-8554400D01*
X11638600Y-10394000D02*
X11678600Y-10434000D01*
X11678600Y-10394000D02*
X11638600Y-10434000D01*
X11664000Y-10775000D02*
X11704000Y-10815000D01*
X11704000Y-10775000D02*
X11664000Y-10815000D01*
X11702100Y-13162600D02*
X11742100Y-13202600D01*
X11742100Y-13162600D02*
X11702100Y-13202600D01*
X11702100Y-13264200D02*
X11742100Y-13304200D01*
X11742100Y-13264200D02*
X11702100Y-13304200D01*
X11702100Y-14699300D02*
X11742100Y-14739300D01*
X11742100Y-14699300D02*
X11702100Y-14739300D01*
X11702100Y-14800900D02*
X11742100Y-14840900D01*
X11742100Y-14800900D02*
X11702100Y-14840900D01*
X11816400Y-8336600D02*
X11856400Y-8376600D01*
X11856400Y-8336600D02*
X11816400Y-8376600D01*
X11854500Y-14966000D02*
X11894500Y-15006000D01*
X11894500Y-14966000D02*
X11854500Y-15006000D01*
X11867200Y-6863400D02*
X11907200Y-6903400D01*
X11907200Y-6863400D02*
X11867200Y-6903400D01*
X11905300Y-7206300D02*
X11945300Y-7246300D01*
X11945300Y-7206300D02*
X11905300Y-7246300D01*
X11943400Y-8590600D02*
X11983400Y-8630600D01*
X11983400Y-8590600D02*
X11943400Y-8630600D01*
X11956100Y-6736400D02*
X11996100Y-6776400D01*
X11996100Y-6736400D02*
X11956100Y-6776400D01*
X11956100Y-6838000D02*
X11996100Y-6878000D01*
X11996100Y-6838000D02*
X11956100Y-6878000D01*
X11956100Y-7282500D02*
X11996100Y-7322500D01*
X11996100Y-7282500D02*
X11956100Y-7322500D01*
X11994200Y-6126800D02*
X12034200Y-6166800D01*
X12034200Y-6126800D02*
X11994200Y-6166800D01*
X11994200Y-6228400D02*
X12034200Y-6268400D01*
X12034200Y-6228400D02*
X11994200Y-6268400D01*
X12019600Y-5187000D02*
X12059600Y-5227000D01*
X12059600Y-5187000D02*
X12019600Y-5227000D01*
X12019600Y-8997000D02*
X12059600Y-9037000D01*
X12059600Y-8997000D02*
X12019600Y-9037000D01*
X12045000Y-9568500D02*
X12085000Y-9608500D01*
X12085000Y-9568500D02*
X12045000Y-9608500D01*
X12070400Y-9987600D02*
X12110400Y-10027600D01*
X12110400Y-9987600D02*
X12070400Y-10027600D01*
X12095800Y-12172000D02*
X12135800Y-12212000D01*
X12135800Y-12172000D02*
X12095800Y-12212000D01*
X12121200Y-5187000D02*
X12161200Y-5227000D01*
X12161200Y-5187000D02*
X12121200Y-5227000D01*
X12146600Y-11587800D02*
X12186600Y-11627800D01*
X12186600Y-11587800D02*
X12146600Y-11627800D01*
X12197400Y-12172000D02*
X12237400Y-12212000D01*
X12237400Y-12172000D02*
X12197400Y-12212000D01*
X12210100Y-6126800D02*
X12250100Y-6166800D01*
X12250100Y-6126800D02*
X12210100Y-6166800D01*
X12210100Y-6228400D02*
X12250100Y-6268400D01*
X12250100Y-6228400D02*
X12210100Y-6268400D01*
X12248200Y-6787200D02*
X12288200Y-6827200D01*
X12288200Y-6787200D02*
X12248200Y-6827200D01*
X12260900Y-7282500D02*
X12300900Y-7322500D01*
X12300900Y-7282500D02*
X12260900Y-7322500D01*
X12273600Y-13061000D02*
X12313600Y-13101000D01*
X12313600Y-13061000D02*
X12273600Y-13101000D01*
X12273600Y-13365800D02*
X12313600Y-13405800D01*
X12313600Y-13365800D02*
X12273600Y-13405800D01*
X12273600Y-14610400D02*
X12313600Y-14650400D01*
X12313600Y-14610400D02*
X12273600Y-14650400D01*
X12273600Y-14915200D02*
X12313600Y-14955200D01*
X12313600Y-14915200D02*
X12273600Y-14955200D01*
X12324400Y-6876100D02*
X12364400Y-6916100D01*
X12364400Y-6876100D02*
X12324400Y-6916100D01*
X12324400Y-7206300D02*
X12364400Y-7246300D01*
X12364400Y-7206300D02*
X12324400Y-7246300D01*
X12324400Y-12045000D02*
X12364400Y-12085000D01*
X12364400Y-12045000D02*
X12324400Y-12085000D01*
X12324400Y-12146600D02*
X12364400Y-12186600D01*
X12364400Y-12146600D02*
X12324400Y-12186600D01*
X12349800Y-11029000D02*
X12389800Y-11069000D01*
X12389800Y-11029000D02*
X12349800Y-11069000D01*
X12349800Y-11130600D02*
X12389800Y-11170600D01*
X12389800Y-11130600D02*
X12349800Y-11170600D01*
X12349800Y-11435400D02*
X12389800Y-11475400D01*
X12389800Y-11435400D02*
X12349800Y-11475400D01*
X12349800Y-11765600D02*
X12389800Y-11805600D01*
X12389800Y-11765600D02*
X12349800Y-11805600D01*
X12375200Y-8285800D02*
X12415200Y-8325800D01*
X12415200Y-8285800D02*
X12375200Y-8325800D01*
X12426000Y-9682800D02*
X12466000Y-9722800D01*
X12466000Y-9682800D02*
X12426000Y-9722800D01*
X12426000Y-12045000D02*
X12466000Y-12085000D01*
X12466000Y-12045000D02*
X12426000Y-12085000D01*
X12426000Y-12146600D02*
X12466000Y-12186600D01*
X12466000Y-12146600D02*
X12426000Y-12186600D01*
X12451400Y-8870000D02*
X12491400Y-8910000D01*
X12491400Y-8870000D02*
X12451400Y-8910000D01*
X12451400Y-9124000D02*
X12491400Y-9164000D01*
X12491400Y-9124000D02*
X12451400Y-9164000D01*
X12451400Y-9378000D02*
X12491400Y-9418000D01*
X12491400Y-9378000D02*
X12451400Y-9418000D01*
X12451400Y-11029000D02*
X12491400Y-11069000D01*
X12491400Y-11029000D02*
X12451400Y-11069000D01*
X12451400Y-11130600D02*
X12491400Y-11170600D01*
X12491400Y-11130600D02*
X12451400Y-11170600D01*
X12451400Y-11435400D02*
X12491400Y-11475400D01*
X12491400Y-11435400D02*
X12451400Y-11475400D01*
X12451400Y-11765600D02*
X12491400Y-11805600D01*
X12491400Y-11765600D02*
X12451400Y-11805600D01*
X12476800Y-6126800D02*
X12516800Y-6166800D01*
X12516800Y-6126800D02*
X12476800Y-6166800D01*
X12476800Y-6228400D02*
X12516800Y-6268400D01*
X12516800Y-6228400D02*
X12476800Y-6268400D01*
X12527600Y-12045000D02*
X12567600Y-12085000D01*
X12567600Y-12045000D02*
X12527600Y-12085000D01*
X12527600Y-12146600D02*
X12567600Y-12186600D01*
X12567600Y-12146600D02*
X12527600Y-12186600D01*
X12553000Y-11029000D02*
X12593000Y-11069000D01*
X12593000Y-11029000D02*
X12553000Y-11069000D01*
X12553000Y-11130600D02*
X12593000Y-11170600D01*
X12593000Y-11130600D02*
X12553000Y-11170600D01*
X12553000Y-11435400D02*
X12593000Y-11475400D01*
X12593000Y-11435400D02*
X12553000Y-11475400D01*
X12553000Y-11765600D02*
X12593000Y-11805600D01*
X12593000Y-11765600D02*
X12553000Y-11805600D01*
X12578400Y-5466400D02*
X12618400Y-5506400D01*
X12618400Y-5466400D02*
X12578400Y-5506400D01*
X12578400Y-5568000D02*
X12618400Y-5608000D01*
X12618400Y-5568000D02*
X12578400Y-5608000D01*
X12578400Y-6126800D02*
X12618400Y-6166800D01*
X12618400Y-6126800D02*
X12578400Y-6166800D01*
X12578400Y-6228400D02*
X12618400Y-6268400D01*
X12618400Y-6228400D02*
X12578400Y-6268400D01*
X12603800Y-8057200D02*
X12643800Y-8097200D01*
X12643800Y-8057200D02*
X12603800Y-8097200D01*
X12603800Y-13061000D02*
X12643800Y-13101000D01*
X12643800Y-13061000D02*
X12603800Y-13101000D01*
X12603800Y-13365800D02*
X12643800Y-13405800D01*
X12643800Y-13365800D02*
X12603800Y-13405800D01*
X12603800Y-14610400D02*
X12643800Y-14650400D01*
X12643800Y-14610400D02*
X12603800Y-14650400D01*
X12603800Y-14915200D02*
X12643800Y-14955200D01*
X12643800Y-14915200D02*
X12603800Y-14955200D01*
X12629200Y-9911400D02*
X12669200Y-9951400D01*
X12669200Y-9911400D02*
X12629200Y-9951400D01*
X12629200Y-12045000D02*
X12669200Y-12085000D01*
X12669200Y-12045000D02*
X12629200Y-12085000D01*
X12629200Y-12146600D02*
X12669200Y-12186600D01*
X12669200Y-12146600D02*
X12629200Y-12186600D01*
X12654600Y-11029000D02*
X12694600Y-11069000D01*
X12694600Y-11029000D02*
X12654600Y-11069000D01*
X12654600Y-11130600D02*
X12694600Y-11170600D01*
X12694600Y-11130600D02*
X12654600Y-11170600D01*
X12654600Y-11435400D02*
X12694600Y-11475400D01*
X12694600Y-11435400D02*
X12654600Y-11475400D01*
X12654600Y-11765600D02*
X12694600Y-11805600D01*
X12694600Y-11765600D02*
X12654600Y-11805600D01*
X12680000Y-5466400D02*
X12720000Y-5506400D01*
X12720000Y-5466400D02*
X12680000Y-5506400D01*
X12680000Y-5568000D02*
X12720000Y-5608000D01*
X12720000Y-5568000D02*
X12680000Y-5608000D01*
X12705400Y-8057200D02*
X12745400Y-8097200D01*
X12745400Y-8057200D02*
X12705400Y-8097200D01*
X12730800Y-7244400D02*
X12770800Y-7284400D01*
X12770800Y-7244400D02*
X12730800Y-7284400D01*
X12743500Y-6863400D02*
X12783500Y-6903400D01*
X12783500Y-6863400D02*
X12743500Y-6903400D01*
X12756200Y-11029000D02*
X12796200Y-11069000D01*
X12796200Y-11029000D02*
X12756200Y-11069000D01*
X12756200Y-11130600D02*
X12796200Y-11170600D01*
X12796200Y-11130600D02*
X12756200Y-11170600D01*
X12756200Y-11232200D02*
X12796200Y-11272200D01*
X12796200Y-11232200D02*
X12756200Y-11272200D01*
X12756200Y-11333800D02*
X12796200Y-11373800D01*
X12796200Y-11333800D02*
X12756200Y-11373800D01*
X12756200Y-11841800D02*
X12796200Y-11881800D01*
X12796200Y-11841800D02*
X12756200Y-11881800D01*
X12756200Y-11943400D02*
X12796200Y-11983400D01*
X12796200Y-11943400D02*
X12756200Y-11983400D01*
X12756200Y-12045000D02*
X12796200Y-12085000D01*
X12796200Y-12045000D02*
X12756200Y-12085000D01*
X12756200Y-12146600D02*
X12796200Y-12186600D01*
X12796200Y-12146600D02*
X12756200Y-12186600D01*
X12819700Y-6774500D02*
X12859700Y-6814500D01*
X12859700Y-6774500D02*
X12819700Y-6814500D01*
X12819700Y-7307900D02*
X12859700Y-7347900D01*
X12859700Y-7307900D02*
X12819700Y-7347900D01*
X12832400Y-6228400D02*
X12872400Y-6268400D01*
X12872400Y-6228400D02*
X12832400Y-6268400D01*
X12857800Y-11029000D02*
X12897800Y-11069000D01*
X12897800Y-11029000D02*
X12857800Y-11069000D01*
X12857800Y-11130600D02*
X12897800Y-11170600D01*
X12897800Y-11130600D02*
X12857800Y-11170600D01*
X12857800Y-11232200D02*
X12897800Y-11272200D01*
X12897800Y-11232200D02*
X12857800Y-11272200D01*
X12857800Y-11841800D02*
X12897800Y-11881800D01*
X12897800Y-11841800D02*
X12857800Y-11881800D01*
X12857800Y-11943400D02*
X12897800Y-11983400D01*
X12897800Y-11943400D02*
X12857800Y-11983400D01*
X12857800Y-12045000D02*
X12897800Y-12085000D01*
X12897800Y-12045000D02*
X12857800Y-12085000D01*
X12857800Y-12146600D02*
X12897800Y-12186600D01*
X12897800Y-12146600D02*
X12857800Y-12186600D01*
X12934000Y-11562400D02*
X12974000Y-11602400D01*
X12974000Y-11562400D02*
X12934000Y-11602400D01*
X13010200Y-14978700D02*
X13050200Y-15018700D01*
X13050200Y-14978700D02*
X13010200Y-15018700D01*
X13035600Y-6228400D02*
X13075600Y-6268400D01*
X13075600Y-6228400D02*
X13035600Y-6268400D01*
X13048300Y-7320600D02*
X13088300Y-7360600D01*
X13088300Y-7320600D02*
X13048300Y-7360600D01*
X13061000Y-6799900D02*
X13101000Y-6839900D01*
X13101000Y-6799900D02*
X13061000Y-6839900D01*
X13111800Y-11841800D02*
X13151800Y-11881800D01*
X13151800Y-11841800D02*
X13111800Y-11881800D01*
X13111800Y-11943400D02*
X13151800Y-11983400D01*
X13151800Y-11943400D02*
X13111800Y-11983400D01*
X13149900Y-6863400D02*
X13189900Y-6903400D01*
X13189900Y-6863400D02*
X13149900Y-6903400D01*
X13162600Y-7244400D02*
X13202600Y-7284400D01*
X13202600Y-7244400D02*
X13162600Y-7284400D01*
X13162600Y-7346000D02*
X13202600Y-7386000D01*
X13202600Y-7346000D02*
X13162600Y-7386000D01*
X13175300Y-13175300D02*
X13215300Y-13215300D01*
X13215300Y-13175300D02*
X13175300Y-13215300D01*
X13175300Y-13276900D02*
X13215300Y-13316900D01*
X13215300Y-13276900D02*
X13175300Y-13316900D01*
X13175300Y-14724700D02*
X13215300Y-14764700D01*
X13215300Y-14724700D02*
X13175300Y-14764700D01*
X13175300Y-14826300D02*
X13215300Y-14866300D01*
X13215300Y-14826300D02*
X13175300Y-14866300D01*
X13238800Y-7650800D02*
X13278800Y-7690800D01*
X13278800Y-7650800D02*
X13238800Y-7690800D01*
X13315000Y-6126800D02*
X13355000Y-6166800D01*
X13355000Y-6126800D02*
X13315000Y-6166800D01*
X13315000Y-6228400D02*
X13355000Y-6268400D01*
X13355000Y-6228400D02*
X13315000Y-6268400D01*
X13315000Y-10775000D02*
X13355000Y-10815000D01*
X13355000Y-10775000D02*
X13315000Y-10815000D01*
X13391200Y-10698800D02*
X13431200Y-10738800D01*
X13431200Y-10698800D02*
X13391200Y-10738800D01*
X13403900Y-12934000D02*
X13443900Y-12974000D01*
X13443900Y-12934000D02*
X13403900Y-12974000D01*
X13403900Y-14483400D02*
X13443900Y-14523400D01*
X13443900Y-14483400D02*
X13403900Y-14523400D01*
X13416600Y-6126800D02*
X13456600Y-6166800D01*
X13456600Y-6126800D02*
X13416600Y-6166800D01*
X13416600Y-6228400D02*
X13456600Y-6268400D01*
X13456600Y-6228400D02*
X13416600Y-6268400D01*
X13416600Y-13492800D02*
X13456600Y-13532800D01*
X13456600Y-13492800D02*
X13416600Y-13532800D01*
X13442000Y-11105200D02*
X13482000Y-11145200D01*
X13482000Y-11105200D02*
X13442000Y-11145200D01*
X13505500Y-12934000D02*
X13545500Y-12974000D01*
X13545500Y-12934000D02*
X13505500Y-12974000D01*
X13505500Y-14483400D02*
X13545500Y-14523400D01*
X13545500Y-14483400D02*
X13505500Y-14523400D01*
X13518200Y-13492800D02*
X13558200Y-13532800D01*
X13558200Y-13492800D02*
X13518200Y-13532800D01*
X13543600Y-8031800D02*
X13583600Y-8071800D01*
X13583600Y-8031800D02*
X13543600Y-8071800D01*
X13619800Y-10648000D02*
X13659800Y-10688000D01*
X13659800Y-10648000D02*
X13619800Y-10688000D01*
X13645200Y-9911400D02*
X13685200Y-9951400D01*
X13685200Y-9911400D02*
X13645200Y-9951400D01*
X13645200Y-10013000D02*
X13685200Y-10053000D01*
X13685200Y-10013000D02*
X13645200Y-10053000D01*
X13670600Y-8590600D02*
X13710600Y-8630600D01*
X13710600Y-8590600D02*
X13670600Y-8630600D01*
X13683300Y-6241100D02*
X13723300Y-6281100D01*
X13723300Y-6241100D02*
X13683300Y-6281100D01*
X13721400Y-7320600D02*
X13761400Y-7360600D01*
X13761400Y-7320600D02*
X13721400Y-7360600D01*
X13734100Y-13162600D02*
X13774100Y-13202600D01*
X13774100Y-13162600D02*
X13734100Y-13202600D01*
X13734100Y-13264200D02*
X13774100Y-13304200D01*
X13774100Y-13264200D02*
X13734100Y-13304200D01*
X13734100Y-14712000D02*
X13774100Y-14752000D01*
X13774100Y-14712000D02*
X13734100Y-14752000D01*
X13734100Y-14813600D02*
X13774100Y-14853600D01*
X13774100Y-14813600D02*
X13734100Y-14853600D01*
X13797600Y-6685600D02*
X13837600Y-6725600D01*
X13837600Y-6685600D02*
X13797600Y-6725600D01*
X13797600Y-6888800D02*
X13837600Y-6928800D01*
X13837600Y-6888800D02*
X13797600Y-6928800D01*
X13797600Y-8016450D02*
X13837600Y-8056450D01*
X13837600Y-8016450D02*
X13797600Y-8056450D01*
X13823000Y-7320600D02*
X13863000Y-7360600D01*
X13863000Y-7320600D02*
X13823000Y-7360600D01*
X13873800Y-9149400D02*
X13913800Y-9189400D01*
X13913800Y-9149400D02*
X13873800Y-9189400D01*
X13873800Y-9708200D02*
X13913800Y-9748200D01*
X13913800Y-9708200D02*
X13873800Y-9748200D01*
X13873800Y-9809800D02*
X13913800Y-9849800D01*
X13913800Y-9809800D02*
X13873800Y-9849800D01*
X13873800Y-9911400D02*
X13913800Y-9951400D01*
X13913800Y-9911400D02*
X13873800Y-9951400D01*
X13873800Y-10013000D02*
X13913800Y-10053000D01*
X13913800Y-10013000D02*
X13873800Y-10053000D01*
X13886500Y-14978700D02*
X13926500Y-15018700D01*
X13926500Y-14978700D02*
X13886500Y-15018700D01*
X13899200Y-6228400D02*
X13939200Y-6268400D01*
X13939200Y-6228400D02*
X13899200Y-6268400D01*
X13899200Y-8565200D02*
X13939200Y-8605200D01*
X13939200Y-8565200D02*
X13899200Y-8605200D01*
X14004550Y-9532450D02*
X14044550Y-9572450D01*
X14044550Y-9532450D02*
X14004550Y-9572450D01*
X14051600Y-10419400D02*
X14091600Y-10459400D01*
X14091600Y-10419400D02*
X14051600Y-10459400D01*
X14051600Y-10546400D02*
X14091600Y-10586400D01*
X14091600Y-10546400D02*
X14051600Y-10586400D01*
X14051600Y-12146600D02*
X14091600Y-12186600D01*
X14091600Y-12146600D02*
X14051600Y-12186600D01*
X14077000Y-9454200D02*
X14117000Y-9494200D01*
X14117000Y-9454200D02*
X14077000Y-9494200D01*
X14102400Y-11587800D02*
X14142400Y-11627800D01*
X14142400Y-11587800D02*
X14102400Y-11627800D01*
X14153200Y-12146600D02*
X14193200Y-12186600D01*
X14193200Y-12146600D02*
X14153200Y-12186600D01*
X14178600Y-8158800D02*
X14218600Y-8198800D01*
X14218600Y-8158800D02*
X14178600Y-8198800D01*
X14229400Y-5339400D02*
X14269400Y-5379400D01*
X14269400Y-5339400D02*
X14229400Y-5379400D01*
X14229400Y-5441000D02*
X14269400Y-5481000D01*
X14269400Y-5441000D02*
X14229400Y-5481000D01*
X14229400Y-9682800D02*
X14269400Y-9722800D01*
X14269400Y-9682800D02*
X14229400Y-9722800D01*
X14229400Y-9784400D02*
X14269400Y-9824400D01*
X14269400Y-9784400D02*
X14229400Y-9824400D01*
X14229400Y-10889300D02*
X14269400Y-10929300D01*
X14269400Y-10889300D02*
X14229400Y-10929300D01*
X14229400Y-10990900D02*
X14269400Y-11030900D01*
X14269400Y-10990900D02*
X14229400Y-11030900D01*
X14305600Y-7346000D02*
X14345600Y-7386000D01*
X14345600Y-7346000D02*
X14305600Y-7386000D01*
X14305600Y-8997000D02*
X14345600Y-9037000D01*
X14345600Y-8997000D02*
X14305600Y-9037000D01*
X14305600Y-11054400D02*
X14345600Y-11094400D01*
X14345600Y-11054400D02*
X14305600Y-11094400D01*
X14305600Y-11156000D02*
X14345600Y-11196000D01*
X14345600Y-11156000D02*
X14305600Y-11196000D01*
X14305600Y-11435400D02*
X14345600Y-11475400D01*
X14345600Y-11435400D02*
X14305600Y-11475400D01*
X14305600Y-11765600D02*
X14345600Y-11805600D01*
X14345600Y-11765600D02*
X14305600Y-11805600D01*
X14305600Y-12045000D02*
X14345600Y-12085000D01*
X14345600Y-12045000D02*
X14305600Y-12085000D01*
X14305600Y-12146600D02*
X14345600Y-12186600D01*
X14345600Y-12146600D02*
X14305600Y-12186600D01*
X14305600Y-13061000D02*
X14345600Y-13101000D01*
X14345600Y-13061000D02*
X14305600Y-13101000D01*
X14305600Y-13365800D02*
X14345600Y-13405800D01*
X14345600Y-13365800D02*
X14305600Y-13405800D01*
X14305600Y-14610400D02*
X14345600Y-14650400D01*
X14345600Y-14610400D02*
X14305600Y-14650400D01*
X14305600Y-14915200D02*
X14345600Y-14955200D01*
X14345600Y-14915200D02*
X14305600Y-14955200D01*
X14331000Y-5339400D02*
X14371000Y-5379400D01*
X14371000Y-5339400D02*
X14331000Y-5379400D01*
X14331000Y-5441000D02*
X14371000Y-5481000D01*
X14371000Y-5441000D02*
X14331000Y-5481000D01*
X14331000Y-9682800D02*
X14371000Y-9722800D01*
X14371000Y-9682800D02*
X14331000Y-9722800D01*
X14331000Y-9784400D02*
X14371000Y-9824400D01*
X14371000Y-9784400D02*
X14331000Y-9824400D01*
X14407200Y-7752400D02*
X14447200Y-7792400D01*
X14447200Y-7752400D02*
X14407200Y-7792400D01*
X14407200Y-11054400D02*
X14447200Y-11094400D01*
X14447200Y-11054400D02*
X14407200Y-11094400D01*
X14407200Y-11156000D02*
X14447200Y-11196000D01*
X14447200Y-11156000D02*
X14407200Y-11196000D01*
X14407200Y-11435400D02*
X14447200Y-11475400D01*
X14447200Y-11435400D02*
X14407200Y-11475400D01*
X14407200Y-11765600D02*
X14447200Y-11805600D01*
X14447200Y-11765600D02*
X14407200Y-11805600D01*
X14407200Y-12045000D02*
X14447200Y-12085000D01*
X14447200Y-12045000D02*
X14407200Y-12085000D01*
X14407200Y-12146600D02*
X14447200Y-12186600D01*
X14447200Y-12146600D02*
X14407200Y-12186600D01*
X14483400Y-8692200D02*
X14523400Y-8732200D01*
X14523400Y-8692200D02*
X14483400Y-8732200D01*
X14508800Y-11054400D02*
X14548800Y-11094400D01*
X14548800Y-11054400D02*
X14508800Y-11094400D01*
X14508800Y-11156000D02*
X14548800Y-11196000D01*
X14548800Y-11156000D02*
X14508800Y-11196000D01*
X14508800Y-11435400D02*
X14548800Y-11475400D01*
X14548800Y-11435400D02*
X14508800Y-11475400D01*
X14508800Y-11765600D02*
X14548800Y-11805600D01*
X14548800Y-11765600D02*
X14508800Y-11805600D01*
X14508800Y-12045000D02*
X14548800Y-12085000D01*
X14548800Y-12045000D02*
X14508800Y-12085000D01*
X14508800Y-12146600D02*
X14548800Y-12186600D01*
X14548800Y-12146600D02*
X14508800Y-12186600D01*
X14559600Y-9225600D02*
X14599600Y-9265600D01*
X14599600Y-9225600D02*
X14559600Y-9265600D01*
X14559600Y-9327200D02*
X14599600Y-9367200D01*
X14599600Y-9327200D02*
X14559600Y-9367200D01*
X14585000Y-7346000D02*
X14625000Y-7386000D01*
X14625000Y-7346000D02*
X14585000Y-7386000D01*
X14585000Y-7447600D02*
X14625000Y-7487600D01*
X14625000Y-7447600D02*
X14585000Y-7487600D01*
X14610400Y-8387400D02*
X14650400Y-8427400D01*
X14650400Y-8387400D02*
X14610400Y-8427400D01*
X14610400Y-11054400D02*
X14650400Y-11094400D01*
X14650400Y-11054400D02*
X14610400Y-11094400D01*
X14610400Y-11156000D02*
X14650400Y-11196000D01*
X14650400Y-11156000D02*
X14610400Y-11196000D01*
X14610400Y-11435400D02*
X14650400Y-11475400D01*
X14650400Y-11435400D02*
X14610400Y-11475400D01*
X14610400Y-11765600D02*
X14650400Y-11805600D01*
X14650400Y-11765600D02*
X14610400Y-11805600D01*
X14610400Y-12045000D02*
X14650400Y-12085000D01*
X14650400Y-12045000D02*
X14610400Y-12085000D01*
X14610400Y-12146600D02*
X14650400Y-12186600D01*
X14650400Y-12146600D02*
X14610400Y-12186600D01*
X14635800Y-13061000D02*
X14675800Y-13101000D01*
X14675800Y-13061000D02*
X14635800Y-13101000D01*
X14635800Y-13365800D02*
X14675800Y-13405800D01*
X14675800Y-13365800D02*
X14635800Y-13405800D01*
X14635800Y-14610400D02*
X14675800Y-14650400D01*
X14675800Y-14610400D02*
X14635800Y-14650400D01*
X14635800Y-14915200D02*
X14675800Y-14955200D01*
X14675800Y-14915200D02*
X14635800Y-14955200D01*
X14661200Y-9225600D02*
X14701200Y-9265600D01*
X14701200Y-9225600D02*
X14661200Y-9265600D01*
X14661200Y-9327200D02*
X14701200Y-9367200D01*
X14701200Y-9327200D02*
X14661200Y-9367200D01*
X14686600Y-7346000D02*
X14726600Y-7386000D01*
X14726600Y-7346000D02*
X14686600Y-7386000D01*
X14686600Y-7447600D02*
X14726600Y-7487600D01*
X14726600Y-7447600D02*
X14686600Y-7487600D01*
X14712000Y-8692200D02*
X14752000Y-8732200D01*
X14752000Y-8692200D02*
X14712000Y-8732200D01*
X14712000Y-11054400D02*
X14752000Y-11094400D01*
X14752000Y-11054400D02*
X14712000Y-11094400D01*
X14712000Y-11156000D02*
X14752000Y-11196000D01*
X14752000Y-11156000D02*
X14712000Y-11196000D01*
X14712000Y-11257600D02*
X14752000Y-11297600D01*
X14752000Y-11257600D02*
X14712000Y-11297600D01*
X14712000Y-11333800D02*
X14752000Y-11373800D01*
X14752000Y-11333800D02*
X14712000Y-11373800D01*
X14712000Y-11435400D02*
X14752000Y-11475400D01*
X14752000Y-11435400D02*
X14712000Y-11475400D01*
X14712000Y-11587800D02*
X14752000Y-11627800D01*
X14752000Y-11587800D02*
X14712000Y-11627800D01*
X14788200Y-7346000D02*
X14828200Y-7386000D01*
X14828200Y-7346000D02*
X14788200Y-7386000D01*
X14788200Y-7447600D02*
X14828200Y-7487600D01*
X14828200Y-7447600D02*
X14788200Y-7487600D01*
X14813600Y-11054400D02*
X14853600Y-11094400D01*
X14853600Y-11054400D02*
X14813600Y-11094400D01*
X14813600Y-11156000D02*
X14853600Y-11196000D01*
X14853600Y-11156000D02*
X14813600Y-11196000D01*
X14813600Y-11435400D02*
X14853600Y-11475400D01*
X14853600Y-11435400D02*
X14813600Y-11475400D01*
X14813600Y-11765600D02*
X14853600Y-11805600D01*
X14853600Y-11765600D02*
X14813600Y-11805600D01*
X14813600Y-12045000D02*
X14853600Y-12085000D01*
X14853600Y-12045000D02*
X14813600Y-12085000D01*
X14813600Y-12146600D02*
X14853600Y-12186600D01*
X14853600Y-12146600D02*
X14813600Y-12186600D01*
X14839000Y-7015800D02*
X14879000Y-7055800D01*
X14879000Y-7015800D02*
X14839000Y-7055800D01*
X14839000Y-7117400D02*
X14879000Y-7157400D01*
X14879000Y-7117400D02*
X14839000Y-7157400D01*
X14839000Y-7219000D02*
X14879000Y-7259000D01*
X14879000Y-7219000D02*
X14839000Y-7259000D01*
X14889800Y-7346000D02*
X14929800Y-7386000D01*
X14929800Y-7346000D02*
X14889800Y-7386000D01*
X14889800Y-7447600D02*
X14929800Y-7487600D01*
X14929800Y-7447600D02*
X14889800Y-7487600D01*
X14915200Y-11054400D02*
X14955200Y-11094400D01*
X14955200Y-11054400D02*
X14915200Y-11094400D01*
X14915200Y-11156000D02*
X14955200Y-11196000D01*
X14955200Y-11156000D02*
X14915200Y-11196000D01*
X14915200Y-11435400D02*
X14955200Y-11475400D01*
X14955200Y-11435400D02*
X14915200Y-11475400D01*
X14915200Y-11765600D02*
X14955200Y-11805600D01*
X14955200Y-11765600D02*
X14915200Y-11805600D01*
X14915200Y-12045000D02*
X14955200Y-12085000D01*
X14955200Y-12045000D02*
X14915200Y-12085000D01*
X14915200Y-12146600D02*
X14955200Y-12186600D01*
X14955200Y-12146600D02*
X14915200Y-12186600D01*
X14915200Y-14966000D02*
X14955200Y-15006000D01*
X14955200Y-14966000D02*
X14915200Y-15006000D01*
X14991400Y-7346000D02*
X15031400Y-7386000D01*
X15031400Y-7346000D02*
X14991400Y-7386000D01*
X14991400Y-7447600D02*
X15031400Y-7487600D01*
X15031400Y-7447600D02*
X14991400Y-7487600D01*
X15016800Y-11054400D02*
X15056800Y-11094400D01*
X15056800Y-11054400D02*
X15016800Y-11094400D01*
X15016800Y-11156000D02*
X15056800Y-11196000D01*
X15056800Y-11156000D02*
X15016800Y-11196000D01*
X15016800Y-11435400D02*
X15056800Y-11475400D01*
X15056800Y-11435400D02*
X15016800Y-11475400D01*
X15016800Y-11765600D02*
X15056800Y-11805600D01*
X15056800Y-11765600D02*
X15016800Y-11805600D01*
X15016800Y-12045000D02*
X15056800Y-12085000D01*
X15056800Y-12045000D02*
X15016800Y-12085000D01*
X15016800Y-12146600D02*
X15056800Y-12186600D01*
X15056800Y-12146600D02*
X15016800Y-12186600D01*
X15093000Y-7346000D02*
X15133000Y-7386000D01*
X15133000Y-7346000D02*
X15093000Y-7386000D01*
X15093000Y-7447600D02*
X15133000Y-7487600D01*
X15133000Y-7447600D02*
X15093000Y-7487600D01*
X15118400Y-11054400D02*
X15158400Y-11094400D01*
X15158400Y-11054400D02*
X15118400Y-11094400D01*
X15118400Y-11156000D02*
X15158400Y-11196000D01*
X15158400Y-11156000D02*
X15118400Y-11196000D01*
X15118400Y-11435400D02*
X15158400Y-11475400D01*
X15158400Y-11435400D02*
X15118400Y-11475400D01*
X15118400Y-11765600D02*
X15158400Y-11805600D01*
X15158400Y-11765600D02*
X15118400Y-11805600D01*
X15118400Y-12045000D02*
X15158400Y-12085000D01*
X15158400Y-12045000D02*
X15118400Y-12085000D01*
X15118400Y-12146600D02*
X15158400Y-12186600D01*
X15158400Y-12146600D02*
X15118400Y-12186600D01*
X15156500Y-8565200D02*
X15196500Y-8605200D01*
X15196500Y-8565200D02*
X15156500Y-8605200D01*
X15207300Y-7346000D02*
X15247300Y-7386000D01*
X15247300Y-7346000D02*
X15207300Y-7386000D01*
X15207300Y-7447600D02*
X15247300Y-7487600D01*
X15247300Y-7447600D02*
X15207300Y-7487600D01*
X15258100Y-6393500D02*
X15298100Y-6433500D01*
X15298100Y-6393500D02*
X15258100Y-6433500D01*
X15258100Y-6495100D02*
X15298100Y-6535100D01*
X15298100Y-6495100D02*
X15258100Y-6535100D01*
X15258100Y-6596700D02*
X15298100Y-6636700D01*
X15298100Y-6596700D02*
X15258100Y-6636700D01*
X15270800Y-7015800D02*
X15310800Y-7055800D01*
X15310800Y-7015800D02*
X15270800Y-7055800D01*
X15270800Y-7117400D02*
X15310800Y-7157400D01*
X15310800Y-7117400D02*
X15270800Y-7157400D01*
X15270800Y-7219000D02*
X15310800Y-7259000D01*
X15310800Y-7219000D02*
X15270800Y-7259000D01*
X15296200Y-11460800D02*
X15336200Y-11500800D01*
X15336200Y-11460800D02*
X15296200Y-11500800D01*
X15308900Y-7346000D02*
X15348900Y-7386000D01*
X15348900Y-7346000D02*
X15308900Y-7386000D01*
X15308900Y-7447600D02*
X15348900Y-7487600D01*
X15348900Y-7447600D02*
X15308900Y-7487600D01*
X15321600Y-9962200D02*
X15361600Y-10002200D01*
X15361600Y-9962200D02*
X15321600Y-10002200D01*
X15321600Y-10063800D02*
X15361600Y-10103800D01*
X15361600Y-10063800D02*
X15321600Y-10103800D01*
X15321600Y-11740200D02*
X15361600Y-11780200D01*
X15361600Y-11740200D02*
X15321600Y-11780200D01*
X15321600Y-12146600D02*
X15361600Y-12186600D01*
X15361600Y-12146600D02*
X15321600Y-12186600D01*
X15321600Y-13061000D02*
X15361600Y-13101000D01*
X15361600Y-13061000D02*
X15321600Y-13101000D01*
X15321600Y-13365800D02*
X15361600Y-13405800D01*
X15361600Y-13365800D02*
X15321600Y-13405800D01*
X15321600Y-14610400D02*
X15361600Y-14650400D01*
X15361600Y-14610400D02*
X15321600Y-14650400D01*
X15321600Y-14915200D02*
X15361600Y-14955200D01*
X15361600Y-14915200D02*
X15321600Y-14955200D01*
X15372400Y-8016450D02*
X15412400Y-8056450D01*
X15412400Y-8016450D02*
X15372400Y-8056450D01*
X15423200Y-7346000D02*
X15463200Y-7386000D01*
X15463200Y-7346000D02*
X15423200Y-7386000D01*
X15423200Y-7447600D02*
X15463200Y-7487600D01*
X15463200Y-7447600D02*
X15423200Y-7487600D01*
X15423200Y-8387400D02*
X15463200Y-8427400D01*
X15463200Y-8387400D02*
X15423200Y-8427400D01*
X15423200Y-9962200D02*
X15463200Y-10002200D01*
X15463200Y-9962200D02*
X15423200Y-10002200D01*
X15423200Y-10063800D02*
X15463200Y-10103800D01*
X15463200Y-10063800D02*
X15423200Y-10103800D01*
X15423200Y-10368600D02*
X15463200Y-10408600D01*
X15463200Y-10368600D02*
X15423200Y-10408600D01*
X15423200Y-10495600D02*
X15463200Y-10535600D01*
X15463200Y-10495600D02*
X15423200Y-10535600D01*
X15423200Y-12146600D02*
X15463200Y-12186600D01*
X15463200Y-12146600D02*
X15423200Y-12186600D01*
X15499400Y-11105200D02*
X15539400Y-11145200D01*
X15539400Y-11105200D02*
X15499400Y-11145200D01*
X15524800Y-7346000D02*
X15564800Y-7386000D01*
X15564800Y-7346000D02*
X15524800Y-7386000D01*
X15524800Y-7447600D02*
X15564800Y-7487600D01*
X15564800Y-7447600D02*
X15524800Y-7487600D01*
X15524800Y-12146600D02*
X15564800Y-12186600D01*
X15564800Y-12146600D02*
X15524800Y-12186600D01*
X15601000Y-10190800D02*
X15641000Y-10230800D01*
X15641000Y-10190800D02*
X15601000Y-10230800D01*
X15601000Y-10775000D02*
X15641000Y-10815000D01*
X15641000Y-10775000D02*
X15601000Y-10815000D01*
X15626400Y-12146600D02*
X15666400Y-12186600D01*
X15666400Y-12146600D02*
X15626400Y-12186600D01*
X15649911Y-13365555D02*
X15689911Y-13405555D01*
X15689911Y-13365555D02*
X15649911Y-13405555D01*
X15649911Y-14914955D02*
X15689911Y-14954955D01*
X15689911Y-14914955D02*
X15649911Y-14954955D01*
X15651800Y-13061000D02*
X15691800Y-13101000D01*
X15691800Y-13061000D02*
X15651800Y-13101000D01*
X15651800Y-14610400D02*
X15691800Y-14650400D01*
X15691800Y-14610400D02*
X15651800Y-14650400D01*
X15677200Y-10724200D02*
X15717200Y-10764200D01*
X15717200Y-10724200D02*
X15677200Y-10764200D01*
X15677200Y-11308400D02*
X15717200Y-11348400D01*
X15717200Y-11308400D02*
X15677200Y-11348400D01*
X15684164Y-10246242D02*
X15724164Y-10286242D01*
X15724164Y-10246242D02*
X15684164Y-10286242D01*
X15728000Y-11130600D02*
X15768000Y-11170600D01*
X15768000Y-11130600D02*
X15728000Y-11170600D01*
X15778800Y-6799900D02*
X15818800Y-6839900D01*
X15818800Y-6799900D02*
X15778800Y-6839900D01*
X15778800Y-7307900D02*
X15818800Y-7347900D01*
X15818800Y-7307900D02*
X15778800Y-7347900D01*
X15778800Y-9860600D02*
X15818800Y-9900600D01*
X15818800Y-9860600D02*
X15778800Y-9900600D01*
X15778800Y-9962200D02*
X15818800Y-10002200D01*
X15818800Y-9962200D02*
X15778800Y-10002200D01*
X15804200Y-10775000D02*
X15844200Y-10815000D01*
X15844200Y-10775000D02*
X15804200Y-10815000D01*
X15855000Y-11156000D02*
X15895000Y-11196000D01*
X15895000Y-11156000D02*
X15855000Y-11196000D01*
X15880400Y-9860600D02*
X15920400Y-9900600D01*
X15920400Y-9860600D02*
X15880400Y-9900600D01*
X15880400Y-9962200D02*
X15920400Y-10002200D01*
X15920400Y-9962200D02*
X15880400Y-10002200D01*
X15943900Y-14991400D02*
X15983900Y-15031400D01*
X15983900Y-14991400D02*
X15943900Y-15031400D01*
X16007400Y-6228400D02*
X16047400Y-6268400D01*
X16047400Y-6228400D02*
X16007400Y-6268400D01*
X16007400Y-6799900D02*
X16047400Y-6839900D01*
X16047400Y-6799900D02*
X16007400Y-6839900D01*
X16032800Y-7282500D02*
X16072800Y-7322500D01*
X16072800Y-7282500D02*
X16032800Y-7322500D01*
X16083600Y-7777800D02*
X16123600Y-7817800D01*
X16123600Y-7777800D02*
X16083600Y-7817800D01*
X16083600Y-8539800D02*
X16123600Y-8579800D01*
X16123600Y-8539800D02*
X16083600Y-8579800D01*
X16096300Y-6876100D02*
X16136300Y-6916100D01*
X16136300Y-6876100D02*
X16096300Y-6916100D01*
X16109000Y-7206300D02*
X16149000Y-7246300D01*
X16149000Y-7206300D02*
X16109000Y-7246300D01*
X16185200Y-7777800D02*
X16225200Y-7817800D01*
X16225200Y-7777800D02*
X16185200Y-7817800D01*
X16185200Y-8539800D02*
X16225200Y-8579800D01*
X16225200Y-8539800D02*
X16185200Y-8579800D01*
X16185200Y-10444800D02*
X16225200Y-10484800D01*
X16225200Y-10444800D02*
X16185200Y-10484800D01*
X16210600Y-10190800D02*
X16250600Y-10230800D01*
X16250600Y-10190800D02*
X16210600Y-10230800D01*
X16223300Y-13162600D02*
X16263300Y-13202600D01*
X16263300Y-13162600D02*
X16223300Y-13202600D01*
X16223300Y-13264200D02*
X16263300Y-13304200D01*
X16263300Y-13264200D02*
X16223300Y-13304200D01*
X16223300Y-14712000D02*
X16263300Y-14752000D01*
X16263300Y-14712000D02*
X16223300Y-14752000D01*
X16223300Y-14813600D02*
X16263300Y-14853600D01*
X16263300Y-14813600D02*
X16223300Y-14853600D01*
X16261400Y-11867200D02*
X16301400Y-11907200D01*
X16301400Y-11867200D02*
X16261400Y-11907200D01*
X16261400Y-11968800D02*
X16301400Y-12008800D01*
X16301400Y-11968800D02*
X16261400Y-12008800D01*
X16312200Y-11181400D02*
X16352200Y-11221400D01*
X16352200Y-11181400D02*
X16312200Y-11221400D01*
X16312200Y-11308400D02*
X16352200Y-11348400D01*
X16352200Y-11308400D02*
X16312200Y-11348400D01*
X16413800Y-10775000D02*
X16453800Y-10815000D01*
X16453800Y-10775000D02*
X16413800Y-10815000D01*
X16439200Y-10293260D02*
X16479200Y-10333260D01*
X16479200Y-10293260D02*
X16439200Y-10333260D01*
X16451900Y-12934000D02*
X16491900Y-12974000D01*
X16491900Y-12934000D02*
X16451900Y-12974000D01*
X16451900Y-14470700D02*
X16491900Y-14510700D01*
X16491900Y-14470700D02*
X16451900Y-14510700D01*
X16464600Y-13492800D02*
X16504600Y-13532800D01*
X16504600Y-13492800D02*
X16464600Y-13532800D01*
X16515400Y-10220810D02*
X16555400Y-10260810D01*
X16555400Y-10220810D02*
X16515400Y-10260810D01*
X16515400Y-10775000D02*
X16555400Y-10815000D01*
X16555400Y-10775000D02*
X16515400Y-10815000D01*
X16553500Y-12934000D02*
X16593500Y-12974000D01*
X16593500Y-12934000D02*
X16553500Y-12974000D01*
X16553500Y-14470700D02*
X16593500Y-14510700D01*
X16593500Y-14470700D02*
X16553500Y-14510700D01*
X16566200Y-13492800D02*
X16606200Y-13532800D01*
X16606200Y-13492800D02*
X16566200Y-13532800D01*
X16782100Y-13149900D02*
X16822100Y-13189900D01*
X16822100Y-13149900D02*
X16782100Y-13189900D01*
X16782100Y-13251500D02*
X16822100Y-13291500D01*
X16822100Y-13251500D02*
X16782100Y-13291500D01*
X16782100Y-14712000D02*
X16822100Y-14752000D01*
X16822100Y-14712000D02*
X16782100Y-14752000D01*
X16782100Y-14813600D02*
X16822100Y-14853600D01*
X16822100Y-14813600D02*
X16782100Y-14853600D01*
X16820200Y-9733600D02*
X16860200Y-9773600D01*
X16860200Y-9733600D02*
X16820200Y-9773600D01*
X16820200Y-9835200D02*
X16860200Y-9875200D01*
X16860200Y-9835200D02*
X16820200Y-9875200D01*
X16921800Y-8717600D02*
X16961800Y-8757600D01*
X16961800Y-8717600D02*
X16921800Y-8757600D01*
X16921800Y-8819200D02*
X16961800Y-8859200D01*
X16961800Y-8819200D02*
X16921800Y-8859200D01*
X16921800Y-9733600D02*
X16961800Y-9773600D01*
X16961800Y-9733600D02*
X16921800Y-9773600D01*
X16921800Y-9835200D02*
X16961800Y-9875200D01*
X16961800Y-9835200D02*
X16921800Y-9875200D01*
X16947200Y-7879400D02*
X16987200Y-7919400D01*
X16987200Y-7879400D02*
X16947200Y-7919400D01*
X16947200Y-10978200D02*
X16987200Y-11018200D01*
X16987200Y-10978200D02*
X16947200Y-11018200D01*
X16998000Y-10114600D02*
X17038000Y-10154600D01*
X17038000Y-10114600D02*
X16998000Y-10154600D01*
X17048800Y-11105200D02*
X17088800Y-11145200D01*
X17088800Y-11105200D02*
X17048800Y-11145200D01*
X17061500Y-14991400D02*
X17101500Y-15031400D01*
X17101500Y-14991400D02*
X17061500Y-15031400D01*
X17125000Y-6888800D02*
X17165000Y-6928800D01*
X17165000Y-6888800D02*
X17125000Y-6928800D01*
X17125000Y-6990400D02*
X17165000Y-7030400D01*
X17165000Y-6990400D02*
X17125000Y-7030400D01*
X17125000Y-7092000D02*
X17165000Y-7132000D01*
X17165000Y-7092000D02*
X17125000Y-7132000D01*
X17125000Y-7193600D02*
X17165000Y-7233600D01*
X17165000Y-7193600D02*
X17125000Y-7233600D01*
X17125000Y-10419400D02*
X17165000Y-10459400D01*
X17165000Y-10419400D02*
X17125000Y-10459400D01*
X17175800Y-8819200D02*
X17215800Y-8859200D01*
X17215800Y-8819200D02*
X17175800Y-8859200D01*
X17175800Y-9733600D02*
X17215800Y-9773600D01*
X17215800Y-9733600D02*
X17175800Y-9773600D01*
X17175800Y-11105200D02*
X17215800Y-11145200D01*
X17215800Y-11105200D02*
X17175800Y-11145200D01*
X17175800Y-11587800D02*
X17215800Y-11627800D01*
X17215800Y-11587800D02*
X17175800Y-11627800D01*
X17226600Y-5237800D02*
X17266600Y-5277800D01*
X17266600Y-5237800D02*
X17226600Y-5277800D01*
X17226600Y-6888800D02*
X17266600Y-6928800D01*
X17266600Y-6888800D02*
X17226600Y-6928800D01*
X17226600Y-6990400D02*
X17266600Y-7030400D01*
X17266600Y-6990400D02*
X17226600Y-7030400D01*
X17226600Y-7092000D02*
X17266600Y-7132000D01*
X17266600Y-7092000D02*
X17226600Y-7132000D01*
X17226600Y-7193600D02*
X17266600Y-7233600D01*
X17266600Y-7193600D02*
X17226600Y-7233600D01*
X17277400Y-7320600D02*
X17317400Y-7360600D01*
X17317400Y-7320600D02*
X17277400Y-7360600D01*
X17277400Y-7422200D02*
X17317400Y-7462200D01*
X17317400Y-7422200D02*
X17277400Y-7462200D01*
X17277400Y-8133400D02*
X17317400Y-8173400D01*
X17317400Y-8133400D02*
X17277400Y-8173400D01*
X17328200Y-10394000D02*
X17368200Y-10434000D01*
X17368200Y-10394000D02*
X17328200Y-10434000D01*
X17328200Y-10876600D02*
X17368200Y-10916600D01*
X17368200Y-10876600D02*
X17328200Y-10916600D01*
X17328200Y-10978200D02*
X17368200Y-11018200D01*
X17368200Y-10978200D02*
X17328200Y-11018200D01*
X17328200Y-12172000D02*
X17368200Y-12212000D01*
X17368200Y-12172000D02*
X17328200Y-12212000D01*
X17328200Y-12273600D02*
X17368200Y-12313600D01*
X17368200Y-12273600D02*
X17328200Y-12313600D01*
X17353600Y-5237800D02*
X17393600Y-5277800D01*
X17393600Y-5237800D02*
X17353600Y-5277800D01*
X17353600Y-13061000D02*
X17393600Y-13101000D01*
X17393600Y-13061000D02*
X17353600Y-13101000D01*
X17353600Y-13365800D02*
X17393600Y-13405800D01*
X17393600Y-13365800D02*
X17353600Y-13405800D01*
X17353600Y-14610400D02*
X17393600Y-14650400D01*
X17393600Y-14610400D02*
X17353600Y-14650400D01*
X17353600Y-14915200D02*
X17393600Y-14955200D01*
X17393600Y-14915200D02*
X17353600Y-14955200D01*
X17379000Y-6152200D02*
X17419000Y-6192200D01*
X17419000Y-6152200D02*
X17379000Y-6192200D01*
X17379000Y-7320600D02*
X17419000Y-7360600D01*
X17419000Y-7320600D02*
X17379000Y-7360600D01*
X17379000Y-7422200D02*
X17419000Y-7462200D01*
X17419000Y-7422200D02*
X17379000Y-7462200D01*
X17379000Y-8133400D02*
X17419000Y-8173400D01*
X17419000Y-8133400D02*
X17379000Y-8173400D01*
X17404400Y-8641400D02*
X17444400Y-8681400D01*
X17444400Y-8641400D02*
X17404400Y-8681400D01*
X17429800Y-10394000D02*
X17469800Y-10434000D01*
X17469800Y-10394000D02*
X17429800Y-10434000D01*
X17429800Y-11054400D02*
X17469800Y-11094400D01*
X17469800Y-11054400D02*
X17429800Y-11094400D01*
X17429800Y-11156000D02*
X17469800Y-11196000D01*
X17469800Y-11156000D02*
X17429800Y-11196000D01*
X17429800Y-11435400D02*
X17469800Y-11475400D01*
X17469800Y-11435400D02*
X17429800Y-11475400D01*
X17429800Y-11765600D02*
X17469800Y-11805600D01*
X17469800Y-11765600D02*
X17429800Y-11805600D01*
X17429800Y-12045000D02*
X17469800Y-12085000D01*
X17469800Y-12045000D02*
X17429800Y-12085000D01*
X17429800Y-12146600D02*
X17469800Y-12186600D01*
X17469800Y-12146600D02*
X17429800Y-12186600D01*
X17480600Y-7320600D02*
X17520600Y-7360600D01*
X17520600Y-7320600D02*
X17480600Y-7360600D01*
X17480600Y-7422200D02*
X17520600Y-7462200D01*
X17520600Y-7422200D02*
X17480600Y-7462200D01*
X17506000Y-6152200D02*
X17546000Y-6192200D01*
X17546000Y-6152200D02*
X17506000Y-6192200D01*
X17531400Y-11054400D02*
X17571400Y-11094400D01*
X17571400Y-11054400D02*
X17531400Y-11094400D01*
X17531400Y-11156000D02*
X17571400Y-11196000D01*
X17571400Y-11156000D02*
X17531400Y-11196000D01*
X17531400Y-11435400D02*
X17571400Y-11475400D01*
X17571400Y-11435400D02*
X17531400Y-11475400D01*
X17531400Y-11765600D02*
X17571400Y-11805600D01*
X17571400Y-11765600D02*
X17531400Y-11805600D01*
X17531400Y-12045000D02*
X17571400Y-12085000D01*
X17571400Y-12045000D02*
X17531400Y-12085000D01*
X17531400Y-12146600D02*
X17571400Y-12186600D01*
X17571400Y-12146600D02*
X17531400Y-12186600D01*
X17582200Y-7320600D02*
X17622200Y-7360600D01*
X17622200Y-7320600D02*
X17582200Y-7360600D01*
X17582200Y-7422200D02*
X17622200Y-7462200D01*
X17622200Y-7422200D02*
X17582200Y-7462200D01*
X17633000Y-11054400D02*
X17673000Y-11094400D01*
X17673000Y-11054400D02*
X17633000Y-11094400D01*
X17633000Y-11156000D02*
X17673000Y-11196000D01*
X17673000Y-11156000D02*
X17633000Y-11196000D01*
X17633000Y-11435400D02*
X17673000Y-11475400D01*
X17673000Y-11435400D02*
X17633000Y-11475400D01*
X17633000Y-11765600D02*
X17673000Y-11805600D01*
X17673000Y-11765600D02*
X17633000Y-11805600D01*
X17633000Y-12045000D02*
X17673000Y-12085000D01*
X17673000Y-12045000D02*
X17633000Y-12085000D01*
X17633000Y-12146600D02*
X17673000Y-12186600D01*
X17673000Y-12146600D02*
X17633000Y-12186600D01*
X17658400Y-7015800D02*
X17698400Y-7055800D01*
X17698400Y-7015800D02*
X17658400Y-7055800D01*
X17658400Y-7117400D02*
X17698400Y-7157400D01*
X17698400Y-7117400D02*
X17658400Y-7157400D01*
X17683800Y-13061000D02*
X17723800Y-13101000D01*
X17723800Y-13061000D02*
X17683800Y-13101000D01*
X17683800Y-13365800D02*
X17723800Y-13405800D01*
X17723800Y-13365800D02*
X17683800Y-13405800D01*
X17683800Y-14610400D02*
X17723800Y-14650400D01*
X17723800Y-14610400D02*
X17683800Y-14650400D01*
X17683800Y-14915200D02*
X17723800Y-14955200D01*
X17723800Y-14915200D02*
X17683800Y-14955200D01*
X17709200Y-7320600D02*
X17749200Y-7360600D01*
X17749200Y-7320600D02*
X17709200Y-7360600D01*
X17709200Y-7422200D02*
X17749200Y-7462200D01*
X17749200Y-7422200D02*
X17709200Y-7462200D01*
X17734600Y-11054400D02*
X17774600Y-11094400D01*
X17774600Y-11054400D02*
X17734600Y-11094400D01*
X17734600Y-11156000D02*
X17774600Y-11196000D01*
X17774600Y-11156000D02*
X17734600Y-11196000D01*
X17734600Y-11435400D02*
X17774600Y-11475400D01*
X17774600Y-11435400D02*
X17734600Y-11475400D01*
X17734600Y-11765600D02*
X17774600Y-11805600D01*
X17774600Y-11765600D02*
X17734600Y-11805600D01*
X17734600Y-12045000D02*
X17774600Y-12085000D01*
X17774600Y-12045000D02*
X17734600Y-12085000D01*
X17734600Y-12146600D02*
X17774600Y-12186600D01*
X17774600Y-12146600D02*
X17734600Y-12186600D01*
X17810800Y-6152200D02*
X17850800Y-6192200D01*
X17850800Y-6152200D02*
X17810800Y-6192200D01*
X17810800Y-7320600D02*
X17850800Y-7360600D01*
X17850800Y-7320600D02*
X17810800Y-7360600D01*
X17810800Y-7422200D02*
X17850800Y-7462200D01*
X17850800Y-7422200D02*
X17810800Y-7462200D01*
X17810800Y-11257600D02*
X17850800Y-11297600D01*
X17850800Y-11257600D02*
X17810800Y-11297600D01*
X17810800Y-11359200D02*
X17850800Y-11399200D01*
X17850800Y-11359200D02*
X17810800Y-11399200D01*
X17810800Y-11587800D02*
X17850800Y-11627800D01*
X17850800Y-11587800D02*
X17810800Y-11627800D01*
X17823500Y-11105200D02*
X17863500Y-11145200D01*
X17863500Y-11105200D02*
X17823500Y-11145200D01*
X17912400Y-7320600D02*
X17952400Y-7360600D01*
X17952400Y-7320600D02*
X17912400Y-7360600D01*
X17912400Y-7422200D02*
X17952400Y-7462200D01*
X17952400Y-7422200D02*
X17912400Y-7462200D01*
X17912400Y-11054400D02*
X17952400Y-11094400D01*
X17952400Y-11054400D02*
X17912400Y-11094400D01*
X17912400Y-11156000D02*
X17952400Y-11196000D01*
X17952400Y-11156000D02*
X17912400Y-11196000D01*
X17912400Y-11435400D02*
X17952400Y-11475400D01*
X17952400Y-11435400D02*
X17912400Y-11475400D01*
X17912400Y-11765600D02*
X17952400Y-11805600D01*
X17952400Y-11765600D02*
X17912400Y-11805600D01*
X17912400Y-12045000D02*
X17952400Y-12085000D01*
X17952400Y-12045000D02*
X17912400Y-12085000D01*
X17912400Y-12146600D02*
X17952400Y-12186600D01*
X17952400Y-12146600D02*
X17912400Y-12186600D01*
X17937800Y-6152200D02*
X17977800Y-6192200D01*
X17977800Y-6152200D02*
X17937800Y-6192200D01*
X18014000Y-7320600D02*
X18054000Y-7360600D01*
X18054000Y-7320600D02*
X18014000Y-7360600D01*
X18014000Y-7422200D02*
X18054000Y-7462200D01*
X18054000Y-7422200D02*
X18014000Y-7462200D01*
X18014000Y-11054400D02*
X18054000Y-11094400D01*
X18054000Y-11054400D02*
X18014000Y-11094400D01*
X18014000Y-11156000D02*
X18054000Y-11196000D01*
X18054000Y-11156000D02*
X18014000Y-11196000D01*
X18014000Y-11435400D02*
X18054000Y-11475400D01*
X18054000Y-11435400D02*
X18014000Y-11475400D01*
X18014000Y-11765600D02*
X18054000Y-11805600D01*
X18054000Y-11765600D02*
X18014000Y-11805600D01*
X18014000Y-12045000D02*
X18054000Y-12085000D01*
X18054000Y-12045000D02*
X18014000Y-12085000D01*
X18014000Y-12146600D02*
X18054000Y-12186600D01*
X18054000Y-12146600D02*
X18014000Y-12186600D01*
X18039400Y-14966000D02*
X18079400Y-15006000D01*
X18079400Y-14966000D02*
X18039400Y-15006000D01*
X18090200Y-7015800D02*
X18130200Y-7055800D01*
X18130200Y-7015800D02*
X18090200Y-7055800D01*
X18090200Y-7117400D02*
X18130200Y-7157400D01*
X18130200Y-7117400D02*
X18090200Y-7157400D01*
X18115600Y-11054400D02*
X18155600Y-11094400D01*
X18155600Y-11054400D02*
X18115600Y-11094400D01*
X18115600Y-11156000D02*
X18155600Y-11196000D01*
X18155600Y-11156000D02*
X18115600Y-11196000D01*
X18115600Y-11435400D02*
X18155600Y-11475400D01*
X18155600Y-11435400D02*
X18115600Y-11475400D01*
X18115600Y-11765600D02*
X18155600Y-11805600D01*
X18155600Y-11765600D02*
X18115600Y-11805600D01*
X18115600Y-12045000D02*
X18155600Y-12085000D01*
X18155600Y-12045000D02*
X18115600Y-12085000D01*
X18115600Y-12146600D02*
X18155600Y-12186600D01*
X18155600Y-12146600D02*
X18115600Y-12186600D01*
X18141000Y-7320600D02*
X18181000Y-7360600D01*
X18181000Y-7320600D02*
X18141000Y-7360600D01*
X18141000Y-7422200D02*
X18181000Y-7462200D01*
X18181000Y-7422200D02*
X18141000Y-7462200D01*
X18141000Y-7549200D02*
X18181000Y-7589200D01*
X18181000Y-7549200D02*
X18141000Y-7589200D01*
X18141000Y-7650800D02*
X18181000Y-7690800D01*
X18181000Y-7650800D02*
X18141000Y-7690800D01*
X18217200Y-11054400D02*
X18257200Y-11094400D01*
X18257200Y-11054400D02*
X18217200Y-11094400D01*
X18217200Y-11156000D02*
X18257200Y-11196000D01*
X18257200Y-11156000D02*
X18217200Y-11196000D01*
X18217200Y-11435400D02*
X18257200Y-11475400D01*
X18257200Y-11435400D02*
X18217200Y-11475400D01*
X18217200Y-11765600D02*
X18257200Y-11805600D01*
X18257200Y-11765600D02*
X18217200Y-11805600D01*
X18217200Y-12045000D02*
X18257200Y-12085000D01*
X18257200Y-12045000D02*
X18217200Y-12085000D01*
X18217200Y-12146600D02*
X18257200Y-12186600D01*
X18257200Y-12146600D02*
X18217200Y-12186600D01*
X18242600Y-6152200D02*
X18282600Y-6192200D01*
X18282600Y-6152200D02*
X18242600Y-6192200D01*
X18242600Y-7320600D02*
X18282600Y-7360600D01*
X18282600Y-7320600D02*
X18242600Y-7360600D01*
X18242600Y-7422200D02*
X18282600Y-7462200D01*
X18282600Y-7422200D02*
X18242600Y-7462200D01*
X18242600Y-7549200D02*
X18282600Y-7589200D01*
X18282600Y-7549200D02*
X18242600Y-7589200D01*
X18242600Y-7650800D02*
X18282600Y-7690800D01*
X18282600Y-7650800D02*
X18242600Y-7690800D01*
X18344200Y-7320600D02*
X18384200Y-7360600D01*
X18384200Y-7320600D02*
X18344200Y-7360600D01*
X18344200Y-7422200D02*
X18384200Y-7462200D01*
X18384200Y-7422200D02*
X18344200Y-7462200D01*
X18344200Y-7549200D02*
X18384200Y-7589200D01*
X18384200Y-7549200D02*
X18344200Y-7589200D01*
X18344200Y-7650800D02*
X18384200Y-7690800D01*
X18384200Y-7650800D02*
X18344200Y-7690800D01*
X18369600Y-6152200D02*
X18409600Y-6192200D01*
X18409600Y-6152200D02*
X18369600Y-6192200D01*
X18369600Y-13061000D02*
X18409600Y-13101000D01*
X18409600Y-13061000D02*
X18369600Y-13101000D01*
X18369600Y-13365800D02*
X18409600Y-13405800D01*
X18409600Y-13365800D02*
X18369600Y-13405800D01*
X18369600Y-14610400D02*
X18409600Y-14650400D01*
X18409600Y-14610400D02*
X18369600Y-14650400D01*
X18369600Y-14915200D02*
X18409600Y-14955200D01*
X18409600Y-14915200D02*
X18369600Y-14955200D01*
X18395000Y-11740200D02*
X18435000Y-11780200D01*
X18435000Y-11740200D02*
X18395000Y-11780200D01*
X18420400Y-11460800D02*
X18460400Y-11500800D01*
X18460400Y-11460800D02*
X18420400Y-11500800D01*
X18445800Y-7320600D02*
X18485800Y-7360600D01*
X18485800Y-7320600D02*
X18445800Y-7360600D01*
X18445800Y-7422200D02*
X18485800Y-7462200D01*
X18485800Y-7422200D02*
X18445800Y-7462200D01*
X18445800Y-7549200D02*
X18485800Y-7589200D01*
X18485800Y-7549200D02*
X18445800Y-7589200D01*
X18445800Y-7650800D02*
X18485800Y-7690800D01*
X18485800Y-7650800D02*
X18445800Y-7690800D01*
X18496600Y-7015800D02*
X18536600Y-7055800D01*
X18536600Y-7015800D02*
X18496600Y-7055800D01*
X18496600Y-7117400D02*
X18536600Y-7157400D01*
X18536600Y-7117400D02*
X18496600Y-7157400D01*
X18572800Y-7320600D02*
X18612800Y-7360600D01*
X18612800Y-7320600D02*
X18572800Y-7360600D01*
X18572800Y-7422200D02*
X18612800Y-7462200D01*
X18612800Y-7422200D02*
X18572800Y-7462200D01*
X18572800Y-7549200D02*
X18612800Y-7589200D01*
X18612800Y-7549200D02*
X18572800Y-7589200D01*
X18572800Y-7650800D02*
X18612800Y-7690800D01*
X18612800Y-7650800D02*
X18572800Y-7690800D01*
X18572800Y-12146600D02*
X18612800Y-12186600D01*
X18612800Y-12146600D02*
X18572800Y-12186600D01*
X18649000Y-10876600D02*
X18689000Y-10916600D01*
X18689000Y-10876600D02*
X18649000Y-10916600D01*
X18649000Y-10978200D02*
X18689000Y-11018200D01*
X18689000Y-10978200D02*
X18649000Y-11018200D01*
X18674400Y-6152200D02*
X18714400Y-6192200D01*
X18714400Y-6152200D02*
X18674400Y-6192200D01*
X18674400Y-7320600D02*
X18714400Y-7360600D01*
X18714400Y-7320600D02*
X18674400Y-7360600D01*
X18674400Y-7422200D02*
X18714400Y-7462200D01*
X18714400Y-7422200D02*
X18674400Y-7462200D01*
X18674400Y-7549200D02*
X18714400Y-7589200D01*
X18714400Y-7549200D02*
X18674400Y-7589200D01*
X18674400Y-7650800D02*
X18714400Y-7690800D01*
X18714400Y-7650800D02*
X18674400Y-7690800D01*
X18674400Y-12146600D02*
X18714400Y-12186600D01*
X18714400Y-12146600D02*
X18674400Y-12186600D01*
X18699800Y-13061000D02*
X18739800Y-13101000D01*
X18739800Y-13061000D02*
X18699800Y-13101000D01*
X18699800Y-13365800D02*
X18739800Y-13405800D01*
X18739800Y-13365800D02*
X18699800Y-13405800D01*
X18699800Y-14610400D02*
X18739800Y-14650400D01*
X18739800Y-14610400D02*
X18699800Y-14650400D01*
X18699800Y-14915200D02*
X18739800Y-14955200D01*
X18739800Y-14915200D02*
X18699800Y-14955200D01*
X18776000Y-7320600D02*
X18816000Y-7360600D01*
X18816000Y-7320600D02*
X18776000Y-7360600D01*
X18776000Y-7422200D02*
X18816000Y-7462200D01*
X18816000Y-7422200D02*
X18776000Y-7462200D01*
X18776000Y-7549200D02*
X18816000Y-7589200D01*
X18816000Y-7549200D02*
X18776000Y-7589200D01*
X18776000Y-7650800D02*
X18816000Y-7690800D01*
X18816000Y-7650800D02*
X18776000Y-7690800D01*
X18801400Y-6152200D02*
X18841400Y-6192200D01*
X18841400Y-6152200D02*
X18801400Y-6192200D01*
X18852200Y-12070400D02*
X18892200Y-12110400D01*
X18892200Y-12070400D02*
X18852200Y-12110400D01*
X18877600Y-7320600D02*
X18917600Y-7360600D01*
X18917600Y-7320600D02*
X18877600Y-7360600D01*
X18877600Y-7422200D02*
X18917600Y-7462200D01*
X18917600Y-7422200D02*
X18877600Y-7462200D01*
X18877600Y-7549200D02*
X18917600Y-7589200D01*
X18917600Y-7549200D02*
X18877600Y-7589200D01*
X18877600Y-7650800D02*
X18917600Y-7690800D01*
X18917600Y-7650800D02*
X18877600Y-7690800D01*
X18903000Y-10876600D02*
X18943000Y-10916600D01*
X18943000Y-10876600D02*
X18903000Y-10916600D01*
X18928400Y-7015800D02*
X18968400Y-7055800D01*
X18968400Y-7015800D02*
X18928400Y-7055800D01*
X18928400Y-7117400D02*
X18968400Y-7157400D01*
X18968400Y-7117400D02*
X18928400Y-7157400D01*
X18928400Y-10419400D02*
X18968400Y-10459400D01*
X18968400Y-10419400D02*
X18928400Y-10459400D01*
X18953800Y-6418900D02*
X18993800Y-6458900D01*
X18993800Y-6418900D02*
X18953800Y-6458900D01*
X18953800Y-6609400D02*
X18993800Y-6649400D01*
X18993800Y-6609400D02*
X18953800Y-6649400D01*
X19030000Y-10622600D02*
X19070000Y-10662600D01*
X19070000Y-10622600D02*
X19030000Y-10662600D01*
X19030000Y-11181400D02*
X19070000Y-11221400D01*
X19070000Y-11181400D02*
X19030000Y-11221400D01*
X19055400Y-5212400D02*
X19095400Y-5252400D01*
X19095400Y-5212400D02*
X19055400Y-5252400D01*
X19080800Y-6965000D02*
X19120800Y-7005000D01*
X19120800Y-6965000D02*
X19080800Y-7005000D01*
X19080800Y-7142800D02*
X19120800Y-7182800D01*
X19120800Y-7142800D02*
X19080800Y-7182800D01*
X19080800Y-7244400D02*
X19120800Y-7284400D01*
X19120800Y-7244400D02*
X19080800Y-7284400D01*
X19080800Y-7396800D02*
X19120800Y-7436800D01*
X19120800Y-7396800D02*
X19080800Y-7436800D01*
X19080800Y-7498400D02*
X19120800Y-7538400D01*
X19120800Y-7498400D02*
X19080800Y-7538400D01*
X19106200Y-10775000D02*
X19146200Y-10815000D01*
X19146200Y-10775000D02*
X19106200Y-10815000D01*
X19118900Y-10292400D02*
X19158900Y-10332400D01*
X19158900Y-10292400D02*
X19118900Y-10332400D01*
X19182400Y-5212400D02*
X19222400Y-5252400D01*
X19222400Y-5212400D02*
X19182400Y-5252400D01*
X19182400Y-6965000D02*
X19222400Y-7005000D01*
X19222400Y-6965000D02*
X19182400Y-7005000D01*
X19182400Y-7142800D02*
X19222400Y-7182800D01*
X19222400Y-7142800D02*
X19182400Y-7182800D01*
X19182400Y-7244400D02*
X19222400Y-7284400D01*
X19222400Y-7244400D02*
X19182400Y-7284400D01*
X19182400Y-7396800D02*
X19222400Y-7436800D01*
X19222400Y-7396800D02*
X19182400Y-7436800D01*
X19182400Y-7498400D02*
X19222400Y-7538400D01*
X19222400Y-7498400D02*
X19182400Y-7538400D01*
X19207800Y-14966000D02*
X19247800Y-15006000D01*
X19247800Y-14966000D02*
X19207800Y-15006000D01*
X19214150Y-10260650D02*
X19254150Y-10300650D01*
X19254150Y-10260650D02*
X19214150Y-10300650D01*
X19233200Y-12832400D02*
X19273200Y-12872400D01*
X19273200Y-12832400D02*
X19233200Y-12872400D01*
X19233200Y-12934000D02*
X19273200Y-12974000D01*
X19273200Y-12934000D02*
X19233200Y-12974000D01*
X19233200Y-13492800D02*
X19273200Y-13532800D01*
X19273200Y-13492800D02*
X19233200Y-13532800D01*
X19233200Y-13594400D02*
X19273200Y-13634400D01*
X19273200Y-13594400D02*
X19233200Y-13634400D01*
X19233200Y-14127800D02*
X19273200Y-14167800D01*
X19273200Y-14127800D02*
X19233200Y-14167800D01*
X19233200Y-14229400D02*
X19273200Y-14269400D01*
X19273200Y-14229400D02*
X19233200Y-14269400D01*
X19284000Y-10698800D02*
X19324000Y-10738800D01*
X19324000Y-10698800D02*
X19284000Y-10738800D01*
X19512600Y-9682800D02*
X19552600Y-9722800D01*
X19552600Y-9682800D02*
X19512600Y-9722800D01*
X19512600Y-9784400D02*
X19552600Y-9824400D01*
X19552600Y-9784400D02*
X19512600Y-9824400D01*
X19817400Y-5949000D02*
X19857400Y-5989000D01*
X19857400Y-5949000D02*
X19817400Y-5989000D01*
X19817400Y-6076000D02*
X19857400Y-6116000D01*
X19857400Y-6076000D02*
X19817400Y-6116000D01*
X19842800Y-7777800D02*
X19882800Y-7817800D01*
X19882800Y-7777800D02*
X19842800Y-7817800D01*
X19842800Y-7904800D02*
X19882800Y-7944800D01*
X19882800Y-7904800D02*
X19842800Y-7944800D01*
X19842800Y-9606600D02*
X19882800Y-9646600D01*
X19882800Y-9606600D02*
X19842800Y-9646600D01*
X19842800Y-9733600D02*
X19882800Y-9773600D01*
X19882800Y-9733600D02*
X19842800Y-9773600D01*
X19842800Y-11130600D02*
X19882800Y-11170600D01*
X19882800Y-11130600D02*
X19842800Y-11170600D01*
X19842800Y-11257600D02*
X19882800Y-11297600D01*
X19882800Y-11257600D02*
X19842800Y-11297600D01*
X19842800Y-12121200D02*
X19882800Y-12161200D01*
X19882800Y-12121200D02*
X19842800Y-12161200D01*
X19842800Y-12248200D02*
X19882800Y-12288200D01*
X19882800Y-12248200D02*
X19842800Y-12288200D01*
X19842800Y-13061000D02*
X19882800Y-13101000D01*
X19882800Y-13061000D02*
X19842800Y-13101000D01*
X19842800Y-13188000D02*
X19882800Y-13228000D01*
X19882800Y-13188000D02*
X19842800Y-13228000D01*
X19842800Y-13848400D02*
X19882800Y-13888400D01*
X19882800Y-13848400D02*
X19842800Y-13888400D01*
X19842800Y-13975400D02*
X19882800Y-14015400D01*
X19882800Y-13975400D02*
X19842800Y-14015400D01*
D13*
X10185000Y-5500000D02*
G75*
G03*
X10185000Y-5500000I-25000J0D01*
G01*
X10185000Y-14700000D02*
G75*
G03*
X10185000Y-14700000I-25000J0D01*
G01*
X10255294Y-5330294D02*
G75*
G03*
X10255294Y-5330294I-25000J0D01*
G01*
X10255294Y-5669706D02*
G75*
G03*
X10255294Y-5669706I-25000J0D01*
G01*
X10255294Y-14530294D02*
G75*
G03*
X10255294Y-14530294I-25000J0D01*
G01*
X10255294Y-14869706D02*
G75*
G03*
X10255294Y-14869706I-25000J0D01*
G01*
X10425000Y-5260000D02*
G75*
G03*
X10425000Y-5260000I-25000J0D01*
G01*
X10425000Y-5740000D02*
G75*
G03*
X10425000Y-5740000I-25000J0D01*
G01*
X10425000Y-14460000D02*
G75*
G03*
X10425000Y-14460000I-25000J0D01*
G01*
X10425000Y-14940000D02*
G75*
G03*
X10425000Y-14940000I-25000J0D01*
G01*
X10594706Y-5330294D02*
G75*
G03*
X10594706Y-5330294I-25000J0D01*
G01*
X10594706Y-5669706D02*
G75*
G03*
X10594706Y-5669706I-25000J0D01*
G01*
X10594706Y-14530294D02*
G75*
G03*
X10594706Y-14530294I-25000J0D01*
G01*
X10594706Y-14869706D02*
G75*
G03*
X10594706Y-14869706I-25000J0D01*
G01*
X10665000Y-5500000D02*
G75*
G03*
X10665000Y-5500000I-25000J0D01*
G01*
X10665000Y-14700000D02*
G75*
G03*
X10665000Y-14700000I-25000J0D01*
G01*
X19385000Y-5500000D02*
G75*
G03*
X19385000Y-5500000I-25000J0D01*
G01*
X19385000Y-14700000D02*
G75*
G03*
X19385000Y-14700000I-25000J0D01*
G01*
X19455294Y-5330294D02*
G75*
G03*
X19455294Y-5330294I-25000J0D01*
G01*
X19455294Y-5669706D02*
G75*
G03*
X19455294Y-5669706I-25000J0D01*
G01*
X19455294Y-14530294D02*
G75*
G03*
X19455294Y-14530294I-25000J0D01*
G01*
X19455294Y-14869706D02*
G75*
G03*
X19455294Y-14869706I-25000J0D01*
G01*
X19625000Y-5260000D02*
G75*
G03*
X19625000Y-5260000I-25000J0D01*
G01*
X19625000Y-5740000D02*
G75*
G03*
X19625000Y-5740000I-25000J0D01*
G01*
X19625000Y-14460000D02*
G75*
G03*
X19625000Y-14460000I-25000J0D01*
G01*
X19625000Y-14940000D02*
G75*
G03*
X19625000Y-14940000I-25000J0D01*
G01*
X19794706Y-5330294D02*
G75*
G03*
X19794706Y-5330294I-25000J0D01*
G01*
X19794706Y-5669706D02*
G75*
G03*
X19794706Y-5669706I-25000J0D01*
G01*
X19794706Y-14530294D02*
G75*
G03*
X19794706Y-14530294I-25000J0D01*
G01*
X19794706Y-14869706D02*
G75*
G03*
X19794706Y-14869706I-25000J0D01*
G01*
X19865000Y-5500000D02*
G75*
G03*
X19865000Y-5500000I-25000J0D01*
G01*
X19865000Y-14700000D02*
G75*
G03*
X19865000Y-14700000I-25000J0D01*
G01*
D10*
X10184000Y-8188000D02*
X10184000Y-8288000D01*
X10134000Y-8238000D02*
X10234000Y-8238000D01*
X10184000Y-9712000D02*
X10184000Y-9812000D01*
X10134000Y-9762000D02*
X10234000Y-9762000D01*
X10287000Y-6236000D02*
X10287000Y-6336000D01*
X10237000Y-6286000D02*
X10337000Y-6286000D01*
X10287000Y-6490000D02*
X10287000Y-6590000D01*
X10237000Y-6540000D02*
X10337000Y-6540000D01*
X10287000Y-6744000D02*
X10287000Y-6844000D01*
X10237000Y-6794000D02*
X10337000Y-6794000D01*
X10287000Y-6998000D02*
X10287000Y-7098000D01*
X10237000Y-7048000D02*
X10337000Y-7048000D01*
X10287000Y-7252000D02*
X10287000Y-7352000D01*
X10237000Y-7302000D02*
X10337000Y-7302000D01*
X10287000Y-7506000D02*
X10287000Y-7606000D01*
X10237000Y-7556000D02*
X10337000Y-7556000D01*
X10287000Y-7760000D02*
X10287000Y-7860000D01*
X10237000Y-7810000D02*
X10337000Y-7810000D01*
X10414000Y-10110000D02*
X10414000Y-10210000D01*
X10364000Y-10160000D02*
X10464000Y-10160000D01*
X10438000Y-8188000D02*
X10438000Y-8288000D01*
X10388000Y-8238000D02*
X10488000Y-8238000D01*
X10438000Y-9712000D02*
X10438000Y-9812000D01*
X10388000Y-9762000D02*
X10488000Y-9762000D01*
X10492700Y-12294400D02*
X10492700Y-12394400D01*
X10442700Y-12344400D02*
X10542700Y-12344400D01*
X10492700Y-12548400D02*
X10492700Y-12648400D01*
X10442700Y-12598400D02*
X10542700Y-12598400D01*
X10668000Y-10110000D02*
X10668000Y-10210000D01*
X10618000Y-10160000D02*
X10718000Y-10160000D01*
X10692000Y-8188000D02*
X10692000Y-8288000D01*
X10642000Y-8238000D02*
X10742000Y-8238000D01*
X10692000Y-9712000D02*
X10692000Y-9812000D01*
X10642000Y-9762000D02*
X10742000Y-9762000D01*
X10922000Y-10110000D02*
X10922000Y-10210000D01*
X10872000Y-10160000D02*
X10972000Y-10160000D01*
X10946000Y-8188000D02*
X10946000Y-8288000D01*
X10896000Y-8238000D02*
X10996000Y-8238000D01*
X10946000Y-9712000D02*
X10946000Y-9812000D01*
X10896000Y-9762000D02*
X10996000Y-9762000D01*
X11176000Y-10110000D02*
X11176000Y-10210000D01*
X11126000Y-10160000D02*
X11226000Y-10160000D01*
X11200000Y-8188000D02*
X11200000Y-8288000D01*
X11150000Y-8238000D02*
X11250000Y-8238000D01*
X11200000Y-9712000D02*
X11200000Y-9812000D01*
X11150000Y-9762000D02*
X11250000Y-9762000D01*
X11430000Y-10110000D02*
X11430000Y-10210000D01*
X11380000Y-10160000D02*
X11480000Y-10160000D01*
X11454000Y-8188000D02*
X11454000Y-8288000D01*
X11404000Y-8238000D02*
X11504000Y-8238000D01*
X11454000Y-9712000D02*
X11454000Y-9812000D01*
X11404000Y-9762000D02*
X11504000Y-9762000D01*
X11493500Y-11443500D02*
X11493500Y-11543500D01*
X11443500Y-11493500D02*
X11543500Y-11493500D01*
X11493500Y-11697500D02*
X11493500Y-11797500D01*
X11443500Y-11747500D02*
X11543500Y-11747500D01*
X11684000Y-10110000D02*
X11684000Y-10210000D01*
X11634000Y-10160000D02*
X11734000Y-10160000D01*
X11708000Y-8188000D02*
X11708000Y-8288000D01*
X11658000Y-8238000D02*
X11758000Y-8238000D01*
X11708000Y-9712000D02*
X11708000Y-9812000D01*
X11658000Y-9762000D02*
X11758000Y-9762000D01*
X11938000Y-10110000D02*
X11938000Y-10210000D01*
X11888000Y-10160000D02*
X11988000Y-10160000D01*
X11962000Y-8188000D02*
X11962000Y-8288000D01*
X11912000Y-8238000D02*
X12012000Y-8238000D01*
X11962000Y-9712000D02*
X11962000Y-9812000D01*
X11912000Y-9762000D02*
X12012000Y-9762000D01*
X12192000Y-10110000D02*
X12192000Y-10210000D01*
X12142000Y-10160000D02*
X12242000Y-10160000D01*
X12216000Y-8188000D02*
X12216000Y-8288000D01*
X12166000Y-8238000D02*
X12266000Y-8238000D01*
X12216000Y-8442000D02*
X12216000Y-8542000D01*
X12166000Y-8492000D02*
X12266000Y-8492000D01*
X12216000Y-8696000D02*
X12216000Y-8796000D01*
X12166000Y-8746000D02*
X12266000Y-8746000D01*
X12216000Y-8950000D02*
X12216000Y-9050000D01*
X12166000Y-9000000D02*
X12266000Y-9000000D01*
X12216000Y-9204000D02*
X12216000Y-9304000D01*
X12166000Y-9254000D02*
X12266000Y-9254000D01*
X12216000Y-9458000D02*
X12216000Y-9558000D01*
X12166000Y-9508000D02*
X12266000Y-9508000D01*
X12216000Y-9712000D02*
X12216000Y-9812000D01*
X12166000Y-9762000D02*
X12266000Y-9762000D01*
X12636500Y-8459000D02*
X12636500Y-8559000D01*
X12586500Y-8509000D02*
X12686500Y-8509000D01*
X12636500Y-8713000D02*
X12636500Y-8813000D01*
X12586500Y-8763000D02*
X12686500Y-8763000D01*
X12636500Y-8967000D02*
X12636500Y-9067000D01*
X12586500Y-9017000D02*
X12686500Y-9017000D01*
X12636500Y-9221000D02*
X12636500Y-9321000D01*
X12586500Y-9271000D02*
X12686500Y-9271000D01*
X12636500Y-9475000D02*
X12636500Y-9575000D01*
X12586500Y-9525000D02*
X12686500Y-9525000D01*
X13536200Y-7496300D02*
X13536200Y-7596300D01*
X13486200Y-7546300D02*
X13586200Y-7546300D01*
X13591500Y-11445500D02*
X13591500Y-11545500D01*
X13541500Y-11495500D02*
X13641500Y-11495500D01*
X13591500Y-11699500D02*
X13591500Y-11799500D01*
X13541500Y-11749500D02*
X13641500Y-11749500D01*
X13790200Y-7496300D02*
X13790200Y-7596300D01*
X13740200Y-7546300D02*
X13840200Y-7546300D01*
X14619000Y-8180000D02*
X14619000Y-8280000D01*
X14569000Y-8230000D02*
X14669000Y-8230000D01*
X14873000Y-8180000D02*
X14873000Y-8280000D01*
X14823000Y-8230000D02*
X14923000Y-8230000D01*
X15127000Y-8180000D02*
X15127000Y-8280000D01*
X15077000Y-8230000D02*
X15177000Y-8230000D01*
X15381000Y-8180000D02*
X15381000Y-8280000D01*
X15331000Y-8230000D02*
X15431000Y-8230000D01*
X15877500Y-11445500D02*
X15877500Y-11545500D01*
X15827500Y-11495500D02*
X15927500Y-11495500D01*
X15877500Y-11699500D02*
X15877500Y-11799500D01*
X15827500Y-11749500D02*
X15927500Y-11749500D01*
X16703000Y-11445500D02*
X16703000Y-11545500D01*
X16653000Y-11495500D02*
X16753000Y-11495500D01*
X16703000Y-11699500D02*
X16703000Y-11799500D01*
X16653000Y-11749500D02*
X16753000Y-11749500D01*
X18989000Y-11443500D02*
X18989000Y-11543500D01*
X18939000Y-11493500D02*
X19039000Y-11493500D01*
X18989000Y-11697500D02*
X18989000Y-11797500D01*
X18939000Y-11747500D02*
X19039000Y-11747500D01*
D14*
X17313891Y-8463891D02*
X17313891Y-8386109D01*
X17236109Y-8386109D01*
X17236109Y-8463891D01*
X17313891Y-8463891D01*
X17313891Y-9113891D02*
X17313891Y-9036109D01*
X17236109Y-9036109D01*
X17236109Y-9113891D01*
X17313891Y-9113891D01*
X17313891Y-9463891D02*
X17313891Y-9386109D01*
X17236109Y-9386109D01*
X17236109Y-9463891D01*
X17313891Y-9463891D01*
X17313891Y-10113891D02*
X17313891Y-10036109D01*
X17236109Y-10036109D01*
X17236109Y-10113891D01*
X17313891Y-10113891D01*
X17763891Y-8463891D02*
X17763891Y-8386109D01*
X17686109Y-8386109D01*
X17686109Y-8463891D01*
X17763891Y-8463891D01*
X17763891Y-9113891D02*
X17763891Y-9036109D01*
X17686109Y-9036109D01*
X17686109Y-9113891D01*
X17763891Y-9113891D01*
X17763891Y-9463891D02*
X17763891Y-9386109D01*
X17686109Y-9386109D01*
X17686109Y-9463891D01*
X17763891Y-9463891D01*
X17763891Y-10113891D02*
X17763891Y-10036109D01*
X17686109Y-10036109D01*
X17686109Y-10113891D01*
X17763891Y-10113891D01*
D15*
X11290000Y-6617500D02*
X11380000Y-6527500D01*
X11290000Y-6437500D01*
X11200000Y-6527500D01*
X11290000Y-6617500D01*
X11290000Y-7167500D02*
X11380000Y-7077500D01*
X11290000Y-6987500D01*
X11200000Y-7077500D01*
X11290000Y-7167500D01*
X11710000Y-6617500D02*
X11800000Y-6527500D01*
X11710000Y-6437500D01*
X11620000Y-6527500D01*
X11710000Y-6617500D01*
X11710000Y-7167500D02*
X11800000Y-7077500D01*
X11710000Y-6987500D01*
X11620000Y-7077500D01*
X11710000Y-7167500D01*
X12130000Y-6617500D02*
X12220000Y-6527500D01*
X12130000Y-6437500D01*
X12040000Y-6527500D01*
X12130000Y-6617500D01*
X12130000Y-7167500D02*
X12220000Y-7077500D01*
X12130000Y-6987500D01*
X12040000Y-7077500D01*
X12130000Y-7167500D01*
X12550000Y-6617500D02*
X12640000Y-6527500D01*
X12550000Y-6437500D01*
X12460000Y-6527500D01*
X12550000Y-6617500D01*
X12550000Y-7167500D02*
X12640000Y-7077500D01*
X12550000Y-6987500D01*
X12460000Y-7077500D01*
X12550000Y-7167500D01*
X12970000Y-6617500D02*
X13060000Y-6527500D01*
X12970000Y-6437500D01*
X12880000Y-6527500D01*
X12970000Y-6617500D01*
X12970000Y-7167500D02*
X13060000Y-7077500D01*
X12970000Y-6987500D01*
X12880000Y-7077500D01*
X12970000Y-7167500D01*
X13390000Y-6617500D02*
X13480000Y-6527500D01*
X13390000Y-6437500D01*
X13300000Y-6527500D01*
X13390000Y-6617500D01*
X13390000Y-7167500D02*
X13480000Y-7077500D01*
X13390000Y-6987500D01*
X13300000Y-7077500D01*
X13390000Y-7167500D01*
X13810000Y-6617500D02*
X13900000Y-6527500D01*
X13810000Y-6437500D01*
X13720000Y-6527500D01*
X13810000Y-6617500D01*
X13810000Y-7167500D02*
X13900000Y-7077500D01*
X13810000Y-6987500D01*
X13720000Y-7077500D01*
X13810000Y-7167500D01*
X14230000Y-6617500D02*
X14320000Y-6527500D01*
X14230000Y-6437500D01*
X14140000Y-6527500D01*
X14230000Y-6617500D01*
X14230000Y-7167500D02*
X14320000Y-7077500D01*
X14230000Y-6987500D01*
X14140000Y-7077500D01*
X14230000Y-7167500D01*
X14650000Y-6617500D02*
X14740000Y-6527500D01*
X14650000Y-6437500D01*
X14560000Y-6527500D01*
X14650000Y-6617500D01*
X14650000Y-7167500D02*
X14740000Y-7077500D01*
X14650000Y-6987500D01*
X14560000Y-7077500D01*
X14650000Y-7167500D01*
X15070000Y-6617500D02*
X15160000Y-6527500D01*
X15070000Y-6437500D01*
X14980000Y-6527500D01*
X15070000Y-6617500D01*
X15070000Y-7167500D02*
X15160000Y-7077500D01*
X15070000Y-6987500D01*
X14980000Y-7077500D01*
X15070000Y-7167500D01*
X15490000Y-6617500D02*
X15580000Y-6527500D01*
X15490000Y-6437500D01*
X15400000Y-6527500D01*
X15490000Y-6617500D01*
X15490000Y-7167500D02*
X15580000Y-7077500D01*
X15490000Y-6987500D01*
X15400000Y-7077500D01*
X15490000Y-7167500D01*
X15910000Y-6617500D02*
X16000000Y-6527500D01*
X15910000Y-6437500D01*
X15820000Y-6527500D01*
X15910000Y-6617500D01*
X15910000Y-7167500D02*
X16000000Y-7077500D01*
X15910000Y-6987500D01*
X15820000Y-7077500D01*
X15910000Y-7167500D01*
X17470000Y-6617500D02*
X17560000Y-6527500D01*
X17470000Y-6437500D01*
X17380000Y-6527500D01*
X17470000Y-6617500D01*
X17470000Y-7167500D02*
X17560000Y-7077500D01*
X17470000Y-6987500D01*
X17380000Y-7077500D01*
X17470000Y-7167500D01*
X17890000Y-6617500D02*
X17980000Y-6527500D01*
X17890000Y-6437500D01*
X17800000Y-6527500D01*
X17890000Y-6617500D01*
X17890000Y-7167500D02*
X17980000Y-7077500D01*
X17890000Y-6987500D01*
X17800000Y-7077500D01*
X17890000Y-7167500D01*
X18310000Y-6617500D02*
X18400000Y-6527500D01*
X18310000Y-6437500D01*
X18220000Y-6527500D01*
X18310000Y-6617500D01*
X18310000Y-7167500D02*
X18400000Y-7077500D01*
X18310000Y-6987500D01*
X18220000Y-7077500D01*
X18310000Y-7167500D01*
X18730000Y-6617500D02*
X18820000Y-6527500D01*
X18730000Y-6437500D01*
X18640000Y-6527500D01*
X18730000Y-6617500D01*
X18730000Y-7167500D02*
X18820000Y-7077500D01*
X18730000Y-6987500D01*
X18640000Y-7077500D01*
X18730000Y-7167500D01*
D16*
X11345500Y-13130100D02*
X11542500Y-13327100D01*
X11542500Y-13130100D02*
X11345500Y-13327100D01*
X11542500Y-13228600D02*
G75*
G03*
X11542500Y-13228600I-98500J0D01*
G01*
X11345500Y-14680100D02*
X11542500Y-14877100D01*
X11542500Y-14680100D02*
X11345500Y-14877100D01*
X11542500Y-14778600D02*
G75*
G03*
X11542500Y-14778600I-98500J0D01*
G01*
X12361500Y-13130100D02*
X12558500Y-13327100D01*
X12558500Y-13130100D02*
X12361500Y-13327100D01*
X12558500Y-13228600D02*
G75*
G03*
X12558500Y-13228600I-98500J0D01*
G01*
X12361500Y-14680100D02*
X12558500Y-14877100D01*
X12558500Y-14680100D02*
X12361500Y-14877100D01*
X12558500Y-14778600D02*
G75*
G03*
X12558500Y-14778600I-98500J0D01*
G01*
X13377500Y-13130100D02*
X13574500Y-13327100D01*
X13574500Y-13130100D02*
X13377500Y-13327100D01*
X13574500Y-13228600D02*
G75*
G03*
X13574500Y-13228600I-98500J0D01*
G01*
X13377500Y-14680100D02*
X13574500Y-14877100D01*
X13574500Y-14680100D02*
X13377500Y-14877100D01*
X13574500Y-14778600D02*
G75*
G03*
X13574500Y-14778600I-98500J0D01*
G01*
X14393500Y-13130100D02*
X14590500Y-13327100D01*
X14590500Y-13130100D02*
X14393500Y-13327100D01*
X14590500Y-13228600D02*
G75*
G03*
X14590500Y-13228600I-98500J0D01*
G01*
X14393500Y-14680100D02*
X14590500Y-14877100D01*
X14590500Y-14680100D02*
X14393500Y-14877100D01*
X14590500Y-14778600D02*
G75*
G03*
X14590500Y-14778600I-98500J0D01*
G01*
X15409500Y-13130100D02*
X15606500Y-13327100D01*
X15606500Y-13130100D02*
X15409500Y-13327100D01*
X15606500Y-13228600D02*
G75*
G03*
X15606500Y-13228600I-98500J0D01*
G01*
X15409500Y-14680100D02*
X15606500Y-14877100D01*
X15606500Y-14680100D02*
X15409500Y-14877100D01*
X15606500Y-14778600D02*
G75*
G03*
X15606500Y-14778600I-98500J0D01*
G01*
X16425500Y-13130100D02*
X16622500Y-13327100D01*
X16622500Y-13130100D02*
X16425500Y-13327100D01*
X16622500Y-13228600D02*
G75*
G03*
X16622500Y-13228600I-98500J0D01*
G01*
X16425500Y-14680100D02*
X16622500Y-14877100D01*
X16622500Y-14680100D02*
X16425500Y-14877100D01*
X16622500Y-14778600D02*
G75*
G03*
X16622500Y-14778600I-98500J0D01*
G01*
X17441500Y-13130100D02*
X17638500Y-13327100D01*
X17638500Y-13130100D02*
X17441500Y-13327100D01*
X17638500Y-13228600D02*
G75*
G03*
X17638500Y-13228600I-98500J0D01*
G01*
X17441500Y-14680100D02*
X17638500Y-14877100D01*
X17638500Y-14680100D02*
X17441500Y-14877100D01*
X17638500Y-14778600D02*
G75*
G03*
X17638500Y-14778600I-98500J0D01*
G01*
X18457500Y-13130100D02*
X18654500Y-13327100D01*
X18654500Y-13130100D02*
X18457500Y-13327100D01*
X18654500Y-13228600D02*
G75*
G03*
X18654500Y-13228600I-98500J0D01*
G01*
X18457500Y-14680100D02*
X18654500Y-14877100D01*
X18654500Y-14680100D02*
X18457500Y-14877100D01*
X18654500Y-14778600D02*
G75*
G03*
X18654500Y-14778600I-98500J0D01*
G01*
D17*
X10240000Y-5340000D02*
X10560000Y-5660000D01*
X10560000Y-5340000D02*
X10240000Y-5660000D01*
X10400000Y-5340000D02*
X10400000Y-5660000D01*
X10240000Y-5500000D02*
X10560000Y-5500000D01*
X10240000Y-14540000D02*
X10560000Y-14860000D01*
X10560000Y-14540000D02*
X10240000Y-14860000D01*
X10400000Y-14540000D02*
X10400000Y-14860000D01*
X10240000Y-14700000D02*
X10560000Y-14700000D01*
X19440000Y-5340000D02*
X19760000Y-5660000D01*
X19760000Y-5340000D02*
X19440000Y-5660000D01*
X19600000Y-5340000D02*
X19600000Y-5660000D01*
X19440000Y-5500000D02*
X19760000Y-5500000D01*
X19440000Y-14540000D02*
X19760000Y-14860000D01*
X19760000Y-14540000D02*
X19440000Y-14860000D01*
X19600000Y-14540000D02*
X19600000Y-14860000D01*
X19440000Y-14700000D02*
X19760000Y-14700000D01*
D11*
X10242619Y-15398476D02*
X10242619Y-15198476D01*
X10242619Y-15198476D02*
X10290238Y-15198476D01*
X10290238Y-15198476D02*
X10318810Y-15208000D01*
X10318810Y-15208000D02*
X10337857Y-15227048D01*
X10337857Y-15227048D02*
X10347381Y-15246095D01*
X10347381Y-15246095D02*
X10356905Y-15284190D01*
X10356905Y-15284190D02*
X10356905Y-15312762D01*
X10356905Y-15312762D02*
X10347381Y-15350857D01*
X10347381Y-15350857D02*
X10337857Y-15369905D01*
X10337857Y-15369905D02*
X10318810Y-15388952D01*
X10318810Y-15388952D02*
X10290238Y-15398476D01*
X10290238Y-15398476D02*
X10242619Y-15398476D01*
X10442619Y-15398476D02*
X10442619Y-15265143D01*
X10442619Y-15303238D02*
X10452143Y-15284190D01*
X10452143Y-15284190D02*
X10461667Y-15274667D01*
X10461667Y-15274667D02*
X10480714Y-15265143D01*
X10480714Y-15265143D02*
X10499762Y-15265143D01*
X10566429Y-15398476D02*
X10566429Y-15265143D01*
X10566429Y-15198476D02*
X10556905Y-15208000D01*
X10556905Y-15208000D02*
X10566429Y-15217524D01*
X10566429Y-15217524D02*
X10575952Y-15208000D01*
X10575952Y-15208000D02*
X10566429Y-15198476D01*
X10566429Y-15198476D02*
X10566429Y-15217524D01*
X10690238Y-15398476D02*
X10671190Y-15388952D01*
X10671190Y-15388952D02*
X10661667Y-15369905D01*
X10661667Y-15369905D02*
X10661667Y-15198476D01*
X10795000Y-15398476D02*
X10775952Y-15388952D01*
X10775952Y-15388952D02*
X10766429Y-15369905D01*
X10766429Y-15369905D02*
X10766429Y-15198476D01*
X10991190Y-15398476D02*
X10991190Y-15198476D01*
X10991190Y-15198476D02*
X11057857Y-15341333D01*
X11057857Y-15341333D02*
X11124524Y-15198476D01*
X11124524Y-15198476D02*
X11124524Y-15398476D01*
X11305476Y-15398476D02*
X11305476Y-15293714D01*
X11305476Y-15293714D02*
X11295952Y-15274667D01*
X11295952Y-15274667D02*
X11276905Y-15265143D01*
X11276905Y-15265143D02*
X11238809Y-15265143D01*
X11238809Y-15265143D02*
X11219762Y-15274667D01*
X11305476Y-15388952D02*
X11286428Y-15398476D01*
X11286428Y-15398476D02*
X11238809Y-15398476D01*
X11238809Y-15398476D02*
X11219762Y-15388952D01*
X11219762Y-15388952D02*
X11210238Y-15369905D01*
X11210238Y-15369905D02*
X11210238Y-15350857D01*
X11210238Y-15350857D02*
X11219762Y-15331809D01*
X11219762Y-15331809D02*
X11238809Y-15322286D01*
X11238809Y-15322286D02*
X11286428Y-15322286D01*
X11286428Y-15322286D02*
X11305476Y-15312762D01*
X11400714Y-15265143D02*
X11400714Y-15465143D01*
X11400714Y-15274667D02*
X11419762Y-15265143D01*
X11419762Y-15265143D02*
X11457857Y-15265143D01*
X11457857Y-15265143D02*
X11476905Y-15274667D01*
X11476905Y-15274667D02*
X11486428Y-15284190D01*
X11486428Y-15284190D02*
X11495952Y-15303238D01*
X11495952Y-15303238D02*
X11495952Y-15360381D01*
X11495952Y-15360381D02*
X11486428Y-15379428D01*
X11486428Y-15379428D02*
X11476905Y-15388952D01*
X11476905Y-15388952D02*
X11457857Y-15398476D01*
X11457857Y-15398476D02*
X11419762Y-15398476D01*
X11419762Y-15398476D02*
X11400714Y-15388952D01*
X11581667Y-15379428D02*
X11591190Y-15388952D01*
X11591190Y-15388952D02*
X11581667Y-15398476D01*
X11581667Y-15398476D02*
X11572143Y-15388952D01*
X11572143Y-15388952D02*
X11581667Y-15379428D01*
X11581667Y-15379428D02*
X11581667Y-15398476D01*
X11581667Y-15274667D02*
X11591190Y-15284190D01*
X11591190Y-15284190D02*
X11581667Y-15293714D01*
X11581667Y-15293714D02*
X11572143Y-15284190D01*
X11572143Y-15284190D02*
X11581667Y-15274667D01*
X11581667Y-15274667D02*
X11581667Y-15293714D01*
D12*
X9955000Y-15725000D02*
X9995000Y-15765000D01*
X9995000Y-15725000D02*
X9955000Y-15765000D01*
D11*
X10280714Y-15618476D02*
X10299762Y-15618476D01*
X10299762Y-15618476D02*
X10318810Y-15628000D01*
X10318810Y-15628000D02*
X10328333Y-15637524D01*
X10328333Y-15637524D02*
X10337857Y-15656571D01*
X10337857Y-15656571D02*
X10347381Y-15694667D01*
X10347381Y-15694667D02*
X10347381Y-15742286D01*
X10347381Y-15742286D02*
X10337857Y-15780381D01*
X10337857Y-15780381D02*
X10328333Y-15799428D01*
X10328333Y-15799428D02*
X10318810Y-15808952D01*
X10318810Y-15808952D02*
X10299762Y-15818476D01*
X10299762Y-15818476D02*
X10280714Y-15818476D01*
X10280714Y-15818476D02*
X10261667Y-15808952D01*
X10261667Y-15808952D02*
X10252143Y-15799428D01*
X10252143Y-15799428D02*
X10242619Y-15780381D01*
X10242619Y-15780381D02*
X10233095Y-15742286D01*
X10233095Y-15742286D02*
X10233095Y-15694667D01*
X10233095Y-15694667D02*
X10242619Y-15656571D01*
X10242619Y-15656571D02*
X10252143Y-15637524D01*
X10252143Y-15637524D02*
X10261667Y-15628000D01*
X10261667Y-15628000D02*
X10280714Y-15618476D01*
X10433095Y-15799428D02*
X10442619Y-15808952D01*
X10442619Y-15808952D02*
X10433095Y-15818476D01*
X10433095Y-15818476D02*
X10423571Y-15808952D01*
X10423571Y-15808952D02*
X10433095Y-15799428D01*
X10433095Y-15799428D02*
X10433095Y-15818476D01*
X10614048Y-15685143D02*
X10614048Y-15818476D01*
X10566429Y-15608952D02*
X10518810Y-15751809D01*
X10518810Y-15751809D02*
X10642619Y-15751809D01*
X10756905Y-15618476D02*
X10775952Y-15618476D01*
X10775952Y-15618476D02*
X10795000Y-15628000D01*
X10795000Y-15628000D02*
X10804524Y-15637524D01*
X10804524Y-15637524D02*
X10814048Y-15656571D01*
X10814048Y-15656571D02*
X10823571Y-15694667D01*
X10823571Y-15694667D02*
X10823571Y-15742286D01*
X10823571Y-15742286D02*
X10814048Y-15780381D01*
X10814048Y-15780381D02*
X10804524Y-15799428D01*
X10804524Y-15799428D02*
X10795000Y-15808952D01*
X10795000Y-15808952D02*
X10775952Y-15818476D01*
X10775952Y-15818476D02*
X10756905Y-15818476D01*
X10756905Y-15818476D02*
X10737857Y-15808952D01*
X10737857Y-15808952D02*
X10728333Y-15799428D01*
X10728333Y-15799428D02*
X10718810Y-15780381D01*
X10718810Y-15780381D02*
X10709286Y-15742286D01*
X10709286Y-15742286D02*
X10709286Y-15694667D01*
X10709286Y-15694667D02*
X10718810Y-15656571D01*
X10718810Y-15656571D02*
X10728333Y-15637524D01*
X10728333Y-15637524D02*
X10737857Y-15628000D01*
X10737857Y-15628000D02*
X10756905Y-15618476D01*
X10947381Y-15618476D02*
X10966429Y-15618476D01*
X10966429Y-15618476D02*
X10985476Y-15628000D01*
X10985476Y-15628000D02*
X10995000Y-15637524D01*
X10995000Y-15637524D02*
X11004524Y-15656571D01*
X11004524Y-15656571D02*
X11014048Y-15694667D01*
X11014048Y-15694667D02*
X11014048Y-15742286D01*
X11014048Y-15742286D02*
X11004524Y-15780381D01*
X11004524Y-15780381D02*
X10995000Y-15799428D01*
X10995000Y-15799428D02*
X10985476Y-15808952D01*
X10985476Y-15808952D02*
X10966429Y-15818476D01*
X10966429Y-15818476D02*
X10947381Y-15818476D01*
X10947381Y-15818476D02*
X10928333Y-15808952D01*
X10928333Y-15808952D02*
X10918810Y-15799428D01*
X10918810Y-15799428D02*
X10909286Y-15780381D01*
X10909286Y-15780381D02*
X10899762Y-15742286D01*
X10899762Y-15742286D02*
X10899762Y-15694667D01*
X10899762Y-15694667D02*
X10909286Y-15656571D01*
X10909286Y-15656571D02*
X10918810Y-15637524D01*
X10918810Y-15637524D02*
X10928333Y-15628000D01*
X10928333Y-15628000D02*
X10947381Y-15618476D01*
X11099762Y-15818476D02*
X11099762Y-15685143D01*
X11099762Y-15704190D02*
X11109286Y-15694667D01*
X11109286Y-15694667D02*
X11128333Y-15685143D01*
X11128333Y-15685143D02*
X11156905Y-15685143D01*
X11156905Y-15685143D02*
X11175952Y-15694667D01*
X11175952Y-15694667D02*
X11185476Y-15713714D01*
X11185476Y-15713714D02*
X11185476Y-15818476D01*
X11185476Y-15713714D02*
X11195000Y-15694667D01*
X11195000Y-15694667D02*
X11214048Y-15685143D01*
X11214048Y-15685143D02*
X11242619Y-15685143D01*
X11242619Y-15685143D02*
X11261667Y-15694667D01*
X11261667Y-15694667D02*
X11271190Y-15713714D01*
X11271190Y-15713714D02*
X11271190Y-15818476D01*
X11366429Y-15818476D02*
X11366429Y-15685143D01*
X11366429Y-15704190D02*
X11375952Y-15694667D01*
X11375952Y-15694667D02*
X11395000Y-15685143D01*
X11395000Y-15685143D02*
X11423571Y-15685143D01*
X11423571Y-15685143D02*
X11442619Y-15694667D01*
X11442619Y-15694667D02*
X11452143Y-15713714D01*
X11452143Y-15713714D02*
X11452143Y-15818476D01*
X11452143Y-15713714D02*
X11461667Y-15694667D01*
X11461667Y-15694667D02*
X11480714Y-15685143D01*
X11480714Y-15685143D02*
X11509286Y-15685143D01*
X11509286Y-15685143D02*
X11528333Y-15694667D01*
X11528333Y-15694667D02*
X11537857Y-15713714D01*
X11537857Y-15713714D02*
X11537857Y-15818476D01*
X11895952Y-15608952D02*
X11724524Y-15866095D01*
X12120714Y-15618476D02*
X12139762Y-15618476D01*
X12139762Y-15618476D02*
X12158810Y-15628000D01*
X12158810Y-15628000D02*
X12168333Y-15637524D01*
X12168333Y-15637524D02*
X12177857Y-15656571D01*
X12177857Y-15656571D02*
X12187381Y-15694667D01*
X12187381Y-15694667D02*
X12187381Y-15742286D01*
X12187381Y-15742286D02*
X12177857Y-15780381D01*
X12177857Y-15780381D02*
X12168333Y-15799428D01*
X12168333Y-15799428D02*
X12158810Y-15808952D01*
X12158810Y-15808952D02*
X12139762Y-15818476D01*
X12139762Y-15818476D02*
X12120714Y-15818476D01*
X12120714Y-15818476D02*
X12101667Y-15808952D01*
X12101667Y-15808952D02*
X12092143Y-15799428D01*
X12092143Y-15799428D02*
X12082619Y-15780381D01*
X12082619Y-15780381D02*
X12073095Y-15742286D01*
X12073095Y-15742286D02*
X12073095Y-15694667D01*
X12073095Y-15694667D02*
X12082619Y-15656571D01*
X12082619Y-15656571D02*
X12092143Y-15637524D01*
X12092143Y-15637524D02*
X12101667Y-15628000D01*
X12101667Y-15628000D02*
X12120714Y-15618476D01*
X12273095Y-15799428D02*
X12282619Y-15808952D01*
X12282619Y-15808952D02*
X12273095Y-15818476D01*
X12273095Y-15818476D02*
X12263571Y-15808952D01*
X12263571Y-15808952D02*
X12273095Y-15799428D01*
X12273095Y-15799428D02*
X12273095Y-15818476D01*
X12406429Y-15618476D02*
X12425476Y-15618476D01*
X12425476Y-15618476D02*
X12444524Y-15628000D01*
X12444524Y-15628000D02*
X12454048Y-15637524D01*
X12454048Y-15637524D02*
X12463571Y-15656571D01*
X12463571Y-15656571D02*
X12473095Y-15694667D01*
X12473095Y-15694667D02*
X12473095Y-15742286D01*
X12473095Y-15742286D02*
X12463571Y-15780381D01*
X12463571Y-15780381D02*
X12454048Y-15799428D01*
X12454048Y-15799428D02*
X12444524Y-15808952D01*
X12444524Y-15808952D02*
X12425476Y-15818476D01*
X12425476Y-15818476D02*
X12406429Y-15818476D01*
X12406429Y-15818476D02*
X12387381Y-15808952D01*
X12387381Y-15808952D02*
X12377857Y-15799428D01*
X12377857Y-15799428D02*
X12368333Y-15780381D01*
X12368333Y-15780381D02*
X12358810Y-15742286D01*
X12358810Y-15742286D02*
X12358810Y-15694667D01*
X12358810Y-15694667D02*
X12368333Y-15656571D01*
X12368333Y-15656571D02*
X12377857Y-15637524D01*
X12377857Y-15637524D02*
X12387381Y-15628000D01*
X12387381Y-15628000D02*
X12406429Y-15618476D01*
X12663571Y-15818476D02*
X12549286Y-15818476D01*
X12606429Y-15818476D02*
X12606429Y-15618476D01*
X12606429Y-15618476D02*
X12587381Y-15647048D01*
X12587381Y-15647048D02*
X12568333Y-15666095D01*
X12568333Y-15666095D02*
X12549286Y-15675619D01*
X12844524Y-15618476D02*
X12749286Y-15618476D01*
X12749286Y-15618476D02*
X12739762Y-15713714D01*
X12739762Y-15713714D02*
X12749286Y-15704190D01*
X12749286Y-15704190D02*
X12768333Y-15694667D01*
X12768333Y-15694667D02*
X12815952Y-15694667D01*
X12815952Y-15694667D02*
X12835000Y-15704190D01*
X12835000Y-15704190D02*
X12844524Y-15713714D01*
X12844524Y-15713714D02*
X12854048Y-15732762D01*
X12854048Y-15732762D02*
X12854048Y-15780381D01*
X12854048Y-15780381D02*
X12844524Y-15799428D01*
X12844524Y-15799428D02*
X12835000Y-15808952D01*
X12835000Y-15808952D02*
X12815952Y-15818476D01*
X12815952Y-15818476D02*
X12768333Y-15818476D01*
X12768333Y-15818476D02*
X12749286Y-15808952D01*
X12749286Y-15808952D02*
X12739762Y-15799428D01*
X12920714Y-15618476D02*
X13054048Y-15618476D01*
X13054048Y-15618476D02*
X12968333Y-15818476D01*
X13120714Y-15618476D02*
X13120714Y-15656571D01*
X13196905Y-15618476D02*
X13196905Y-15656571D01*
X13459762Y-15894667D02*
X13450238Y-15885143D01*
X13450238Y-15885143D02*
X13431191Y-15856571D01*
X13431191Y-15856571D02*
X13421667Y-15837524D01*
X13421667Y-15837524D02*
X13412143Y-15808952D01*
X13412143Y-15808952D02*
X13402619Y-15761333D01*
X13402619Y-15761333D02*
X13402619Y-15723238D01*
X13402619Y-15723238D02*
X13412143Y-15675619D01*
X13412143Y-15675619D02*
X13421667Y-15647048D01*
X13421667Y-15647048D02*
X13431191Y-15628000D01*
X13431191Y-15628000D02*
X13450238Y-15599428D01*
X13450238Y-15599428D02*
X13459762Y-15589905D01*
X13621667Y-15618476D02*
X13583571Y-15618476D01*
X13583571Y-15618476D02*
X13564524Y-15628000D01*
X13564524Y-15628000D02*
X13555000Y-15637524D01*
X13555000Y-15637524D02*
X13535952Y-15666095D01*
X13535952Y-15666095D02*
X13526429Y-15704190D01*
X13526429Y-15704190D02*
X13526429Y-15780381D01*
X13526429Y-15780381D02*
X13535952Y-15799428D01*
X13535952Y-15799428D02*
X13545476Y-15808952D01*
X13545476Y-15808952D02*
X13564524Y-15818476D01*
X13564524Y-15818476D02*
X13602619Y-15818476D01*
X13602619Y-15818476D02*
X13621667Y-15808952D01*
X13621667Y-15808952D02*
X13631191Y-15799428D01*
X13631191Y-15799428D02*
X13640714Y-15780381D01*
X13640714Y-15780381D02*
X13640714Y-15732762D01*
X13640714Y-15732762D02*
X13631191Y-15713714D01*
X13631191Y-15713714D02*
X13621667Y-15704190D01*
X13621667Y-15704190D02*
X13602619Y-15694667D01*
X13602619Y-15694667D02*
X13564524Y-15694667D01*
X13564524Y-15694667D02*
X13545476Y-15704190D01*
X13545476Y-15704190D02*
X13535952Y-15713714D01*
X13535952Y-15713714D02*
X13526429Y-15732762D01*
X13707381Y-15618476D02*
X13831191Y-15618476D01*
X13831191Y-15618476D02*
X13764524Y-15694667D01*
X13764524Y-15694667D02*
X13793095Y-15694667D01*
X13793095Y-15694667D02*
X13812143Y-15704190D01*
X13812143Y-15704190D02*
X13821667Y-15713714D01*
X13821667Y-15713714D02*
X13831191Y-15732762D01*
X13831191Y-15732762D02*
X13831191Y-15780381D01*
X13831191Y-15780381D02*
X13821667Y-15799428D01*
X13821667Y-15799428D02*
X13812143Y-15808952D01*
X13812143Y-15808952D02*
X13793095Y-15818476D01*
X13793095Y-15818476D02*
X13735952Y-15818476D01*
X13735952Y-15818476D02*
X13716905Y-15808952D01*
X13716905Y-15808952D02*
X13707381Y-15799428D01*
X13945476Y-15704190D02*
X13926429Y-15694667D01*
X13926429Y-15694667D02*
X13916905Y-15685143D01*
X13916905Y-15685143D02*
X13907381Y-15666095D01*
X13907381Y-15666095D02*
X13907381Y-15656571D01*
X13907381Y-15656571D02*
X13916905Y-15637524D01*
X13916905Y-15637524D02*
X13926429Y-15628000D01*
X13926429Y-15628000D02*
X13945476Y-15618476D01*
X13945476Y-15618476D02*
X13983572Y-15618476D01*
X13983572Y-15618476D02*
X14002619Y-15628000D01*
X14002619Y-15628000D02*
X14012143Y-15637524D01*
X14012143Y-15637524D02*
X14021667Y-15656571D01*
X14021667Y-15656571D02*
X14021667Y-15666095D01*
X14021667Y-15666095D02*
X14012143Y-15685143D01*
X14012143Y-15685143D02*
X14002619Y-15694667D01*
X14002619Y-15694667D02*
X13983572Y-15704190D01*
X13983572Y-15704190D02*
X13945476Y-15704190D01*
X13945476Y-15704190D02*
X13926429Y-15713714D01*
X13926429Y-15713714D02*
X13916905Y-15723238D01*
X13916905Y-15723238D02*
X13907381Y-15742286D01*
X13907381Y-15742286D02*
X13907381Y-15780381D01*
X13907381Y-15780381D02*
X13916905Y-15799428D01*
X13916905Y-15799428D02*
X13926429Y-15808952D01*
X13926429Y-15808952D02*
X13945476Y-15818476D01*
X13945476Y-15818476D02*
X13983572Y-15818476D01*
X13983572Y-15818476D02*
X14002619Y-15808952D01*
X14002619Y-15808952D02*
X14012143Y-15799428D01*
X14012143Y-15799428D02*
X14021667Y-15780381D01*
X14021667Y-15780381D02*
X14021667Y-15742286D01*
X14021667Y-15742286D02*
X14012143Y-15723238D01*
X14012143Y-15723238D02*
X14002619Y-15713714D01*
X14002619Y-15713714D02*
X13983572Y-15704190D01*
X14227381Y-15818476D02*
X14227381Y-15618476D01*
X14313095Y-15818476D02*
X14313095Y-15713714D01*
X14313095Y-15713714D02*
X14303572Y-15694667D01*
X14303572Y-15694667D02*
X14284524Y-15685143D01*
X14284524Y-15685143D02*
X14255952Y-15685143D01*
X14255952Y-15685143D02*
X14236905Y-15694667D01*
X14236905Y-15694667D02*
X14227381Y-15704190D01*
X14436905Y-15818476D02*
X14417857Y-15808952D01*
X14417857Y-15808952D02*
X14408333Y-15799428D01*
X14408333Y-15799428D02*
X14398810Y-15780381D01*
X14398810Y-15780381D02*
X14398810Y-15723238D01*
X14398810Y-15723238D02*
X14408333Y-15704190D01*
X14408333Y-15704190D02*
X14417857Y-15694667D01*
X14417857Y-15694667D02*
X14436905Y-15685143D01*
X14436905Y-15685143D02*
X14465476Y-15685143D01*
X14465476Y-15685143D02*
X14484524Y-15694667D01*
X14484524Y-15694667D02*
X14494048Y-15704190D01*
X14494048Y-15704190D02*
X14503572Y-15723238D01*
X14503572Y-15723238D02*
X14503572Y-15780381D01*
X14503572Y-15780381D02*
X14494048Y-15799428D01*
X14494048Y-15799428D02*
X14484524Y-15808952D01*
X14484524Y-15808952D02*
X14465476Y-15818476D01*
X14465476Y-15818476D02*
X14436905Y-15818476D01*
X14617857Y-15818476D02*
X14598810Y-15808952D01*
X14598810Y-15808952D02*
X14589286Y-15789905D01*
X14589286Y-15789905D02*
X14589286Y-15618476D01*
X14770238Y-15808952D02*
X14751191Y-15818476D01*
X14751191Y-15818476D02*
X14713095Y-15818476D01*
X14713095Y-15818476D02*
X14694048Y-15808952D01*
X14694048Y-15808952D02*
X14684524Y-15789905D01*
X14684524Y-15789905D02*
X14684524Y-15713714D01*
X14684524Y-15713714D02*
X14694048Y-15694667D01*
X14694048Y-15694667D02*
X14713095Y-15685143D01*
X14713095Y-15685143D02*
X14751191Y-15685143D01*
X14751191Y-15685143D02*
X14770238Y-15694667D01*
X14770238Y-15694667D02*
X14779762Y-15713714D01*
X14779762Y-15713714D02*
X14779762Y-15732762D01*
X14779762Y-15732762D02*
X14684524Y-15751809D01*
X14855953Y-15808952D02*
X14875000Y-15818476D01*
X14875000Y-15818476D02*
X14913095Y-15818476D01*
X14913095Y-15818476D02*
X14932143Y-15808952D01*
X14932143Y-15808952D02*
X14941667Y-15789905D01*
X14941667Y-15789905D02*
X14941667Y-15780381D01*
X14941667Y-15780381D02*
X14932143Y-15761333D01*
X14932143Y-15761333D02*
X14913095Y-15751809D01*
X14913095Y-15751809D02*
X14884524Y-15751809D01*
X14884524Y-15751809D02*
X14865476Y-15742286D01*
X14865476Y-15742286D02*
X14855953Y-15723238D01*
X14855953Y-15723238D02*
X14855953Y-15713714D01*
X14855953Y-15713714D02*
X14865476Y-15694667D01*
X14865476Y-15694667D02*
X14884524Y-15685143D01*
X14884524Y-15685143D02*
X14913095Y-15685143D01*
X14913095Y-15685143D02*
X14932143Y-15694667D01*
X15008334Y-15894667D02*
X15017857Y-15885143D01*
X15017857Y-15885143D02*
X15036905Y-15856571D01*
X15036905Y-15856571D02*
X15046429Y-15837524D01*
X15046429Y-15837524D02*
X15055953Y-15808952D01*
X15055953Y-15808952D02*
X15065476Y-15761333D01*
X15065476Y-15761333D02*
X15065476Y-15723238D01*
X15065476Y-15723238D02*
X15055953Y-15675619D01*
X15055953Y-15675619D02*
X15046429Y-15647048D01*
X15046429Y-15647048D02*
X15036905Y-15628000D01*
X15036905Y-15628000D02*
X15017857Y-15599428D01*
X15017857Y-15599428D02*
X15008334Y-15589905D01*
D13*
X9995000Y-16009000D02*
G75*
G03*
X9995000Y-16009000I-25000J0D01*
G01*
D11*
X10280714Y-15882476D02*
X10299762Y-15882476D01*
X10299762Y-15882476D02*
X10318810Y-15892000D01*
X10318810Y-15892000D02*
X10328333Y-15901524D01*
X10328333Y-15901524D02*
X10337857Y-15920571D01*
X10337857Y-15920571D02*
X10347381Y-15958667D01*
X10347381Y-15958667D02*
X10347381Y-16006286D01*
X10347381Y-16006286D02*
X10337857Y-16044381D01*
X10337857Y-16044381D02*
X10328333Y-16063428D01*
X10328333Y-16063428D02*
X10318810Y-16072952D01*
X10318810Y-16072952D02*
X10299762Y-16082476D01*
X10299762Y-16082476D02*
X10280714Y-16082476D01*
X10280714Y-16082476D02*
X10261667Y-16072952D01*
X10261667Y-16072952D02*
X10252143Y-16063428D01*
X10252143Y-16063428D02*
X10242619Y-16044381D01*
X10242619Y-16044381D02*
X10233095Y-16006286D01*
X10233095Y-16006286D02*
X10233095Y-15958667D01*
X10233095Y-15958667D02*
X10242619Y-15920571D01*
X10242619Y-15920571D02*
X10252143Y-15901524D01*
X10252143Y-15901524D02*
X10261667Y-15892000D01*
X10261667Y-15892000D02*
X10280714Y-15882476D01*
X10433095Y-16063428D02*
X10442619Y-16072952D01*
X10442619Y-16072952D02*
X10433095Y-16082476D01*
X10433095Y-16082476D02*
X10423571Y-16072952D01*
X10423571Y-16072952D02*
X10433095Y-16063428D01*
X10433095Y-16063428D02*
X10433095Y-16082476D01*
X10623571Y-15882476D02*
X10528333Y-15882476D01*
X10528333Y-15882476D02*
X10518810Y-15977714D01*
X10518810Y-15977714D02*
X10528333Y-15968190D01*
X10528333Y-15968190D02*
X10547381Y-15958667D01*
X10547381Y-15958667D02*
X10595000Y-15958667D01*
X10595000Y-15958667D02*
X10614048Y-15968190D01*
X10614048Y-15968190D02*
X10623571Y-15977714D01*
X10623571Y-15977714D02*
X10633095Y-15996762D01*
X10633095Y-15996762D02*
X10633095Y-16044381D01*
X10633095Y-16044381D02*
X10623571Y-16063428D01*
X10623571Y-16063428D02*
X10614048Y-16072952D01*
X10614048Y-16072952D02*
X10595000Y-16082476D01*
X10595000Y-16082476D02*
X10547381Y-16082476D01*
X10547381Y-16082476D02*
X10528333Y-16072952D01*
X10528333Y-16072952D02*
X10518810Y-16063428D01*
X10756905Y-15882476D02*
X10775952Y-15882476D01*
X10775952Y-15882476D02*
X10795000Y-15892000D01*
X10795000Y-15892000D02*
X10804524Y-15901524D01*
X10804524Y-15901524D02*
X10814048Y-15920571D01*
X10814048Y-15920571D02*
X10823571Y-15958667D01*
X10823571Y-15958667D02*
X10823571Y-16006286D01*
X10823571Y-16006286D02*
X10814048Y-16044381D01*
X10814048Y-16044381D02*
X10804524Y-16063428D01*
X10804524Y-16063428D02*
X10795000Y-16072952D01*
X10795000Y-16072952D02*
X10775952Y-16082476D01*
X10775952Y-16082476D02*
X10756905Y-16082476D01*
X10756905Y-16082476D02*
X10737857Y-16072952D01*
X10737857Y-16072952D02*
X10728333Y-16063428D01*
X10728333Y-16063428D02*
X10718810Y-16044381D01*
X10718810Y-16044381D02*
X10709286Y-16006286D01*
X10709286Y-16006286D02*
X10709286Y-15958667D01*
X10709286Y-15958667D02*
X10718810Y-15920571D01*
X10718810Y-15920571D02*
X10728333Y-15901524D01*
X10728333Y-15901524D02*
X10737857Y-15892000D01*
X10737857Y-15892000D02*
X10756905Y-15882476D01*
X10947381Y-15882476D02*
X10966429Y-15882476D01*
X10966429Y-15882476D02*
X10985476Y-15892000D01*
X10985476Y-15892000D02*
X10995000Y-15901524D01*
X10995000Y-15901524D02*
X11004524Y-15920571D01*
X11004524Y-15920571D02*
X11014048Y-15958667D01*
X11014048Y-15958667D02*
X11014048Y-16006286D01*
X11014048Y-16006286D02*
X11004524Y-16044381D01*
X11004524Y-16044381D02*
X10995000Y-16063428D01*
X10995000Y-16063428D02*
X10985476Y-16072952D01*
X10985476Y-16072952D02*
X10966429Y-16082476D01*
X10966429Y-16082476D02*
X10947381Y-16082476D01*
X10947381Y-16082476D02*
X10928333Y-16072952D01*
X10928333Y-16072952D02*
X10918810Y-16063428D01*
X10918810Y-16063428D02*
X10909286Y-16044381D01*
X10909286Y-16044381D02*
X10899762Y-16006286D01*
X10899762Y-16006286D02*
X10899762Y-15958667D01*
X10899762Y-15958667D02*
X10909286Y-15920571D01*
X10909286Y-15920571D02*
X10918810Y-15901524D01*
X10918810Y-15901524D02*
X10928333Y-15892000D01*
X10928333Y-15892000D02*
X10947381Y-15882476D01*
X11099762Y-16082476D02*
X11099762Y-15949143D01*
X11099762Y-15968190D02*
X11109286Y-15958667D01*
X11109286Y-15958667D02*
X11128333Y-15949143D01*
X11128333Y-15949143D02*
X11156905Y-15949143D01*
X11156905Y-15949143D02*
X11175952Y-15958667D01*
X11175952Y-15958667D02*
X11185476Y-15977714D01*
X11185476Y-15977714D02*
X11185476Y-16082476D01*
X11185476Y-15977714D02*
X11195000Y-15958667D01*
X11195000Y-15958667D02*
X11214048Y-15949143D01*
X11214048Y-15949143D02*
X11242619Y-15949143D01*
X11242619Y-15949143D02*
X11261667Y-15958667D01*
X11261667Y-15958667D02*
X11271190Y-15977714D01*
X11271190Y-15977714D02*
X11271190Y-16082476D01*
X11366429Y-16082476D02*
X11366429Y-15949143D01*
X11366429Y-15968190D02*
X11375952Y-15958667D01*
X11375952Y-15958667D02*
X11395000Y-15949143D01*
X11395000Y-15949143D02*
X11423571Y-15949143D01*
X11423571Y-15949143D02*
X11442619Y-15958667D01*
X11442619Y-15958667D02*
X11452143Y-15977714D01*
X11452143Y-15977714D02*
X11452143Y-16082476D01*
X11452143Y-15977714D02*
X11461667Y-15958667D01*
X11461667Y-15958667D02*
X11480714Y-15949143D01*
X11480714Y-15949143D02*
X11509286Y-15949143D01*
X11509286Y-15949143D02*
X11528333Y-15958667D01*
X11528333Y-15958667D02*
X11537857Y-15977714D01*
X11537857Y-15977714D02*
X11537857Y-16082476D01*
X11895952Y-15872952D02*
X11724524Y-16130095D01*
X12120714Y-15882476D02*
X12139762Y-15882476D01*
X12139762Y-15882476D02*
X12158810Y-15892000D01*
X12158810Y-15892000D02*
X12168333Y-15901524D01*
X12168333Y-15901524D02*
X12177857Y-15920571D01*
X12177857Y-15920571D02*
X12187381Y-15958667D01*
X12187381Y-15958667D02*
X12187381Y-16006286D01*
X12187381Y-16006286D02*
X12177857Y-16044381D01*
X12177857Y-16044381D02*
X12168333Y-16063428D01*
X12168333Y-16063428D02*
X12158810Y-16072952D01*
X12158810Y-16072952D02*
X12139762Y-16082476D01*
X12139762Y-16082476D02*
X12120714Y-16082476D01*
X12120714Y-16082476D02*
X12101667Y-16072952D01*
X12101667Y-16072952D02*
X12092143Y-16063428D01*
X12092143Y-16063428D02*
X12082619Y-16044381D01*
X12082619Y-16044381D02*
X12073095Y-16006286D01*
X12073095Y-16006286D02*
X12073095Y-15958667D01*
X12073095Y-15958667D02*
X12082619Y-15920571D01*
X12082619Y-15920571D02*
X12092143Y-15901524D01*
X12092143Y-15901524D02*
X12101667Y-15892000D01*
X12101667Y-15892000D02*
X12120714Y-15882476D01*
X12273095Y-16063428D02*
X12282619Y-16072952D01*
X12282619Y-16072952D02*
X12273095Y-16082476D01*
X12273095Y-16082476D02*
X12263571Y-16072952D01*
X12263571Y-16072952D02*
X12273095Y-16063428D01*
X12273095Y-16063428D02*
X12273095Y-16082476D01*
X12406429Y-15882476D02*
X12425476Y-15882476D01*
X12425476Y-15882476D02*
X12444524Y-15892000D01*
X12444524Y-15892000D02*
X12454048Y-15901524D01*
X12454048Y-15901524D02*
X12463571Y-15920571D01*
X12463571Y-15920571D02*
X12473095Y-15958667D01*
X12473095Y-15958667D02*
X12473095Y-16006286D01*
X12473095Y-16006286D02*
X12463571Y-16044381D01*
X12463571Y-16044381D02*
X12454048Y-16063428D01*
X12454048Y-16063428D02*
X12444524Y-16072952D01*
X12444524Y-16072952D02*
X12425476Y-16082476D01*
X12425476Y-16082476D02*
X12406429Y-16082476D01*
X12406429Y-16082476D02*
X12387381Y-16072952D01*
X12387381Y-16072952D02*
X12377857Y-16063428D01*
X12377857Y-16063428D02*
X12368333Y-16044381D01*
X12368333Y-16044381D02*
X12358810Y-16006286D01*
X12358810Y-16006286D02*
X12358810Y-15958667D01*
X12358810Y-15958667D02*
X12368333Y-15920571D01*
X12368333Y-15920571D02*
X12377857Y-15901524D01*
X12377857Y-15901524D02*
X12387381Y-15892000D01*
X12387381Y-15892000D02*
X12406429Y-15882476D01*
X12663571Y-16082476D02*
X12549286Y-16082476D01*
X12606429Y-16082476D02*
X12606429Y-15882476D01*
X12606429Y-15882476D02*
X12587381Y-15911048D01*
X12587381Y-15911048D02*
X12568333Y-15930095D01*
X12568333Y-15930095D02*
X12549286Y-15939619D01*
X12758810Y-16082476D02*
X12796905Y-16082476D01*
X12796905Y-16082476D02*
X12815952Y-16072952D01*
X12815952Y-16072952D02*
X12825476Y-16063428D01*
X12825476Y-16063428D02*
X12844524Y-16034857D01*
X12844524Y-16034857D02*
X12854048Y-15996762D01*
X12854048Y-15996762D02*
X12854048Y-15920571D01*
X12854048Y-15920571D02*
X12844524Y-15901524D01*
X12844524Y-15901524D02*
X12835000Y-15892000D01*
X12835000Y-15892000D02*
X12815952Y-15882476D01*
X12815952Y-15882476D02*
X12777857Y-15882476D01*
X12777857Y-15882476D02*
X12758810Y-15892000D01*
X12758810Y-15892000D02*
X12749286Y-15901524D01*
X12749286Y-15901524D02*
X12739762Y-15920571D01*
X12739762Y-15920571D02*
X12739762Y-15968190D01*
X12739762Y-15968190D02*
X12749286Y-15987238D01*
X12749286Y-15987238D02*
X12758810Y-15996762D01*
X12758810Y-15996762D02*
X12777857Y-16006286D01*
X12777857Y-16006286D02*
X12815952Y-16006286D01*
X12815952Y-16006286D02*
X12835000Y-15996762D01*
X12835000Y-15996762D02*
X12844524Y-15987238D01*
X12844524Y-15987238D02*
X12854048Y-15968190D01*
X12920714Y-15882476D02*
X13054048Y-15882476D01*
X13054048Y-15882476D02*
X12968333Y-16082476D01*
X13120714Y-15882476D02*
X13120714Y-15920571D01*
X13196905Y-15882476D02*
X13196905Y-15920571D01*
X13459762Y-16158667D02*
X13450238Y-16149143D01*
X13450238Y-16149143D02*
X13431191Y-16120571D01*
X13431191Y-16120571D02*
X13421667Y-16101524D01*
X13421667Y-16101524D02*
X13412143Y-16072952D01*
X13412143Y-16072952D02*
X13402619Y-16025333D01*
X13402619Y-16025333D02*
X13402619Y-15987238D01*
X13402619Y-15987238D02*
X13412143Y-15939619D01*
X13412143Y-15939619D02*
X13421667Y-15911048D01*
X13421667Y-15911048D02*
X13431191Y-15892000D01*
X13431191Y-15892000D02*
X13450238Y-15863428D01*
X13450238Y-15863428D02*
X13459762Y-15853905D01*
X13516905Y-15882476D02*
X13640714Y-15882476D01*
X13640714Y-15882476D02*
X13574048Y-15958667D01*
X13574048Y-15958667D02*
X13602619Y-15958667D01*
X13602619Y-15958667D02*
X13621667Y-15968190D01*
X13621667Y-15968190D02*
X13631191Y-15977714D01*
X13631191Y-15977714D02*
X13640714Y-15996762D01*
X13640714Y-15996762D02*
X13640714Y-16044381D01*
X13640714Y-16044381D02*
X13631191Y-16063428D01*
X13631191Y-16063428D02*
X13621667Y-16072952D01*
X13621667Y-16072952D02*
X13602619Y-16082476D01*
X13602619Y-16082476D02*
X13545476Y-16082476D01*
X13545476Y-16082476D02*
X13526429Y-16072952D01*
X13526429Y-16072952D02*
X13516905Y-16063428D01*
X13716905Y-15901524D02*
X13726429Y-15892000D01*
X13726429Y-15892000D02*
X13745476Y-15882476D01*
X13745476Y-15882476D02*
X13793095Y-15882476D01*
X13793095Y-15882476D02*
X13812143Y-15892000D01*
X13812143Y-15892000D02*
X13821667Y-15901524D01*
X13821667Y-15901524D02*
X13831191Y-15920571D01*
X13831191Y-15920571D02*
X13831191Y-15939619D01*
X13831191Y-15939619D02*
X13821667Y-15968190D01*
X13821667Y-15968190D02*
X13707381Y-16082476D01*
X13707381Y-16082476D02*
X13831191Y-16082476D01*
X14036905Y-16082476D02*
X14036905Y-15882476D01*
X14122619Y-16082476D02*
X14122619Y-15977714D01*
X14122619Y-15977714D02*
X14113095Y-15958667D01*
X14113095Y-15958667D02*
X14094048Y-15949143D01*
X14094048Y-15949143D02*
X14065476Y-15949143D01*
X14065476Y-15949143D02*
X14046429Y-15958667D01*
X14046429Y-15958667D02*
X14036905Y-15968190D01*
X14246429Y-16082476D02*
X14227381Y-16072952D01*
X14227381Y-16072952D02*
X14217857Y-16063428D01*
X14217857Y-16063428D02*
X14208333Y-16044381D01*
X14208333Y-16044381D02*
X14208333Y-15987238D01*
X14208333Y-15987238D02*
X14217857Y-15968190D01*
X14217857Y-15968190D02*
X14227381Y-15958667D01*
X14227381Y-15958667D02*
X14246429Y-15949143D01*
X14246429Y-15949143D02*
X14275000Y-15949143D01*
X14275000Y-15949143D02*
X14294048Y-15958667D01*
X14294048Y-15958667D02*
X14303572Y-15968190D01*
X14303572Y-15968190D02*
X14313095Y-15987238D01*
X14313095Y-15987238D02*
X14313095Y-16044381D01*
X14313095Y-16044381D02*
X14303572Y-16063428D01*
X14303572Y-16063428D02*
X14294048Y-16072952D01*
X14294048Y-16072952D02*
X14275000Y-16082476D01*
X14275000Y-16082476D02*
X14246429Y-16082476D01*
X14427381Y-16082476D02*
X14408333Y-16072952D01*
X14408333Y-16072952D02*
X14398810Y-16053905D01*
X14398810Y-16053905D02*
X14398810Y-15882476D01*
X14579762Y-16072952D02*
X14560714Y-16082476D01*
X14560714Y-16082476D02*
X14522619Y-16082476D01*
X14522619Y-16082476D02*
X14503572Y-16072952D01*
X14503572Y-16072952D02*
X14494048Y-16053905D01*
X14494048Y-16053905D02*
X14494048Y-15977714D01*
X14494048Y-15977714D02*
X14503572Y-15958667D01*
X14503572Y-15958667D02*
X14522619Y-15949143D01*
X14522619Y-15949143D02*
X14560714Y-15949143D01*
X14560714Y-15949143D02*
X14579762Y-15958667D01*
X14579762Y-15958667D02*
X14589286Y-15977714D01*
X14589286Y-15977714D02*
X14589286Y-15996762D01*
X14589286Y-15996762D02*
X14494048Y-16015809D01*
X14665476Y-16072952D02*
X14684524Y-16082476D01*
X14684524Y-16082476D02*
X14722619Y-16082476D01*
X14722619Y-16082476D02*
X14741667Y-16072952D01*
X14741667Y-16072952D02*
X14751191Y-16053905D01*
X14751191Y-16053905D02*
X14751191Y-16044381D01*
X14751191Y-16044381D02*
X14741667Y-16025333D01*
X14741667Y-16025333D02*
X14722619Y-16015809D01*
X14722619Y-16015809D02*
X14694048Y-16015809D01*
X14694048Y-16015809D02*
X14675000Y-16006286D01*
X14675000Y-16006286D02*
X14665476Y-15987238D01*
X14665476Y-15987238D02*
X14665476Y-15977714D01*
X14665476Y-15977714D02*
X14675000Y-15958667D01*
X14675000Y-15958667D02*
X14694048Y-15949143D01*
X14694048Y-15949143D02*
X14722619Y-15949143D01*
X14722619Y-15949143D02*
X14741667Y-15958667D01*
X14817857Y-16158667D02*
X14827381Y-16149143D01*
X14827381Y-16149143D02*
X14846429Y-16120571D01*
X14846429Y-16120571D02*
X14855953Y-16101524D01*
X14855953Y-16101524D02*
X14865476Y-16072952D01*
X14865476Y-16072952D02*
X14875000Y-16025333D01*
X14875000Y-16025333D02*
X14875000Y-15987238D01*
X14875000Y-15987238D02*
X14865476Y-15939619D01*
X14865476Y-15939619D02*
X14855953Y-15911048D01*
X14855953Y-15911048D02*
X14846429Y-15892000D01*
X14846429Y-15892000D02*
X14827381Y-15863428D01*
X14827381Y-15863428D02*
X14817857Y-15853905D01*
D10*
X9945000Y-16223000D02*
X9945000Y-16323000D01*
X9895000Y-16273000D02*
X9995000Y-16273000D01*
D11*
X10347381Y-16346476D02*
X10233095Y-16346476D01*
X10290238Y-16346476D02*
X10290238Y-16146476D01*
X10290238Y-16146476D02*
X10271190Y-16175048D01*
X10271190Y-16175048D02*
X10252143Y-16194095D01*
X10252143Y-16194095D02*
X10233095Y-16203619D01*
X10433095Y-16327428D02*
X10442619Y-16336952D01*
X10442619Y-16336952D02*
X10433095Y-16346476D01*
X10433095Y-16346476D02*
X10423571Y-16336952D01*
X10423571Y-16336952D02*
X10433095Y-16327428D01*
X10433095Y-16327428D02*
X10433095Y-16346476D01*
X10566429Y-16146476D02*
X10585476Y-16146476D01*
X10585476Y-16146476D02*
X10604524Y-16156000D01*
X10604524Y-16156000D02*
X10614048Y-16165524D01*
X10614048Y-16165524D02*
X10623571Y-16184571D01*
X10623571Y-16184571D02*
X10633095Y-16222667D01*
X10633095Y-16222667D02*
X10633095Y-16270286D01*
X10633095Y-16270286D02*
X10623571Y-16308381D01*
X10623571Y-16308381D02*
X10614048Y-16327428D01*
X10614048Y-16327428D02*
X10604524Y-16336952D01*
X10604524Y-16336952D02*
X10585476Y-16346476D01*
X10585476Y-16346476D02*
X10566429Y-16346476D01*
X10566429Y-16346476D02*
X10547381Y-16336952D01*
X10547381Y-16336952D02*
X10537857Y-16327428D01*
X10537857Y-16327428D02*
X10528333Y-16308381D01*
X10528333Y-16308381D02*
X10518810Y-16270286D01*
X10518810Y-16270286D02*
X10518810Y-16222667D01*
X10518810Y-16222667D02*
X10528333Y-16184571D01*
X10528333Y-16184571D02*
X10537857Y-16165524D01*
X10537857Y-16165524D02*
X10547381Y-16156000D01*
X10547381Y-16156000D02*
X10566429Y-16146476D01*
X10756905Y-16146476D02*
X10775952Y-16146476D01*
X10775952Y-16146476D02*
X10795000Y-16156000D01*
X10795000Y-16156000D02*
X10804524Y-16165524D01*
X10804524Y-16165524D02*
X10814048Y-16184571D01*
X10814048Y-16184571D02*
X10823571Y-16222667D01*
X10823571Y-16222667D02*
X10823571Y-16270286D01*
X10823571Y-16270286D02*
X10814048Y-16308381D01*
X10814048Y-16308381D02*
X10804524Y-16327428D01*
X10804524Y-16327428D02*
X10795000Y-16336952D01*
X10795000Y-16336952D02*
X10775952Y-16346476D01*
X10775952Y-16346476D02*
X10756905Y-16346476D01*
X10756905Y-16346476D02*
X10737857Y-16336952D01*
X10737857Y-16336952D02*
X10728333Y-16327428D01*
X10728333Y-16327428D02*
X10718810Y-16308381D01*
X10718810Y-16308381D02*
X10709286Y-16270286D01*
X10709286Y-16270286D02*
X10709286Y-16222667D01*
X10709286Y-16222667D02*
X10718810Y-16184571D01*
X10718810Y-16184571D02*
X10728333Y-16165524D01*
X10728333Y-16165524D02*
X10737857Y-16156000D01*
X10737857Y-16156000D02*
X10756905Y-16146476D01*
X10947381Y-16146476D02*
X10966429Y-16146476D01*
X10966429Y-16146476D02*
X10985476Y-16156000D01*
X10985476Y-16156000D02*
X10995000Y-16165524D01*
X10995000Y-16165524D02*
X11004524Y-16184571D01*
X11004524Y-16184571D02*
X11014048Y-16222667D01*
X11014048Y-16222667D02*
X11014048Y-16270286D01*
X11014048Y-16270286D02*
X11004524Y-16308381D01*
X11004524Y-16308381D02*
X10995000Y-16327428D01*
X10995000Y-16327428D02*
X10985476Y-16336952D01*
X10985476Y-16336952D02*
X10966429Y-16346476D01*
X10966429Y-16346476D02*
X10947381Y-16346476D01*
X10947381Y-16346476D02*
X10928333Y-16336952D01*
X10928333Y-16336952D02*
X10918810Y-16327428D01*
X10918810Y-16327428D02*
X10909286Y-16308381D01*
X10909286Y-16308381D02*
X10899762Y-16270286D01*
X10899762Y-16270286D02*
X10899762Y-16222667D01*
X10899762Y-16222667D02*
X10909286Y-16184571D01*
X10909286Y-16184571D02*
X10918810Y-16165524D01*
X10918810Y-16165524D02*
X10928333Y-16156000D01*
X10928333Y-16156000D02*
X10947381Y-16146476D01*
X11099762Y-16346476D02*
X11099762Y-16213143D01*
X11099762Y-16232190D02*
X11109286Y-16222667D01*
X11109286Y-16222667D02*
X11128333Y-16213143D01*
X11128333Y-16213143D02*
X11156905Y-16213143D01*
X11156905Y-16213143D02*
X11175952Y-16222667D01*
X11175952Y-16222667D02*
X11185476Y-16241714D01*
X11185476Y-16241714D02*
X11185476Y-16346476D01*
X11185476Y-16241714D02*
X11195000Y-16222667D01*
X11195000Y-16222667D02*
X11214048Y-16213143D01*
X11214048Y-16213143D02*
X11242619Y-16213143D01*
X11242619Y-16213143D02*
X11261667Y-16222667D01*
X11261667Y-16222667D02*
X11271190Y-16241714D01*
X11271190Y-16241714D02*
X11271190Y-16346476D01*
X11366429Y-16346476D02*
X11366429Y-16213143D01*
X11366429Y-16232190D02*
X11375952Y-16222667D01*
X11375952Y-16222667D02*
X11395000Y-16213143D01*
X11395000Y-16213143D02*
X11423571Y-16213143D01*
X11423571Y-16213143D02*
X11442619Y-16222667D01*
X11442619Y-16222667D02*
X11452143Y-16241714D01*
X11452143Y-16241714D02*
X11452143Y-16346476D01*
X11452143Y-16241714D02*
X11461667Y-16222667D01*
X11461667Y-16222667D02*
X11480714Y-16213143D01*
X11480714Y-16213143D02*
X11509286Y-16213143D01*
X11509286Y-16213143D02*
X11528333Y-16222667D01*
X11528333Y-16222667D02*
X11537857Y-16241714D01*
X11537857Y-16241714D02*
X11537857Y-16346476D01*
X11895952Y-16136952D02*
X11724524Y-16394095D01*
X12120714Y-16146476D02*
X12139762Y-16146476D01*
X12139762Y-16146476D02*
X12158810Y-16156000D01*
X12158810Y-16156000D02*
X12168333Y-16165524D01*
X12168333Y-16165524D02*
X12177857Y-16184571D01*
X12177857Y-16184571D02*
X12187381Y-16222667D01*
X12187381Y-16222667D02*
X12187381Y-16270286D01*
X12187381Y-16270286D02*
X12177857Y-16308381D01*
X12177857Y-16308381D02*
X12168333Y-16327428D01*
X12168333Y-16327428D02*
X12158810Y-16336952D01*
X12158810Y-16336952D02*
X12139762Y-16346476D01*
X12139762Y-16346476D02*
X12120714Y-16346476D01*
X12120714Y-16346476D02*
X12101667Y-16336952D01*
X12101667Y-16336952D02*
X12092143Y-16327428D01*
X12092143Y-16327428D02*
X12082619Y-16308381D01*
X12082619Y-16308381D02*
X12073095Y-16270286D01*
X12073095Y-16270286D02*
X12073095Y-16222667D01*
X12073095Y-16222667D02*
X12082619Y-16184571D01*
X12082619Y-16184571D02*
X12092143Y-16165524D01*
X12092143Y-16165524D02*
X12101667Y-16156000D01*
X12101667Y-16156000D02*
X12120714Y-16146476D01*
X12273095Y-16327428D02*
X12282619Y-16336952D01*
X12282619Y-16336952D02*
X12273095Y-16346476D01*
X12273095Y-16346476D02*
X12263571Y-16336952D01*
X12263571Y-16336952D02*
X12273095Y-16327428D01*
X12273095Y-16327428D02*
X12273095Y-16346476D01*
X12406429Y-16146476D02*
X12425476Y-16146476D01*
X12425476Y-16146476D02*
X12444524Y-16156000D01*
X12444524Y-16156000D02*
X12454048Y-16165524D01*
X12454048Y-16165524D02*
X12463571Y-16184571D01*
X12463571Y-16184571D02*
X12473095Y-16222667D01*
X12473095Y-16222667D02*
X12473095Y-16270286D01*
X12473095Y-16270286D02*
X12463571Y-16308381D01*
X12463571Y-16308381D02*
X12454048Y-16327428D01*
X12454048Y-16327428D02*
X12444524Y-16336952D01*
X12444524Y-16336952D02*
X12425476Y-16346476D01*
X12425476Y-16346476D02*
X12406429Y-16346476D01*
X12406429Y-16346476D02*
X12387381Y-16336952D01*
X12387381Y-16336952D02*
X12377857Y-16327428D01*
X12377857Y-16327428D02*
X12368333Y-16308381D01*
X12368333Y-16308381D02*
X12358810Y-16270286D01*
X12358810Y-16270286D02*
X12358810Y-16222667D01*
X12358810Y-16222667D02*
X12368333Y-16184571D01*
X12368333Y-16184571D02*
X12377857Y-16165524D01*
X12377857Y-16165524D02*
X12387381Y-16156000D01*
X12387381Y-16156000D02*
X12406429Y-16146476D01*
X12539762Y-16146476D02*
X12663571Y-16146476D01*
X12663571Y-16146476D02*
X12596905Y-16222667D01*
X12596905Y-16222667D02*
X12625476Y-16222667D01*
X12625476Y-16222667D02*
X12644524Y-16232190D01*
X12644524Y-16232190D02*
X12654048Y-16241714D01*
X12654048Y-16241714D02*
X12663571Y-16260762D01*
X12663571Y-16260762D02*
X12663571Y-16308381D01*
X12663571Y-16308381D02*
X12654048Y-16327428D01*
X12654048Y-16327428D02*
X12644524Y-16336952D01*
X12644524Y-16336952D02*
X12625476Y-16346476D01*
X12625476Y-16346476D02*
X12568333Y-16346476D01*
X12568333Y-16346476D02*
X12549286Y-16336952D01*
X12549286Y-16336952D02*
X12539762Y-16327428D01*
X12758810Y-16346476D02*
X12796905Y-16346476D01*
X12796905Y-16346476D02*
X12815952Y-16336952D01*
X12815952Y-16336952D02*
X12825476Y-16327428D01*
X12825476Y-16327428D02*
X12844524Y-16298857D01*
X12844524Y-16298857D02*
X12854048Y-16260762D01*
X12854048Y-16260762D02*
X12854048Y-16184571D01*
X12854048Y-16184571D02*
X12844524Y-16165524D01*
X12844524Y-16165524D02*
X12835000Y-16156000D01*
X12835000Y-16156000D02*
X12815952Y-16146476D01*
X12815952Y-16146476D02*
X12777857Y-16146476D01*
X12777857Y-16146476D02*
X12758810Y-16156000D01*
X12758810Y-16156000D02*
X12749286Y-16165524D01*
X12749286Y-16165524D02*
X12739762Y-16184571D01*
X12739762Y-16184571D02*
X12739762Y-16232190D01*
X12739762Y-16232190D02*
X12749286Y-16251238D01*
X12749286Y-16251238D02*
X12758810Y-16260762D01*
X12758810Y-16260762D02*
X12777857Y-16270286D01*
X12777857Y-16270286D02*
X12815952Y-16270286D01*
X12815952Y-16270286D02*
X12835000Y-16260762D01*
X12835000Y-16260762D02*
X12844524Y-16251238D01*
X12844524Y-16251238D02*
X12854048Y-16232190D01*
X13025476Y-16213143D02*
X13025476Y-16346476D01*
X12977857Y-16136952D02*
X12930238Y-16279809D01*
X12930238Y-16279809D02*
X13054048Y-16279809D01*
X13120714Y-16146476D02*
X13120714Y-16184571D01*
X13196905Y-16146476D02*
X13196905Y-16184571D01*
X13459762Y-16422667D02*
X13450238Y-16413143D01*
X13450238Y-16413143D02*
X13431191Y-16384571D01*
X13431191Y-16384571D02*
X13421667Y-16365524D01*
X13421667Y-16365524D02*
X13412143Y-16336952D01*
X13412143Y-16336952D02*
X13402619Y-16289333D01*
X13402619Y-16289333D02*
X13402619Y-16251238D01*
X13402619Y-16251238D02*
X13412143Y-16203619D01*
X13412143Y-16203619D02*
X13421667Y-16175048D01*
X13421667Y-16175048D02*
X13431191Y-16156000D01*
X13431191Y-16156000D02*
X13450238Y-16127428D01*
X13450238Y-16127428D02*
X13459762Y-16117905D01*
X13621667Y-16146476D02*
X13583571Y-16146476D01*
X13583571Y-16146476D02*
X13564524Y-16156000D01*
X13564524Y-16156000D02*
X13555000Y-16165524D01*
X13555000Y-16165524D02*
X13535952Y-16194095D01*
X13535952Y-16194095D02*
X13526429Y-16232190D01*
X13526429Y-16232190D02*
X13526429Y-16308381D01*
X13526429Y-16308381D02*
X13535952Y-16327428D01*
X13535952Y-16327428D02*
X13545476Y-16336952D01*
X13545476Y-16336952D02*
X13564524Y-16346476D01*
X13564524Y-16346476D02*
X13602619Y-16346476D01*
X13602619Y-16346476D02*
X13621667Y-16336952D01*
X13621667Y-16336952D02*
X13631191Y-16327428D01*
X13631191Y-16327428D02*
X13640714Y-16308381D01*
X13640714Y-16308381D02*
X13640714Y-16260762D01*
X13640714Y-16260762D02*
X13631191Y-16241714D01*
X13631191Y-16241714D02*
X13621667Y-16232190D01*
X13621667Y-16232190D02*
X13602619Y-16222667D01*
X13602619Y-16222667D02*
X13564524Y-16222667D01*
X13564524Y-16222667D02*
X13545476Y-16232190D01*
X13545476Y-16232190D02*
X13535952Y-16241714D01*
X13535952Y-16241714D02*
X13526429Y-16260762D01*
X13831191Y-16346476D02*
X13716905Y-16346476D01*
X13774048Y-16346476D02*
X13774048Y-16146476D01*
X13774048Y-16146476D02*
X13755000Y-16175048D01*
X13755000Y-16175048D02*
X13735952Y-16194095D01*
X13735952Y-16194095D02*
X13716905Y-16203619D01*
X14036905Y-16346476D02*
X14036905Y-16146476D01*
X14122619Y-16346476D02*
X14122619Y-16241714D01*
X14122619Y-16241714D02*
X14113095Y-16222667D01*
X14113095Y-16222667D02*
X14094048Y-16213143D01*
X14094048Y-16213143D02*
X14065476Y-16213143D01*
X14065476Y-16213143D02*
X14046429Y-16222667D01*
X14046429Y-16222667D02*
X14036905Y-16232190D01*
X14246429Y-16346476D02*
X14227381Y-16336952D01*
X14227381Y-16336952D02*
X14217857Y-16327428D01*
X14217857Y-16327428D02*
X14208333Y-16308381D01*
X14208333Y-16308381D02*
X14208333Y-16251238D01*
X14208333Y-16251238D02*
X14217857Y-16232190D01*
X14217857Y-16232190D02*
X14227381Y-16222667D01*
X14227381Y-16222667D02*
X14246429Y-16213143D01*
X14246429Y-16213143D02*
X14275000Y-16213143D01*
X14275000Y-16213143D02*
X14294048Y-16222667D01*
X14294048Y-16222667D02*
X14303572Y-16232190D01*
X14303572Y-16232190D02*
X14313095Y-16251238D01*
X14313095Y-16251238D02*
X14313095Y-16308381D01*
X14313095Y-16308381D02*
X14303572Y-16327428D01*
X14303572Y-16327428D02*
X14294048Y-16336952D01*
X14294048Y-16336952D02*
X14275000Y-16346476D01*
X14275000Y-16346476D02*
X14246429Y-16346476D01*
X14427381Y-16346476D02*
X14408333Y-16336952D01*
X14408333Y-16336952D02*
X14398810Y-16317905D01*
X14398810Y-16317905D02*
X14398810Y-16146476D01*
X14579762Y-16336952D02*
X14560714Y-16346476D01*
X14560714Y-16346476D02*
X14522619Y-16346476D01*
X14522619Y-16346476D02*
X14503572Y-16336952D01*
X14503572Y-16336952D02*
X14494048Y-16317905D01*
X14494048Y-16317905D02*
X14494048Y-16241714D01*
X14494048Y-16241714D02*
X14503572Y-16222667D01*
X14503572Y-16222667D02*
X14522619Y-16213143D01*
X14522619Y-16213143D02*
X14560714Y-16213143D01*
X14560714Y-16213143D02*
X14579762Y-16222667D01*
X14579762Y-16222667D02*
X14589286Y-16241714D01*
X14589286Y-16241714D02*
X14589286Y-16260762D01*
X14589286Y-16260762D02*
X14494048Y-16279809D01*
X14665476Y-16336952D02*
X14684524Y-16346476D01*
X14684524Y-16346476D02*
X14722619Y-16346476D01*
X14722619Y-16346476D02*
X14741667Y-16336952D01*
X14741667Y-16336952D02*
X14751191Y-16317905D01*
X14751191Y-16317905D02*
X14751191Y-16308381D01*
X14751191Y-16308381D02*
X14741667Y-16289333D01*
X14741667Y-16289333D02*
X14722619Y-16279809D01*
X14722619Y-16279809D02*
X14694048Y-16279809D01*
X14694048Y-16279809D02*
X14675000Y-16270286D01*
X14675000Y-16270286D02*
X14665476Y-16251238D01*
X14665476Y-16251238D02*
X14665476Y-16241714D01*
X14665476Y-16241714D02*
X14675000Y-16222667D01*
X14675000Y-16222667D02*
X14694048Y-16213143D01*
X14694048Y-16213143D02*
X14722619Y-16213143D01*
X14722619Y-16213143D02*
X14741667Y-16222667D01*
X14817857Y-16422667D02*
X14827381Y-16413143D01*
X14827381Y-16413143D02*
X14846429Y-16384571D01*
X14846429Y-16384571D02*
X14855953Y-16365524D01*
X14855953Y-16365524D02*
X14865476Y-16336952D01*
X14865476Y-16336952D02*
X14875000Y-16289333D01*
X14875000Y-16289333D02*
X14875000Y-16251238D01*
X14875000Y-16251238D02*
X14865476Y-16203619D01*
X14865476Y-16203619D02*
X14855953Y-16175048D01*
X14855953Y-16175048D02*
X14846429Y-16156000D01*
X14846429Y-16156000D02*
X14827381Y-16127428D01*
X14827381Y-16127428D02*
X14817857Y-16117905D01*
D14*
X9978891Y-16575891D02*
X9978891Y-16498109D01*
X9901109Y-16498109D01*
X9901109Y-16575891D01*
X9978891Y-16575891D01*
D11*
X10347381Y-16610476D02*
X10233095Y-16610476D01*
X10290238Y-16610476D02*
X10290238Y-16410476D01*
X10290238Y-16410476D02*
X10271190Y-16439048D01*
X10271190Y-16439048D02*
X10252143Y-16458095D01*
X10252143Y-16458095D02*
X10233095Y-16467619D01*
X10433095Y-16591428D02*
X10442619Y-16600952D01*
X10442619Y-16600952D02*
X10433095Y-16610476D01*
X10433095Y-16610476D02*
X10423571Y-16600952D01*
X10423571Y-16600952D02*
X10433095Y-16591428D01*
X10433095Y-16591428D02*
X10433095Y-16610476D01*
X10633095Y-16610476D02*
X10518810Y-16610476D01*
X10575952Y-16610476D02*
X10575952Y-16410476D01*
X10575952Y-16410476D02*
X10556905Y-16439048D01*
X10556905Y-16439048D02*
X10537857Y-16458095D01*
X10537857Y-16458095D02*
X10518810Y-16467619D01*
X10756905Y-16410476D02*
X10775952Y-16410476D01*
X10775952Y-16410476D02*
X10795000Y-16420000D01*
X10795000Y-16420000D02*
X10804524Y-16429524D01*
X10804524Y-16429524D02*
X10814048Y-16448571D01*
X10814048Y-16448571D02*
X10823571Y-16486667D01*
X10823571Y-16486667D02*
X10823571Y-16534286D01*
X10823571Y-16534286D02*
X10814048Y-16572381D01*
X10814048Y-16572381D02*
X10804524Y-16591428D01*
X10804524Y-16591428D02*
X10795000Y-16600952D01*
X10795000Y-16600952D02*
X10775952Y-16610476D01*
X10775952Y-16610476D02*
X10756905Y-16610476D01*
X10756905Y-16610476D02*
X10737857Y-16600952D01*
X10737857Y-16600952D02*
X10728333Y-16591428D01*
X10728333Y-16591428D02*
X10718810Y-16572381D01*
X10718810Y-16572381D02*
X10709286Y-16534286D01*
X10709286Y-16534286D02*
X10709286Y-16486667D01*
X10709286Y-16486667D02*
X10718810Y-16448571D01*
X10718810Y-16448571D02*
X10728333Y-16429524D01*
X10728333Y-16429524D02*
X10737857Y-16420000D01*
X10737857Y-16420000D02*
X10756905Y-16410476D01*
X10947381Y-16410476D02*
X10966429Y-16410476D01*
X10966429Y-16410476D02*
X10985476Y-16420000D01*
X10985476Y-16420000D02*
X10995000Y-16429524D01*
X10995000Y-16429524D02*
X11004524Y-16448571D01*
X11004524Y-16448571D02*
X11014048Y-16486667D01*
X11014048Y-16486667D02*
X11014048Y-16534286D01*
X11014048Y-16534286D02*
X11004524Y-16572381D01*
X11004524Y-16572381D02*
X10995000Y-16591428D01*
X10995000Y-16591428D02*
X10985476Y-16600952D01*
X10985476Y-16600952D02*
X10966429Y-16610476D01*
X10966429Y-16610476D02*
X10947381Y-16610476D01*
X10947381Y-16610476D02*
X10928333Y-16600952D01*
X10928333Y-16600952D02*
X10918810Y-16591428D01*
X10918810Y-16591428D02*
X10909286Y-16572381D01*
X10909286Y-16572381D02*
X10899762Y-16534286D01*
X10899762Y-16534286D02*
X10899762Y-16486667D01*
X10899762Y-16486667D02*
X10909286Y-16448571D01*
X10909286Y-16448571D02*
X10918810Y-16429524D01*
X10918810Y-16429524D02*
X10928333Y-16420000D01*
X10928333Y-16420000D02*
X10947381Y-16410476D01*
X11099762Y-16610476D02*
X11099762Y-16477143D01*
X11099762Y-16496190D02*
X11109286Y-16486667D01*
X11109286Y-16486667D02*
X11128333Y-16477143D01*
X11128333Y-16477143D02*
X11156905Y-16477143D01*
X11156905Y-16477143D02*
X11175952Y-16486667D01*
X11175952Y-16486667D02*
X11185476Y-16505714D01*
X11185476Y-16505714D02*
X11185476Y-16610476D01*
X11185476Y-16505714D02*
X11195000Y-16486667D01*
X11195000Y-16486667D02*
X11214048Y-16477143D01*
X11214048Y-16477143D02*
X11242619Y-16477143D01*
X11242619Y-16477143D02*
X11261667Y-16486667D01*
X11261667Y-16486667D02*
X11271190Y-16505714D01*
X11271190Y-16505714D02*
X11271190Y-16610476D01*
X11366429Y-16610476D02*
X11366429Y-16477143D01*
X11366429Y-16496190D02*
X11375952Y-16486667D01*
X11375952Y-16486667D02*
X11395000Y-16477143D01*
X11395000Y-16477143D02*
X11423571Y-16477143D01*
X11423571Y-16477143D02*
X11442619Y-16486667D01*
X11442619Y-16486667D02*
X11452143Y-16505714D01*
X11452143Y-16505714D02*
X11452143Y-16610476D01*
X11452143Y-16505714D02*
X11461667Y-16486667D01*
X11461667Y-16486667D02*
X11480714Y-16477143D01*
X11480714Y-16477143D02*
X11509286Y-16477143D01*
X11509286Y-16477143D02*
X11528333Y-16486667D01*
X11528333Y-16486667D02*
X11537857Y-16505714D01*
X11537857Y-16505714D02*
X11537857Y-16610476D01*
X11895952Y-16400952D02*
X11724524Y-16658095D01*
X12120714Y-16410476D02*
X12139762Y-16410476D01*
X12139762Y-16410476D02*
X12158810Y-16420000D01*
X12158810Y-16420000D02*
X12168333Y-16429524D01*
X12168333Y-16429524D02*
X12177857Y-16448571D01*
X12177857Y-16448571D02*
X12187381Y-16486667D01*
X12187381Y-16486667D02*
X12187381Y-16534286D01*
X12187381Y-16534286D02*
X12177857Y-16572381D01*
X12177857Y-16572381D02*
X12168333Y-16591428D01*
X12168333Y-16591428D02*
X12158810Y-16600952D01*
X12158810Y-16600952D02*
X12139762Y-16610476D01*
X12139762Y-16610476D02*
X12120714Y-16610476D01*
X12120714Y-16610476D02*
X12101667Y-16600952D01*
X12101667Y-16600952D02*
X12092143Y-16591428D01*
X12092143Y-16591428D02*
X12082619Y-16572381D01*
X12082619Y-16572381D02*
X12073095Y-16534286D01*
X12073095Y-16534286D02*
X12073095Y-16486667D01*
X12073095Y-16486667D02*
X12082619Y-16448571D01*
X12082619Y-16448571D02*
X12092143Y-16429524D01*
X12092143Y-16429524D02*
X12101667Y-16420000D01*
X12101667Y-16420000D02*
X12120714Y-16410476D01*
X12273095Y-16591428D02*
X12282619Y-16600952D01*
X12282619Y-16600952D02*
X12273095Y-16610476D01*
X12273095Y-16610476D02*
X12263571Y-16600952D01*
X12263571Y-16600952D02*
X12273095Y-16591428D01*
X12273095Y-16591428D02*
X12273095Y-16610476D01*
X12406429Y-16410476D02*
X12425476Y-16410476D01*
X12425476Y-16410476D02*
X12444524Y-16420000D01*
X12444524Y-16420000D02*
X12454048Y-16429524D01*
X12454048Y-16429524D02*
X12463571Y-16448571D01*
X12463571Y-16448571D02*
X12473095Y-16486667D01*
X12473095Y-16486667D02*
X12473095Y-16534286D01*
X12473095Y-16534286D02*
X12463571Y-16572381D01*
X12463571Y-16572381D02*
X12454048Y-16591428D01*
X12454048Y-16591428D02*
X12444524Y-16600952D01*
X12444524Y-16600952D02*
X12425476Y-16610476D01*
X12425476Y-16610476D02*
X12406429Y-16610476D01*
X12406429Y-16610476D02*
X12387381Y-16600952D01*
X12387381Y-16600952D02*
X12377857Y-16591428D01*
X12377857Y-16591428D02*
X12368333Y-16572381D01*
X12368333Y-16572381D02*
X12358810Y-16534286D01*
X12358810Y-16534286D02*
X12358810Y-16486667D01*
X12358810Y-16486667D02*
X12368333Y-16448571D01*
X12368333Y-16448571D02*
X12377857Y-16429524D01*
X12377857Y-16429524D02*
X12387381Y-16420000D01*
X12387381Y-16420000D02*
X12406429Y-16410476D01*
X12644524Y-16477143D02*
X12644524Y-16610476D01*
X12596905Y-16400952D02*
X12549286Y-16543809D01*
X12549286Y-16543809D02*
X12673095Y-16543809D01*
X12730238Y-16410476D02*
X12854048Y-16410476D01*
X12854048Y-16410476D02*
X12787381Y-16486667D01*
X12787381Y-16486667D02*
X12815952Y-16486667D01*
X12815952Y-16486667D02*
X12835000Y-16496190D01*
X12835000Y-16496190D02*
X12844524Y-16505714D01*
X12844524Y-16505714D02*
X12854048Y-16524762D01*
X12854048Y-16524762D02*
X12854048Y-16572381D01*
X12854048Y-16572381D02*
X12844524Y-16591428D01*
X12844524Y-16591428D02*
X12835000Y-16600952D01*
X12835000Y-16600952D02*
X12815952Y-16610476D01*
X12815952Y-16610476D02*
X12758810Y-16610476D01*
X12758810Y-16610476D02*
X12739762Y-16600952D01*
X12739762Y-16600952D02*
X12730238Y-16591428D01*
X12920714Y-16410476D02*
X13044524Y-16410476D01*
X13044524Y-16410476D02*
X12977857Y-16486667D01*
X12977857Y-16486667D02*
X13006429Y-16486667D01*
X13006429Y-16486667D02*
X13025476Y-16496190D01*
X13025476Y-16496190D02*
X13035000Y-16505714D01*
X13035000Y-16505714D02*
X13044524Y-16524762D01*
X13044524Y-16524762D02*
X13044524Y-16572381D01*
X13044524Y-16572381D02*
X13035000Y-16591428D01*
X13035000Y-16591428D02*
X13025476Y-16600952D01*
X13025476Y-16600952D02*
X13006429Y-16610476D01*
X13006429Y-16610476D02*
X12949286Y-16610476D01*
X12949286Y-16610476D02*
X12930238Y-16600952D01*
X12930238Y-16600952D02*
X12920714Y-16591428D01*
X13120714Y-16410476D02*
X13120714Y-16448571D01*
X13196905Y-16410476D02*
X13196905Y-16448571D01*
X13459762Y-16686667D02*
X13450238Y-16677143D01*
X13450238Y-16677143D02*
X13431191Y-16648571D01*
X13431191Y-16648571D02*
X13421667Y-16629524D01*
X13421667Y-16629524D02*
X13412143Y-16600952D01*
X13412143Y-16600952D02*
X13402619Y-16553333D01*
X13402619Y-16553333D02*
X13402619Y-16515238D01*
X13402619Y-16515238D02*
X13412143Y-16467619D01*
X13412143Y-16467619D02*
X13421667Y-16439048D01*
X13421667Y-16439048D02*
X13431191Y-16420000D01*
X13431191Y-16420000D02*
X13450238Y-16391428D01*
X13450238Y-16391428D02*
X13459762Y-16381905D01*
X13564524Y-16496190D02*
X13545476Y-16486667D01*
X13545476Y-16486667D02*
X13535952Y-16477143D01*
X13535952Y-16477143D02*
X13526429Y-16458095D01*
X13526429Y-16458095D02*
X13526429Y-16448571D01*
X13526429Y-16448571D02*
X13535952Y-16429524D01*
X13535952Y-16429524D02*
X13545476Y-16420000D01*
X13545476Y-16420000D02*
X13564524Y-16410476D01*
X13564524Y-16410476D02*
X13602619Y-16410476D01*
X13602619Y-16410476D02*
X13621667Y-16420000D01*
X13621667Y-16420000D02*
X13631191Y-16429524D01*
X13631191Y-16429524D02*
X13640714Y-16448571D01*
X13640714Y-16448571D02*
X13640714Y-16458095D01*
X13640714Y-16458095D02*
X13631191Y-16477143D01*
X13631191Y-16477143D02*
X13621667Y-16486667D01*
X13621667Y-16486667D02*
X13602619Y-16496190D01*
X13602619Y-16496190D02*
X13564524Y-16496190D01*
X13564524Y-16496190D02*
X13545476Y-16505714D01*
X13545476Y-16505714D02*
X13535952Y-16515238D01*
X13535952Y-16515238D02*
X13526429Y-16534286D01*
X13526429Y-16534286D02*
X13526429Y-16572381D01*
X13526429Y-16572381D02*
X13535952Y-16591428D01*
X13535952Y-16591428D02*
X13545476Y-16600952D01*
X13545476Y-16600952D02*
X13564524Y-16610476D01*
X13564524Y-16610476D02*
X13602619Y-16610476D01*
X13602619Y-16610476D02*
X13621667Y-16600952D01*
X13621667Y-16600952D02*
X13631191Y-16591428D01*
X13631191Y-16591428D02*
X13640714Y-16572381D01*
X13640714Y-16572381D02*
X13640714Y-16534286D01*
X13640714Y-16534286D02*
X13631191Y-16515238D01*
X13631191Y-16515238D02*
X13621667Y-16505714D01*
X13621667Y-16505714D02*
X13602619Y-16496190D01*
X13846429Y-16610476D02*
X13846429Y-16410476D01*
X13932143Y-16610476D02*
X13932143Y-16505714D01*
X13932143Y-16505714D02*
X13922619Y-16486667D01*
X13922619Y-16486667D02*
X13903572Y-16477143D01*
X13903572Y-16477143D02*
X13875000Y-16477143D01*
X13875000Y-16477143D02*
X13855952Y-16486667D01*
X13855952Y-16486667D02*
X13846429Y-16496190D01*
X14055952Y-16610476D02*
X14036905Y-16600952D01*
X14036905Y-16600952D02*
X14027381Y-16591428D01*
X14027381Y-16591428D02*
X14017857Y-16572381D01*
X14017857Y-16572381D02*
X14017857Y-16515238D01*
X14017857Y-16515238D02*
X14027381Y-16496190D01*
X14027381Y-16496190D02*
X14036905Y-16486667D01*
X14036905Y-16486667D02*
X14055952Y-16477143D01*
X14055952Y-16477143D02*
X14084524Y-16477143D01*
X14084524Y-16477143D02*
X14103572Y-16486667D01*
X14103572Y-16486667D02*
X14113095Y-16496190D01*
X14113095Y-16496190D02*
X14122619Y-16515238D01*
X14122619Y-16515238D02*
X14122619Y-16572381D01*
X14122619Y-16572381D02*
X14113095Y-16591428D01*
X14113095Y-16591428D02*
X14103572Y-16600952D01*
X14103572Y-16600952D02*
X14084524Y-16610476D01*
X14084524Y-16610476D02*
X14055952Y-16610476D01*
X14236905Y-16610476D02*
X14217857Y-16600952D01*
X14217857Y-16600952D02*
X14208333Y-16581905D01*
X14208333Y-16581905D02*
X14208333Y-16410476D01*
X14389286Y-16600952D02*
X14370238Y-16610476D01*
X14370238Y-16610476D02*
X14332143Y-16610476D01*
X14332143Y-16610476D02*
X14313095Y-16600952D01*
X14313095Y-16600952D02*
X14303572Y-16581905D01*
X14303572Y-16581905D02*
X14303572Y-16505714D01*
X14303572Y-16505714D02*
X14313095Y-16486667D01*
X14313095Y-16486667D02*
X14332143Y-16477143D01*
X14332143Y-16477143D02*
X14370238Y-16477143D01*
X14370238Y-16477143D02*
X14389286Y-16486667D01*
X14389286Y-16486667D02*
X14398810Y-16505714D01*
X14398810Y-16505714D02*
X14398810Y-16524762D01*
X14398810Y-16524762D02*
X14303572Y-16543809D01*
X14475000Y-16600952D02*
X14494048Y-16610476D01*
X14494048Y-16610476D02*
X14532143Y-16610476D01*
X14532143Y-16610476D02*
X14551191Y-16600952D01*
X14551191Y-16600952D02*
X14560714Y-16581905D01*
X14560714Y-16581905D02*
X14560714Y-16572381D01*
X14560714Y-16572381D02*
X14551191Y-16553333D01*
X14551191Y-16553333D02*
X14532143Y-16543809D01*
X14532143Y-16543809D02*
X14503572Y-16543809D01*
X14503572Y-16543809D02*
X14484524Y-16534286D01*
X14484524Y-16534286D02*
X14475000Y-16515238D01*
X14475000Y-16515238D02*
X14475000Y-16505714D01*
X14475000Y-16505714D02*
X14484524Y-16486667D01*
X14484524Y-16486667D02*
X14503572Y-16477143D01*
X14503572Y-16477143D02*
X14532143Y-16477143D01*
X14532143Y-16477143D02*
X14551191Y-16486667D01*
X14627381Y-16686667D02*
X14636905Y-16677143D01*
X14636905Y-16677143D02*
X14655953Y-16648571D01*
X14655953Y-16648571D02*
X14665476Y-16629524D01*
X14665476Y-16629524D02*
X14675000Y-16600952D01*
X14675000Y-16600952D02*
X14684524Y-16553333D01*
X14684524Y-16553333D02*
X14684524Y-16515238D01*
X14684524Y-16515238D02*
X14675000Y-16467619D01*
X14675000Y-16467619D02*
X14665476Y-16439048D01*
X14665476Y-16439048D02*
X14655953Y-16420000D01*
X14655953Y-16420000D02*
X14636905Y-16391428D01*
X14636905Y-16391428D02*
X14627381Y-16381905D01*
D15*
X9905000Y-16891000D02*
X9995000Y-16801000D01*
X9905000Y-16711000D01*
X9815000Y-16801000D01*
X9905000Y-16891000D01*
D11*
X10347381Y-16874476D02*
X10233095Y-16874476D01*
X10290238Y-16874476D02*
X10290238Y-16674476D01*
X10290238Y-16674476D02*
X10271190Y-16703048D01*
X10271190Y-16703048D02*
X10252143Y-16722095D01*
X10252143Y-16722095D02*
X10233095Y-16731619D01*
X10433095Y-16855429D02*
X10442619Y-16864952D01*
X10442619Y-16864952D02*
X10433095Y-16874476D01*
X10433095Y-16874476D02*
X10423571Y-16864952D01*
X10423571Y-16864952D02*
X10433095Y-16855429D01*
X10433095Y-16855429D02*
X10433095Y-16874476D01*
X10556905Y-16760190D02*
X10537857Y-16750667D01*
X10537857Y-16750667D02*
X10528333Y-16741143D01*
X10528333Y-16741143D02*
X10518810Y-16722095D01*
X10518810Y-16722095D02*
X10518810Y-16712571D01*
X10518810Y-16712571D02*
X10528333Y-16693524D01*
X10528333Y-16693524D02*
X10537857Y-16684000D01*
X10537857Y-16684000D02*
X10556905Y-16674476D01*
X10556905Y-16674476D02*
X10595000Y-16674476D01*
X10595000Y-16674476D02*
X10614048Y-16684000D01*
X10614048Y-16684000D02*
X10623571Y-16693524D01*
X10623571Y-16693524D02*
X10633095Y-16712571D01*
X10633095Y-16712571D02*
X10633095Y-16722095D01*
X10633095Y-16722095D02*
X10623571Y-16741143D01*
X10623571Y-16741143D02*
X10614048Y-16750667D01*
X10614048Y-16750667D02*
X10595000Y-16760190D01*
X10595000Y-16760190D02*
X10556905Y-16760190D01*
X10556905Y-16760190D02*
X10537857Y-16769714D01*
X10537857Y-16769714D02*
X10528333Y-16779238D01*
X10528333Y-16779238D02*
X10518810Y-16798286D01*
X10518810Y-16798286D02*
X10518810Y-16836381D01*
X10518810Y-16836381D02*
X10528333Y-16855429D01*
X10528333Y-16855429D02*
X10537857Y-16864952D01*
X10537857Y-16864952D02*
X10556905Y-16874476D01*
X10556905Y-16874476D02*
X10595000Y-16874476D01*
X10595000Y-16874476D02*
X10614048Y-16864952D01*
X10614048Y-16864952D02*
X10623571Y-16855429D01*
X10623571Y-16855429D02*
X10633095Y-16836381D01*
X10633095Y-16836381D02*
X10633095Y-16798286D01*
X10633095Y-16798286D02*
X10623571Y-16779238D01*
X10623571Y-16779238D02*
X10614048Y-16769714D01*
X10614048Y-16769714D02*
X10595000Y-16760190D01*
X10756905Y-16674476D02*
X10775952Y-16674476D01*
X10775952Y-16674476D02*
X10795000Y-16684000D01*
X10795000Y-16684000D02*
X10804524Y-16693524D01*
X10804524Y-16693524D02*
X10814048Y-16712571D01*
X10814048Y-16712571D02*
X10823571Y-16750667D01*
X10823571Y-16750667D02*
X10823571Y-16798286D01*
X10823571Y-16798286D02*
X10814048Y-16836381D01*
X10814048Y-16836381D02*
X10804524Y-16855429D01*
X10804524Y-16855429D02*
X10795000Y-16864952D01*
X10795000Y-16864952D02*
X10775952Y-16874476D01*
X10775952Y-16874476D02*
X10756905Y-16874476D01*
X10756905Y-16874476D02*
X10737857Y-16864952D01*
X10737857Y-16864952D02*
X10728333Y-16855429D01*
X10728333Y-16855429D02*
X10718810Y-16836381D01*
X10718810Y-16836381D02*
X10709286Y-16798286D01*
X10709286Y-16798286D02*
X10709286Y-16750667D01*
X10709286Y-16750667D02*
X10718810Y-16712571D01*
X10718810Y-16712571D02*
X10728333Y-16693524D01*
X10728333Y-16693524D02*
X10737857Y-16684000D01*
X10737857Y-16684000D02*
X10756905Y-16674476D01*
X10947381Y-16674476D02*
X10966429Y-16674476D01*
X10966429Y-16674476D02*
X10985476Y-16684000D01*
X10985476Y-16684000D02*
X10995000Y-16693524D01*
X10995000Y-16693524D02*
X11004524Y-16712571D01*
X11004524Y-16712571D02*
X11014048Y-16750667D01*
X11014048Y-16750667D02*
X11014048Y-16798286D01*
X11014048Y-16798286D02*
X11004524Y-16836381D01*
X11004524Y-16836381D02*
X10995000Y-16855429D01*
X10995000Y-16855429D02*
X10985476Y-16864952D01*
X10985476Y-16864952D02*
X10966429Y-16874476D01*
X10966429Y-16874476D02*
X10947381Y-16874476D01*
X10947381Y-16874476D02*
X10928333Y-16864952D01*
X10928333Y-16864952D02*
X10918810Y-16855429D01*
X10918810Y-16855429D02*
X10909286Y-16836381D01*
X10909286Y-16836381D02*
X10899762Y-16798286D01*
X10899762Y-16798286D02*
X10899762Y-16750667D01*
X10899762Y-16750667D02*
X10909286Y-16712571D01*
X10909286Y-16712571D02*
X10918810Y-16693524D01*
X10918810Y-16693524D02*
X10928333Y-16684000D01*
X10928333Y-16684000D02*
X10947381Y-16674476D01*
X11099762Y-16874476D02*
X11099762Y-16741143D01*
X11099762Y-16760190D02*
X11109286Y-16750667D01*
X11109286Y-16750667D02*
X11128333Y-16741143D01*
X11128333Y-16741143D02*
X11156905Y-16741143D01*
X11156905Y-16741143D02*
X11175952Y-16750667D01*
X11175952Y-16750667D02*
X11185476Y-16769714D01*
X11185476Y-16769714D02*
X11185476Y-16874476D01*
X11185476Y-16769714D02*
X11195000Y-16750667D01*
X11195000Y-16750667D02*
X11214048Y-16741143D01*
X11214048Y-16741143D02*
X11242619Y-16741143D01*
X11242619Y-16741143D02*
X11261667Y-16750667D01*
X11261667Y-16750667D02*
X11271190Y-16769714D01*
X11271190Y-16769714D02*
X11271190Y-16874476D01*
X11366429Y-16874476D02*
X11366429Y-16741143D01*
X11366429Y-16760190D02*
X11375952Y-16750667D01*
X11375952Y-16750667D02*
X11395000Y-16741143D01*
X11395000Y-16741143D02*
X11423571Y-16741143D01*
X11423571Y-16741143D02*
X11442619Y-16750667D01*
X11442619Y-16750667D02*
X11452143Y-16769714D01*
X11452143Y-16769714D02*
X11452143Y-16874476D01*
X11452143Y-16769714D02*
X11461667Y-16750667D01*
X11461667Y-16750667D02*
X11480714Y-16741143D01*
X11480714Y-16741143D02*
X11509286Y-16741143D01*
X11509286Y-16741143D02*
X11528333Y-16750667D01*
X11528333Y-16750667D02*
X11537857Y-16769714D01*
X11537857Y-16769714D02*
X11537857Y-16874476D01*
X11895952Y-16664952D02*
X11724524Y-16922095D01*
X12120714Y-16674476D02*
X12139762Y-16674476D01*
X12139762Y-16674476D02*
X12158810Y-16684000D01*
X12158810Y-16684000D02*
X12168333Y-16693524D01*
X12168333Y-16693524D02*
X12177857Y-16712571D01*
X12177857Y-16712571D02*
X12187381Y-16750667D01*
X12187381Y-16750667D02*
X12187381Y-16798286D01*
X12187381Y-16798286D02*
X12177857Y-16836381D01*
X12177857Y-16836381D02*
X12168333Y-16855429D01*
X12168333Y-16855429D02*
X12158810Y-16864952D01*
X12158810Y-16864952D02*
X12139762Y-16874476D01*
X12139762Y-16874476D02*
X12120714Y-16874476D01*
X12120714Y-16874476D02*
X12101667Y-16864952D01*
X12101667Y-16864952D02*
X12092143Y-16855429D01*
X12092143Y-16855429D02*
X12082619Y-16836381D01*
X12082619Y-16836381D02*
X12073095Y-16798286D01*
X12073095Y-16798286D02*
X12073095Y-16750667D01*
X12073095Y-16750667D02*
X12082619Y-16712571D01*
X12082619Y-16712571D02*
X12092143Y-16693524D01*
X12092143Y-16693524D02*
X12101667Y-16684000D01*
X12101667Y-16684000D02*
X12120714Y-16674476D01*
X12273095Y-16855429D02*
X12282619Y-16864952D01*
X12282619Y-16864952D02*
X12273095Y-16874476D01*
X12273095Y-16874476D02*
X12263571Y-16864952D01*
X12263571Y-16864952D02*
X12273095Y-16855429D01*
X12273095Y-16855429D02*
X12273095Y-16874476D01*
X12406429Y-16674476D02*
X12425476Y-16674476D01*
X12425476Y-16674476D02*
X12444524Y-16684000D01*
X12444524Y-16684000D02*
X12454048Y-16693524D01*
X12454048Y-16693524D02*
X12463571Y-16712571D01*
X12463571Y-16712571D02*
X12473095Y-16750667D01*
X12473095Y-16750667D02*
X12473095Y-16798286D01*
X12473095Y-16798286D02*
X12463571Y-16836381D01*
X12463571Y-16836381D02*
X12454048Y-16855429D01*
X12454048Y-16855429D02*
X12444524Y-16864952D01*
X12444524Y-16864952D02*
X12425476Y-16874476D01*
X12425476Y-16874476D02*
X12406429Y-16874476D01*
X12406429Y-16874476D02*
X12387381Y-16864952D01*
X12387381Y-16864952D02*
X12377857Y-16855429D01*
X12377857Y-16855429D02*
X12368333Y-16836381D01*
X12368333Y-16836381D02*
X12358810Y-16798286D01*
X12358810Y-16798286D02*
X12358810Y-16750667D01*
X12358810Y-16750667D02*
X12368333Y-16712571D01*
X12368333Y-16712571D02*
X12377857Y-16693524D01*
X12377857Y-16693524D02*
X12387381Y-16684000D01*
X12387381Y-16684000D02*
X12406429Y-16674476D01*
X12539762Y-16674476D02*
X12673095Y-16674476D01*
X12673095Y-16674476D02*
X12587381Y-16874476D01*
X12787381Y-16674476D02*
X12806429Y-16674476D01*
X12806429Y-16674476D02*
X12825476Y-16684000D01*
X12825476Y-16684000D02*
X12835000Y-16693524D01*
X12835000Y-16693524D02*
X12844524Y-16712571D01*
X12844524Y-16712571D02*
X12854048Y-16750667D01*
X12854048Y-16750667D02*
X12854048Y-16798286D01*
X12854048Y-16798286D02*
X12844524Y-16836381D01*
X12844524Y-16836381D02*
X12835000Y-16855429D01*
X12835000Y-16855429D02*
X12825476Y-16864952D01*
X12825476Y-16864952D02*
X12806429Y-16874476D01*
X12806429Y-16874476D02*
X12787381Y-16874476D01*
X12787381Y-16874476D02*
X12768333Y-16864952D01*
X12768333Y-16864952D02*
X12758810Y-16855429D01*
X12758810Y-16855429D02*
X12749286Y-16836381D01*
X12749286Y-16836381D02*
X12739762Y-16798286D01*
X12739762Y-16798286D02*
X12739762Y-16750667D01*
X12739762Y-16750667D02*
X12749286Y-16712571D01*
X12749286Y-16712571D02*
X12758810Y-16693524D01*
X12758810Y-16693524D02*
X12768333Y-16684000D01*
X12768333Y-16684000D02*
X12787381Y-16674476D01*
X12949286Y-16874476D02*
X12987381Y-16874476D01*
X12987381Y-16874476D02*
X13006429Y-16864952D01*
X13006429Y-16864952D02*
X13015952Y-16855429D01*
X13015952Y-16855429D02*
X13035000Y-16826857D01*
X13035000Y-16826857D02*
X13044524Y-16788762D01*
X13044524Y-16788762D02*
X13044524Y-16712571D01*
X13044524Y-16712571D02*
X13035000Y-16693524D01*
X13035000Y-16693524D02*
X13025476Y-16684000D01*
X13025476Y-16684000D02*
X13006429Y-16674476D01*
X13006429Y-16674476D02*
X12968333Y-16674476D01*
X12968333Y-16674476D02*
X12949286Y-16684000D01*
X12949286Y-16684000D02*
X12939762Y-16693524D01*
X12939762Y-16693524D02*
X12930238Y-16712571D01*
X12930238Y-16712571D02*
X12930238Y-16760190D01*
X12930238Y-16760190D02*
X12939762Y-16779238D01*
X12939762Y-16779238D02*
X12949286Y-16788762D01*
X12949286Y-16788762D02*
X12968333Y-16798286D01*
X12968333Y-16798286D02*
X13006429Y-16798286D01*
X13006429Y-16798286D02*
X13025476Y-16788762D01*
X13025476Y-16788762D02*
X13035000Y-16779238D01*
X13035000Y-16779238D02*
X13044524Y-16760190D01*
X13120714Y-16674476D02*
X13120714Y-16712571D01*
X13196905Y-16674476D02*
X13196905Y-16712571D01*
X13459762Y-16950667D02*
X13450238Y-16941143D01*
X13450238Y-16941143D02*
X13431191Y-16912571D01*
X13431191Y-16912571D02*
X13421667Y-16893524D01*
X13421667Y-16893524D02*
X13412143Y-16864952D01*
X13412143Y-16864952D02*
X13402619Y-16817333D01*
X13402619Y-16817333D02*
X13402619Y-16779238D01*
X13402619Y-16779238D02*
X13412143Y-16731619D01*
X13412143Y-16731619D02*
X13421667Y-16703048D01*
X13421667Y-16703048D02*
X13431191Y-16684000D01*
X13431191Y-16684000D02*
X13450238Y-16655428D01*
X13450238Y-16655428D02*
X13459762Y-16645905D01*
X13516905Y-16674476D02*
X13640714Y-16674476D01*
X13640714Y-16674476D02*
X13574048Y-16750667D01*
X13574048Y-16750667D02*
X13602619Y-16750667D01*
X13602619Y-16750667D02*
X13621667Y-16760190D01*
X13621667Y-16760190D02*
X13631191Y-16769714D01*
X13631191Y-16769714D02*
X13640714Y-16788762D01*
X13640714Y-16788762D02*
X13640714Y-16836381D01*
X13640714Y-16836381D02*
X13631191Y-16855429D01*
X13631191Y-16855429D02*
X13621667Y-16864952D01*
X13621667Y-16864952D02*
X13602619Y-16874476D01*
X13602619Y-16874476D02*
X13545476Y-16874476D01*
X13545476Y-16874476D02*
X13526429Y-16864952D01*
X13526429Y-16864952D02*
X13516905Y-16855429D01*
X13716905Y-16693524D02*
X13726429Y-16684000D01*
X13726429Y-16684000D02*
X13745476Y-16674476D01*
X13745476Y-16674476D02*
X13793095Y-16674476D01*
X13793095Y-16674476D02*
X13812143Y-16684000D01*
X13812143Y-16684000D02*
X13821667Y-16693524D01*
X13821667Y-16693524D02*
X13831191Y-16712571D01*
X13831191Y-16712571D02*
X13831191Y-16731619D01*
X13831191Y-16731619D02*
X13821667Y-16760190D01*
X13821667Y-16760190D02*
X13707381Y-16874476D01*
X13707381Y-16874476D02*
X13831191Y-16874476D01*
X14036905Y-16874476D02*
X14036905Y-16674476D01*
X14122619Y-16874476D02*
X14122619Y-16769714D01*
X14122619Y-16769714D02*
X14113095Y-16750667D01*
X14113095Y-16750667D02*
X14094048Y-16741143D01*
X14094048Y-16741143D02*
X14065476Y-16741143D01*
X14065476Y-16741143D02*
X14046429Y-16750667D01*
X14046429Y-16750667D02*
X14036905Y-16760190D01*
X14246429Y-16874476D02*
X14227381Y-16864952D01*
X14227381Y-16864952D02*
X14217857Y-16855429D01*
X14217857Y-16855429D02*
X14208333Y-16836381D01*
X14208333Y-16836381D02*
X14208333Y-16779238D01*
X14208333Y-16779238D02*
X14217857Y-16760190D01*
X14217857Y-16760190D02*
X14227381Y-16750667D01*
X14227381Y-16750667D02*
X14246429Y-16741143D01*
X14246429Y-16741143D02*
X14275000Y-16741143D01*
X14275000Y-16741143D02*
X14294048Y-16750667D01*
X14294048Y-16750667D02*
X14303572Y-16760190D01*
X14303572Y-16760190D02*
X14313095Y-16779238D01*
X14313095Y-16779238D02*
X14313095Y-16836381D01*
X14313095Y-16836381D02*
X14303572Y-16855429D01*
X14303572Y-16855429D02*
X14294048Y-16864952D01*
X14294048Y-16864952D02*
X14275000Y-16874476D01*
X14275000Y-16874476D02*
X14246429Y-16874476D01*
X14427381Y-16874476D02*
X14408333Y-16864952D01*
X14408333Y-16864952D02*
X14398810Y-16845905D01*
X14398810Y-16845905D02*
X14398810Y-16674476D01*
X14579762Y-16864952D02*
X14560714Y-16874476D01*
X14560714Y-16874476D02*
X14522619Y-16874476D01*
X14522619Y-16874476D02*
X14503572Y-16864952D01*
X14503572Y-16864952D02*
X14494048Y-16845905D01*
X14494048Y-16845905D02*
X14494048Y-16769714D01*
X14494048Y-16769714D02*
X14503572Y-16750667D01*
X14503572Y-16750667D02*
X14522619Y-16741143D01*
X14522619Y-16741143D02*
X14560714Y-16741143D01*
X14560714Y-16741143D02*
X14579762Y-16750667D01*
X14579762Y-16750667D02*
X14589286Y-16769714D01*
X14589286Y-16769714D02*
X14589286Y-16788762D01*
X14589286Y-16788762D02*
X14494048Y-16807810D01*
X14665476Y-16864952D02*
X14684524Y-16874476D01*
X14684524Y-16874476D02*
X14722619Y-16874476D01*
X14722619Y-16874476D02*
X14741667Y-16864952D01*
X14741667Y-16864952D02*
X14751191Y-16845905D01*
X14751191Y-16845905D02*
X14751191Y-16836381D01*
X14751191Y-16836381D02*
X14741667Y-16817333D01*
X14741667Y-16817333D02*
X14722619Y-16807810D01*
X14722619Y-16807810D02*
X14694048Y-16807810D01*
X14694048Y-16807810D02*
X14675000Y-16798286D01*
X14675000Y-16798286D02*
X14665476Y-16779238D01*
X14665476Y-16779238D02*
X14665476Y-16769714D01*
X14665476Y-16769714D02*
X14675000Y-16750667D01*
X14675000Y-16750667D02*
X14694048Y-16741143D01*
X14694048Y-16741143D02*
X14722619Y-16741143D01*
X14722619Y-16741143D02*
X14741667Y-16750667D01*
X14817857Y-16950667D02*
X14827381Y-16941143D01*
X14827381Y-16941143D02*
X14846429Y-16912571D01*
X14846429Y-16912571D02*
X14855953Y-16893524D01*
X14855953Y-16893524D02*
X14865476Y-16864952D01*
X14865476Y-16864952D02*
X14875000Y-16817333D01*
X14875000Y-16817333D02*
X14875000Y-16779238D01*
X14875000Y-16779238D02*
X14865476Y-16731619D01*
X14865476Y-16731619D02*
X14855953Y-16703048D01*
X14855953Y-16703048D02*
X14846429Y-16684000D01*
X14846429Y-16684000D02*
X14827381Y-16655428D01*
X14827381Y-16655428D02*
X14817857Y-16645905D01*
D16*
X9798000Y-17002500D02*
X9995000Y-17199500D01*
X9995000Y-17002500D02*
X9798000Y-17199500D01*
X9995000Y-17101000D02*
G75*
G03*
X9995000Y-17101000I-98500J0D01*
G01*
D11*
X10347381Y-17174476D02*
X10233095Y-17174476D01*
X10290238Y-17174476D02*
X10290238Y-16974476D01*
X10290238Y-16974476D02*
X10271190Y-17003048D01*
X10271190Y-17003048D02*
X10252143Y-17022095D01*
X10252143Y-17022095D02*
X10233095Y-17031619D01*
X10433095Y-17155429D02*
X10442619Y-17164952D01*
X10442619Y-17164952D02*
X10433095Y-17174476D01*
X10433095Y-17174476D02*
X10423571Y-17164952D01*
X10423571Y-17164952D02*
X10433095Y-17155429D01*
X10433095Y-17155429D02*
X10433095Y-17174476D01*
X10537857Y-17174476D02*
X10575952Y-17174476D01*
X10575952Y-17174476D02*
X10595000Y-17164952D01*
X10595000Y-17164952D02*
X10604524Y-17155429D01*
X10604524Y-17155429D02*
X10623571Y-17126857D01*
X10623571Y-17126857D02*
X10633095Y-17088762D01*
X10633095Y-17088762D02*
X10633095Y-17012571D01*
X10633095Y-17012571D02*
X10623571Y-16993524D01*
X10623571Y-16993524D02*
X10614048Y-16984000D01*
X10614048Y-16984000D02*
X10595000Y-16974476D01*
X10595000Y-16974476D02*
X10556905Y-16974476D01*
X10556905Y-16974476D02*
X10537857Y-16984000D01*
X10537857Y-16984000D02*
X10528333Y-16993524D01*
X10528333Y-16993524D02*
X10518810Y-17012571D01*
X10518810Y-17012571D02*
X10518810Y-17060190D01*
X10518810Y-17060190D02*
X10528333Y-17079238D01*
X10528333Y-17079238D02*
X10537857Y-17088762D01*
X10537857Y-17088762D02*
X10556905Y-17098286D01*
X10556905Y-17098286D02*
X10595000Y-17098286D01*
X10595000Y-17098286D02*
X10614048Y-17088762D01*
X10614048Y-17088762D02*
X10623571Y-17079238D01*
X10623571Y-17079238D02*
X10633095Y-17060190D01*
X10699762Y-16974476D02*
X10833095Y-16974476D01*
X10833095Y-16974476D02*
X10747381Y-17174476D01*
X10947381Y-16974476D02*
X10966429Y-16974476D01*
X10966429Y-16974476D02*
X10985476Y-16984000D01*
X10985476Y-16984000D02*
X10995000Y-16993524D01*
X10995000Y-16993524D02*
X11004524Y-17012571D01*
X11004524Y-17012571D02*
X11014048Y-17050667D01*
X11014048Y-17050667D02*
X11014048Y-17098286D01*
X11014048Y-17098286D02*
X11004524Y-17136381D01*
X11004524Y-17136381D02*
X10995000Y-17155429D01*
X10995000Y-17155429D02*
X10985476Y-17164952D01*
X10985476Y-17164952D02*
X10966429Y-17174476D01*
X10966429Y-17174476D02*
X10947381Y-17174476D01*
X10947381Y-17174476D02*
X10928333Y-17164952D01*
X10928333Y-17164952D02*
X10918810Y-17155429D01*
X10918810Y-17155429D02*
X10909286Y-17136381D01*
X10909286Y-17136381D02*
X10899762Y-17098286D01*
X10899762Y-17098286D02*
X10899762Y-17050667D01*
X10899762Y-17050667D02*
X10909286Y-17012571D01*
X10909286Y-17012571D02*
X10918810Y-16993524D01*
X10918810Y-16993524D02*
X10928333Y-16984000D01*
X10928333Y-16984000D02*
X10947381Y-16974476D01*
X11099762Y-17174476D02*
X11099762Y-17041143D01*
X11099762Y-17060190D02*
X11109286Y-17050667D01*
X11109286Y-17050667D02*
X11128333Y-17041143D01*
X11128333Y-17041143D02*
X11156905Y-17041143D01*
X11156905Y-17041143D02*
X11175952Y-17050667D01*
X11175952Y-17050667D02*
X11185476Y-17069714D01*
X11185476Y-17069714D02*
X11185476Y-17174476D01*
X11185476Y-17069714D02*
X11195000Y-17050667D01*
X11195000Y-17050667D02*
X11214048Y-17041143D01*
X11214048Y-17041143D02*
X11242619Y-17041143D01*
X11242619Y-17041143D02*
X11261667Y-17050667D01*
X11261667Y-17050667D02*
X11271190Y-17069714D01*
X11271190Y-17069714D02*
X11271190Y-17174476D01*
X11366429Y-17174476D02*
X11366429Y-17041143D01*
X11366429Y-17060190D02*
X11375952Y-17050667D01*
X11375952Y-17050667D02*
X11395000Y-17041143D01*
X11395000Y-17041143D02*
X11423571Y-17041143D01*
X11423571Y-17041143D02*
X11442619Y-17050667D01*
X11442619Y-17050667D02*
X11452143Y-17069714D01*
X11452143Y-17069714D02*
X11452143Y-17174476D01*
X11452143Y-17069714D02*
X11461667Y-17050667D01*
X11461667Y-17050667D02*
X11480714Y-17041143D01*
X11480714Y-17041143D02*
X11509286Y-17041143D01*
X11509286Y-17041143D02*
X11528333Y-17050667D01*
X11528333Y-17050667D02*
X11537857Y-17069714D01*
X11537857Y-17069714D02*
X11537857Y-17174476D01*
X11895952Y-16964952D02*
X11724524Y-17222095D01*
X12120714Y-16974476D02*
X12139762Y-16974476D01*
X12139762Y-16974476D02*
X12158810Y-16984000D01*
X12158810Y-16984000D02*
X12168333Y-16993524D01*
X12168333Y-16993524D02*
X12177857Y-17012571D01*
X12177857Y-17012571D02*
X12187381Y-17050667D01*
X12187381Y-17050667D02*
X12187381Y-17098286D01*
X12187381Y-17098286D02*
X12177857Y-17136381D01*
X12177857Y-17136381D02*
X12168333Y-17155429D01*
X12168333Y-17155429D02*
X12158810Y-17164952D01*
X12158810Y-17164952D02*
X12139762Y-17174476D01*
X12139762Y-17174476D02*
X12120714Y-17174476D01*
X12120714Y-17174476D02*
X12101667Y-17164952D01*
X12101667Y-17164952D02*
X12092143Y-17155429D01*
X12092143Y-17155429D02*
X12082619Y-17136381D01*
X12082619Y-17136381D02*
X12073095Y-17098286D01*
X12073095Y-17098286D02*
X12073095Y-17050667D01*
X12073095Y-17050667D02*
X12082619Y-17012571D01*
X12082619Y-17012571D02*
X12092143Y-16993524D01*
X12092143Y-16993524D02*
X12101667Y-16984000D01*
X12101667Y-16984000D02*
X12120714Y-16974476D01*
X12273095Y-17155429D02*
X12282619Y-17164952D01*
X12282619Y-17164952D02*
X12273095Y-17174476D01*
X12273095Y-17174476D02*
X12263571Y-17164952D01*
X12263571Y-17164952D02*
X12273095Y-17155429D01*
X12273095Y-17155429D02*
X12273095Y-17174476D01*
X12406429Y-16974476D02*
X12425476Y-16974476D01*
X12425476Y-16974476D02*
X12444524Y-16984000D01*
X12444524Y-16984000D02*
X12454048Y-16993524D01*
X12454048Y-16993524D02*
X12463571Y-17012571D01*
X12463571Y-17012571D02*
X12473095Y-17050667D01*
X12473095Y-17050667D02*
X12473095Y-17098286D01*
X12473095Y-17098286D02*
X12463571Y-17136381D01*
X12463571Y-17136381D02*
X12454048Y-17155429D01*
X12454048Y-17155429D02*
X12444524Y-17164952D01*
X12444524Y-17164952D02*
X12425476Y-17174476D01*
X12425476Y-17174476D02*
X12406429Y-17174476D01*
X12406429Y-17174476D02*
X12387381Y-17164952D01*
X12387381Y-17164952D02*
X12377857Y-17155429D01*
X12377857Y-17155429D02*
X12368333Y-17136381D01*
X12368333Y-17136381D02*
X12358810Y-17098286D01*
X12358810Y-17098286D02*
X12358810Y-17050667D01*
X12358810Y-17050667D02*
X12368333Y-17012571D01*
X12368333Y-17012571D02*
X12377857Y-16993524D01*
X12377857Y-16993524D02*
X12387381Y-16984000D01*
X12387381Y-16984000D02*
X12406429Y-16974476D01*
X12539762Y-16974476D02*
X12673095Y-16974476D01*
X12673095Y-16974476D02*
X12587381Y-17174476D01*
X12730238Y-16974476D02*
X12863571Y-16974476D01*
X12863571Y-16974476D02*
X12777857Y-17174476D01*
X13025476Y-16974476D02*
X12987381Y-16974476D01*
X12987381Y-16974476D02*
X12968333Y-16984000D01*
X12968333Y-16984000D02*
X12958810Y-16993524D01*
X12958810Y-16993524D02*
X12939762Y-17022095D01*
X12939762Y-17022095D02*
X12930238Y-17060190D01*
X12930238Y-17060190D02*
X12930238Y-17136381D01*
X12930238Y-17136381D02*
X12939762Y-17155429D01*
X12939762Y-17155429D02*
X12949286Y-17164952D01*
X12949286Y-17164952D02*
X12968333Y-17174476D01*
X12968333Y-17174476D02*
X13006429Y-17174476D01*
X13006429Y-17174476D02*
X13025476Y-17164952D01*
X13025476Y-17164952D02*
X13035000Y-17155429D01*
X13035000Y-17155429D02*
X13044524Y-17136381D01*
X13044524Y-17136381D02*
X13044524Y-17088762D01*
X13044524Y-17088762D02*
X13035000Y-17069714D01*
X13035000Y-17069714D02*
X13025476Y-17060190D01*
X13025476Y-17060190D02*
X13006429Y-17050667D01*
X13006429Y-17050667D02*
X12968333Y-17050667D01*
X12968333Y-17050667D02*
X12949286Y-17060190D01*
X12949286Y-17060190D02*
X12939762Y-17069714D01*
X12939762Y-17069714D02*
X12930238Y-17088762D01*
X13120714Y-16974476D02*
X13120714Y-17012571D01*
X13196905Y-16974476D02*
X13196905Y-17012571D01*
X13459762Y-17250667D02*
X13450238Y-17241143D01*
X13450238Y-17241143D02*
X13431191Y-17212571D01*
X13431191Y-17212571D02*
X13421667Y-17193524D01*
X13421667Y-17193524D02*
X13412143Y-17164952D01*
X13412143Y-17164952D02*
X13402619Y-17117333D01*
X13402619Y-17117333D02*
X13402619Y-17079238D01*
X13402619Y-17079238D02*
X13412143Y-17031619D01*
X13412143Y-17031619D02*
X13421667Y-17003048D01*
X13421667Y-17003048D02*
X13431191Y-16984000D01*
X13431191Y-16984000D02*
X13450238Y-16955429D01*
X13450238Y-16955429D02*
X13459762Y-16945905D01*
X13640714Y-17174476D02*
X13526429Y-17174476D01*
X13583571Y-17174476D02*
X13583571Y-16974476D01*
X13583571Y-16974476D02*
X13564524Y-17003048D01*
X13564524Y-17003048D02*
X13545476Y-17022095D01*
X13545476Y-17022095D02*
X13526429Y-17031619D01*
X13812143Y-16974476D02*
X13774048Y-16974476D01*
X13774048Y-16974476D02*
X13755000Y-16984000D01*
X13755000Y-16984000D02*
X13745476Y-16993524D01*
X13745476Y-16993524D02*
X13726429Y-17022095D01*
X13726429Y-17022095D02*
X13716905Y-17060190D01*
X13716905Y-17060190D02*
X13716905Y-17136381D01*
X13716905Y-17136381D02*
X13726429Y-17155429D01*
X13726429Y-17155429D02*
X13735952Y-17164952D01*
X13735952Y-17164952D02*
X13755000Y-17174476D01*
X13755000Y-17174476D02*
X13793095Y-17174476D01*
X13793095Y-17174476D02*
X13812143Y-17164952D01*
X13812143Y-17164952D02*
X13821667Y-17155429D01*
X13821667Y-17155429D02*
X13831191Y-17136381D01*
X13831191Y-17136381D02*
X13831191Y-17088762D01*
X13831191Y-17088762D02*
X13821667Y-17069714D01*
X13821667Y-17069714D02*
X13812143Y-17060190D01*
X13812143Y-17060190D02*
X13793095Y-17050667D01*
X13793095Y-17050667D02*
X13755000Y-17050667D01*
X13755000Y-17050667D02*
X13735952Y-17060190D01*
X13735952Y-17060190D02*
X13726429Y-17069714D01*
X13726429Y-17069714D02*
X13716905Y-17088762D01*
X14036905Y-17174476D02*
X14036905Y-16974476D01*
X14122619Y-17174476D02*
X14122619Y-17069714D01*
X14122619Y-17069714D02*
X14113095Y-17050667D01*
X14113095Y-17050667D02*
X14094048Y-17041143D01*
X14094048Y-17041143D02*
X14065476Y-17041143D01*
X14065476Y-17041143D02*
X14046429Y-17050667D01*
X14046429Y-17050667D02*
X14036905Y-17060190D01*
X14246429Y-17174476D02*
X14227381Y-17164952D01*
X14227381Y-17164952D02*
X14217857Y-17155429D01*
X14217857Y-17155429D02*
X14208333Y-17136381D01*
X14208333Y-17136381D02*
X14208333Y-17079238D01*
X14208333Y-17079238D02*
X14217857Y-17060190D01*
X14217857Y-17060190D02*
X14227381Y-17050667D01*
X14227381Y-17050667D02*
X14246429Y-17041143D01*
X14246429Y-17041143D02*
X14275000Y-17041143D01*
X14275000Y-17041143D02*
X14294048Y-17050667D01*
X14294048Y-17050667D02*
X14303572Y-17060190D01*
X14303572Y-17060190D02*
X14313095Y-17079238D01*
X14313095Y-17079238D02*
X14313095Y-17136381D01*
X14313095Y-17136381D02*
X14303572Y-17155429D01*
X14303572Y-17155429D02*
X14294048Y-17164952D01*
X14294048Y-17164952D02*
X14275000Y-17174476D01*
X14275000Y-17174476D02*
X14246429Y-17174476D01*
X14427381Y-17174476D02*
X14408333Y-17164952D01*
X14408333Y-17164952D02*
X14398810Y-17145905D01*
X14398810Y-17145905D02*
X14398810Y-16974476D01*
X14579762Y-17164952D02*
X14560714Y-17174476D01*
X14560714Y-17174476D02*
X14522619Y-17174476D01*
X14522619Y-17174476D02*
X14503572Y-17164952D01*
X14503572Y-17164952D02*
X14494048Y-17145905D01*
X14494048Y-17145905D02*
X14494048Y-17069714D01*
X14494048Y-17069714D02*
X14503572Y-17050667D01*
X14503572Y-17050667D02*
X14522619Y-17041143D01*
X14522619Y-17041143D02*
X14560714Y-17041143D01*
X14560714Y-17041143D02*
X14579762Y-17050667D01*
X14579762Y-17050667D02*
X14589286Y-17069714D01*
X14589286Y-17069714D02*
X14589286Y-17088762D01*
X14589286Y-17088762D02*
X14494048Y-17107810D01*
X14665476Y-17164952D02*
X14684524Y-17174476D01*
X14684524Y-17174476D02*
X14722619Y-17174476D01*
X14722619Y-17174476D02*
X14741667Y-17164952D01*
X14741667Y-17164952D02*
X14751191Y-17145905D01*
X14751191Y-17145905D02*
X14751191Y-17136381D01*
X14751191Y-17136381D02*
X14741667Y-17117333D01*
X14741667Y-17117333D02*
X14722619Y-17107810D01*
X14722619Y-17107810D02*
X14694048Y-17107810D01*
X14694048Y-17107810D02*
X14675000Y-17098286D01*
X14675000Y-17098286D02*
X14665476Y-17079238D01*
X14665476Y-17079238D02*
X14665476Y-17069714D01*
X14665476Y-17069714D02*
X14675000Y-17050667D01*
X14675000Y-17050667D02*
X14694048Y-17041143D01*
X14694048Y-17041143D02*
X14722619Y-17041143D01*
X14722619Y-17041143D02*
X14741667Y-17050667D01*
X14817857Y-17250667D02*
X14827381Y-17241143D01*
X14827381Y-17241143D02*
X14846429Y-17212571D01*
X14846429Y-17212571D02*
X14855953Y-17193524D01*
X14855953Y-17193524D02*
X14865476Y-17164952D01*
X14865476Y-17164952D02*
X14875000Y-17117333D01*
X14875000Y-17117333D02*
X14875000Y-17079238D01*
X14875000Y-17079238D02*
X14865476Y-17031619D01*
X14865476Y-17031619D02*
X14855953Y-17003048D01*
X14855953Y-17003048D02*
X14846429Y-16984000D01*
X14846429Y-16984000D02*
X14827381Y-16955429D01*
X14827381Y-16955429D02*
X14817857Y-16945905D01*
X9795000Y-17318000D02*
X9995000Y-17518000D01*
X9995000Y-17318000D02*
X9795000Y-17518000D01*
X9895000Y-17318000D02*
X9895000Y-17518000D01*
X9795000Y-17418000D02*
X9995000Y-17418000D01*
X10223571Y-17291476D02*
X10347381Y-17291476D01*
X10347381Y-17291476D02*
X10280714Y-17367667D01*
X10280714Y-17367667D02*
X10309286Y-17367667D01*
X10309286Y-17367667D02*
X10328333Y-17377190D01*
X10328333Y-17377190D02*
X10337857Y-17386714D01*
X10337857Y-17386714D02*
X10347381Y-17405762D01*
X10347381Y-17405762D02*
X10347381Y-17453381D01*
X10347381Y-17453381D02*
X10337857Y-17472429D01*
X10337857Y-17472429D02*
X10328333Y-17481952D01*
X10328333Y-17481952D02*
X10309286Y-17491476D01*
X10309286Y-17491476D02*
X10252143Y-17491476D01*
X10252143Y-17491476D02*
X10233095Y-17481952D01*
X10233095Y-17481952D02*
X10223571Y-17472429D01*
X10433095Y-17472429D02*
X10442619Y-17481952D01*
X10442619Y-17481952D02*
X10433095Y-17491476D01*
X10433095Y-17491476D02*
X10423571Y-17481952D01*
X10423571Y-17481952D02*
X10433095Y-17472429D01*
X10433095Y-17472429D02*
X10433095Y-17491476D01*
X10518810Y-17310524D02*
X10528333Y-17301000D01*
X10528333Y-17301000D02*
X10547381Y-17291476D01*
X10547381Y-17291476D02*
X10595000Y-17291476D01*
X10595000Y-17291476D02*
X10614048Y-17301000D01*
X10614048Y-17301000D02*
X10623571Y-17310524D01*
X10623571Y-17310524D02*
X10633095Y-17329571D01*
X10633095Y-17329571D02*
X10633095Y-17348619D01*
X10633095Y-17348619D02*
X10623571Y-17377190D01*
X10623571Y-17377190D02*
X10509286Y-17491476D01*
X10509286Y-17491476D02*
X10633095Y-17491476D01*
X10756905Y-17291476D02*
X10775952Y-17291476D01*
X10775952Y-17291476D02*
X10795000Y-17301000D01*
X10795000Y-17301000D02*
X10804524Y-17310524D01*
X10804524Y-17310524D02*
X10814048Y-17329571D01*
X10814048Y-17329571D02*
X10823571Y-17367667D01*
X10823571Y-17367667D02*
X10823571Y-17415286D01*
X10823571Y-17415286D02*
X10814048Y-17453381D01*
X10814048Y-17453381D02*
X10804524Y-17472429D01*
X10804524Y-17472429D02*
X10795000Y-17481952D01*
X10795000Y-17481952D02*
X10775952Y-17491476D01*
X10775952Y-17491476D02*
X10756905Y-17491476D01*
X10756905Y-17491476D02*
X10737857Y-17481952D01*
X10737857Y-17481952D02*
X10728333Y-17472429D01*
X10728333Y-17472429D02*
X10718810Y-17453381D01*
X10718810Y-17453381D02*
X10709286Y-17415286D01*
X10709286Y-17415286D02*
X10709286Y-17367667D01*
X10709286Y-17367667D02*
X10718810Y-17329571D01*
X10718810Y-17329571D02*
X10728333Y-17310524D01*
X10728333Y-17310524D02*
X10737857Y-17301000D01*
X10737857Y-17301000D02*
X10756905Y-17291476D01*
X10947381Y-17291476D02*
X10966429Y-17291476D01*
X10966429Y-17291476D02*
X10985476Y-17301000D01*
X10985476Y-17301000D02*
X10995000Y-17310524D01*
X10995000Y-17310524D02*
X11004524Y-17329571D01*
X11004524Y-17329571D02*
X11014048Y-17367667D01*
X11014048Y-17367667D02*
X11014048Y-17415286D01*
X11014048Y-17415286D02*
X11004524Y-17453381D01*
X11004524Y-17453381D02*
X10995000Y-17472429D01*
X10995000Y-17472429D02*
X10985476Y-17481952D01*
X10985476Y-17481952D02*
X10966429Y-17491476D01*
X10966429Y-17491476D02*
X10947381Y-17491476D01*
X10947381Y-17491476D02*
X10928333Y-17481952D01*
X10928333Y-17481952D02*
X10918810Y-17472429D01*
X10918810Y-17472429D02*
X10909286Y-17453381D01*
X10909286Y-17453381D02*
X10899762Y-17415286D01*
X10899762Y-17415286D02*
X10899762Y-17367667D01*
X10899762Y-17367667D02*
X10909286Y-17329571D01*
X10909286Y-17329571D02*
X10918810Y-17310524D01*
X10918810Y-17310524D02*
X10928333Y-17301000D01*
X10928333Y-17301000D02*
X10947381Y-17291476D01*
X11099762Y-17491476D02*
X11099762Y-17358143D01*
X11099762Y-17377190D02*
X11109286Y-17367667D01*
X11109286Y-17367667D02*
X11128333Y-17358143D01*
X11128333Y-17358143D02*
X11156905Y-17358143D01*
X11156905Y-17358143D02*
X11175952Y-17367667D01*
X11175952Y-17367667D02*
X11185476Y-17386714D01*
X11185476Y-17386714D02*
X11185476Y-17491476D01*
X11185476Y-17386714D02*
X11195000Y-17367667D01*
X11195000Y-17367667D02*
X11214048Y-17358143D01*
X11214048Y-17358143D02*
X11242619Y-17358143D01*
X11242619Y-17358143D02*
X11261667Y-17367667D01*
X11261667Y-17367667D02*
X11271190Y-17386714D01*
X11271190Y-17386714D02*
X11271190Y-17491476D01*
X11366429Y-17491476D02*
X11366429Y-17358143D01*
X11366429Y-17377190D02*
X11375952Y-17367667D01*
X11375952Y-17367667D02*
X11395000Y-17358143D01*
X11395000Y-17358143D02*
X11423571Y-17358143D01*
X11423571Y-17358143D02*
X11442619Y-17367667D01*
X11442619Y-17367667D02*
X11452143Y-17386714D01*
X11452143Y-17386714D02*
X11452143Y-17491476D01*
X11452143Y-17386714D02*
X11461667Y-17367667D01*
X11461667Y-17367667D02*
X11480714Y-17358143D01*
X11480714Y-17358143D02*
X11509286Y-17358143D01*
X11509286Y-17358143D02*
X11528333Y-17367667D01*
X11528333Y-17367667D02*
X11537857Y-17386714D01*
X11537857Y-17386714D02*
X11537857Y-17491476D01*
X11895952Y-17281952D02*
X11724524Y-17539095D01*
X12120714Y-17291476D02*
X12139762Y-17291476D01*
X12139762Y-17291476D02*
X12158810Y-17301000D01*
X12158810Y-17301000D02*
X12168333Y-17310524D01*
X12168333Y-17310524D02*
X12177857Y-17329571D01*
X12177857Y-17329571D02*
X12187381Y-17367667D01*
X12187381Y-17367667D02*
X12187381Y-17415286D01*
X12187381Y-17415286D02*
X12177857Y-17453381D01*
X12177857Y-17453381D02*
X12168333Y-17472429D01*
X12168333Y-17472429D02*
X12158810Y-17481952D01*
X12158810Y-17481952D02*
X12139762Y-17491476D01*
X12139762Y-17491476D02*
X12120714Y-17491476D01*
X12120714Y-17491476D02*
X12101667Y-17481952D01*
X12101667Y-17481952D02*
X12092143Y-17472429D01*
X12092143Y-17472429D02*
X12082619Y-17453381D01*
X12082619Y-17453381D02*
X12073095Y-17415286D01*
X12073095Y-17415286D02*
X12073095Y-17367667D01*
X12073095Y-17367667D02*
X12082619Y-17329571D01*
X12082619Y-17329571D02*
X12092143Y-17310524D01*
X12092143Y-17310524D02*
X12101667Y-17301000D01*
X12101667Y-17301000D02*
X12120714Y-17291476D01*
X12273095Y-17472429D02*
X12282619Y-17481952D01*
X12282619Y-17481952D02*
X12273095Y-17491476D01*
X12273095Y-17491476D02*
X12263571Y-17481952D01*
X12263571Y-17481952D02*
X12273095Y-17472429D01*
X12273095Y-17472429D02*
X12273095Y-17491476D01*
X12473095Y-17491476D02*
X12358810Y-17491476D01*
X12415952Y-17491476D02*
X12415952Y-17291476D01*
X12415952Y-17291476D02*
X12396905Y-17320048D01*
X12396905Y-17320048D02*
X12377857Y-17339095D01*
X12377857Y-17339095D02*
X12358810Y-17348619D01*
X12549286Y-17310524D02*
X12558810Y-17301000D01*
X12558810Y-17301000D02*
X12577857Y-17291476D01*
X12577857Y-17291476D02*
X12625476Y-17291476D01*
X12625476Y-17291476D02*
X12644524Y-17301000D01*
X12644524Y-17301000D02*
X12654048Y-17310524D01*
X12654048Y-17310524D02*
X12663571Y-17329571D01*
X12663571Y-17329571D02*
X12663571Y-17348619D01*
X12663571Y-17348619D02*
X12654048Y-17377190D01*
X12654048Y-17377190D02*
X12539762Y-17491476D01*
X12539762Y-17491476D02*
X12663571Y-17491476D01*
X12835000Y-17291476D02*
X12796905Y-17291476D01*
X12796905Y-17291476D02*
X12777857Y-17301000D01*
X12777857Y-17301000D02*
X12768333Y-17310524D01*
X12768333Y-17310524D02*
X12749286Y-17339095D01*
X12749286Y-17339095D02*
X12739762Y-17377190D01*
X12739762Y-17377190D02*
X12739762Y-17453381D01*
X12739762Y-17453381D02*
X12749286Y-17472429D01*
X12749286Y-17472429D02*
X12758810Y-17481952D01*
X12758810Y-17481952D02*
X12777857Y-17491476D01*
X12777857Y-17491476D02*
X12815952Y-17491476D01*
X12815952Y-17491476D02*
X12835000Y-17481952D01*
X12835000Y-17481952D02*
X12844524Y-17472429D01*
X12844524Y-17472429D02*
X12854048Y-17453381D01*
X12854048Y-17453381D02*
X12854048Y-17405762D01*
X12854048Y-17405762D02*
X12844524Y-17386714D01*
X12844524Y-17386714D02*
X12835000Y-17377190D01*
X12835000Y-17377190D02*
X12815952Y-17367667D01*
X12815952Y-17367667D02*
X12777857Y-17367667D01*
X12777857Y-17367667D02*
X12758810Y-17377190D01*
X12758810Y-17377190D02*
X12749286Y-17386714D01*
X12749286Y-17386714D02*
X12739762Y-17405762D01*
X12977857Y-17291476D02*
X12996905Y-17291476D01*
X12996905Y-17291476D02*
X13015952Y-17301000D01*
X13015952Y-17301000D02*
X13025476Y-17310524D01*
X13025476Y-17310524D02*
X13035000Y-17329571D01*
X13035000Y-17329571D02*
X13044524Y-17367667D01*
X13044524Y-17367667D02*
X13044524Y-17415286D01*
X13044524Y-17415286D02*
X13035000Y-17453381D01*
X13035000Y-17453381D02*
X13025476Y-17472429D01*
X13025476Y-17472429D02*
X13015952Y-17481952D01*
X13015952Y-17481952D02*
X12996905Y-17491476D01*
X12996905Y-17491476D02*
X12977857Y-17491476D01*
X12977857Y-17491476D02*
X12958810Y-17481952D01*
X12958810Y-17481952D02*
X12949286Y-17472429D01*
X12949286Y-17472429D02*
X12939762Y-17453381D01*
X12939762Y-17453381D02*
X12930238Y-17415286D01*
X12930238Y-17415286D02*
X12930238Y-17367667D01*
X12930238Y-17367667D02*
X12939762Y-17329571D01*
X12939762Y-17329571D02*
X12949286Y-17310524D01*
X12949286Y-17310524D02*
X12958810Y-17301000D01*
X12958810Y-17301000D02*
X12977857Y-17291476D01*
X13120714Y-17291476D02*
X13120714Y-17329571D01*
X13196905Y-17291476D02*
X13196905Y-17329571D01*
X13459762Y-17567667D02*
X13450238Y-17558143D01*
X13450238Y-17558143D02*
X13431191Y-17529571D01*
X13431191Y-17529571D02*
X13421667Y-17510524D01*
X13421667Y-17510524D02*
X13412143Y-17481952D01*
X13412143Y-17481952D02*
X13402619Y-17434333D01*
X13402619Y-17434333D02*
X13402619Y-17396238D01*
X13402619Y-17396238D02*
X13412143Y-17348619D01*
X13412143Y-17348619D02*
X13421667Y-17320048D01*
X13421667Y-17320048D02*
X13431191Y-17301000D01*
X13431191Y-17301000D02*
X13450238Y-17272429D01*
X13450238Y-17272429D02*
X13459762Y-17262905D01*
X13621667Y-17358143D02*
X13621667Y-17491476D01*
X13574048Y-17281952D02*
X13526429Y-17424810D01*
X13526429Y-17424810D02*
X13650238Y-17424810D01*
X13846429Y-17491476D02*
X13846429Y-17291476D01*
X13932143Y-17491476D02*
X13932143Y-17386714D01*
X13932143Y-17386714D02*
X13922619Y-17367667D01*
X13922619Y-17367667D02*
X13903572Y-17358143D01*
X13903572Y-17358143D02*
X13875000Y-17358143D01*
X13875000Y-17358143D02*
X13855952Y-17367667D01*
X13855952Y-17367667D02*
X13846429Y-17377190D01*
X14055952Y-17491476D02*
X14036905Y-17481952D01*
X14036905Y-17481952D02*
X14027381Y-17472429D01*
X14027381Y-17472429D02*
X14017857Y-17453381D01*
X14017857Y-17453381D02*
X14017857Y-17396238D01*
X14017857Y-17396238D02*
X14027381Y-17377190D01*
X14027381Y-17377190D02*
X14036905Y-17367667D01*
X14036905Y-17367667D02*
X14055952Y-17358143D01*
X14055952Y-17358143D02*
X14084524Y-17358143D01*
X14084524Y-17358143D02*
X14103572Y-17367667D01*
X14103572Y-17367667D02*
X14113095Y-17377190D01*
X14113095Y-17377190D02*
X14122619Y-17396238D01*
X14122619Y-17396238D02*
X14122619Y-17453381D01*
X14122619Y-17453381D02*
X14113095Y-17472429D01*
X14113095Y-17472429D02*
X14103572Y-17481952D01*
X14103572Y-17481952D02*
X14084524Y-17491476D01*
X14084524Y-17491476D02*
X14055952Y-17491476D01*
X14236905Y-17491476D02*
X14217857Y-17481952D01*
X14217857Y-17481952D02*
X14208333Y-17462905D01*
X14208333Y-17462905D02*
X14208333Y-17291476D01*
X14389286Y-17481952D02*
X14370238Y-17491476D01*
X14370238Y-17491476D02*
X14332143Y-17491476D01*
X14332143Y-17491476D02*
X14313095Y-17481952D01*
X14313095Y-17481952D02*
X14303572Y-17462905D01*
X14303572Y-17462905D02*
X14303572Y-17386714D01*
X14303572Y-17386714D02*
X14313095Y-17367667D01*
X14313095Y-17367667D02*
X14332143Y-17358143D01*
X14332143Y-17358143D02*
X14370238Y-17358143D01*
X14370238Y-17358143D02*
X14389286Y-17367667D01*
X14389286Y-17367667D02*
X14398810Y-17386714D01*
X14398810Y-17386714D02*
X14398810Y-17405762D01*
X14398810Y-17405762D02*
X14303572Y-17424810D01*
X14475000Y-17481952D02*
X14494048Y-17491476D01*
X14494048Y-17491476D02*
X14532143Y-17491476D01*
X14532143Y-17491476D02*
X14551191Y-17481952D01*
X14551191Y-17481952D02*
X14560714Y-17462905D01*
X14560714Y-17462905D02*
X14560714Y-17453381D01*
X14560714Y-17453381D02*
X14551191Y-17434333D01*
X14551191Y-17434333D02*
X14532143Y-17424810D01*
X14532143Y-17424810D02*
X14503572Y-17424810D01*
X14503572Y-17424810D02*
X14484524Y-17415286D01*
X14484524Y-17415286D02*
X14475000Y-17396238D01*
X14475000Y-17396238D02*
X14475000Y-17386714D01*
X14475000Y-17386714D02*
X14484524Y-17367667D01*
X14484524Y-17367667D02*
X14503572Y-17358143D01*
X14503572Y-17358143D02*
X14532143Y-17358143D01*
X14532143Y-17358143D02*
X14551191Y-17367667D01*
X14627381Y-17567667D02*
X14636905Y-17558143D01*
X14636905Y-17558143D02*
X14655953Y-17529571D01*
X14655953Y-17529571D02*
X14665476Y-17510524D01*
X14665476Y-17510524D02*
X14675000Y-17481952D01*
X14675000Y-17481952D02*
X14684524Y-17434333D01*
X14684524Y-17434333D02*
X14684524Y-17396238D01*
X14684524Y-17396238D02*
X14675000Y-17348619D01*
X14675000Y-17348619D02*
X14665476Y-17320048D01*
X14665476Y-17320048D02*
X14655953Y-17301000D01*
X14655953Y-17301000D02*
X14636905Y-17272429D01*
X14636905Y-17272429D02*
X14627381Y-17262905D01*
M02*
